%TF.GenerationSoftware,KiCad,Pcbnew,9.0.1*%
%TF.CreationDate,2025-05-06T20:53:02+02:00*%
%TF.ProjectId,apm,61706d2e-6b69-4636-9164-5f7063625858,rev?*%
%TF.SameCoordinates,Original*%
%TF.FileFunction,Soldermask,Top*%
%TF.FilePolarity,Negative*%
%FSLAX46Y46*%
G04 Gerber Fmt 4.6, Leading zero omitted, Abs format (unit mm)*
G04 Created by KiCad (PCBNEW 9.0.1) date 2025-05-06 20:53:02*
%MOMM*%
%LPD*%
G01*
G04 APERTURE LIST*
G04 Aperture macros list*
%AMRoundRect*
0 Rectangle with rounded corners*
0 $1 Rounding radius*
0 $2 $3 $4 $5 $6 $7 $8 $9 X,Y pos of 4 corners*
0 Add a 4 corners polygon primitive as box body*
4,1,4,$2,$3,$4,$5,$6,$7,$8,$9,$2,$3,0*
0 Add four circle primitives for the rounded corners*
1,1,$1+$1,$2,$3*
1,1,$1+$1,$4,$5*
1,1,$1+$1,$6,$7*
1,1,$1+$1,$8,$9*
0 Add four rect primitives between the rounded corners*
20,1,$1+$1,$2,$3,$4,$5,0*
20,1,$1+$1,$4,$5,$6,$7,0*
20,1,$1+$1,$6,$7,$8,$9,0*
20,1,$1+$1,$8,$9,$2,$3,0*%
%AMFreePoly0*
4,1,27,0.545019,1.545046,0.545046,1.545019,0.545050,1.545000,0.545050,-1.545000,0.545046,-1.545019,0.545019,-1.545046,0.545000,-1.545050,0.300500,-1.545050,0.300500,-4.315000,0.300462,-4.315191,0.300191,-4.315462,0.300000,-4.315500,-0.300000,-4.315500,-0.300191,-4.315462,-0.300462,-4.315191,-0.300500,-4.315000,-0.300500,-1.545050,-0.545000,-1.545050,-0.545019,-1.545046,-0.545046,-1.545019,
-0.545050,-1.545000,-0.545050,1.545000,-0.545046,1.545019,-0.545019,1.545046,-0.545000,1.545050,0.545000,1.545050,0.545019,1.545046,0.545019,1.545046,$1*%
%AMFreePoly1*
4,1,27,0.300191,4.550462,0.300462,4.550191,0.300500,4.550000,0.300500,1.310500,0.545000,1.310500,0.545191,1.310462,0.545462,1.310191,0.545500,1.310000,0.545500,-1.310000,0.545462,-1.310191,0.545191,-1.310462,0.545000,-1.310500,-0.545000,-1.310500,-0.545191,-1.310462,-0.545462,-1.310191,-0.545500,-1.310000,-0.545500,1.310000,-0.545462,1.310191,-0.545191,1.310462,-0.545000,1.310500,
-0.300500,1.310500,-0.300500,4.550000,-0.300462,4.550191,-0.300191,4.550462,-0.300000,4.550500,0.300000,4.550500,0.300191,4.550462,0.300191,4.550462,$1*%
G04 Aperture macros list end*
%ADD10C,0.010000*%
%ADD11C,1.000000*%
%ADD12RoundRect,0.200000X-0.200000X-0.275000X0.200000X-0.275000X0.200000X0.275000X-0.200000X0.275000X0*%
%ADD13RoundRect,0.225000X0.250000X-0.225000X0.250000X0.225000X-0.250000X0.225000X-0.250000X-0.225000X0*%
%ADD14RoundRect,0.250001X-0.799999X-0.799999X0.799999X-0.799999X0.799999X0.799999X-0.799999X0.799999X0*%
%ADD15C,2.100000*%
%ADD16C,2.540000*%
%ADD17C,4.000000*%
%ADD18C,2.400000*%
%ADD19R,1.700000X1.700000*%
%ADD20C,1.700000*%
%ADD21RoundRect,0.225000X-0.225000X-0.250000X0.225000X-0.250000X0.225000X0.250000X-0.225000X0.250000X0*%
%ADD22RoundRect,0.250000X0.650000X-0.325000X0.650000X0.325000X-0.650000X0.325000X-0.650000X-0.325000X0*%
%ADD23C,1.520000*%
%ADD24RoundRect,0.200000X-0.275000X0.200000X-0.275000X-0.200000X0.275000X-0.200000X0.275000X0.200000X0*%
%ADD25RoundRect,0.200000X0.200000X0.275000X-0.200000X0.275000X-0.200000X-0.275000X0.200000X-0.275000X0*%
%ADD26RoundRect,0.225000X-0.250000X0.225000X-0.250000X-0.225000X0.250000X-0.225000X0.250000X0.225000X0*%
%ADD27RoundRect,0.250000X0.325000X0.650000X-0.325000X0.650000X-0.325000X-0.650000X0.325000X-0.650000X0*%
%ADD28RoundRect,0.250000X-0.325000X-0.650000X0.325000X-0.650000X0.325000X0.650000X-0.325000X0.650000X0*%
%ADD29RoundRect,0.200000X0.275000X-0.200000X0.275000X0.200000X-0.275000X0.200000X-0.275000X-0.200000X0*%
%ADD30RoundRect,0.225000X0.225000X0.250000X-0.225000X0.250000X-0.225000X-0.250000X0.225000X-0.250000X0*%
%ADD31RoundRect,0.087500X0.087500X-0.425000X0.087500X0.425000X-0.087500X0.425000X-0.087500X-0.425000X0*%
%ADD32RoundRect,0.087500X0.425000X-0.087500X0.425000X0.087500X-0.425000X0.087500X-0.425000X-0.087500X0*%
%ADD33R,2.100000X2.100000*%
%ADD34C,3.000000*%
%ADD35RoundRect,0.250001X-1.599999X1.099999X-1.599999X-1.099999X1.599999X-1.099999X1.599999X1.099999X0*%
%ADD36O,3.700000X2.700000*%
%ADD37C,1.500000*%
%ADD38RoundRect,0.175000X-0.175000X-0.325000X0.175000X-0.325000X0.175000X0.325000X-0.175000X0.325000X0*%
%ADD39RoundRect,0.150000X-0.200000X-0.150000X0.200000X-0.150000X0.200000X0.150000X-0.200000X0.150000X0*%
%ADD40FreePoly0,0.000000*%
%ADD41FreePoly1,0.000000*%
%ADD42RoundRect,0.075000X0.662500X0.075000X-0.662500X0.075000X-0.662500X-0.075000X0.662500X-0.075000X0*%
%ADD43RoundRect,0.075000X0.075000X0.662500X-0.075000X0.662500X-0.075000X-0.662500X0.075000X-0.662500X0*%
%ADD44RoundRect,0.087500X0.425000X0.087500X-0.425000X0.087500X-0.425000X-0.087500X0.425000X-0.087500X0*%
%ADD45RoundRect,0.087500X0.087500X0.425000X-0.087500X0.425000X-0.087500X-0.425000X0.087500X-0.425000X0*%
%ADD46RoundRect,0.250001X1.974999X-1.262499X1.974999X1.262499X-1.974999X1.262499X-1.974999X-1.262499X0*%
%ADD47C,0.900000*%
%ADD48R,0.500000X2.500000*%
%ADD49R,2.000000X2.500000*%
%ADD50RoundRect,0.087500X-0.425000X-0.087500X0.425000X-0.087500X0.425000X0.087500X-0.425000X0.087500X0*%
%ADD51RoundRect,0.087500X-0.087500X-0.425000X0.087500X-0.425000X0.087500X0.425000X-0.087500X0.425000X0*%
G04 APERTURE END LIST*
D10*
%TO.C,J201*%
X151475000Y-111080000D02*
X83475000Y-111080000D01*
X83475000Y-104050000D01*
X151475000Y-104050000D01*
X151475000Y-111080000D01*
G36*
X151475000Y-111080000D02*
G01*
X83475000Y-111080000D01*
X83475000Y-104050000D01*
X151475000Y-104050000D01*
X151475000Y-111080000D01*
G37*
%TD*%
D11*
%TO.C,Y502*%
X172600000Y-64400000D03*
X171100000Y-64400000D03*
%TD*%
D12*
%TO.C,R501*%
X131475000Y-48800000D03*
X133125000Y-48800000D03*
%TD*%
D13*
%TO.C,C403*%
X108487500Y-45112500D03*
X108487500Y-43562500D03*
%TD*%
D14*
%TO.C,J306*%
X94520000Y-39900000D03*
D15*
X99600000Y-39900000D03*
%TD*%
D16*
%TO.C,J304*%
X165200000Y-45800000D03*
D17*
X170280000Y-38180000D03*
X180440000Y-38180000D03*
D16*
X185520000Y-45800000D03*
D18*
X182980000Y-48340000D03*
X177900000Y-48340000D03*
X172820000Y-48340000D03*
X167740000Y-48340000D03*
%TD*%
D19*
%TO.C,J502*%
X186480000Y-67900000D03*
D20*
X183940000Y-67900000D03*
X181400000Y-67900000D03*
X178860000Y-67900000D03*
%TD*%
D21*
%TO.C,C408*%
X157750000Y-78000000D03*
X159300000Y-78000000D03*
%TD*%
D22*
%TO.C,C204*%
X87100000Y-98775000D03*
X87100000Y-95825000D03*
%TD*%
D23*
%TO.C,J202*%
X84800000Y-54800000D03*
X85800000Y-52800000D03*
X86800000Y-54800000D03*
X87800000Y-52800000D03*
X88800000Y-54800000D03*
X89800000Y-52800000D03*
X90800000Y-54800000D03*
X91800000Y-52800000D03*
X92800000Y-54800000D03*
X93800000Y-52800000D03*
X94800000Y-54800000D03*
X95800000Y-52800000D03*
X96800000Y-54800000D03*
X97800000Y-52800000D03*
X98800000Y-54800000D03*
X99800000Y-52800000D03*
X100800000Y-54800000D03*
X101800000Y-52800000D03*
X102800000Y-54800000D03*
X103800000Y-52800000D03*
X104800000Y-54800000D03*
X105800000Y-52800000D03*
X106800000Y-54800000D03*
X107800000Y-52800000D03*
X108800000Y-54800000D03*
X109800000Y-52800000D03*
X110800000Y-54800000D03*
X111800000Y-52800000D03*
X112800000Y-54800000D03*
X113800000Y-52800000D03*
X114800000Y-54800000D03*
X115800000Y-52800000D03*
X116800000Y-54800000D03*
X117800000Y-52800000D03*
X118800000Y-54800000D03*
X119800000Y-52800000D03*
X120800000Y-54800000D03*
X121800000Y-52800000D03*
X122800000Y-54800000D03*
X123800000Y-52800000D03*
X124800000Y-54800000D03*
X125800000Y-52800000D03*
X126800000Y-54800000D03*
X127800000Y-52800000D03*
X128800000Y-54800000D03*
X129800000Y-52800000D03*
X130800000Y-54800000D03*
X131800000Y-52800000D03*
X132800000Y-54800000D03*
X133800000Y-52800000D03*
X134800000Y-54800000D03*
X135800000Y-52800000D03*
X136800000Y-54800000D03*
X137800000Y-52800000D03*
X138800000Y-54800000D03*
X139800000Y-52800000D03*
X140800000Y-54800000D03*
X141800000Y-52800000D03*
X142800000Y-54800000D03*
X143800000Y-52800000D03*
X144800000Y-54800000D03*
X145800000Y-52800000D03*
X146800000Y-54800000D03*
X147800000Y-52800000D03*
X148800000Y-54800000D03*
X149800000Y-52800000D03*
X84800000Y-58800000D03*
X85800000Y-56800000D03*
X86800000Y-58800000D03*
X87800000Y-56800000D03*
X88800000Y-58800000D03*
X89800000Y-56800000D03*
X90800000Y-58800000D03*
X91800000Y-56800000D03*
X92800000Y-58800000D03*
X93800000Y-56800000D03*
X94800000Y-58800000D03*
X95800000Y-56800000D03*
X96800000Y-58800000D03*
X97800000Y-56800000D03*
X98800000Y-58800000D03*
X99800000Y-56800000D03*
X100800000Y-58800000D03*
X101800000Y-56800000D03*
X102800000Y-58800000D03*
X103800000Y-56800000D03*
X104800000Y-58800000D03*
X105800000Y-56800000D03*
X106800000Y-58800000D03*
X107800000Y-56800000D03*
X108800000Y-58800000D03*
X109800000Y-56800000D03*
X110800000Y-58800000D03*
X111800000Y-56800000D03*
X112800000Y-58800000D03*
X113800000Y-56800000D03*
X114800000Y-58800000D03*
X115800000Y-56800000D03*
X116800000Y-58800000D03*
X117800000Y-56800000D03*
X118800000Y-58800000D03*
X119800000Y-56800000D03*
X120800000Y-58800000D03*
X121800000Y-56800000D03*
X122800000Y-58800000D03*
X123800000Y-56800000D03*
X124800000Y-58800000D03*
X125800000Y-56800000D03*
X126800000Y-58800000D03*
X127800000Y-56800000D03*
X128800000Y-58800000D03*
X129800000Y-56800000D03*
X130800000Y-58800000D03*
X131800000Y-56800000D03*
X132800000Y-58800000D03*
X133800000Y-56800000D03*
X134800000Y-58800000D03*
X135800000Y-56800000D03*
X136800000Y-58800000D03*
X137800000Y-56800000D03*
X138800000Y-58800000D03*
X139800000Y-56800000D03*
X140800000Y-58800000D03*
X141800000Y-56800000D03*
X142800000Y-58800000D03*
X143800000Y-56800000D03*
X144800000Y-58800000D03*
X145800000Y-56800000D03*
X146800000Y-58800000D03*
X147800000Y-56800000D03*
X148800000Y-58800000D03*
X149800000Y-56800000D03*
%TD*%
D24*
%TO.C,R427*%
X156100000Y-74775000D03*
X156100000Y-76425000D03*
%TD*%
D25*
%TO.C,R507*%
X186525000Y-65100000D03*
X184875000Y-65100000D03*
%TD*%
D14*
%TO.C,J305*%
X82920000Y-39900000D03*
D15*
X88000000Y-39900000D03*
%TD*%
D26*
%TO.C,C412*%
X162100000Y-86825000D03*
X162100000Y-88375000D03*
%TD*%
D27*
%TO.C,C211*%
X88175000Y-62700000D03*
X85225000Y-62700000D03*
%TD*%
D28*
%TO.C,C208*%
X99925000Y-49000000D03*
X102875000Y-49000000D03*
%TD*%
D29*
%TO.C,R419*%
X157725000Y-95725000D03*
X157725000Y-94075000D03*
%TD*%
D24*
%TO.C,R426*%
X154500000Y-74775000D03*
X154500000Y-76425000D03*
%TD*%
D29*
%TO.C,R416*%
X155925000Y-95725000D03*
X155925000Y-94075000D03*
%TD*%
D12*
%TO.C,R415*%
X105362500Y-43562500D03*
X107012500Y-43562500D03*
%TD*%
D30*
%TO.C,C406*%
X162675000Y-92500000D03*
X161125000Y-92500000D03*
%TD*%
D31*
%TO.C,U401*%
X111250000Y-43000000D03*
X111900000Y-43000000D03*
X112550000Y-43000000D03*
X113200000Y-43000000D03*
D32*
X114087500Y-42112500D03*
X114087500Y-41462500D03*
X114087500Y-40812500D03*
X114087500Y-40162500D03*
D31*
X113200000Y-39275000D03*
X112550000Y-39275000D03*
X111900000Y-39275000D03*
X111250000Y-39275000D03*
D32*
X110362500Y-40162500D03*
X110362500Y-40812500D03*
X110362500Y-41462500D03*
X110362500Y-42112500D03*
D33*
X112225000Y-41137500D03*
%TD*%
D21*
%TO.C,C409*%
X154525000Y-78000000D03*
X156075000Y-78000000D03*
%TD*%
D34*
%TO.C,J302*%
X181000000Y-73400000D03*
X181000000Y-81800000D03*
D35*
X173700000Y-73400000D03*
D36*
X173700000Y-77600000D03*
X173700000Y-81800000D03*
X168200000Y-73400000D03*
X168200000Y-77600000D03*
X168200000Y-81800000D03*
%TD*%
D24*
%TO.C,R425*%
X159350000Y-74775000D03*
X159350000Y-76425000D03*
%TD*%
D13*
%TO.C,C402*%
X108487500Y-41812500D03*
X108487500Y-40262500D03*
%TD*%
D12*
%TO.C,R413*%
X105362500Y-40237500D03*
X107012500Y-40237500D03*
%TD*%
D37*
%TO.C,Y501*%
X176400000Y-56950000D03*
X176400000Y-61830000D03*
%TD*%
D22*
%TO.C,C202*%
X99900000Y-98775000D03*
X99900000Y-95825000D03*
%TD*%
D30*
%TO.C,C404*%
X155925000Y-92500000D03*
X154375000Y-92500000D03*
%TD*%
D38*
%TO.C,D503*%
X181200000Y-63350000D03*
D39*
X181200000Y-65050000D03*
X183200000Y-65050000D03*
X183200000Y-63150000D03*
%TD*%
D29*
%TO.C,R421*%
X161125000Y-95725000D03*
X161125000Y-94075000D03*
%TD*%
D30*
%TO.C,C405*%
X159325000Y-92500000D03*
X157775000Y-92500000D03*
%TD*%
D24*
%TO.C,R424*%
X157750000Y-74775000D03*
X157750000Y-76425000D03*
%TD*%
D21*
%TO.C,C407*%
X161050000Y-78000000D03*
X162600000Y-78000000D03*
%TD*%
%TO.C,C505*%
X161225000Y-53200000D03*
X162775000Y-53200000D03*
%TD*%
D12*
%TO.C,R502*%
X131475000Y-47200000D03*
X133125000Y-47200000D03*
%TD*%
D40*
%TO.C,J201*%
X85070000Y-105600000D03*
D41*
X86065000Y-108605000D03*
D40*
X87060000Y-105600000D03*
D41*
X88055000Y-108605000D03*
D40*
X89050000Y-105600000D03*
D41*
X90045000Y-108605000D03*
D40*
X91040000Y-105600000D03*
D41*
X92035000Y-108605000D03*
D40*
X93030000Y-105600000D03*
D41*
X94025000Y-108605000D03*
D40*
X95020000Y-105600000D03*
D41*
X96015000Y-108605000D03*
D40*
X97010000Y-105600000D03*
D41*
X98005000Y-108605000D03*
D40*
X99000000Y-105600000D03*
D41*
X99995000Y-108605000D03*
D40*
X100990000Y-105600000D03*
D41*
X101985000Y-108605000D03*
D40*
X102980000Y-105600000D03*
D41*
X103975000Y-108605000D03*
D40*
X104970000Y-105600000D03*
D41*
X109945000Y-108605000D03*
D40*
X110940000Y-105600000D03*
D41*
X111935000Y-108605000D03*
D40*
X112930000Y-105600000D03*
D41*
X113925000Y-108605000D03*
D40*
X114920000Y-105600000D03*
D41*
X115915000Y-108605000D03*
D40*
X116910000Y-105600000D03*
D41*
X117905000Y-108605000D03*
D40*
X118900000Y-105600000D03*
D41*
X119895000Y-108605000D03*
D40*
X120890000Y-105600000D03*
D41*
X121885000Y-108605000D03*
D40*
X122880000Y-105600000D03*
D41*
X123875000Y-108605000D03*
D40*
X124870000Y-105600000D03*
D41*
X129845000Y-108605000D03*
D40*
X130840000Y-105600000D03*
D41*
X131835000Y-108605000D03*
D40*
X132830000Y-105600000D03*
D41*
X133825000Y-108605000D03*
D40*
X134820000Y-105600000D03*
D41*
X135815000Y-108605000D03*
D40*
X136810000Y-105600000D03*
D41*
X137805000Y-108605000D03*
D40*
X138800000Y-105600000D03*
D41*
X139795000Y-108605000D03*
D40*
X140790000Y-105600000D03*
D41*
X141785000Y-108605000D03*
D40*
X142780000Y-105600000D03*
D41*
X143775000Y-108605000D03*
D40*
X144770000Y-105600000D03*
D41*
X145765000Y-108605000D03*
D40*
X146760000Y-105600000D03*
D41*
X147755000Y-108605000D03*
D40*
X148750000Y-105600000D03*
D41*
X149745000Y-108605000D03*
%TD*%
D42*
%TO.C,U502*%
X168962500Y-62050000D03*
X168962500Y-61550000D03*
X168962500Y-61050000D03*
X168962500Y-60550000D03*
X168962500Y-60050000D03*
X168962500Y-59550000D03*
X168962500Y-59050000D03*
X168962500Y-58550000D03*
X168962500Y-58050000D03*
X168962500Y-57550000D03*
X168962500Y-57050000D03*
X168962500Y-56550000D03*
D43*
X167550000Y-55137500D03*
X167050000Y-55137500D03*
X166550000Y-55137500D03*
X166050000Y-55137500D03*
X165550000Y-55137500D03*
X165050000Y-55137500D03*
X164550000Y-55137500D03*
X164050000Y-55137500D03*
X163550000Y-55137500D03*
X163050000Y-55137500D03*
X162550000Y-55137500D03*
X162050000Y-55137500D03*
D42*
X160637500Y-56550000D03*
X160637500Y-57050000D03*
X160637500Y-57550000D03*
X160637500Y-58050000D03*
X160637500Y-58550000D03*
X160637500Y-59050000D03*
X160637500Y-59550000D03*
X160637500Y-60050000D03*
X160637500Y-60550000D03*
X160637500Y-61050000D03*
X160637500Y-61550000D03*
X160637500Y-62050000D03*
D43*
X162050000Y-63462500D03*
X162550000Y-63462500D03*
X163050000Y-63462500D03*
X163550000Y-63462500D03*
X164050000Y-63462500D03*
X164550000Y-63462500D03*
X165050000Y-63462500D03*
X165550000Y-63462500D03*
X166050000Y-63462500D03*
X166550000Y-63462500D03*
X167050000Y-63462500D03*
X167550000Y-63462500D03*
%TD*%
D16*
%TO.C,J303*%
X138980000Y-45800000D03*
D17*
X144060000Y-38180000D03*
X154220000Y-38180000D03*
D16*
X159300000Y-45800000D03*
D18*
X156760000Y-48340000D03*
X151680000Y-48340000D03*
X146600000Y-48340000D03*
X141520000Y-48340000D03*
%TD*%
D21*
%TO.C,C512*%
X171125000Y-55100000D03*
X172675000Y-55100000D03*
%TD*%
D13*
%TO.C,C504*%
X158600000Y-63075000D03*
X158600000Y-61525000D03*
%TD*%
D29*
%TO.C,R511*%
X163675000Y-68650000D03*
X163675000Y-67000000D03*
%TD*%
D19*
%TO.C,J503*%
X174480000Y-67900000D03*
D20*
X171940000Y-67900000D03*
X169400000Y-67900000D03*
X166860000Y-67900000D03*
%TD*%
D28*
%TO.C,C207*%
X80325000Y-62700000D03*
X83275000Y-62700000D03*
%TD*%
D29*
%TO.C,R504*%
X169500000Y-55125000D03*
X169500000Y-53475000D03*
%TD*%
%TO.C,R418*%
X159325000Y-95725000D03*
X159325000Y-94075000D03*
%TD*%
D30*
%TO.C,C506*%
X168500000Y-65200000D03*
X166950000Y-65200000D03*
%TD*%
D24*
%TO.C,R423*%
X162600000Y-74775000D03*
X162600000Y-76425000D03*
%TD*%
D28*
%TO.C,C210*%
X117900000Y-49100000D03*
X120850000Y-49100000D03*
%TD*%
%TO.C,C212*%
X92750000Y-62600000D03*
X95700000Y-62600000D03*
%TD*%
%TO.C,C209*%
X130825000Y-62600000D03*
X133775000Y-62600000D03*
%TD*%
D24*
%TO.C,R422*%
X161000000Y-74775000D03*
X161000000Y-76425000D03*
%TD*%
D44*
%TO.C,U402*%
X160387500Y-89737500D03*
X160387500Y-89087500D03*
X160387500Y-88437500D03*
X160387500Y-87787500D03*
D45*
X159500000Y-86900000D03*
X158850000Y-86900000D03*
X158200000Y-86900000D03*
X157550000Y-86900000D03*
D44*
X156662500Y-87787500D03*
X156662500Y-88437500D03*
X156662500Y-89087500D03*
X156662500Y-89737500D03*
D45*
X157550000Y-90625000D03*
X158200000Y-90625000D03*
X158850000Y-90625000D03*
X159500000Y-90625000D03*
D33*
X158525000Y-88762500D03*
%TD*%
D30*
%TO.C,C410*%
X114175000Y-44800000D03*
X112625000Y-44800000D03*
%TD*%
D46*
%TO.C,R403*%
X81300000Y-83612500D03*
X81300000Y-78587500D03*
%TD*%
D12*
%TO.C,R411*%
X105362500Y-36962500D03*
X107012500Y-36962500D03*
%TD*%
D34*
%TO.C,J301*%
X181000000Y-88600000D03*
X181000000Y-97000000D03*
D35*
X173700000Y-88600000D03*
D36*
X173700000Y-92800000D03*
X173700000Y-97000000D03*
X168200000Y-88600000D03*
X168200000Y-92800000D03*
X168200000Y-97000000D03*
%TD*%
D21*
%TO.C,C507*%
X171125000Y-56800000D03*
X172675000Y-56800000D03*
%TD*%
D22*
%TO.C,C203*%
X117900000Y-98775000D03*
X117900000Y-95825000D03*
%TD*%
D12*
%TO.C,R414*%
X105362500Y-45162500D03*
X107012500Y-45162500D03*
%TD*%
%TO.C,R412*%
X105362500Y-41837500D03*
X107012500Y-41837500D03*
%TD*%
D29*
%TO.C,R417*%
X154325000Y-95725000D03*
X154325000Y-94075000D03*
%TD*%
D12*
%TO.C,R410*%
X105362500Y-38562500D03*
X107012500Y-38562500D03*
%TD*%
D47*
%TO.C,J501*%
X130325000Y-41325000D03*
X125925000Y-41325000D03*
D48*
X129725000Y-43925000D03*
X128925000Y-43925000D03*
X128125000Y-43925000D03*
X127325000Y-43925000D03*
X126525000Y-43925000D03*
D49*
X132525000Y-43925000D03*
X132525000Y-38425000D03*
X123725000Y-43925000D03*
X123725000Y-38425000D03*
%TD*%
D38*
%TO.C,D501*%
X126625000Y-47300000D03*
D39*
X126625000Y-49000000D03*
X128625000Y-49000000D03*
X128625000Y-47100000D03*
%TD*%
D29*
%TO.C,R505*%
X135200000Y-47325000D03*
X135200000Y-45675000D03*
%TD*%
D13*
%TO.C,C401*%
X108487500Y-38562500D03*
X108487500Y-37012500D03*
%TD*%
D50*
%TO.C,U403*%
X156662500Y-81300000D03*
X156662500Y-81950000D03*
X156662500Y-82600000D03*
X156662500Y-83250000D03*
D51*
X157550000Y-84137500D03*
X158200000Y-84137500D03*
X158850000Y-84137500D03*
X159500000Y-84137500D03*
D50*
X160387500Y-83250000D03*
X160387500Y-82600000D03*
X160387500Y-81950000D03*
X160387500Y-81300000D03*
D51*
X159500000Y-80412500D03*
X158850000Y-80412500D03*
X158200000Y-80412500D03*
X157550000Y-80412500D03*
D33*
X158525000Y-82275000D03*
%TD*%
D25*
%TO.C,R506*%
X186525000Y-63500000D03*
X184875000Y-63500000D03*
%TD*%
D46*
%TO.C,R405*%
X88300000Y-83612500D03*
X88300000Y-78587500D03*
%TD*%
%TO.C,R404*%
X117700000Y-83512500D03*
X117700000Y-78487500D03*
%TD*%
%TO.C,R406*%
X110700000Y-83512500D03*
X110700000Y-78487500D03*
%TD*%
D13*
%TO.C,C411*%
X155000000Y-84275000D03*
X155000000Y-82725000D03*
%TD*%
D29*
%TO.C,R420*%
X162725000Y-95725000D03*
X162725000Y-94075000D03*
%TD*%
D19*
%TO.C,J205*%
X117700000Y-72775000D03*
D20*
X117700000Y-70235000D03*
%TD*%
D19*
%TO.C,J204*%
X110700000Y-72775000D03*
D20*
X110700000Y-70235000D03*
%TD*%
D19*
%TO.C,J208*%
X81300000Y-92575000D03*
D20*
X81300000Y-90035000D03*
%TD*%
D19*
%TO.C,J209*%
X110700000Y-92575000D03*
D20*
X110700000Y-90035000D03*
%TD*%
D19*
%TO.C,J206*%
X88300000Y-72775000D03*
D20*
X88300000Y-70235000D03*
%TD*%
D19*
%TO.C,J210*%
X117700000Y-92575000D03*
D20*
X117700000Y-90035000D03*
%TD*%
D19*
%TO.C,J203*%
X81300000Y-72775000D03*
D20*
X81300000Y-70235000D03*
%TD*%
D19*
%TO.C,J207*%
X151700000Y-72775000D03*
D20*
X151700000Y-70235000D03*
%TD*%
D19*
%TO.C,J211*%
X88300000Y-92575000D03*
D20*
X88300000Y-90035000D03*
%TD*%
D19*
%TO.C,J212*%
X151700000Y-92575000D03*
D20*
X151700000Y-90035000D03*
%TD*%
M02*
