%TF.GenerationSoftware,KiCad,Pcbnew,9.0.1*%
%TF.CreationDate,2025-05-06T20:53:02+02:00*%
%TF.ProjectId,apm,61706d2e-6b69-4636-9164-5f7063625858,rev?*%
%TF.SameCoordinates,Original*%
%TF.FileFunction,Legend,Bot*%
%TF.FilePolarity,Positive*%
%FSLAX46Y46*%
G04 Gerber Fmt 4.6, Leading zero omitted, Abs format (unit mm)*
G04 Created by KiCad (PCBNEW 9.0.1) date 2025-05-06 20:53:02*
%MOMM*%
%LPD*%
G01*
G04 APERTURE LIST*
%ADD10C,0.100000*%
%ADD11C,1.000000*%
%ADD12C,0.500000*%
%ADD13C,0.400000*%
%ADD14C,0.150000*%
%ADD15C,0.200000*%
%ADD16C,0.600000*%
%ADD17C,0.120000*%
G04 APERTURE END LIST*
D10*
X179500000Y-60500000D02*
X179500000Y-57300000D01*
X186767544Y-99300000D02*
G75*
G02*
X187383686Y-99200000I299956J100000D01*
G01*
D11*
X185500000Y-77600000D02*
X183600000Y-77600000D01*
D10*
X187700000Y-66800000D02*
X168000000Y-66800000D01*
X188400000Y-60500000D02*
X186800000Y-60500000D01*
X187200000Y-77600000D02*
X185500000Y-79300000D01*
X185500000Y-75900000D01*
X187200000Y-77600000D01*
G36*
X187200000Y-77600000D02*
G01*
X185500000Y-79300000D01*
X185500000Y-75900000D01*
X187200000Y-77600000D01*
G37*
X101300000Y-37200000D02*
X97900000Y-37200000D01*
X99600000Y-35500000D01*
X101300000Y-37200000D01*
G36*
X101300000Y-37200000D02*
G01*
X97900000Y-37200000D01*
X99600000Y-35500000D01*
X101300000Y-37200000D01*
G37*
D11*
X175500000Y-38250000D02*
X175500000Y-40150000D01*
D10*
X177200000Y-38250000D02*
X173800000Y-38250000D01*
X175500000Y-36550000D01*
X177200000Y-38250000D01*
G36*
X177200000Y-38250000D02*
G01*
X173800000Y-38250000D01*
X175500000Y-36550000D01*
X177200000Y-38250000D01*
G37*
X184900000Y-94500000D02*
X183200000Y-92800000D01*
X184900000Y-91100000D01*
X184900000Y-94500000D01*
G36*
X184900000Y-94500000D02*
G01*
X183200000Y-92800000D01*
X184900000Y-91100000D01*
X184900000Y-94500000D01*
G37*
X168000000Y-59000000D02*
X168000000Y-64100000D01*
X188400000Y-50900000D02*
X188400000Y-60500000D01*
X179500000Y-57300000D02*
X183400000Y-57300000D01*
X187700000Y-62000000D02*
X187700000Y-66800000D01*
D12*
X75000000Y-81000000D02*
X154000000Y-81000000D01*
D10*
X187400000Y-100100000D02*
X186767544Y-99300000D01*
X183400000Y-57300000D02*
X183400000Y-50900000D01*
D11*
X149100000Y-38850000D02*
X149100000Y-36950000D01*
D10*
X82925000Y-37225000D02*
X81225000Y-35525000D01*
X84625000Y-35525000D01*
X82925000Y-37225000D01*
G36*
X82925000Y-37225000D02*
G01*
X81225000Y-35525000D01*
X84625000Y-35525000D01*
X82925000Y-37225000D01*
G37*
X94525000Y-37225000D02*
X92825000Y-35525000D01*
X96225000Y-35525000D01*
X94525000Y-37225000D01*
G36*
X94525000Y-37225000D02*
G01*
X92825000Y-35525000D01*
X96225000Y-35525000D01*
X94525000Y-37225000D01*
G37*
X183400000Y-50900000D02*
X188400000Y-50900000D01*
X188000000Y-99300000D02*
X187400000Y-100100000D01*
X183300000Y-60500000D02*
X179500000Y-60500000D01*
X162000000Y-59000000D02*
X162000000Y-64000000D01*
X89700000Y-37200000D02*
X86300000Y-37200000D01*
X88000000Y-35500000D01*
X89700000Y-37200000D01*
G36*
X89700000Y-37200000D02*
G01*
X86300000Y-37200000D01*
X88000000Y-35500000D01*
X89700000Y-37200000D01*
G37*
X149100000Y-40550000D02*
X147400000Y-38850000D01*
X150800000Y-38850000D01*
X149100000Y-40550000D01*
G36*
X149100000Y-40550000D02*
G01*
X147400000Y-38850000D01*
X150800000Y-38850000D01*
X149100000Y-40550000D01*
G37*
D11*
X184900000Y-92800000D02*
X186800000Y-92800000D01*
D10*
X187383772Y-99200000D02*
G75*
G02*
X188000000Y-99300000I316228J0D01*
G01*
X168000000Y-66800000D02*
X168000000Y-64000000D01*
X188400000Y-62000000D02*
X187000000Y-62000000D01*
X187700000Y-61300000D01*
X188400000Y-62000000D01*
G36*
X188400000Y-62000000D02*
G01*
X187000000Y-62000000D01*
X187700000Y-61300000D01*
X188400000Y-62000000D01*
G37*
X168000000Y-59000000D02*
X162000000Y-59000000D01*
X168000000Y-64000000D02*
X162000000Y-64000000D01*
D13*
X106334438Y-68748871D02*
X106334438Y-69986966D01*
X106334438Y-69986966D02*
X107096342Y-69320299D01*
X107096342Y-69320299D02*
X107096342Y-69606014D01*
X107096342Y-69606014D02*
X107191580Y-69796490D01*
X107191580Y-69796490D02*
X107286819Y-69891728D01*
X107286819Y-69891728D02*
X107477295Y-69986966D01*
X107477295Y-69986966D02*
X107953485Y-69986966D01*
X107953485Y-69986966D02*
X108143961Y-69891728D01*
X108143961Y-69891728D02*
X108239200Y-69796490D01*
X108239200Y-69796490D02*
X108334438Y-69606014D01*
X108334438Y-69606014D02*
X108334438Y-69034585D01*
X108334438Y-69034585D02*
X108239200Y-68844109D01*
X108239200Y-68844109D02*
X108143961Y-68748871D01*
X108143961Y-70844109D02*
X108239200Y-70939347D01*
X108239200Y-70939347D02*
X108334438Y-70844109D01*
X108334438Y-70844109D02*
X108239200Y-70748871D01*
X108239200Y-70748871D02*
X108143961Y-70844109D01*
X108143961Y-70844109D02*
X108334438Y-70844109D01*
X106334438Y-71606014D02*
X106334438Y-72844109D01*
X106334438Y-72844109D02*
X107096342Y-72177442D01*
X107096342Y-72177442D02*
X107096342Y-72463157D01*
X107096342Y-72463157D02*
X107191580Y-72653633D01*
X107191580Y-72653633D02*
X107286819Y-72748871D01*
X107286819Y-72748871D02*
X107477295Y-72844109D01*
X107477295Y-72844109D02*
X107953485Y-72844109D01*
X107953485Y-72844109D02*
X108143961Y-72748871D01*
X108143961Y-72748871D02*
X108239200Y-72653633D01*
X108239200Y-72653633D02*
X108334438Y-72463157D01*
X108334438Y-72463157D02*
X108334438Y-71891728D01*
X108334438Y-71891728D02*
X108239200Y-71701252D01*
X108239200Y-71701252D02*
X108143961Y-71606014D01*
X106334438Y-73415538D02*
X108334438Y-74082204D01*
X108334438Y-74082204D02*
X106334438Y-74748871D01*
X79034438Y-69886966D02*
X79034438Y-68744109D01*
X79034438Y-69315537D02*
X77034438Y-69315537D01*
X77034438Y-69315537D02*
X77320152Y-69125061D01*
X77320152Y-69125061D02*
X77510628Y-68934585D01*
X77510628Y-68934585D02*
X77605866Y-68744109D01*
X77224914Y-70648871D02*
X77129676Y-70744109D01*
X77129676Y-70744109D02*
X77034438Y-70934585D01*
X77034438Y-70934585D02*
X77034438Y-71410776D01*
X77034438Y-71410776D02*
X77129676Y-71601252D01*
X77129676Y-71601252D02*
X77224914Y-71696490D01*
X77224914Y-71696490D02*
X77415390Y-71791728D01*
X77415390Y-71791728D02*
X77605866Y-71791728D01*
X77605866Y-71791728D02*
X77891580Y-71696490D01*
X77891580Y-71696490D02*
X79034438Y-70553633D01*
X79034438Y-70553633D02*
X79034438Y-71791728D01*
X77034438Y-72363157D02*
X79034438Y-73029823D01*
X79034438Y-73029823D02*
X77034438Y-73696490D01*
X102855890Y-48824914D02*
X102760652Y-48729676D01*
X102760652Y-48729676D02*
X102570176Y-48634438D01*
X102570176Y-48634438D02*
X102093985Y-48634438D01*
X102093985Y-48634438D02*
X101903509Y-48729676D01*
X101903509Y-48729676D02*
X101808271Y-48824914D01*
X101808271Y-48824914D02*
X101713033Y-49015390D01*
X101713033Y-49015390D02*
X101713033Y-49205866D01*
X101713033Y-49205866D02*
X101808271Y-49491580D01*
X101808271Y-49491580D02*
X102951128Y-50634438D01*
X102951128Y-50634438D02*
X101713033Y-50634438D01*
X99998747Y-48634438D02*
X100379700Y-48634438D01*
X100379700Y-48634438D02*
X100570176Y-48729676D01*
X100570176Y-48729676D02*
X100665414Y-48824914D01*
X100665414Y-48824914D02*
X100855890Y-49110628D01*
X100855890Y-49110628D02*
X100951128Y-49491580D01*
X100951128Y-49491580D02*
X100951128Y-50253485D01*
X100951128Y-50253485D02*
X100855890Y-50443961D01*
X100855890Y-50443961D02*
X100760652Y-50539200D01*
X100760652Y-50539200D02*
X100570176Y-50634438D01*
X100570176Y-50634438D02*
X100189223Y-50634438D01*
X100189223Y-50634438D02*
X99998747Y-50539200D01*
X99998747Y-50539200D02*
X99903509Y-50443961D01*
X99903509Y-50443961D02*
X99808271Y-50253485D01*
X99808271Y-50253485D02*
X99808271Y-49777295D01*
X99808271Y-49777295D02*
X99903509Y-49586819D01*
X99903509Y-49586819D02*
X99998747Y-49491580D01*
X99998747Y-49491580D02*
X100189223Y-49396342D01*
X100189223Y-49396342D02*
X100570176Y-49396342D01*
X100570176Y-49396342D02*
X100760652Y-49491580D01*
X100760652Y-49491580D02*
X100855890Y-49586819D01*
X100855890Y-49586819D02*
X100951128Y-49777295D01*
X99236842Y-48634438D02*
X98570176Y-50634438D01*
X98570176Y-50634438D02*
X97903509Y-48634438D01*
X94284461Y-48539200D02*
X95998746Y-51110628D01*
X91046365Y-50634438D02*
X92189222Y-50634438D01*
X91617794Y-50634438D02*
X91617794Y-48634438D01*
X91617794Y-48634438D02*
X91808270Y-48920152D01*
X91808270Y-48920152D02*
X91998746Y-49110628D01*
X91998746Y-49110628D02*
X92189222Y-49205866D01*
X89808270Y-48634438D02*
X89617793Y-48634438D01*
X89617793Y-48634438D02*
X89427317Y-48729676D01*
X89427317Y-48729676D02*
X89332079Y-48824914D01*
X89332079Y-48824914D02*
X89236841Y-49015390D01*
X89236841Y-49015390D02*
X89141603Y-49396342D01*
X89141603Y-49396342D02*
X89141603Y-49872533D01*
X89141603Y-49872533D02*
X89236841Y-50253485D01*
X89236841Y-50253485D02*
X89332079Y-50443961D01*
X89332079Y-50443961D02*
X89427317Y-50539200D01*
X89427317Y-50539200D02*
X89617793Y-50634438D01*
X89617793Y-50634438D02*
X89808270Y-50634438D01*
X89808270Y-50634438D02*
X89998746Y-50539200D01*
X89998746Y-50539200D02*
X90093984Y-50443961D01*
X90093984Y-50443961D02*
X90189222Y-50253485D01*
X90189222Y-50253485D02*
X90284460Y-49872533D01*
X90284460Y-49872533D02*
X90284460Y-49396342D01*
X90284460Y-49396342D02*
X90189222Y-49015390D01*
X90189222Y-49015390D02*
X90093984Y-48824914D01*
X90093984Y-48824914D02*
X89998746Y-48729676D01*
X89998746Y-48729676D02*
X89808270Y-48634438D01*
X88379698Y-50063009D02*
X87427317Y-50063009D01*
X88570174Y-50634438D02*
X87903508Y-48634438D01*
X87903508Y-48634438D02*
X87236841Y-50634438D01*
X85046364Y-50634438D02*
X85046364Y-49301104D01*
X85046364Y-49491580D02*
X84951126Y-49396342D01*
X84951126Y-49396342D02*
X84760650Y-49301104D01*
X84760650Y-49301104D02*
X84474935Y-49301104D01*
X84474935Y-49301104D02*
X84284459Y-49396342D01*
X84284459Y-49396342D02*
X84189221Y-49586819D01*
X84189221Y-49586819D02*
X84189221Y-50634438D01*
X84189221Y-49586819D02*
X84093983Y-49396342D01*
X84093983Y-49396342D02*
X83903507Y-49301104D01*
X83903507Y-49301104D02*
X83617793Y-49301104D01*
X83617793Y-49301104D02*
X83427316Y-49396342D01*
X83427316Y-49396342D02*
X83332078Y-49586819D01*
X83332078Y-49586819D02*
X83332078Y-50634438D01*
X81522554Y-50634438D02*
X81522554Y-49586819D01*
X81522554Y-49586819D02*
X81617792Y-49396342D01*
X81617792Y-49396342D02*
X81808268Y-49301104D01*
X81808268Y-49301104D02*
X82189221Y-49301104D01*
X82189221Y-49301104D02*
X82379697Y-49396342D01*
X81522554Y-50539200D02*
X81713030Y-50634438D01*
X81713030Y-50634438D02*
X82189221Y-50634438D01*
X82189221Y-50634438D02*
X82379697Y-50539200D01*
X82379697Y-50539200D02*
X82474935Y-50348723D01*
X82474935Y-50348723D02*
X82474935Y-50158247D01*
X82474935Y-50158247D02*
X82379697Y-49967771D01*
X82379697Y-49967771D02*
X82189221Y-49872533D01*
X82189221Y-49872533D02*
X81713030Y-49872533D01*
X81713030Y-49872533D02*
X81522554Y-49777295D01*
X80760649Y-50634438D02*
X79713030Y-49301104D01*
X80760649Y-49301104D02*
X79713030Y-50634438D01*
X78951125Y-50443961D02*
X78855887Y-50539200D01*
X78855887Y-50539200D02*
X78951125Y-50634438D01*
X78951125Y-50634438D02*
X79046363Y-50539200D01*
X79046363Y-50539200D02*
X78951125Y-50443961D01*
X78951125Y-50443961D02*
X78951125Y-50634438D01*
X139960652Y-84134438D02*
X139960652Y-82134438D01*
X139008271Y-84134438D02*
X139008271Y-82134438D01*
X139008271Y-82134438D02*
X137865414Y-84134438D01*
X137865414Y-84134438D02*
X137865414Y-82134438D01*
X136913033Y-84134438D02*
X136913033Y-82134438D01*
X136913033Y-82134438D02*
X136151128Y-82134438D01*
X136151128Y-82134438D02*
X135960652Y-82229676D01*
X135960652Y-82229676D02*
X135865414Y-82324914D01*
X135865414Y-82324914D02*
X135770176Y-82515390D01*
X135770176Y-82515390D02*
X135770176Y-82801104D01*
X135770176Y-82801104D02*
X135865414Y-82991580D01*
X135865414Y-82991580D02*
X135960652Y-83086819D01*
X135960652Y-83086819D02*
X136151128Y-83182057D01*
X136151128Y-83182057D02*
X136913033Y-83182057D01*
X134913033Y-82134438D02*
X134913033Y-83753485D01*
X134913033Y-83753485D02*
X134817795Y-83943961D01*
X134817795Y-83943961D02*
X134722557Y-84039200D01*
X134722557Y-84039200D02*
X134532081Y-84134438D01*
X134532081Y-84134438D02*
X134151128Y-84134438D01*
X134151128Y-84134438D02*
X133960652Y-84039200D01*
X133960652Y-84039200D02*
X133865414Y-83943961D01*
X133865414Y-83943961D02*
X133770176Y-83753485D01*
X133770176Y-83753485D02*
X133770176Y-82134438D01*
X133103509Y-82134438D02*
X131960652Y-82134438D01*
X132532081Y-84134438D02*
X132532081Y-82134438D01*
X106334438Y-88148871D02*
X106334438Y-89386966D01*
X106334438Y-89386966D02*
X107096342Y-88720299D01*
X107096342Y-88720299D02*
X107096342Y-89006014D01*
X107096342Y-89006014D02*
X107191580Y-89196490D01*
X107191580Y-89196490D02*
X107286819Y-89291728D01*
X107286819Y-89291728D02*
X107477295Y-89386966D01*
X107477295Y-89386966D02*
X107953485Y-89386966D01*
X107953485Y-89386966D02*
X108143961Y-89291728D01*
X108143961Y-89291728D02*
X108239200Y-89196490D01*
X108239200Y-89196490D02*
X108334438Y-89006014D01*
X108334438Y-89006014D02*
X108334438Y-88434585D01*
X108334438Y-88434585D02*
X108239200Y-88244109D01*
X108239200Y-88244109D02*
X108143961Y-88148871D01*
X108143961Y-90244109D02*
X108239200Y-90339347D01*
X108239200Y-90339347D02*
X108334438Y-90244109D01*
X108334438Y-90244109D02*
X108239200Y-90148871D01*
X108239200Y-90148871D02*
X108143961Y-90244109D01*
X108143961Y-90244109D02*
X108334438Y-90244109D01*
X106334438Y-91006014D02*
X106334438Y-92244109D01*
X106334438Y-92244109D02*
X107096342Y-91577442D01*
X107096342Y-91577442D02*
X107096342Y-91863157D01*
X107096342Y-91863157D02*
X107191580Y-92053633D01*
X107191580Y-92053633D02*
X107286819Y-92148871D01*
X107286819Y-92148871D02*
X107477295Y-92244109D01*
X107477295Y-92244109D02*
X107953485Y-92244109D01*
X107953485Y-92244109D02*
X108143961Y-92148871D01*
X108143961Y-92148871D02*
X108239200Y-92053633D01*
X108239200Y-92053633D02*
X108334438Y-91863157D01*
X108334438Y-91863157D02*
X108334438Y-91291728D01*
X108334438Y-91291728D02*
X108239200Y-91101252D01*
X108239200Y-91101252D02*
X108143961Y-91006014D01*
X106334438Y-92815538D02*
X108334438Y-93482204D01*
X108334438Y-93482204D02*
X106334438Y-94148871D01*
X90734438Y-92191728D02*
X90734438Y-91239347D01*
X90734438Y-91239347D02*
X91686819Y-91144109D01*
X91686819Y-91144109D02*
X91591580Y-91239347D01*
X91591580Y-91239347D02*
X91496342Y-91429823D01*
X91496342Y-91429823D02*
X91496342Y-91906014D01*
X91496342Y-91906014D02*
X91591580Y-92096490D01*
X91591580Y-92096490D02*
X91686819Y-92191728D01*
X91686819Y-92191728D02*
X91877295Y-92286966D01*
X91877295Y-92286966D02*
X92353485Y-92286966D01*
X92353485Y-92286966D02*
X92543961Y-92191728D01*
X92543961Y-92191728D02*
X92639200Y-92096490D01*
X92639200Y-92096490D02*
X92734438Y-91906014D01*
X92734438Y-91906014D02*
X92734438Y-91429823D01*
X92734438Y-91429823D02*
X92639200Y-91239347D01*
X92639200Y-91239347D02*
X92543961Y-91144109D01*
X90734438Y-92858395D02*
X92734438Y-93525061D01*
X92734438Y-93525061D02*
X90734438Y-94191728D01*
X139579700Y-77834438D02*
X139198747Y-77834438D01*
X139198747Y-77834438D02*
X139008271Y-77929676D01*
X139008271Y-77929676D02*
X138817795Y-78120152D01*
X138817795Y-78120152D02*
X138722557Y-78501104D01*
X138722557Y-78501104D02*
X138722557Y-79167771D01*
X138722557Y-79167771D02*
X138817795Y-79548723D01*
X138817795Y-79548723D02*
X139008271Y-79739200D01*
X139008271Y-79739200D02*
X139198747Y-79834438D01*
X139198747Y-79834438D02*
X139579700Y-79834438D01*
X139579700Y-79834438D02*
X139770176Y-79739200D01*
X139770176Y-79739200D02*
X139960652Y-79548723D01*
X139960652Y-79548723D02*
X140055890Y-79167771D01*
X140055890Y-79167771D02*
X140055890Y-78501104D01*
X140055890Y-78501104D02*
X139960652Y-78120152D01*
X139960652Y-78120152D02*
X139770176Y-77929676D01*
X139770176Y-77929676D02*
X139579700Y-77834438D01*
X137865414Y-77834438D02*
X137865414Y-79453485D01*
X137865414Y-79453485D02*
X137770176Y-79643961D01*
X137770176Y-79643961D02*
X137674938Y-79739200D01*
X137674938Y-79739200D02*
X137484462Y-79834438D01*
X137484462Y-79834438D02*
X137103509Y-79834438D01*
X137103509Y-79834438D02*
X136913033Y-79739200D01*
X136913033Y-79739200D02*
X136817795Y-79643961D01*
X136817795Y-79643961D02*
X136722557Y-79453485D01*
X136722557Y-79453485D02*
X136722557Y-77834438D01*
X136055890Y-77834438D02*
X134913033Y-77834438D01*
X135484462Y-79834438D02*
X135484462Y-77834438D01*
X134246366Y-79834438D02*
X134246366Y-77834438D01*
X134246366Y-77834438D02*
X133484461Y-77834438D01*
X133484461Y-77834438D02*
X133293985Y-77929676D01*
X133293985Y-77929676D02*
X133198747Y-78024914D01*
X133198747Y-78024914D02*
X133103509Y-78215390D01*
X133103509Y-78215390D02*
X133103509Y-78501104D01*
X133103509Y-78501104D02*
X133198747Y-78691580D01*
X133198747Y-78691580D02*
X133293985Y-78786819D01*
X133293985Y-78786819D02*
X133484461Y-78882057D01*
X133484461Y-78882057D02*
X134246366Y-78882057D01*
X132246366Y-77834438D02*
X132246366Y-79453485D01*
X132246366Y-79453485D02*
X132151128Y-79643961D01*
X132151128Y-79643961D02*
X132055890Y-79739200D01*
X132055890Y-79739200D02*
X131865414Y-79834438D01*
X131865414Y-79834438D02*
X131484461Y-79834438D01*
X131484461Y-79834438D02*
X131293985Y-79739200D01*
X131293985Y-79739200D02*
X131198747Y-79643961D01*
X131198747Y-79643961D02*
X131103509Y-79453485D01*
X131103509Y-79453485D02*
X131103509Y-77834438D01*
X130436842Y-77834438D02*
X129293985Y-77834438D01*
X129865414Y-79834438D02*
X129865414Y-77834438D01*
X96893985Y-39786819D02*
X96608271Y-39882057D01*
X96608271Y-39882057D02*
X96513033Y-39977295D01*
X96513033Y-39977295D02*
X96417795Y-40167771D01*
X96417795Y-40167771D02*
X96417795Y-40453485D01*
X96417795Y-40453485D02*
X96513033Y-40643961D01*
X96513033Y-40643961D02*
X96608271Y-40739200D01*
X96608271Y-40739200D02*
X96798747Y-40834438D01*
X96798747Y-40834438D02*
X97560652Y-40834438D01*
X97560652Y-40834438D02*
X97560652Y-38834438D01*
X97560652Y-38834438D02*
X96893985Y-38834438D01*
X96893985Y-38834438D02*
X96703509Y-38929676D01*
X96703509Y-38929676D02*
X96608271Y-39024914D01*
X96608271Y-39024914D02*
X96513033Y-39215390D01*
X96513033Y-39215390D02*
X96513033Y-39405866D01*
X96513033Y-39405866D02*
X96608271Y-39596342D01*
X96608271Y-39596342D02*
X96703509Y-39691580D01*
X96703509Y-39691580D02*
X96893985Y-39786819D01*
X96893985Y-39786819D02*
X97560652Y-39786819D01*
X102579700Y-77834438D02*
X102198747Y-77834438D01*
X102198747Y-77834438D02*
X102008271Y-77929676D01*
X102008271Y-77929676D02*
X101817795Y-78120152D01*
X101817795Y-78120152D02*
X101722557Y-78501104D01*
X101722557Y-78501104D02*
X101722557Y-79167771D01*
X101722557Y-79167771D02*
X101817795Y-79548723D01*
X101817795Y-79548723D02*
X102008271Y-79739200D01*
X102008271Y-79739200D02*
X102198747Y-79834438D01*
X102198747Y-79834438D02*
X102579700Y-79834438D01*
X102579700Y-79834438D02*
X102770176Y-79739200D01*
X102770176Y-79739200D02*
X102960652Y-79548723D01*
X102960652Y-79548723D02*
X103055890Y-79167771D01*
X103055890Y-79167771D02*
X103055890Y-78501104D01*
X103055890Y-78501104D02*
X102960652Y-78120152D01*
X102960652Y-78120152D02*
X102770176Y-77929676D01*
X102770176Y-77929676D02*
X102579700Y-77834438D01*
X100865414Y-77834438D02*
X100865414Y-79453485D01*
X100865414Y-79453485D02*
X100770176Y-79643961D01*
X100770176Y-79643961D02*
X100674938Y-79739200D01*
X100674938Y-79739200D02*
X100484462Y-79834438D01*
X100484462Y-79834438D02*
X100103509Y-79834438D01*
X100103509Y-79834438D02*
X99913033Y-79739200D01*
X99913033Y-79739200D02*
X99817795Y-79643961D01*
X99817795Y-79643961D02*
X99722557Y-79453485D01*
X99722557Y-79453485D02*
X99722557Y-77834438D01*
X99055890Y-77834438D02*
X97913033Y-77834438D01*
X98484462Y-79834438D02*
X98484462Y-77834438D01*
X97246366Y-79834438D02*
X97246366Y-77834438D01*
X97246366Y-77834438D02*
X96484461Y-77834438D01*
X96484461Y-77834438D02*
X96293985Y-77929676D01*
X96293985Y-77929676D02*
X96198747Y-78024914D01*
X96198747Y-78024914D02*
X96103509Y-78215390D01*
X96103509Y-78215390D02*
X96103509Y-78501104D01*
X96103509Y-78501104D02*
X96198747Y-78691580D01*
X96198747Y-78691580D02*
X96293985Y-78786819D01*
X96293985Y-78786819D02*
X96484461Y-78882057D01*
X96484461Y-78882057D02*
X97246366Y-78882057D01*
X95246366Y-77834438D02*
X95246366Y-79453485D01*
X95246366Y-79453485D02*
X95151128Y-79643961D01*
X95151128Y-79643961D02*
X95055890Y-79739200D01*
X95055890Y-79739200D02*
X94865414Y-79834438D01*
X94865414Y-79834438D02*
X94484461Y-79834438D01*
X94484461Y-79834438D02*
X94293985Y-79739200D01*
X94293985Y-79739200D02*
X94198747Y-79643961D01*
X94198747Y-79643961D02*
X94103509Y-79453485D01*
X94103509Y-79453485D02*
X94103509Y-77834438D01*
X93436842Y-77834438D02*
X92293985Y-77834438D01*
X92865414Y-79834438D02*
X92865414Y-77834438D01*
X90634438Y-69891728D02*
X90634438Y-68939347D01*
X90634438Y-68939347D02*
X91586819Y-68844109D01*
X91586819Y-68844109D02*
X91491580Y-68939347D01*
X91491580Y-68939347D02*
X91396342Y-69129823D01*
X91396342Y-69129823D02*
X91396342Y-69606014D01*
X91396342Y-69606014D02*
X91491580Y-69796490D01*
X91491580Y-69796490D02*
X91586819Y-69891728D01*
X91586819Y-69891728D02*
X91777295Y-69986966D01*
X91777295Y-69986966D02*
X92253485Y-69986966D01*
X92253485Y-69986966D02*
X92443961Y-69891728D01*
X92443961Y-69891728D02*
X92539200Y-69796490D01*
X92539200Y-69796490D02*
X92634438Y-69606014D01*
X92634438Y-69606014D02*
X92634438Y-69129823D01*
X92634438Y-69129823D02*
X92539200Y-68939347D01*
X92539200Y-68939347D02*
X92443961Y-68844109D01*
X90634438Y-70558395D02*
X92634438Y-71225061D01*
X92634438Y-71225061D02*
X90634438Y-71891728D01*
D14*
X186110839Y-99784104D02*
X185634649Y-99784104D01*
X186206077Y-100069819D02*
X185872744Y-99069819D01*
X185872744Y-99069819D02*
X185539411Y-100069819D01*
X184777506Y-100069819D02*
X184777506Y-99546009D01*
X184777506Y-99546009D02*
X184825125Y-99450771D01*
X184825125Y-99450771D02*
X184920363Y-99403152D01*
X184920363Y-99403152D02*
X185110839Y-99403152D01*
X185110839Y-99403152D02*
X185206077Y-99450771D01*
X184777506Y-100022200D02*
X184872744Y-100069819D01*
X184872744Y-100069819D02*
X185110839Y-100069819D01*
X185110839Y-100069819D02*
X185206077Y-100022200D01*
X185206077Y-100022200D02*
X185253696Y-99926961D01*
X185253696Y-99926961D02*
X185253696Y-99831723D01*
X185253696Y-99831723D02*
X185206077Y-99736485D01*
X185206077Y-99736485D02*
X185110839Y-99688866D01*
X185110839Y-99688866D02*
X184872744Y-99688866D01*
X184872744Y-99688866D02*
X184777506Y-99641247D01*
X184301315Y-100069819D02*
X184301315Y-99403152D01*
X184301315Y-99593628D02*
X184253696Y-99498390D01*
X184253696Y-99498390D02*
X184206077Y-99450771D01*
X184206077Y-99450771D02*
X184110839Y-99403152D01*
X184110839Y-99403152D02*
X184015601Y-99403152D01*
X183539410Y-100069819D02*
X183634648Y-100022200D01*
X183634648Y-100022200D02*
X183682267Y-99974580D01*
X183682267Y-99974580D02*
X183729886Y-99879342D01*
X183729886Y-99879342D02*
X183729886Y-99593628D01*
X183729886Y-99593628D02*
X183682267Y-99498390D01*
X183682267Y-99498390D02*
X183634648Y-99450771D01*
X183634648Y-99450771D02*
X183539410Y-99403152D01*
X183539410Y-99403152D02*
X183396553Y-99403152D01*
X183396553Y-99403152D02*
X183301315Y-99450771D01*
X183301315Y-99450771D02*
X183253696Y-99498390D01*
X183253696Y-99498390D02*
X183206077Y-99593628D01*
X183206077Y-99593628D02*
X183206077Y-99879342D01*
X183206077Y-99879342D02*
X183253696Y-99974580D01*
X183253696Y-99974580D02*
X183301315Y-100022200D01*
X183301315Y-100022200D02*
X183396553Y-100069819D01*
X183396553Y-100069819D02*
X183539410Y-100069819D01*
X182777505Y-99403152D02*
X182777505Y-100069819D01*
X182777505Y-99498390D02*
X182729886Y-99450771D01*
X182729886Y-99450771D02*
X182634648Y-99403152D01*
X182634648Y-99403152D02*
X182491791Y-99403152D01*
X182491791Y-99403152D02*
X182396553Y-99450771D01*
X182396553Y-99450771D02*
X182348934Y-99546009D01*
X182348934Y-99546009D02*
X182348934Y-100069819D01*
D13*
X147429676Y-89686966D02*
X147334438Y-89496490D01*
X147334438Y-89496490D02*
X147334438Y-89210776D01*
X147334438Y-89210776D02*
X147429676Y-88925061D01*
X147429676Y-88925061D02*
X147620152Y-88734585D01*
X147620152Y-88734585D02*
X147810628Y-88639347D01*
X147810628Y-88639347D02*
X148191580Y-88544109D01*
X148191580Y-88544109D02*
X148477295Y-88544109D01*
X148477295Y-88544109D02*
X148858247Y-88639347D01*
X148858247Y-88639347D02*
X149048723Y-88734585D01*
X149048723Y-88734585D02*
X149239200Y-88925061D01*
X149239200Y-88925061D02*
X149334438Y-89210776D01*
X149334438Y-89210776D02*
X149334438Y-89401252D01*
X149334438Y-89401252D02*
X149239200Y-89686966D01*
X149239200Y-89686966D02*
X149143961Y-89782204D01*
X149143961Y-89782204D02*
X148477295Y-89782204D01*
X148477295Y-89782204D02*
X148477295Y-89401252D01*
X149334438Y-90639347D02*
X147334438Y-90639347D01*
X147334438Y-90639347D02*
X149334438Y-91782204D01*
X149334438Y-91782204D02*
X147334438Y-91782204D01*
X149334438Y-92734585D02*
X147334438Y-92734585D01*
X147334438Y-92734585D02*
X147334438Y-93210775D01*
X147334438Y-93210775D02*
X147429676Y-93496490D01*
X147429676Y-93496490D02*
X147620152Y-93686966D01*
X147620152Y-93686966D02*
X147810628Y-93782204D01*
X147810628Y-93782204D02*
X148191580Y-93877442D01*
X148191580Y-93877442D02*
X148477295Y-93877442D01*
X148477295Y-93877442D02*
X148858247Y-93782204D01*
X148858247Y-93782204D02*
X149048723Y-93686966D01*
X149048723Y-93686966D02*
X149239200Y-93496490D01*
X149239200Y-93496490D02*
X149334438Y-93210775D01*
X149334438Y-93210775D02*
X149334438Y-92734585D01*
D15*
X154373183Y-65567219D02*
X154039850Y-66567219D01*
X154039850Y-66567219D02*
X153706517Y-65567219D01*
X152849374Y-66567219D02*
X153420802Y-66567219D01*
X153135088Y-66567219D02*
X153135088Y-65567219D01*
X153135088Y-65567219D02*
X153230326Y-65710076D01*
X153230326Y-65710076D02*
X153325564Y-65805314D01*
X153325564Y-65805314D02*
X153420802Y-65852933D01*
X152420802Y-66471980D02*
X152373183Y-66519600D01*
X152373183Y-66519600D02*
X152420802Y-66567219D01*
X152420802Y-66567219D02*
X152468421Y-66519600D01*
X152468421Y-66519600D02*
X152420802Y-66471980D01*
X152420802Y-66471980D02*
X152420802Y-66567219D01*
X151754136Y-65567219D02*
X151658898Y-65567219D01*
X151658898Y-65567219D02*
X151563660Y-65614838D01*
X151563660Y-65614838D02*
X151516041Y-65662457D01*
X151516041Y-65662457D02*
X151468422Y-65757695D01*
X151468422Y-65757695D02*
X151420803Y-65948171D01*
X151420803Y-65948171D02*
X151420803Y-66186266D01*
X151420803Y-66186266D02*
X151468422Y-66376742D01*
X151468422Y-66376742D02*
X151516041Y-66471980D01*
X151516041Y-66471980D02*
X151563660Y-66519600D01*
X151563660Y-66519600D02*
X151658898Y-66567219D01*
X151658898Y-66567219D02*
X151754136Y-66567219D01*
X151754136Y-66567219D02*
X151849374Y-66519600D01*
X151849374Y-66519600D02*
X151896993Y-66471980D01*
X151896993Y-66471980D02*
X151944612Y-66376742D01*
X151944612Y-66376742D02*
X151992231Y-66186266D01*
X151992231Y-66186266D02*
X151992231Y-65948171D01*
X151992231Y-65948171D02*
X151944612Y-65757695D01*
X151944612Y-65757695D02*
X151896993Y-65662457D01*
X151896993Y-65662457D02*
X151849374Y-65614838D01*
X151849374Y-65614838D02*
X151754136Y-65567219D01*
X150992231Y-66471980D02*
X150944612Y-66519600D01*
X150944612Y-66519600D02*
X150992231Y-66567219D01*
X150992231Y-66567219D02*
X151039850Y-66519600D01*
X151039850Y-66519600D02*
X150992231Y-66471980D01*
X150992231Y-66471980D02*
X150992231Y-66567219D01*
X150325565Y-65567219D02*
X150230327Y-65567219D01*
X150230327Y-65567219D02*
X150135089Y-65614838D01*
X150135089Y-65614838D02*
X150087470Y-65662457D01*
X150087470Y-65662457D02*
X150039851Y-65757695D01*
X150039851Y-65757695D02*
X149992232Y-65948171D01*
X149992232Y-65948171D02*
X149992232Y-66186266D01*
X149992232Y-66186266D02*
X150039851Y-66376742D01*
X150039851Y-66376742D02*
X150087470Y-66471980D01*
X150087470Y-66471980D02*
X150135089Y-66519600D01*
X150135089Y-66519600D02*
X150230327Y-66567219D01*
X150230327Y-66567219D02*
X150325565Y-66567219D01*
X150325565Y-66567219D02*
X150420803Y-66519600D01*
X150420803Y-66519600D02*
X150468422Y-66471980D01*
X150468422Y-66471980D02*
X150516041Y-66376742D01*
X150516041Y-66376742D02*
X150563660Y-66186266D01*
X150563660Y-66186266D02*
X150563660Y-65948171D01*
X150563660Y-65948171D02*
X150516041Y-65757695D01*
X150516041Y-65757695D02*
X150468422Y-65662457D01*
X150468422Y-65662457D02*
X150420803Y-65614838D01*
X150420803Y-65614838D02*
X150325565Y-65567219D01*
D13*
X147529676Y-69886966D02*
X147434438Y-69696490D01*
X147434438Y-69696490D02*
X147434438Y-69410776D01*
X147434438Y-69410776D02*
X147529676Y-69125061D01*
X147529676Y-69125061D02*
X147720152Y-68934585D01*
X147720152Y-68934585D02*
X147910628Y-68839347D01*
X147910628Y-68839347D02*
X148291580Y-68744109D01*
X148291580Y-68744109D02*
X148577295Y-68744109D01*
X148577295Y-68744109D02*
X148958247Y-68839347D01*
X148958247Y-68839347D02*
X149148723Y-68934585D01*
X149148723Y-68934585D02*
X149339200Y-69125061D01*
X149339200Y-69125061D02*
X149434438Y-69410776D01*
X149434438Y-69410776D02*
X149434438Y-69601252D01*
X149434438Y-69601252D02*
X149339200Y-69886966D01*
X149339200Y-69886966D02*
X149243961Y-69982204D01*
X149243961Y-69982204D02*
X148577295Y-69982204D01*
X148577295Y-69982204D02*
X148577295Y-69601252D01*
X149434438Y-70839347D02*
X147434438Y-70839347D01*
X147434438Y-70839347D02*
X149434438Y-71982204D01*
X149434438Y-71982204D02*
X147434438Y-71982204D01*
X149434438Y-72934585D02*
X147434438Y-72934585D01*
X147434438Y-72934585D02*
X147434438Y-73410775D01*
X147434438Y-73410775D02*
X147529676Y-73696490D01*
X147529676Y-73696490D02*
X147720152Y-73886966D01*
X147720152Y-73886966D02*
X147910628Y-73982204D01*
X147910628Y-73982204D02*
X148291580Y-74077442D01*
X148291580Y-74077442D02*
X148577295Y-74077442D01*
X148577295Y-74077442D02*
X148958247Y-73982204D01*
X148958247Y-73982204D02*
X149148723Y-73886966D01*
X149148723Y-73886966D02*
X149339200Y-73696490D01*
X149339200Y-73696490D02*
X149434438Y-73410775D01*
X149434438Y-73410775D02*
X149434438Y-72934585D01*
X102960652Y-84134438D02*
X102960652Y-82134438D01*
X102008271Y-84134438D02*
X102008271Y-82134438D01*
X102008271Y-82134438D02*
X100865414Y-84134438D01*
X100865414Y-84134438D02*
X100865414Y-82134438D01*
X99913033Y-84134438D02*
X99913033Y-82134438D01*
X99913033Y-82134438D02*
X99151128Y-82134438D01*
X99151128Y-82134438D02*
X98960652Y-82229676D01*
X98960652Y-82229676D02*
X98865414Y-82324914D01*
X98865414Y-82324914D02*
X98770176Y-82515390D01*
X98770176Y-82515390D02*
X98770176Y-82801104D01*
X98770176Y-82801104D02*
X98865414Y-82991580D01*
X98865414Y-82991580D02*
X98960652Y-83086819D01*
X98960652Y-83086819D02*
X99151128Y-83182057D01*
X99151128Y-83182057D02*
X99913033Y-83182057D01*
X97913033Y-82134438D02*
X97913033Y-83753485D01*
X97913033Y-83753485D02*
X97817795Y-83943961D01*
X97817795Y-83943961D02*
X97722557Y-84039200D01*
X97722557Y-84039200D02*
X97532081Y-84134438D01*
X97532081Y-84134438D02*
X97151128Y-84134438D01*
X97151128Y-84134438D02*
X96960652Y-84039200D01*
X96960652Y-84039200D02*
X96865414Y-83943961D01*
X96865414Y-83943961D02*
X96770176Y-83753485D01*
X96770176Y-83753485D02*
X96770176Y-82134438D01*
X96103509Y-82134438D02*
X94960652Y-82134438D01*
X95532081Y-84134438D02*
X95532081Y-82134438D01*
X85955890Y-40363009D02*
X85003509Y-40363009D01*
X86146366Y-40934438D02*
X85479700Y-38934438D01*
X85479700Y-38934438D02*
X84813033Y-40934438D01*
X120134438Y-86853633D02*
X122134438Y-87520299D01*
X122134438Y-87520299D02*
X120134438Y-88186966D01*
X122134438Y-88853633D02*
X120134438Y-88853633D01*
X120134438Y-88853633D02*
X120134438Y-89329823D01*
X120134438Y-89329823D02*
X120229676Y-89615538D01*
X120229676Y-89615538D02*
X120420152Y-89806014D01*
X120420152Y-89806014D02*
X120610628Y-89901252D01*
X120610628Y-89901252D02*
X120991580Y-89996490D01*
X120991580Y-89996490D02*
X121277295Y-89996490D01*
X121277295Y-89996490D02*
X121658247Y-89901252D01*
X121658247Y-89901252D02*
X121848723Y-89806014D01*
X121848723Y-89806014D02*
X122039200Y-89615538D01*
X122039200Y-89615538D02*
X122134438Y-89329823D01*
X122134438Y-89329823D02*
X122134438Y-88853633D01*
X122134438Y-90853633D02*
X120134438Y-90853633D01*
X120134438Y-90853633D02*
X120134438Y-91329823D01*
X120134438Y-91329823D02*
X120229676Y-91615538D01*
X120229676Y-91615538D02*
X120420152Y-91806014D01*
X120420152Y-91806014D02*
X120610628Y-91901252D01*
X120610628Y-91901252D02*
X120991580Y-91996490D01*
X120991580Y-91996490D02*
X121277295Y-91996490D01*
X121277295Y-91996490D02*
X121658247Y-91901252D01*
X121658247Y-91901252D02*
X121848723Y-91806014D01*
X121848723Y-91806014D02*
X122039200Y-91615538D01*
X122039200Y-91615538D02*
X122134438Y-91329823D01*
X122134438Y-91329823D02*
X122134438Y-90853633D01*
X122324914Y-94186966D02*
X122229676Y-93996490D01*
X122229676Y-93996490D02*
X122039200Y-93806014D01*
X122039200Y-93806014D02*
X121753485Y-93520300D01*
X121753485Y-93520300D02*
X121658247Y-93329823D01*
X121658247Y-93329823D02*
X121658247Y-93139347D01*
X122134438Y-93234585D02*
X122039200Y-93044109D01*
X122039200Y-93044109D02*
X121848723Y-92853633D01*
X121848723Y-92853633D02*
X121467771Y-92758395D01*
X121467771Y-92758395D02*
X120801104Y-92758395D01*
X120801104Y-92758395D02*
X120420152Y-92853633D01*
X120420152Y-92853633D02*
X120229676Y-93044109D01*
X120229676Y-93044109D02*
X120134438Y-93234585D01*
X120134438Y-93234585D02*
X120134438Y-93615538D01*
X120134438Y-93615538D02*
X120229676Y-93806014D01*
X120229676Y-93806014D02*
X120420152Y-93996490D01*
X120420152Y-93996490D02*
X120801104Y-94091728D01*
X120801104Y-94091728D02*
X121467771Y-94091728D01*
X121467771Y-94091728D02*
X121848723Y-93996490D01*
X121848723Y-93996490D02*
X122039200Y-93806014D01*
X122039200Y-93806014D02*
X122134438Y-93615538D01*
X122134438Y-93615538D02*
X122134438Y-93234585D01*
D14*
X167610839Y-60402312D02*
X167467982Y-60449931D01*
X167467982Y-60449931D02*
X167229887Y-60449931D01*
X167229887Y-60449931D02*
X167134649Y-60402312D01*
X167134649Y-60402312D02*
X167087030Y-60354692D01*
X167087030Y-60354692D02*
X167039411Y-60259454D01*
X167039411Y-60259454D02*
X167039411Y-60164216D01*
X167039411Y-60164216D02*
X167087030Y-60068978D01*
X167087030Y-60068978D02*
X167134649Y-60021359D01*
X167134649Y-60021359D02*
X167229887Y-59973740D01*
X167229887Y-59973740D02*
X167420363Y-59926121D01*
X167420363Y-59926121D02*
X167515601Y-59878502D01*
X167515601Y-59878502D02*
X167563220Y-59830883D01*
X167563220Y-59830883D02*
X167610839Y-59735645D01*
X167610839Y-59735645D02*
X167610839Y-59640407D01*
X167610839Y-59640407D02*
X167563220Y-59545169D01*
X167563220Y-59545169D02*
X167515601Y-59497550D01*
X167515601Y-59497550D02*
X167420363Y-59449931D01*
X167420363Y-59449931D02*
X167182268Y-59449931D01*
X167182268Y-59449931D02*
X167039411Y-59497550D01*
X166753696Y-59449931D02*
X166182268Y-59449931D01*
X166467982Y-60449931D02*
X166467982Y-59449931D01*
X165896553Y-60164216D02*
X165420363Y-60164216D01*
X165991791Y-60449931D02*
X165658458Y-59449931D01*
X165658458Y-59449931D02*
X165325125Y-60449931D01*
X165134648Y-59449931D02*
X164563220Y-59449931D01*
X164848934Y-60449931D02*
X164848934Y-59449931D01*
X164229886Y-60068978D02*
X163467982Y-60068978D01*
X163039410Y-60164216D02*
X162563220Y-60164216D01*
X163134648Y-60449931D02*
X162801315Y-59449931D01*
X162801315Y-59449931D02*
X162467982Y-60449931D01*
X167610839Y-62012256D02*
X167467982Y-62059875D01*
X167467982Y-62059875D02*
X167229887Y-62059875D01*
X167229887Y-62059875D02*
X167134649Y-62012256D01*
X167134649Y-62012256D02*
X167087030Y-61964636D01*
X167087030Y-61964636D02*
X167039411Y-61869398D01*
X167039411Y-61869398D02*
X167039411Y-61774160D01*
X167039411Y-61774160D02*
X167087030Y-61678922D01*
X167087030Y-61678922D02*
X167134649Y-61631303D01*
X167134649Y-61631303D02*
X167229887Y-61583684D01*
X167229887Y-61583684D02*
X167420363Y-61536065D01*
X167420363Y-61536065D02*
X167515601Y-61488446D01*
X167515601Y-61488446D02*
X167563220Y-61440827D01*
X167563220Y-61440827D02*
X167610839Y-61345589D01*
X167610839Y-61345589D02*
X167610839Y-61250351D01*
X167610839Y-61250351D02*
X167563220Y-61155113D01*
X167563220Y-61155113D02*
X167515601Y-61107494D01*
X167515601Y-61107494D02*
X167420363Y-61059875D01*
X167420363Y-61059875D02*
X167182268Y-61059875D01*
X167182268Y-61059875D02*
X167039411Y-61107494D01*
X166753696Y-61059875D02*
X166182268Y-61059875D01*
X166467982Y-62059875D02*
X166467982Y-61059875D01*
X165896553Y-61774160D02*
X165420363Y-61774160D01*
X165991791Y-62059875D02*
X165658458Y-61059875D01*
X165658458Y-61059875D02*
X165325125Y-62059875D01*
X165134648Y-61059875D02*
X164563220Y-61059875D01*
X164848934Y-62059875D02*
X164848934Y-61059875D01*
X164229886Y-61678922D02*
X163467982Y-61678922D01*
X162658458Y-61536065D02*
X162515601Y-61583684D01*
X162515601Y-61583684D02*
X162467982Y-61631303D01*
X162467982Y-61631303D02*
X162420363Y-61726541D01*
X162420363Y-61726541D02*
X162420363Y-61869398D01*
X162420363Y-61869398D02*
X162467982Y-61964636D01*
X162467982Y-61964636D02*
X162515601Y-62012256D01*
X162515601Y-62012256D02*
X162610839Y-62059875D01*
X162610839Y-62059875D02*
X162991791Y-62059875D01*
X162991791Y-62059875D02*
X162991791Y-61059875D01*
X162991791Y-61059875D02*
X162658458Y-61059875D01*
X162658458Y-61059875D02*
X162563220Y-61107494D01*
X162563220Y-61107494D02*
X162515601Y-61155113D01*
X162515601Y-61155113D02*
X162467982Y-61250351D01*
X162467982Y-61250351D02*
X162467982Y-61345589D01*
X162467982Y-61345589D02*
X162515601Y-61440827D01*
X162515601Y-61440827D02*
X162563220Y-61488446D01*
X162563220Y-61488446D02*
X162658458Y-61536065D01*
X162658458Y-61536065D02*
X162991791Y-61536065D01*
X167563220Y-63669819D02*
X167563220Y-62669819D01*
X167563220Y-62669819D02*
X167182268Y-62669819D01*
X167182268Y-62669819D02*
X167087030Y-62717438D01*
X167087030Y-62717438D02*
X167039411Y-62765057D01*
X167039411Y-62765057D02*
X166991792Y-62860295D01*
X166991792Y-62860295D02*
X166991792Y-63003152D01*
X166991792Y-63003152D02*
X167039411Y-63098390D01*
X167039411Y-63098390D02*
X167087030Y-63146009D01*
X167087030Y-63146009D02*
X167182268Y-63193628D01*
X167182268Y-63193628D02*
X167563220Y-63193628D01*
X166372744Y-62669819D02*
X166182268Y-62669819D01*
X166182268Y-62669819D02*
X166087030Y-62717438D01*
X166087030Y-62717438D02*
X165991792Y-62812676D01*
X165991792Y-62812676D02*
X165944173Y-63003152D01*
X165944173Y-63003152D02*
X165944173Y-63336485D01*
X165944173Y-63336485D02*
X165991792Y-63526961D01*
X165991792Y-63526961D02*
X166087030Y-63622200D01*
X166087030Y-63622200D02*
X166182268Y-63669819D01*
X166182268Y-63669819D02*
X166372744Y-63669819D01*
X166372744Y-63669819D02*
X166467982Y-63622200D01*
X166467982Y-63622200D02*
X166563220Y-63526961D01*
X166563220Y-63526961D02*
X166610839Y-63336485D01*
X166610839Y-63336485D02*
X166610839Y-63003152D01*
X166610839Y-63003152D02*
X166563220Y-62812676D01*
X166563220Y-62812676D02*
X166467982Y-62717438D01*
X166467982Y-62717438D02*
X166372744Y-62669819D01*
X165610839Y-62669819D02*
X165372744Y-63669819D01*
X165372744Y-63669819D02*
X165182268Y-62955533D01*
X165182268Y-62955533D02*
X164991792Y-63669819D01*
X164991792Y-63669819D02*
X164753697Y-62669819D01*
X164372744Y-63146009D02*
X164039411Y-63146009D01*
X163896554Y-63669819D02*
X164372744Y-63669819D01*
X164372744Y-63669819D02*
X164372744Y-62669819D01*
X164372744Y-62669819D02*
X163896554Y-62669819D01*
X162896554Y-63669819D02*
X163229887Y-63193628D01*
X163467982Y-63669819D02*
X163467982Y-62669819D01*
X163467982Y-62669819D02*
X163087030Y-62669819D01*
X163087030Y-62669819D02*
X162991792Y-62717438D01*
X162991792Y-62717438D02*
X162944173Y-62765057D01*
X162944173Y-62765057D02*
X162896554Y-62860295D01*
X162896554Y-62860295D02*
X162896554Y-63003152D01*
X162896554Y-63003152D02*
X162944173Y-63098390D01*
X162944173Y-63098390D02*
X162991792Y-63146009D01*
X162991792Y-63146009D02*
X163087030Y-63193628D01*
X163087030Y-63193628D02*
X163467982Y-63193628D01*
D16*
X153933835Y-63744514D02*
X152505264Y-63744514D01*
X154219549Y-64601657D02*
X153219549Y-61601657D01*
X153219549Y-61601657D02*
X152219549Y-64601657D01*
X149648120Y-61744514D02*
X149933835Y-61601657D01*
X149933835Y-61601657D02*
X150362406Y-61601657D01*
X150362406Y-61601657D02*
X150790977Y-61744514D01*
X150790977Y-61744514D02*
X151076692Y-62030228D01*
X151076692Y-62030228D02*
X151219549Y-62315942D01*
X151219549Y-62315942D02*
X151362406Y-62887371D01*
X151362406Y-62887371D02*
X151362406Y-63315942D01*
X151362406Y-63315942D02*
X151219549Y-63887371D01*
X151219549Y-63887371D02*
X151076692Y-64173085D01*
X151076692Y-64173085D02*
X150790977Y-64458800D01*
X150790977Y-64458800D02*
X150362406Y-64601657D01*
X150362406Y-64601657D02*
X150076692Y-64601657D01*
X150076692Y-64601657D02*
X149648120Y-64458800D01*
X149648120Y-64458800D02*
X149505263Y-64315942D01*
X149505263Y-64315942D02*
X149505263Y-63315942D01*
X149505263Y-63315942D02*
X150076692Y-63315942D01*
X148219549Y-64601657D02*
X148219549Y-61601657D01*
X148219549Y-61601657D02*
X147076692Y-61601657D01*
X147076692Y-61601657D02*
X146790977Y-61744514D01*
X146790977Y-61744514D02*
X146648120Y-61887371D01*
X146648120Y-61887371D02*
X146505263Y-62173085D01*
X146505263Y-62173085D02*
X146505263Y-62601657D01*
X146505263Y-62601657D02*
X146648120Y-62887371D01*
X146648120Y-62887371D02*
X146790977Y-63030228D01*
X146790977Y-63030228D02*
X147076692Y-63173085D01*
X147076692Y-63173085D02*
X148219549Y-63173085D01*
X142933835Y-64601657D02*
X142933835Y-61601657D01*
X142933835Y-61601657D02*
X141790978Y-61601657D01*
X141790978Y-61601657D02*
X141505263Y-61744514D01*
X141505263Y-61744514D02*
X141362406Y-61887371D01*
X141362406Y-61887371D02*
X141219549Y-62173085D01*
X141219549Y-62173085D02*
X141219549Y-62601657D01*
X141219549Y-62601657D02*
X141362406Y-62887371D01*
X141362406Y-62887371D02*
X141505263Y-63030228D01*
X141505263Y-63030228D02*
X141790978Y-63173085D01*
X141790978Y-63173085D02*
X142933835Y-63173085D01*
X139505263Y-64601657D02*
X139790978Y-64458800D01*
X139790978Y-64458800D02*
X139933835Y-64315942D01*
X139933835Y-64315942D02*
X140076692Y-64030228D01*
X140076692Y-64030228D02*
X140076692Y-63173085D01*
X140076692Y-63173085D02*
X139933835Y-62887371D01*
X139933835Y-62887371D02*
X139790978Y-62744514D01*
X139790978Y-62744514D02*
X139505263Y-62601657D01*
X139505263Y-62601657D02*
X139076692Y-62601657D01*
X139076692Y-62601657D02*
X138790978Y-62744514D01*
X138790978Y-62744514D02*
X138648121Y-62887371D01*
X138648121Y-62887371D02*
X138505263Y-63173085D01*
X138505263Y-63173085D02*
X138505263Y-64030228D01*
X138505263Y-64030228D02*
X138648121Y-64315942D01*
X138648121Y-64315942D02*
X138790978Y-64458800D01*
X138790978Y-64458800D02*
X139076692Y-64601657D01*
X139076692Y-64601657D02*
X139505263Y-64601657D01*
X137505263Y-62601657D02*
X136933835Y-64601657D01*
X136933835Y-64601657D02*
X136362406Y-63173085D01*
X136362406Y-63173085D02*
X135790977Y-64601657D01*
X135790977Y-64601657D02*
X135219549Y-62601657D01*
X132933835Y-64458800D02*
X133219549Y-64601657D01*
X133219549Y-64601657D02*
X133790978Y-64601657D01*
X133790978Y-64601657D02*
X134076692Y-64458800D01*
X134076692Y-64458800D02*
X134219549Y-64173085D01*
X134219549Y-64173085D02*
X134219549Y-63030228D01*
X134219549Y-63030228D02*
X134076692Y-62744514D01*
X134076692Y-62744514D02*
X133790978Y-62601657D01*
X133790978Y-62601657D02*
X133219549Y-62601657D01*
X133219549Y-62601657D02*
X132933835Y-62744514D01*
X132933835Y-62744514D02*
X132790978Y-63030228D01*
X132790978Y-63030228D02*
X132790978Y-63315942D01*
X132790978Y-63315942D02*
X134219549Y-63601657D01*
X131505263Y-64601657D02*
X131505263Y-62601657D01*
X131505263Y-63173085D02*
X131362406Y-62887371D01*
X131362406Y-62887371D02*
X131219549Y-62744514D01*
X131219549Y-62744514D02*
X130933834Y-62601657D01*
X130933834Y-62601657D02*
X130648120Y-62601657D01*
X127362406Y-64601657D02*
X127362406Y-61601657D01*
X127362406Y-61601657D02*
X126362406Y-63744514D01*
X126362406Y-63744514D02*
X125362406Y-61601657D01*
X125362406Y-61601657D02*
X125362406Y-64601657D01*
X123505263Y-64601657D02*
X123790978Y-64458800D01*
X123790978Y-64458800D02*
X123933835Y-64315942D01*
X123933835Y-64315942D02*
X124076692Y-64030228D01*
X124076692Y-64030228D02*
X124076692Y-63173085D01*
X124076692Y-63173085D02*
X123933835Y-62887371D01*
X123933835Y-62887371D02*
X123790978Y-62744514D01*
X123790978Y-62744514D02*
X123505263Y-62601657D01*
X123505263Y-62601657D02*
X123076692Y-62601657D01*
X123076692Y-62601657D02*
X122790978Y-62744514D01*
X122790978Y-62744514D02*
X122648121Y-62887371D01*
X122648121Y-62887371D02*
X122505263Y-63173085D01*
X122505263Y-63173085D02*
X122505263Y-64030228D01*
X122505263Y-64030228D02*
X122648121Y-64315942D01*
X122648121Y-64315942D02*
X122790978Y-64458800D01*
X122790978Y-64458800D02*
X123076692Y-64601657D01*
X123076692Y-64601657D02*
X123505263Y-64601657D01*
X121219549Y-62601657D02*
X121219549Y-64601657D01*
X121219549Y-62887371D02*
X121076692Y-62744514D01*
X121076692Y-62744514D02*
X120790977Y-62601657D01*
X120790977Y-62601657D02*
X120362406Y-62601657D01*
X120362406Y-62601657D02*
X120076692Y-62744514D01*
X120076692Y-62744514D02*
X119933835Y-63030228D01*
X119933835Y-63030228D02*
X119933835Y-64601657D01*
X118505263Y-64601657D02*
X118505263Y-62601657D01*
X118505263Y-61601657D02*
X118648120Y-61744514D01*
X118648120Y-61744514D02*
X118505263Y-61887371D01*
X118505263Y-61887371D02*
X118362406Y-61744514D01*
X118362406Y-61744514D02*
X118505263Y-61601657D01*
X118505263Y-61601657D02*
X118505263Y-61887371D01*
X117505263Y-62601657D02*
X116362406Y-62601657D01*
X117076692Y-61601657D02*
X117076692Y-64173085D01*
X117076692Y-64173085D02*
X116933835Y-64458800D01*
X116933835Y-64458800D02*
X116648120Y-64601657D01*
X116648120Y-64601657D02*
X116362406Y-64601657D01*
X114933834Y-64601657D02*
X115219549Y-64458800D01*
X115219549Y-64458800D02*
X115362406Y-64315942D01*
X115362406Y-64315942D02*
X115505263Y-64030228D01*
X115505263Y-64030228D02*
X115505263Y-63173085D01*
X115505263Y-63173085D02*
X115362406Y-62887371D01*
X115362406Y-62887371D02*
X115219549Y-62744514D01*
X115219549Y-62744514D02*
X114933834Y-62601657D01*
X114933834Y-62601657D02*
X114505263Y-62601657D01*
X114505263Y-62601657D02*
X114219549Y-62744514D01*
X114219549Y-62744514D02*
X114076692Y-62887371D01*
X114076692Y-62887371D02*
X113933834Y-63173085D01*
X113933834Y-63173085D02*
X113933834Y-64030228D01*
X113933834Y-64030228D02*
X114076692Y-64315942D01*
X114076692Y-64315942D02*
X114219549Y-64458800D01*
X114219549Y-64458800D02*
X114505263Y-64601657D01*
X114505263Y-64601657D02*
X114933834Y-64601657D01*
X112648120Y-64601657D02*
X112648120Y-62601657D01*
X112648120Y-63173085D02*
X112505263Y-62887371D01*
X112505263Y-62887371D02*
X112362406Y-62744514D01*
X112362406Y-62744514D02*
X112076691Y-62601657D01*
X112076691Y-62601657D02*
X111790977Y-62601657D01*
D13*
X120034438Y-68753633D02*
X122034438Y-69420299D01*
X122034438Y-69420299D02*
X120034438Y-70086966D01*
X122034438Y-70753633D02*
X120034438Y-70753633D01*
X120034438Y-70753633D02*
X120034438Y-71229823D01*
X120034438Y-71229823D02*
X120129676Y-71515538D01*
X120129676Y-71515538D02*
X120320152Y-71706014D01*
X120320152Y-71706014D02*
X120510628Y-71801252D01*
X120510628Y-71801252D02*
X120891580Y-71896490D01*
X120891580Y-71896490D02*
X121177295Y-71896490D01*
X121177295Y-71896490D02*
X121558247Y-71801252D01*
X121558247Y-71801252D02*
X121748723Y-71706014D01*
X121748723Y-71706014D02*
X121939200Y-71515538D01*
X121939200Y-71515538D02*
X122034438Y-71229823D01*
X122034438Y-71229823D02*
X122034438Y-70753633D01*
X122034438Y-72753633D02*
X120034438Y-72753633D01*
X120034438Y-72753633D02*
X120034438Y-73229823D01*
X120034438Y-73229823D02*
X120129676Y-73515538D01*
X120129676Y-73515538D02*
X120320152Y-73706014D01*
X120320152Y-73706014D02*
X120510628Y-73801252D01*
X120510628Y-73801252D02*
X120891580Y-73896490D01*
X120891580Y-73896490D02*
X121177295Y-73896490D01*
X121177295Y-73896490D02*
X121558247Y-73801252D01*
X121558247Y-73801252D02*
X121748723Y-73706014D01*
X121748723Y-73706014D02*
X121939200Y-73515538D01*
X121939200Y-73515538D02*
X122034438Y-73229823D01*
X122034438Y-73229823D02*
X122034438Y-72753633D01*
X122224914Y-76086966D02*
X122129676Y-75896490D01*
X122129676Y-75896490D02*
X121939200Y-75706014D01*
X121939200Y-75706014D02*
X121653485Y-75420300D01*
X121653485Y-75420300D02*
X121558247Y-75229823D01*
X121558247Y-75229823D02*
X121558247Y-75039347D01*
X122034438Y-75134585D02*
X121939200Y-74944109D01*
X121939200Y-74944109D02*
X121748723Y-74753633D01*
X121748723Y-74753633D02*
X121367771Y-74658395D01*
X121367771Y-74658395D02*
X120701104Y-74658395D01*
X120701104Y-74658395D02*
X120320152Y-74753633D01*
X120320152Y-74753633D02*
X120129676Y-74944109D01*
X120129676Y-74944109D02*
X120034438Y-75134585D01*
X120034438Y-75134585D02*
X120034438Y-75515538D01*
X120034438Y-75515538D02*
X120129676Y-75706014D01*
X120129676Y-75706014D02*
X120320152Y-75896490D01*
X120320152Y-75896490D02*
X120701104Y-75991728D01*
X120701104Y-75991728D02*
X121367771Y-75991728D01*
X121367771Y-75991728D02*
X121748723Y-75896490D01*
X121748723Y-75896490D02*
X121939200Y-75706014D01*
X121939200Y-75706014D02*
X122034438Y-75515538D01*
X122034438Y-75515538D02*
X122034438Y-75134585D01*
D14*
X81710839Y-99603152D02*
X81234649Y-99603152D01*
X81472744Y-99269819D02*
X81472744Y-100603152D01*
X79520363Y-99317438D02*
X79615601Y-99269819D01*
X79615601Y-99269819D02*
X79758458Y-99269819D01*
X79758458Y-99269819D02*
X79901315Y-99317438D01*
X79901315Y-99317438D02*
X79996553Y-99412676D01*
X79996553Y-99412676D02*
X80044172Y-99507914D01*
X80044172Y-99507914D02*
X80091791Y-99698390D01*
X80091791Y-99698390D02*
X80091791Y-99841247D01*
X80091791Y-99841247D02*
X80044172Y-100031723D01*
X80044172Y-100031723D02*
X79996553Y-100126961D01*
X79996553Y-100126961D02*
X79901315Y-100222200D01*
X79901315Y-100222200D02*
X79758458Y-100269819D01*
X79758458Y-100269819D02*
X79663220Y-100269819D01*
X79663220Y-100269819D02*
X79520363Y-100222200D01*
X79520363Y-100222200D02*
X79472744Y-100174580D01*
X79472744Y-100174580D02*
X79472744Y-99841247D01*
X79472744Y-99841247D02*
X79663220Y-99841247D01*
X78663220Y-100222200D02*
X78758458Y-100269819D01*
X78758458Y-100269819D02*
X78948934Y-100269819D01*
X78948934Y-100269819D02*
X79044172Y-100222200D01*
X79044172Y-100222200D02*
X79091791Y-100126961D01*
X79091791Y-100126961D02*
X79091791Y-99746009D01*
X79091791Y-99746009D02*
X79044172Y-99650771D01*
X79044172Y-99650771D02*
X78948934Y-99603152D01*
X78948934Y-99603152D02*
X78758458Y-99603152D01*
X78758458Y-99603152D02*
X78663220Y-99650771D01*
X78663220Y-99650771D02*
X78615601Y-99746009D01*
X78615601Y-99746009D02*
X78615601Y-99841247D01*
X78615601Y-99841247D02*
X79091791Y-99936485D01*
X78187029Y-100269819D02*
X78187029Y-99603152D01*
X78187029Y-99793628D02*
X78139410Y-99698390D01*
X78139410Y-99698390D02*
X78091791Y-99650771D01*
X78091791Y-99650771D02*
X77996553Y-99603152D01*
X77996553Y-99603152D02*
X77901315Y-99603152D01*
X77567981Y-100269819D02*
X77567981Y-99269819D01*
X77139410Y-100269819D02*
X77139410Y-99746009D01*
X77139410Y-99746009D02*
X77187029Y-99650771D01*
X77187029Y-99650771D02*
X77282267Y-99603152D01*
X77282267Y-99603152D02*
X77425124Y-99603152D01*
X77425124Y-99603152D02*
X77520362Y-99650771D01*
X77520362Y-99650771D02*
X77567981Y-99698390D01*
X76234648Y-100269819D02*
X76234648Y-99746009D01*
X76234648Y-99746009D02*
X76282267Y-99650771D01*
X76282267Y-99650771D02*
X76377505Y-99603152D01*
X76377505Y-99603152D02*
X76567981Y-99603152D01*
X76567981Y-99603152D02*
X76663219Y-99650771D01*
X76234648Y-100222200D02*
X76329886Y-100269819D01*
X76329886Y-100269819D02*
X76567981Y-100269819D01*
X76567981Y-100269819D02*
X76663219Y-100222200D01*
X76663219Y-100222200D02*
X76710838Y-100126961D01*
X76710838Y-100126961D02*
X76710838Y-100031723D01*
X76710838Y-100031723D02*
X76663219Y-99936485D01*
X76663219Y-99936485D02*
X76567981Y-99888866D01*
X76567981Y-99888866D02*
X76329886Y-99888866D01*
X76329886Y-99888866D02*
X76234648Y-99841247D01*
X75758457Y-100269819D02*
X75758457Y-99603152D01*
X75758457Y-99793628D02*
X75710838Y-99698390D01*
X75710838Y-99698390D02*
X75663219Y-99650771D01*
X75663219Y-99650771D02*
X75567981Y-99603152D01*
X75567981Y-99603152D02*
X75472743Y-99603152D01*
X74710838Y-100269819D02*
X74710838Y-99269819D01*
X74710838Y-100222200D02*
X74806076Y-100269819D01*
X74806076Y-100269819D02*
X74996552Y-100269819D01*
X74996552Y-100269819D02*
X75091790Y-100222200D01*
X75091790Y-100222200D02*
X75139409Y-100174580D01*
X75139409Y-100174580D02*
X75187028Y-100079342D01*
X75187028Y-100079342D02*
X75187028Y-99793628D01*
X75187028Y-99793628D02*
X75139409Y-99698390D01*
X75139409Y-99698390D02*
X75091790Y-99650771D01*
X75091790Y-99650771D02*
X74996552Y-99603152D01*
X74996552Y-99603152D02*
X74806076Y-99603152D01*
X74806076Y-99603152D02*
X74710838Y-99650771D01*
D13*
X79034438Y-90386966D02*
X79034438Y-89244109D01*
X79034438Y-89815537D02*
X77034438Y-89815537D01*
X77034438Y-89815537D02*
X77320152Y-89625061D01*
X77320152Y-89625061D02*
X77510628Y-89434585D01*
X77510628Y-89434585D02*
X77605866Y-89244109D01*
X77224914Y-91148871D02*
X77129676Y-91244109D01*
X77129676Y-91244109D02*
X77034438Y-91434585D01*
X77034438Y-91434585D02*
X77034438Y-91910776D01*
X77034438Y-91910776D02*
X77129676Y-92101252D01*
X77129676Y-92101252D02*
X77224914Y-92196490D01*
X77224914Y-92196490D02*
X77415390Y-92291728D01*
X77415390Y-92291728D02*
X77605866Y-92291728D01*
X77605866Y-92291728D02*
X77891580Y-92196490D01*
X77891580Y-92196490D02*
X79034438Y-91053633D01*
X79034438Y-91053633D02*
X79034438Y-92291728D01*
X77034438Y-92863157D02*
X79034438Y-93529823D01*
X79034438Y-93529823D02*
X77034438Y-94196490D01*
D14*
X178284819Y-58255952D02*
X177808628Y-57922619D01*
X178284819Y-57684524D02*
X177284819Y-57684524D01*
X177284819Y-57684524D02*
X177284819Y-58065476D01*
X177284819Y-58065476D02*
X177332438Y-58160714D01*
X177332438Y-58160714D02*
X177380057Y-58208333D01*
X177380057Y-58208333D02*
X177475295Y-58255952D01*
X177475295Y-58255952D02*
X177618152Y-58255952D01*
X177618152Y-58255952D02*
X177713390Y-58208333D01*
X177713390Y-58208333D02*
X177761009Y-58160714D01*
X177761009Y-58160714D02*
X177808628Y-58065476D01*
X177808628Y-58065476D02*
X177808628Y-57684524D01*
X177284819Y-59160714D02*
X177284819Y-58684524D01*
X177284819Y-58684524D02*
X177761009Y-58636905D01*
X177761009Y-58636905D02*
X177713390Y-58684524D01*
X177713390Y-58684524D02*
X177665771Y-58779762D01*
X177665771Y-58779762D02*
X177665771Y-59017857D01*
X177665771Y-59017857D02*
X177713390Y-59113095D01*
X177713390Y-59113095D02*
X177761009Y-59160714D01*
X177761009Y-59160714D02*
X177856247Y-59208333D01*
X177856247Y-59208333D02*
X178094342Y-59208333D01*
X178094342Y-59208333D02*
X178189580Y-59160714D01*
X178189580Y-59160714D02*
X178237200Y-59113095D01*
X178237200Y-59113095D02*
X178284819Y-59017857D01*
X178284819Y-59017857D02*
X178284819Y-58779762D01*
X178284819Y-58779762D02*
X178237200Y-58684524D01*
X178237200Y-58684524D02*
X178189580Y-58636905D01*
X177284819Y-59827381D02*
X177284819Y-59922619D01*
X177284819Y-59922619D02*
X177332438Y-60017857D01*
X177332438Y-60017857D02*
X177380057Y-60065476D01*
X177380057Y-60065476D02*
X177475295Y-60113095D01*
X177475295Y-60113095D02*
X177665771Y-60160714D01*
X177665771Y-60160714D02*
X177903866Y-60160714D01*
X177903866Y-60160714D02*
X178094342Y-60113095D01*
X178094342Y-60113095D02*
X178189580Y-60065476D01*
X178189580Y-60065476D02*
X178237200Y-60017857D01*
X178237200Y-60017857D02*
X178284819Y-59922619D01*
X178284819Y-59922619D02*
X178284819Y-59827381D01*
X178284819Y-59827381D02*
X178237200Y-59732143D01*
X178237200Y-59732143D02*
X178189580Y-59684524D01*
X178189580Y-59684524D02*
X178094342Y-59636905D01*
X178094342Y-59636905D02*
X177903866Y-59589286D01*
X177903866Y-59589286D02*
X177665771Y-59589286D01*
X177665771Y-59589286D02*
X177475295Y-59636905D01*
X177475295Y-59636905D02*
X177380057Y-59684524D01*
X177380057Y-59684524D02*
X177332438Y-59732143D01*
X177332438Y-59732143D02*
X177284819Y-59827381D01*
X177284819Y-60494048D02*
X177284819Y-61113095D01*
X177284819Y-61113095D02*
X177665771Y-60779762D01*
X177665771Y-60779762D02*
X177665771Y-60922619D01*
X177665771Y-60922619D02*
X177713390Y-61017857D01*
X177713390Y-61017857D02*
X177761009Y-61065476D01*
X177761009Y-61065476D02*
X177856247Y-61113095D01*
X177856247Y-61113095D02*
X178094342Y-61113095D01*
X178094342Y-61113095D02*
X178189580Y-61065476D01*
X178189580Y-61065476D02*
X178237200Y-61017857D01*
X178237200Y-61017857D02*
X178284819Y-60922619D01*
X178284819Y-60922619D02*
X178284819Y-60636905D01*
X178284819Y-60636905D02*
X178237200Y-60541667D01*
X178237200Y-60541667D02*
X178189580Y-60494048D01*
X118985714Y-74609819D02*
X118985714Y-75324104D01*
X118985714Y-75324104D02*
X119033333Y-75466961D01*
X119033333Y-75466961D02*
X119128571Y-75562200D01*
X119128571Y-75562200D02*
X119271428Y-75609819D01*
X119271428Y-75609819D02*
X119366666Y-75609819D01*
X118557142Y-74705057D02*
X118509523Y-74657438D01*
X118509523Y-74657438D02*
X118414285Y-74609819D01*
X118414285Y-74609819D02*
X118176190Y-74609819D01*
X118176190Y-74609819D02*
X118080952Y-74657438D01*
X118080952Y-74657438D02*
X118033333Y-74705057D01*
X118033333Y-74705057D02*
X117985714Y-74800295D01*
X117985714Y-74800295D02*
X117985714Y-74895533D01*
X117985714Y-74895533D02*
X118033333Y-75038390D01*
X118033333Y-75038390D02*
X118604761Y-75609819D01*
X118604761Y-75609819D02*
X117985714Y-75609819D01*
X117366666Y-74609819D02*
X117271428Y-74609819D01*
X117271428Y-74609819D02*
X117176190Y-74657438D01*
X117176190Y-74657438D02*
X117128571Y-74705057D01*
X117128571Y-74705057D02*
X117080952Y-74800295D01*
X117080952Y-74800295D02*
X117033333Y-74990771D01*
X117033333Y-74990771D02*
X117033333Y-75228866D01*
X117033333Y-75228866D02*
X117080952Y-75419342D01*
X117080952Y-75419342D02*
X117128571Y-75514580D01*
X117128571Y-75514580D02*
X117176190Y-75562200D01*
X117176190Y-75562200D02*
X117271428Y-75609819D01*
X117271428Y-75609819D02*
X117366666Y-75609819D01*
X117366666Y-75609819D02*
X117461904Y-75562200D01*
X117461904Y-75562200D02*
X117509523Y-75514580D01*
X117509523Y-75514580D02*
X117557142Y-75419342D01*
X117557142Y-75419342D02*
X117604761Y-75228866D01*
X117604761Y-75228866D02*
X117604761Y-74990771D01*
X117604761Y-74990771D02*
X117557142Y-74800295D01*
X117557142Y-74800295D02*
X117509523Y-74705057D01*
X117509523Y-74705057D02*
X117461904Y-74657438D01*
X117461904Y-74657438D02*
X117366666Y-74609819D01*
X116128571Y-74609819D02*
X116604761Y-74609819D01*
X116604761Y-74609819D02*
X116652380Y-75086009D01*
X116652380Y-75086009D02*
X116604761Y-75038390D01*
X116604761Y-75038390D02*
X116509523Y-74990771D01*
X116509523Y-74990771D02*
X116271428Y-74990771D01*
X116271428Y-74990771D02*
X116176190Y-75038390D01*
X116176190Y-75038390D02*
X116128571Y-75086009D01*
X116128571Y-75086009D02*
X116080952Y-75181247D01*
X116080952Y-75181247D02*
X116080952Y-75419342D01*
X116080952Y-75419342D02*
X116128571Y-75514580D01*
X116128571Y-75514580D02*
X116176190Y-75562200D01*
X116176190Y-75562200D02*
X116271428Y-75609819D01*
X116271428Y-75609819D02*
X116509523Y-75609819D01*
X116509523Y-75609819D02*
X116604761Y-75562200D01*
X116604761Y-75562200D02*
X116652380Y-75514580D01*
X163319047Y-55834819D02*
X163652380Y-55358628D01*
X163890475Y-55834819D02*
X163890475Y-54834819D01*
X163890475Y-54834819D02*
X163509523Y-54834819D01*
X163509523Y-54834819D02*
X163414285Y-54882438D01*
X163414285Y-54882438D02*
X163366666Y-54930057D01*
X163366666Y-54930057D02*
X163319047Y-55025295D01*
X163319047Y-55025295D02*
X163319047Y-55168152D01*
X163319047Y-55168152D02*
X163366666Y-55263390D01*
X163366666Y-55263390D02*
X163414285Y-55311009D01*
X163414285Y-55311009D02*
X163509523Y-55358628D01*
X163509523Y-55358628D02*
X163890475Y-55358628D01*
X162461904Y-55168152D02*
X162461904Y-55834819D01*
X162699999Y-54787200D02*
X162938094Y-55501485D01*
X162938094Y-55501485D02*
X162319047Y-55501485D01*
X161747618Y-54834819D02*
X161652380Y-54834819D01*
X161652380Y-54834819D02*
X161557142Y-54882438D01*
X161557142Y-54882438D02*
X161509523Y-54930057D01*
X161509523Y-54930057D02*
X161461904Y-55025295D01*
X161461904Y-55025295D02*
X161414285Y-55215771D01*
X161414285Y-55215771D02*
X161414285Y-55453866D01*
X161414285Y-55453866D02*
X161461904Y-55644342D01*
X161461904Y-55644342D02*
X161509523Y-55739580D01*
X161509523Y-55739580D02*
X161557142Y-55787200D01*
X161557142Y-55787200D02*
X161652380Y-55834819D01*
X161652380Y-55834819D02*
X161747618Y-55834819D01*
X161747618Y-55834819D02*
X161842856Y-55787200D01*
X161842856Y-55787200D02*
X161890475Y-55739580D01*
X161890475Y-55739580D02*
X161938094Y-55644342D01*
X161938094Y-55644342D02*
X161985713Y-55453866D01*
X161985713Y-55453866D02*
X161985713Y-55215771D01*
X161985713Y-55215771D02*
X161938094Y-55025295D01*
X161938094Y-55025295D02*
X161890475Y-54930057D01*
X161890475Y-54930057D02*
X161842856Y-54882438D01*
X161842856Y-54882438D02*
X161747618Y-54834819D01*
X160842856Y-55263390D02*
X160938094Y-55215771D01*
X160938094Y-55215771D02*
X160985713Y-55168152D01*
X160985713Y-55168152D02*
X161033332Y-55072914D01*
X161033332Y-55072914D02*
X161033332Y-55025295D01*
X161033332Y-55025295D02*
X160985713Y-54930057D01*
X160985713Y-54930057D02*
X160938094Y-54882438D01*
X160938094Y-54882438D02*
X160842856Y-54834819D01*
X160842856Y-54834819D02*
X160652380Y-54834819D01*
X160652380Y-54834819D02*
X160557142Y-54882438D01*
X160557142Y-54882438D02*
X160509523Y-54930057D01*
X160509523Y-54930057D02*
X160461904Y-55025295D01*
X160461904Y-55025295D02*
X160461904Y-55072914D01*
X160461904Y-55072914D02*
X160509523Y-55168152D01*
X160509523Y-55168152D02*
X160557142Y-55215771D01*
X160557142Y-55215771D02*
X160652380Y-55263390D01*
X160652380Y-55263390D02*
X160842856Y-55263390D01*
X160842856Y-55263390D02*
X160938094Y-55311009D01*
X160938094Y-55311009D02*
X160985713Y-55358628D01*
X160985713Y-55358628D02*
X161033332Y-55453866D01*
X161033332Y-55453866D02*
X161033332Y-55644342D01*
X161033332Y-55644342D02*
X160985713Y-55739580D01*
X160985713Y-55739580D02*
X160938094Y-55787200D01*
X160938094Y-55787200D02*
X160842856Y-55834819D01*
X160842856Y-55834819D02*
X160652380Y-55834819D01*
X160652380Y-55834819D02*
X160557142Y-55787200D01*
X160557142Y-55787200D02*
X160509523Y-55739580D01*
X160509523Y-55739580D02*
X160461904Y-55644342D01*
X160461904Y-55644342D02*
X160461904Y-55453866D01*
X160461904Y-55453866D02*
X160509523Y-55358628D01*
X160509523Y-55358628D02*
X160557142Y-55311009D01*
X160557142Y-55311009D02*
X160652380Y-55263390D01*
X86606547Y-47734819D02*
X86939880Y-47258628D01*
X87177975Y-47734819D02*
X87177975Y-46734819D01*
X87177975Y-46734819D02*
X86797023Y-46734819D01*
X86797023Y-46734819D02*
X86701785Y-46782438D01*
X86701785Y-46782438D02*
X86654166Y-46830057D01*
X86654166Y-46830057D02*
X86606547Y-46925295D01*
X86606547Y-46925295D02*
X86606547Y-47068152D01*
X86606547Y-47068152D02*
X86654166Y-47163390D01*
X86654166Y-47163390D02*
X86701785Y-47211009D01*
X86701785Y-47211009D02*
X86797023Y-47258628D01*
X86797023Y-47258628D02*
X87177975Y-47258628D01*
X85749404Y-47068152D02*
X85749404Y-47734819D01*
X85987499Y-46687200D02*
X86225594Y-47401485D01*
X86225594Y-47401485D02*
X85606547Y-47401485D01*
X85035118Y-46734819D02*
X84939880Y-46734819D01*
X84939880Y-46734819D02*
X84844642Y-46782438D01*
X84844642Y-46782438D02*
X84797023Y-46830057D01*
X84797023Y-46830057D02*
X84749404Y-46925295D01*
X84749404Y-46925295D02*
X84701785Y-47115771D01*
X84701785Y-47115771D02*
X84701785Y-47353866D01*
X84701785Y-47353866D02*
X84749404Y-47544342D01*
X84749404Y-47544342D02*
X84797023Y-47639580D01*
X84797023Y-47639580D02*
X84844642Y-47687200D01*
X84844642Y-47687200D02*
X84939880Y-47734819D01*
X84939880Y-47734819D02*
X85035118Y-47734819D01*
X85035118Y-47734819D02*
X85130356Y-47687200D01*
X85130356Y-47687200D02*
X85177975Y-47639580D01*
X85177975Y-47639580D02*
X85225594Y-47544342D01*
X85225594Y-47544342D02*
X85273213Y-47353866D01*
X85273213Y-47353866D02*
X85273213Y-47115771D01*
X85273213Y-47115771D02*
X85225594Y-46925295D01*
X85225594Y-46925295D02*
X85177975Y-46830057D01*
X85177975Y-46830057D02*
X85130356Y-46782438D01*
X85130356Y-46782438D02*
X85035118Y-46734819D01*
X83749404Y-47734819D02*
X84320832Y-47734819D01*
X84035118Y-47734819D02*
X84035118Y-46734819D01*
X84035118Y-46734819D02*
X84130356Y-46877676D01*
X84130356Y-46877676D02*
X84225594Y-46972914D01*
X84225594Y-46972914D02*
X84320832Y-47020533D01*
X111985714Y-74609819D02*
X111985714Y-75324104D01*
X111985714Y-75324104D02*
X112033333Y-75466961D01*
X112033333Y-75466961D02*
X112128571Y-75562200D01*
X112128571Y-75562200D02*
X112271428Y-75609819D01*
X112271428Y-75609819D02*
X112366666Y-75609819D01*
X111557142Y-74705057D02*
X111509523Y-74657438D01*
X111509523Y-74657438D02*
X111414285Y-74609819D01*
X111414285Y-74609819D02*
X111176190Y-74609819D01*
X111176190Y-74609819D02*
X111080952Y-74657438D01*
X111080952Y-74657438D02*
X111033333Y-74705057D01*
X111033333Y-74705057D02*
X110985714Y-74800295D01*
X110985714Y-74800295D02*
X110985714Y-74895533D01*
X110985714Y-74895533D02*
X111033333Y-75038390D01*
X111033333Y-75038390D02*
X111604761Y-75609819D01*
X111604761Y-75609819D02*
X110985714Y-75609819D01*
X110366666Y-74609819D02*
X110271428Y-74609819D01*
X110271428Y-74609819D02*
X110176190Y-74657438D01*
X110176190Y-74657438D02*
X110128571Y-74705057D01*
X110128571Y-74705057D02*
X110080952Y-74800295D01*
X110080952Y-74800295D02*
X110033333Y-74990771D01*
X110033333Y-74990771D02*
X110033333Y-75228866D01*
X110033333Y-75228866D02*
X110080952Y-75419342D01*
X110080952Y-75419342D02*
X110128571Y-75514580D01*
X110128571Y-75514580D02*
X110176190Y-75562200D01*
X110176190Y-75562200D02*
X110271428Y-75609819D01*
X110271428Y-75609819D02*
X110366666Y-75609819D01*
X110366666Y-75609819D02*
X110461904Y-75562200D01*
X110461904Y-75562200D02*
X110509523Y-75514580D01*
X110509523Y-75514580D02*
X110557142Y-75419342D01*
X110557142Y-75419342D02*
X110604761Y-75228866D01*
X110604761Y-75228866D02*
X110604761Y-74990771D01*
X110604761Y-74990771D02*
X110557142Y-74800295D01*
X110557142Y-74800295D02*
X110509523Y-74705057D01*
X110509523Y-74705057D02*
X110461904Y-74657438D01*
X110461904Y-74657438D02*
X110366666Y-74609819D01*
X109176190Y-74943152D02*
X109176190Y-75609819D01*
X109414285Y-74562200D02*
X109652380Y-75276485D01*
X109652380Y-75276485D02*
X109033333Y-75276485D01*
X171359580Y-55080952D02*
X171407200Y-55033333D01*
X171407200Y-55033333D02*
X171454819Y-54890476D01*
X171454819Y-54890476D02*
X171454819Y-54795238D01*
X171454819Y-54795238D02*
X171407200Y-54652381D01*
X171407200Y-54652381D02*
X171311961Y-54557143D01*
X171311961Y-54557143D02*
X171216723Y-54509524D01*
X171216723Y-54509524D02*
X171026247Y-54461905D01*
X171026247Y-54461905D02*
X170883390Y-54461905D01*
X170883390Y-54461905D02*
X170692914Y-54509524D01*
X170692914Y-54509524D02*
X170597676Y-54557143D01*
X170597676Y-54557143D02*
X170502438Y-54652381D01*
X170502438Y-54652381D02*
X170454819Y-54795238D01*
X170454819Y-54795238D02*
X170454819Y-54890476D01*
X170454819Y-54890476D02*
X170502438Y-55033333D01*
X170502438Y-55033333D02*
X170550057Y-55080952D01*
X170454819Y-55985714D02*
X170454819Y-55509524D01*
X170454819Y-55509524D02*
X170931009Y-55461905D01*
X170931009Y-55461905D02*
X170883390Y-55509524D01*
X170883390Y-55509524D02*
X170835771Y-55604762D01*
X170835771Y-55604762D02*
X170835771Y-55842857D01*
X170835771Y-55842857D02*
X170883390Y-55938095D01*
X170883390Y-55938095D02*
X170931009Y-55985714D01*
X170931009Y-55985714D02*
X171026247Y-56033333D01*
X171026247Y-56033333D02*
X171264342Y-56033333D01*
X171264342Y-56033333D02*
X171359580Y-55985714D01*
X171359580Y-55985714D02*
X171407200Y-55938095D01*
X171407200Y-55938095D02*
X171454819Y-55842857D01*
X171454819Y-55842857D02*
X171454819Y-55604762D01*
X171454819Y-55604762D02*
X171407200Y-55509524D01*
X171407200Y-55509524D02*
X171359580Y-55461905D01*
X171454819Y-56985714D02*
X171454819Y-56414286D01*
X171454819Y-56700000D02*
X170454819Y-56700000D01*
X170454819Y-56700000D02*
X170597676Y-56604762D01*
X170597676Y-56604762D02*
X170692914Y-56509524D01*
X170692914Y-56509524D02*
X170740533Y-56414286D01*
X170454819Y-57604762D02*
X170454819Y-57700000D01*
X170454819Y-57700000D02*
X170502438Y-57795238D01*
X170502438Y-57795238D02*
X170550057Y-57842857D01*
X170550057Y-57842857D02*
X170645295Y-57890476D01*
X170645295Y-57890476D02*
X170835771Y-57938095D01*
X170835771Y-57938095D02*
X171073866Y-57938095D01*
X171073866Y-57938095D02*
X171264342Y-57890476D01*
X171264342Y-57890476D02*
X171359580Y-57842857D01*
X171359580Y-57842857D02*
X171407200Y-57795238D01*
X171407200Y-57795238D02*
X171454819Y-57700000D01*
X171454819Y-57700000D02*
X171454819Y-57604762D01*
X171454819Y-57604762D02*
X171407200Y-57509524D01*
X171407200Y-57509524D02*
X171359580Y-57461905D01*
X171359580Y-57461905D02*
X171264342Y-57414286D01*
X171264342Y-57414286D02*
X171073866Y-57366667D01*
X171073866Y-57366667D02*
X170835771Y-57366667D01*
X170835771Y-57366667D02*
X170645295Y-57414286D01*
X170645295Y-57414286D02*
X170550057Y-57461905D01*
X170550057Y-57461905D02*
X170502438Y-57509524D01*
X170502438Y-57509524D02*
X170454819Y-57604762D01*
X123214285Y-48254819D02*
X123214285Y-49064342D01*
X123214285Y-49064342D02*
X123166666Y-49159580D01*
X123166666Y-49159580D02*
X123119047Y-49207200D01*
X123119047Y-49207200D02*
X123023809Y-49254819D01*
X123023809Y-49254819D02*
X122833333Y-49254819D01*
X122833333Y-49254819D02*
X122738095Y-49207200D01*
X122738095Y-49207200D02*
X122690476Y-49159580D01*
X122690476Y-49159580D02*
X122642857Y-49064342D01*
X122642857Y-49064342D02*
X122642857Y-48254819D01*
X121690476Y-48254819D02*
X122166666Y-48254819D01*
X122166666Y-48254819D02*
X122214285Y-48731009D01*
X122214285Y-48731009D02*
X122166666Y-48683390D01*
X122166666Y-48683390D02*
X122071428Y-48635771D01*
X122071428Y-48635771D02*
X121833333Y-48635771D01*
X121833333Y-48635771D02*
X121738095Y-48683390D01*
X121738095Y-48683390D02*
X121690476Y-48731009D01*
X121690476Y-48731009D02*
X121642857Y-48826247D01*
X121642857Y-48826247D02*
X121642857Y-49064342D01*
X121642857Y-49064342D02*
X121690476Y-49159580D01*
X121690476Y-49159580D02*
X121738095Y-49207200D01*
X121738095Y-49207200D02*
X121833333Y-49254819D01*
X121833333Y-49254819D02*
X122071428Y-49254819D01*
X122071428Y-49254819D02*
X122166666Y-49207200D01*
X122166666Y-49207200D02*
X122214285Y-49159580D01*
X121023809Y-48254819D02*
X120928571Y-48254819D01*
X120928571Y-48254819D02*
X120833333Y-48302438D01*
X120833333Y-48302438D02*
X120785714Y-48350057D01*
X120785714Y-48350057D02*
X120738095Y-48445295D01*
X120738095Y-48445295D02*
X120690476Y-48635771D01*
X120690476Y-48635771D02*
X120690476Y-48873866D01*
X120690476Y-48873866D02*
X120738095Y-49064342D01*
X120738095Y-49064342D02*
X120785714Y-49159580D01*
X120785714Y-49159580D02*
X120833333Y-49207200D01*
X120833333Y-49207200D02*
X120928571Y-49254819D01*
X120928571Y-49254819D02*
X121023809Y-49254819D01*
X121023809Y-49254819D02*
X121119047Y-49207200D01*
X121119047Y-49207200D02*
X121166666Y-49159580D01*
X121166666Y-49159580D02*
X121214285Y-49064342D01*
X121214285Y-49064342D02*
X121261904Y-48873866D01*
X121261904Y-48873866D02*
X121261904Y-48635771D01*
X121261904Y-48635771D02*
X121214285Y-48445295D01*
X121214285Y-48445295D02*
X121166666Y-48350057D01*
X121166666Y-48350057D02*
X121119047Y-48302438D01*
X121119047Y-48302438D02*
X121023809Y-48254819D01*
X119738095Y-49254819D02*
X120309523Y-49254819D01*
X120023809Y-49254819D02*
X120023809Y-48254819D01*
X120023809Y-48254819D02*
X120119047Y-48397676D01*
X120119047Y-48397676D02*
X120214285Y-48492914D01*
X120214285Y-48492914D02*
X120309523Y-48540533D01*
X90959580Y-42380952D02*
X91007200Y-42333333D01*
X91007200Y-42333333D02*
X91054819Y-42190476D01*
X91054819Y-42190476D02*
X91054819Y-42095238D01*
X91054819Y-42095238D02*
X91007200Y-41952381D01*
X91007200Y-41952381D02*
X90911961Y-41857143D01*
X90911961Y-41857143D02*
X90816723Y-41809524D01*
X90816723Y-41809524D02*
X90626247Y-41761905D01*
X90626247Y-41761905D02*
X90483390Y-41761905D01*
X90483390Y-41761905D02*
X90292914Y-41809524D01*
X90292914Y-41809524D02*
X90197676Y-41857143D01*
X90197676Y-41857143D02*
X90102438Y-41952381D01*
X90102438Y-41952381D02*
X90054819Y-42095238D01*
X90054819Y-42095238D02*
X90054819Y-42190476D01*
X90054819Y-42190476D02*
X90102438Y-42333333D01*
X90102438Y-42333333D02*
X90150057Y-42380952D01*
X90054819Y-42714286D02*
X90054819Y-43333333D01*
X90054819Y-43333333D02*
X90435771Y-43000000D01*
X90435771Y-43000000D02*
X90435771Y-43142857D01*
X90435771Y-43142857D02*
X90483390Y-43238095D01*
X90483390Y-43238095D02*
X90531009Y-43285714D01*
X90531009Y-43285714D02*
X90626247Y-43333333D01*
X90626247Y-43333333D02*
X90864342Y-43333333D01*
X90864342Y-43333333D02*
X90959580Y-43285714D01*
X90959580Y-43285714D02*
X91007200Y-43238095D01*
X91007200Y-43238095D02*
X91054819Y-43142857D01*
X91054819Y-43142857D02*
X91054819Y-42857143D01*
X91054819Y-42857143D02*
X91007200Y-42761905D01*
X91007200Y-42761905D02*
X90959580Y-42714286D01*
X90054819Y-43952381D02*
X90054819Y-44047619D01*
X90054819Y-44047619D02*
X90102438Y-44142857D01*
X90102438Y-44142857D02*
X90150057Y-44190476D01*
X90150057Y-44190476D02*
X90245295Y-44238095D01*
X90245295Y-44238095D02*
X90435771Y-44285714D01*
X90435771Y-44285714D02*
X90673866Y-44285714D01*
X90673866Y-44285714D02*
X90864342Y-44238095D01*
X90864342Y-44238095D02*
X90959580Y-44190476D01*
X90959580Y-44190476D02*
X91007200Y-44142857D01*
X91007200Y-44142857D02*
X91054819Y-44047619D01*
X91054819Y-44047619D02*
X91054819Y-43952381D01*
X91054819Y-43952381D02*
X91007200Y-43857143D01*
X91007200Y-43857143D02*
X90959580Y-43809524D01*
X90959580Y-43809524D02*
X90864342Y-43761905D01*
X90864342Y-43761905D02*
X90673866Y-43714286D01*
X90673866Y-43714286D02*
X90435771Y-43714286D01*
X90435771Y-43714286D02*
X90245295Y-43761905D01*
X90245295Y-43761905D02*
X90150057Y-43809524D01*
X90150057Y-43809524D02*
X90102438Y-43857143D01*
X90102438Y-43857143D02*
X90054819Y-43952381D01*
X90483390Y-44857143D02*
X90435771Y-44761905D01*
X90435771Y-44761905D02*
X90388152Y-44714286D01*
X90388152Y-44714286D02*
X90292914Y-44666667D01*
X90292914Y-44666667D02*
X90245295Y-44666667D01*
X90245295Y-44666667D02*
X90150057Y-44714286D01*
X90150057Y-44714286D02*
X90102438Y-44761905D01*
X90102438Y-44761905D02*
X90054819Y-44857143D01*
X90054819Y-44857143D02*
X90054819Y-45047619D01*
X90054819Y-45047619D02*
X90102438Y-45142857D01*
X90102438Y-45142857D02*
X90150057Y-45190476D01*
X90150057Y-45190476D02*
X90245295Y-45238095D01*
X90245295Y-45238095D02*
X90292914Y-45238095D01*
X90292914Y-45238095D02*
X90388152Y-45190476D01*
X90388152Y-45190476D02*
X90435771Y-45142857D01*
X90435771Y-45142857D02*
X90483390Y-45047619D01*
X90483390Y-45047619D02*
X90483390Y-44857143D01*
X90483390Y-44857143D02*
X90531009Y-44761905D01*
X90531009Y-44761905D02*
X90578628Y-44714286D01*
X90578628Y-44714286D02*
X90673866Y-44666667D01*
X90673866Y-44666667D02*
X90864342Y-44666667D01*
X90864342Y-44666667D02*
X90959580Y-44714286D01*
X90959580Y-44714286D02*
X91007200Y-44761905D01*
X91007200Y-44761905D02*
X91054819Y-44857143D01*
X91054819Y-44857143D02*
X91054819Y-45047619D01*
X91054819Y-45047619D02*
X91007200Y-45142857D01*
X91007200Y-45142857D02*
X90959580Y-45190476D01*
X90959580Y-45190476D02*
X90864342Y-45238095D01*
X90864342Y-45238095D02*
X90673866Y-45238095D01*
X90673866Y-45238095D02*
X90578628Y-45190476D01*
X90578628Y-45190476D02*
X90531009Y-45142857D01*
X90531009Y-45142857D02*
X90483390Y-45047619D01*
X182319047Y-53554819D02*
X182652380Y-53078628D01*
X182890475Y-53554819D02*
X182890475Y-52554819D01*
X182890475Y-52554819D02*
X182509523Y-52554819D01*
X182509523Y-52554819D02*
X182414285Y-52602438D01*
X182414285Y-52602438D02*
X182366666Y-52650057D01*
X182366666Y-52650057D02*
X182319047Y-52745295D01*
X182319047Y-52745295D02*
X182319047Y-52888152D01*
X182319047Y-52888152D02*
X182366666Y-52983390D01*
X182366666Y-52983390D02*
X182414285Y-53031009D01*
X182414285Y-53031009D02*
X182509523Y-53078628D01*
X182509523Y-53078628D02*
X182890475Y-53078628D01*
X181414285Y-52554819D02*
X181890475Y-52554819D01*
X181890475Y-52554819D02*
X181938094Y-53031009D01*
X181938094Y-53031009D02*
X181890475Y-52983390D01*
X181890475Y-52983390D02*
X181795237Y-52935771D01*
X181795237Y-52935771D02*
X181557142Y-52935771D01*
X181557142Y-52935771D02*
X181461904Y-52983390D01*
X181461904Y-52983390D02*
X181414285Y-53031009D01*
X181414285Y-53031009D02*
X181366666Y-53126247D01*
X181366666Y-53126247D02*
X181366666Y-53364342D01*
X181366666Y-53364342D02*
X181414285Y-53459580D01*
X181414285Y-53459580D02*
X181461904Y-53507200D01*
X181461904Y-53507200D02*
X181557142Y-53554819D01*
X181557142Y-53554819D02*
X181795237Y-53554819D01*
X181795237Y-53554819D02*
X181890475Y-53507200D01*
X181890475Y-53507200D02*
X181938094Y-53459580D01*
X180747618Y-52554819D02*
X180652380Y-52554819D01*
X180652380Y-52554819D02*
X180557142Y-52602438D01*
X180557142Y-52602438D02*
X180509523Y-52650057D01*
X180509523Y-52650057D02*
X180461904Y-52745295D01*
X180461904Y-52745295D02*
X180414285Y-52935771D01*
X180414285Y-52935771D02*
X180414285Y-53173866D01*
X180414285Y-53173866D02*
X180461904Y-53364342D01*
X180461904Y-53364342D02*
X180509523Y-53459580D01*
X180509523Y-53459580D02*
X180557142Y-53507200D01*
X180557142Y-53507200D02*
X180652380Y-53554819D01*
X180652380Y-53554819D02*
X180747618Y-53554819D01*
X180747618Y-53554819D02*
X180842856Y-53507200D01*
X180842856Y-53507200D02*
X180890475Y-53459580D01*
X180890475Y-53459580D02*
X180938094Y-53364342D01*
X180938094Y-53364342D02*
X180985713Y-53173866D01*
X180985713Y-53173866D02*
X180985713Y-52935771D01*
X180985713Y-52935771D02*
X180938094Y-52745295D01*
X180938094Y-52745295D02*
X180890475Y-52650057D01*
X180890475Y-52650057D02*
X180842856Y-52602438D01*
X180842856Y-52602438D02*
X180747618Y-52554819D01*
X179938094Y-53554819D02*
X179747618Y-53554819D01*
X179747618Y-53554819D02*
X179652380Y-53507200D01*
X179652380Y-53507200D02*
X179604761Y-53459580D01*
X179604761Y-53459580D02*
X179509523Y-53316723D01*
X179509523Y-53316723D02*
X179461904Y-53126247D01*
X179461904Y-53126247D02*
X179461904Y-52745295D01*
X179461904Y-52745295D02*
X179509523Y-52650057D01*
X179509523Y-52650057D02*
X179557142Y-52602438D01*
X179557142Y-52602438D02*
X179652380Y-52554819D01*
X179652380Y-52554819D02*
X179842856Y-52554819D01*
X179842856Y-52554819D02*
X179938094Y-52602438D01*
X179938094Y-52602438D02*
X179985713Y-52650057D01*
X179985713Y-52650057D02*
X180033332Y-52745295D01*
X180033332Y-52745295D02*
X180033332Y-52983390D01*
X180033332Y-52983390D02*
X179985713Y-53078628D01*
X179985713Y-53078628D02*
X179938094Y-53126247D01*
X179938094Y-53126247D02*
X179842856Y-53173866D01*
X179842856Y-53173866D02*
X179652380Y-53173866D01*
X179652380Y-53173866D02*
X179557142Y-53126247D01*
X179557142Y-53126247D02*
X179509523Y-53078628D01*
X179509523Y-53078628D02*
X179461904Y-52983390D01*
X82585714Y-94409819D02*
X82585714Y-95124104D01*
X82585714Y-95124104D02*
X82633333Y-95266961D01*
X82633333Y-95266961D02*
X82728571Y-95362200D01*
X82728571Y-95362200D02*
X82871428Y-95409819D01*
X82871428Y-95409819D02*
X82966666Y-95409819D01*
X82157142Y-94505057D02*
X82109523Y-94457438D01*
X82109523Y-94457438D02*
X82014285Y-94409819D01*
X82014285Y-94409819D02*
X81776190Y-94409819D01*
X81776190Y-94409819D02*
X81680952Y-94457438D01*
X81680952Y-94457438D02*
X81633333Y-94505057D01*
X81633333Y-94505057D02*
X81585714Y-94600295D01*
X81585714Y-94600295D02*
X81585714Y-94695533D01*
X81585714Y-94695533D02*
X81633333Y-94838390D01*
X81633333Y-94838390D02*
X82204761Y-95409819D01*
X82204761Y-95409819D02*
X81585714Y-95409819D01*
X80966666Y-94409819D02*
X80871428Y-94409819D01*
X80871428Y-94409819D02*
X80776190Y-94457438D01*
X80776190Y-94457438D02*
X80728571Y-94505057D01*
X80728571Y-94505057D02*
X80680952Y-94600295D01*
X80680952Y-94600295D02*
X80633333Y-94790771D01*
X80633333Y-94790771D02*
X80633333Y-95028866D01*
X80633333Y-95028866D02*
X80680952Y-95219342D01*
X80680952Y-95219342D02*
X80728571Y-95314580D01*
X80728571Y-95314580D02*
X80776190Y-95362200D01*
X80776190Y-95362200D02*
X80871428Y-95409819D01*
X80871428Y-95409819D02*
X80966666Y-95409819D01*
X80966666Y-95409819D02*
X81061904Y-95362200D01*
X81061904Y-95362200D02*
X81109523Y-95314580D01*
X81109523Y-95314580D02*
X81157142Y-95219342D01*
X81157142Y-95219342D02*
X81204761Y-95028866D01*
X81204761Y-95028866D02*
X81204761Y-94790771D01*
X81204761Y-94790771D02*
X81157142Y-94600295D01*
X81157142Y-94600295D02*
X81109523Y-94505057D01*
X81109523Y-94505057D02*
X81061904Y-94457438D01*
X81061904Y-94457438D02*
X80966666Y-94409819D01*
X80061904Y-94838390D02*
X80157142Y-94790771D01*
X80157142Y-94790771D02*
X80204761Y-94743152D01*
X80204761Y-94743152D02*
X80252380Y-94647914D01*
X80252380Y-94647914D02*
X80252380Y-94600295D01*
X80252380Y-94600295D02*
X80204761Y-94505057D01*
X80204761Y-94505057D02*
X80157142Y-94457438D01*
X80157142Y-94457438D02*
X80061904Y-94409819D01*
X80061904Y-94409819D02*
X79871428Y-94409819D01*
X79871428Y-94409819D02*
X79776190Y-94457438D01*
X79776190Y-94457438D02*
X79728571Y-94505057D01*
X79728571Y-94505057D02*
X79680952Y-94600295D01*
X79680952Y-94600295D02*
X79680952Y-94647914D01*
X79680952Y-94647914D02*
X79728571Y-94743152D01*
X79728571Y-94743152D02*
X79776190Y-94790771D01*
X79776190Y-94790771D02*
X79871428Y-94838390D01*
X79871428Y-94838390D02*
X80061904Y-94838390D01*
X80061904Y-94838390D02*
X80157142Y-94886009D01*
X80157142Y-94886009D02*
X80204761Y-94933628D01*
X80204761Y-94933628D02*
X80252380Y-95028866D01*
X80252380Y-95028866D02*
X80252380Y-95219342D01*
X80252380Y-95219342D02*
X80204761Y-95314580D01*
X80204761Y-95314580D02*
X80157142Y-95362200D01*
X80157142Y-95362200D02*
X80061904Y-95409819D01*
X80061904Y-95409819D02*
X79871428Y-95409819D01*
X79871428Y-95409819D02*
X79776190Y-95362200D01*
X79776190Y-95362200D02*
X79728571Y-95314580D01*
X79728571Y-95314580D02*
X79680952Y-95219342D01*
X79680952Y-95219342D02*
X79680952Y-95028866D01*
X79680952Y-95028866D02*
X79728571Y-94933628D01*
X79728571Y-94933628D02*
X79776190Y-94886009D01*
X79776190Y-94886009D02*
X79871428Y-94838390D01*
X83559580Y-96680952D02*
X83607200Y-96633333D01*
X83607200Y-96633333D02*
X83654819Y-96490476D01*
X83654819Y-96490476D02*
X83654819Y-96395238D01*
X83654819Y-96395238D02*
X83607200Y-96252381D01*
X83607200Y-96252381D02*
X83511961Y-96157143D01*
X83511961Y-96157143D02*
X83416723Y-96109524D01*
X83416723Y-96109524D02*
X83226247Y-96061905D01*
X83226247Y-96061905D02*
X83083390Y-96061905D01*
X83083390Y-96061905D02*
X82892914Y-96109524D01*
X82892914Y-96109524D02*
X82797676Y-96157143D01*
X82797676Y-96157143D02*
X82702438Y-96252381D01*
X82702438Y-96252381D02*
X82654819Y-96395238D01*
X82654819Y-96395238D02*
X82654819Y-96490476D01*
X82654819Y-96490476D02*
X82702438Y-96633333D01*
X82702438Y-96633333D02*
X82750057Y-96680952D01*
X82750057Y-97061905D02*
X82702438Y-97109524D01*
X82702438Y-97109524D02*
X82654819Y-97204762D01*
X82654819Y-97204762D02*
X82654819Y-97442857D01*
X82654819Y-97442857D02*
X82702438Y-97538095D01*
X82702438Y-97538095D02*
X82750057Y-97585714D01*
X82750057Y-97585714D02*
X82845295Y-97633333D01*
X82845295Y-97633333D02*
X82940533Y-97633333D01*
X82940533Y-97633333D02*
X83083390Y-97585714D01*
X83083390Y-97585714D02*
X83654819Y-97014286D01*
X83654819Y-97014286D02*
X83654819Y-97633333D01*
X82654819Y-98252381D02*
X82654819Y-98347619D01*
X82654819Y-98347619D02*
X82702438Y-98442857D01*
X82702438Y-98442857D02*
X82750057Y-98490476D01*
X82750057Y-98490476D02*
X82845295Y-98538095D01*
X82845295Y-98538095D02*
X83035771Y-98585714D01*
X83035771Y-98585714D02*
X83273866Y-98585714D01*
X83273866Y-98585714D02*
X83464342Y-98538095D01*
X83464342Y-98538095D02*
X83559580Y-98490476D01*
X83559580Y-98490476D02*
X83607200Y-98442857D01*
X83607200Y-98442857D02*
X83654819Y-98347619D01*
X83654819Y-98347619D02*
X83654819Y-98252381D01*
X83654819Y-98252381D02*
X83607200Y-98157143D01*
X83607200Y-98157143D02*
X83559580Y-98109524D01*
X83559580Y-98109524D02*
X83464342Y-98061905D01*
X83464342Y-98061905D02*
X83273866Y-98014286D01*
X83273866Y-98014286D02*
X83035771Y-98014286D01*
X83035771Y-98014286D02*
X82845295Y-98061905D01*
X82845295Y-98061905D02*
X82750057Y-98109524D01*
X82750057Y-98109524D02*
X82702438Y-98157143D01*
X82702438Y-98157143D02*
X82654819Y-98252381D01*
X83654819Y-99538095D02*
X83654819Y-98966667D01*
X83654819Y-99252381D02*
X82654819Y-99252381D01*
X82654819Y-99252381D02*
X82797676Y-99157143D01*
X82797676Y-99157143D02*
X82892914Y-99061905D01*
X82892914Y-99061905D02*
X82940533Y-98966667D01*
X112754819Y-91314285D02*
X113469104Y-91314285D01*
X113469104Y-91314285D02*
X113611961Y-91266666D01*
X113611961Y-91266666D02*
X113707200Y-91171428D01*
X113707200Y-91171428D02*
X113754819Y-91028571D01*
X113754819Y-91028571D02*
X113754819Y-90933333D01*
X112850057Y-91742857D02*
X112802438Y-91790476D01*
X112802438Y-91790476D02*
X112754819Y-91885714D01*
X112754819Y-91885714D02*
X112754819Y-92123809D01*
X112754819Y-92123809D02*
X112802438Y-92219047D01*
X112802438Y-92219047D02*
X112850057Y-92266666D01*
X112850057Y-92266666D02*
X112945295Y-92314285D01*
X112945295Y-92314285D02*
X113040533Y-92314285D01*
X113040533Y-92314285D02*
X113183390Y-92266666D01*
X113183390Y-92266666D02*
X113754819Y-91695238D01*
X113754819Y-91695238D02*
X113754819Y-92314285D01*
X112754819Y-92933333D02*
X112754819Y-93028571D01*
X112754819Y-93028571D02*
X112802438Y-93123809D01*
X112802438Y-93123809D02*
X112850057Y-93171428D01*
X112850057Y-93171428D02*
X112945295Y-93219047D01*
X112945295Y-93219047D02*
X113135771Y-93266666D01*
X113135771Y-93266666D02*
X113373866Y-93266666D01*
X113373866Y-93266666D02*
X113564342Y-93219047D01*
X113564342Y-93219047D02*
X113659580Y-93171428D01*
X113659580Y-93171428D02*
X113707200Y-93123809D01*
X113707200Y-93123809D02*
X113754819Y-93028571D01*
X113754819Y-93028571D02*
X113754819Y-92933333D01*
X113754819Y-92933333D02*
X113707200Y-92838095D01*
X113707200Y-92838095D02*
X113659580Y-92790476D01*
X113659580Y-92790476D02*
X113564342Y-92742857D01*
X113564342Y-92742857D02*
X113373866Y-92695238D01*
X113373866Y-92695238D02*
X113135771Y-92695238D01*
X113135771Y-92695238D02*
X112945295Y-92742857D01*
X112945295Y-92742857D02*
X112850057Y-92790476D01*
X112850057Y-92790476D02*
X112802438Y-92838095D01*
X112802438Y-92838095D02*
X112754819Y-92933333D01*
X113754819Y-93742857D02*
X113754819Y-93933333D01*
X113754819Y-93933333D02*
X113707200Y-94028571D01*
X113707200Y-94028571D02*
X113659580Y-94076190D01*
X113659580Y-94076190D02*
X113516723Y-94171428D01*
X113516723Y-94171428D02*
X113326247Y-94219047D01*
X113326247Y-94219047D02*
X112945295Y-94219047D01*
X112945295Y-94219047D02*
X112850057Y-94171428D01*
X112850057Y-94171428D02*
X112802438Y-94123809D01*
X112802438Y-94123809D02*
X112754819Y-94028571D01*
X112754819Y-94028571D02*
X112754819Y-93838095D01*
X112754819Y-93838095D02*
X112802438Y-93742857D01*
X112802438Y-93742857D02*
X112850057Y-93695238D01*
X112850057Y-93695238D02*
X112945295Y-93647619D01*
X112945295Y-93647619D02*
X113183390Y-93647619D01*
X113183390Y-93647619D02*
X113278628Y-93695238D01*
X113278628Y-93695238D02*
X113326247Y-93742857D01*
X113326247Y-93742857D02*
X113373866Y-93838095D01*
X113373866Y-93838095D02*
X113373866Y-94028571D01*
X113373866Y-94028571D02*
X113326247Y-94123809D01*
X113326247Y-94123809D02*
X113278628Y-94171428D01*
X113278628Y-94171428D02*
X113183390Y-94219047D01*
X116459580Y-96680952D02*
X116507200Y-96633333D01*
X116507200Y-96633333D02*
X116554819Y-96490476D01*
X116554819Y-96490476D02*
X116554819Y-96395238D01*
X116554819Y-96395238D02*
X116507200Y-96252381D01*
X116507200Y-96252381D02*
X116411961Y-96157143D01*
X116411961Y-96157143D02*
X116316723Y-96109524D01*
X116316723Y-96109524D02*
X116126247Y-96061905D01*
X116126247Y-96061905D02*
X115983390Y-96061905D01*
X115983390Y-96061905D02*
X115792914Y-96109524D01*
X115792914Y-96109524D02*
X115697676Y-96157143D01*
X115697676Y-96157143D02*
X115602438Y-96252381D01*
X115602438Y-96252381D02*
X115554819Y-96395238D01*
X115554819Y-96395238D02*
X115554819Y-96490476D01*
X115554819Y-96490476D02*
X115602438Y-96633333D01*
X115602438Y-96633333D02*
X115650057Y-96680952D01*
X115650057Y-97061905D02*
X115602438Y-97109524D01*
X115602438Y-97109524D02*
X115554819Y-97204762D01*
X115554819Y-97204762D02*
X115554819Y-97442857D01*
X115554819Y-97442857D02*
X115602438Y-97538095D01*
X115602438Y-97538095D02*
X115650057Y-97585714D01*
X115650057Y-97585714D02*
X115745295Y-97633333D01*
X115745295Y-97633333D02*
X115840533Y-97633333D01*
X115840533Y-97633333D02*
X115983390Y-97585714D01*
X115983390Y-97585714D02*
X116554819Y-97014286D01*
X116554819Y-97014286D02*
X116554819Y-97633333D01*
X115554819Y-98252381D02*
X115554819Y-98347619D01*
X115554819Y-98347619D02*
X115602438Y-98442857D01*
X115602438Y-98442857D02*
X115650057Y-98490476D01*
X115650057Y-98490476D02*
X115745295Y-98538095D01*
X115745295Y-98538095D02*
X115935771Y-98585714D01*
X115935771Y-98585714D02*
X116173866Y-98585714D01*
X116173866Y-98585714D02*
X116364342Y-98538095D01*
X116364342Y-98538095D02*
X116459580Y-98490476D01*
X116459580Y-98490476D02*
X116507200Y-98442857D01*
X116507200Y-98442857D02*
X116554819Y-98347619D01*
X116554819Y-98347619D02*
X116554819Y-98252381D01*
X116554819Y-98252381D02*
X116507200Y-98157143D01*
X116507200Y-98157143D02*
X116459580Y-98109524D01*
X116459580Y-98109524D02*
X116364342Y-98061905D01*
X116364342Y-98061905D02*
X116173866Y-98014286D01*
X116173866Y-98014286D02*
X115935771Y-98014286D01*
X115935771Y-98014286D02*
X115745295Y-98061905D01*
X115745295Y-98061905D02*
X115650057Y-98109524D01*
X115650057Y-98109524D02*
X115602438Y-98157143D01*
X115602438Y-98157143D02*
X115554819Y-98252381D01*
X115554819Y-99442857D02*
X115554819Y-99252381D01*
X115554819Y-99252381D02*
X115602438Y-99157143D01*
X115602438Y-99157143D02*
X115650057Y-99109524D01*
X115650057Y-99109524D02*
X115792914Y-99014286D01*
X115792914Y-99014286D02*
X115983390Y-98966667D01*
X115983390Y-98966667D02*
X116364342Y-98966667D01*
X116364342Y-98966667D02*
X116459580Y-99014286D01*
X116459580Y-99014286D02*
X116507200Y-99061905D01*
X116507200Y-99061905D02*
X116554819Y-99157143D01*
X116554819Y-99157143D02*
X116554819Y-99347619D01*
X116554819Y-99347619D02*
X116507200Y-99442857D01*
X116507200Y-99442857D02*
X116459580Y-99490476D01*
X116459580Y-99490476D02*
X116364342Y-99538095D01*
X116364342Y-99538095D02*
X116126247Y-99538095D01*
X116126247Y-99538095D02*
X116031009Y-99490476D01*
X116031009Y-99490476D02*
X115983390Y-99442857D01*
X115983390Y-99442857D02*
X115935771Y-99347619D01*
X115935771Y-99347619D02*
X115935771Y-99157143D01*
X115935771Y-99157143D02*
X115983390Y-99061905D01*
X115983390Y-99061905D02*
X116031009Y-99014286D01*
X116031009Y-99014286D02*
X116126247Y-98966667D01*
X182319047Y-52254819D02*
X182652380Y-51778628D01*
X182890475Y-52254819D02*
X182890475Y-51254819D01*
X182890475Y-51254819D02*
X182509523Y-51254819D01*
X182509523Y-51254819D02*
X182414285Y-51302438D01*
X182414285Y-51302438D02*
X182366666Y-51350057D01*
X182366666Y-51350057D02*
X182319047Y-51445295D01*
X182319047Y-51445295D02*
X182319047Y-51588152D01*
X182319047Y-51588152D02*
X182366666Y-51683390D01*
X182366666Y-51683390D02*
X182414285Y-51731009D01*
X182414285Y-51731009D02*
X182509523Y-51778628D01*
X182509523Y-51778628D02*
X182890475Y-51778628D01*
X181414285Y-51254819D02*
X181890475Y-51254819D01*
X181890475Y-51254819D02*
X181938094Y-51731009D01*
X181938094Y-51731009D02*
X181890475Y-51683390D01*
X181890475Y-51683390D02*
X181795237Y-51635771D01*
X181795237Y-51635771D02*
X181557142Y-51635771D01*
X181557142Y-51635771D02*
X181461904Y-51683390D01*
X181461904Y-51683390D02*
X181414285Y-51731009D01*
X181414285Y-51731009D02*
X181366666Y-51826247D01*
X181366666Y-51826247D02*
X181366666Y-52064342D01*
X181366666Y-52064342D02*
X181414285Y-52159580D01*
X181414285Y-52159580D02*
X181461904Y-52207200D01*
X181461904Y-52207200D02*
X181557142Y-52254819D01*
X181557142Y-52254819D02*
X181795237Y-52254819D01*
X181795237Y-52254819D02*
X181890475Y-52207200D01*
X181890475Y-52207200D02*
X181938094Y-52159580D01*
X180414285Y-52254819D02*
X180985713Y-52254819D01*
X180699999Y-52254819D02*
X180699999Y-51254819D01*
X180699999Y-51254819D02*
X180795237Y-51397676D01*
X180795237Y-51397676D02*
X180890475Y-51492914D01*
X180890475Y-51492914D02*
X180985713Y-51540533D01*
X179795237Y-51254819D02*
X179699999Y-51254819D01*
X179699999Y-51254819D02*
X179604761Y-51302438D01*
X179604761Y-51302438D02*
X179557142Y-51350057D01*
X179557142Y-51350057D02*
X179509523Y-51445295D01*
X179509523Y-51445295D02*
X179461904Y-51635771D01*
X179461904Y-51635771D02*
X179461904Y-51873866D01*
X179461904Y-51873866D02*
X179509523Y-52064342D01*
X179509523Y-52064342D02*
X179557142Y-52159580D01*
X179557142Y-52159580D02*
X179604761Y-52207200D01*
X179604761Y-52207200D02*
X179699999Y-52254819D01*
X179699999Y-52254819D02*
X179795237Y-52254819D01*
X179795237Y-52254819D02*
X179890475Y-52207200D01*
X179890475Y-52207200D02*
X179938094Y-52159580D01*
X179938094Y-52159580D02*
X179985713Y-52064342D01*
X179985713Y-52064342D02*
X180033332Y-51873866D01*
X180033332Y-51873866D02*
X180033332Y-51635771D01*
X180033332Y-51635771D02*
X179985713Y-51445295D01*
X179985713Y-51445295D02*
X179938094Y-51350057D01*
X179938094Y-51350057D02*
X179890475Y-51302438D01*
X179890475Y-51302438D02*
X179795237Y-51254819D01*
X145319047Y-50359580D02*
X145366666Y-50407200D01*
X145366666Y-50407200D02*
X145509523Y-50454819D01*
X145509523Y-50454819D02*
X145604761Y-50454819D01*
X145604761Y-50454819D02*
X145747618Y-50407200D01*
X145747618Y-50407200D02*
X145842856Y-50311961D01*
X145842856Y-50311961D02*
X145890475Y-50216723D01*
X145890475Y-50216723D02*
X145938094Y-50026247D01*
X145938094Y-50026247D02*
X145938094Y-49883390D01*
X145938094Y-49883390D02*
X145890475Y-49692914D01*
X145890475Y-49692914D02*
X145842856Y-49597676D01*
X145842856Y-49597676D02*
X145747618Y-49502438D01*
X145747618Y-49502438D02*
X145604761Y-49454819D01*
X145604761Y-49454819D02*
X145509523Y-49454819D01*
X145509523Y-49454819D02*
X145366666Y-49502438D01*
X145366666Y-49502438D02*
X145319047Y-49550057D01*
X144985713Y-49454819D02*
X144366666Y-49454819D01*
X144366666Y-49454819D02*
X144699999Y-49835771D01*
X144699999Y-49835771D02*
X144557142Y-49835771D01*
X144557142Y-49835771D02*
X144461904Y-49883390D01*
X144461904Y-49883390D02*
X144414285Y-49931009D01*
X144414285Y-49931009D02*
X144366666Y-50026247D01*
X144366666Y-50026247D02*
X144366666Y-50264342D01*
X144366666Y-50264342D02*
X144414285Y-50359580D01*
X144414285Y-50359580D02*
X144461904Y-50407200D01*
X144461904Y-50407200D02*
X144557142Y-50454819D01*
X144557142Y-50454819D02*
X144842856Y-50454819D01*
X144842856Y-50454819D02*
X144938094Y-50407200D01*
X144938094Y-50407200D02*
X144985713Y-50359580D01*
X143747618Y-49454819D02*
X143652380Y-49454819D01*
X143652380Y-49454819D02*
X143557142Y-49502438D01*
X143557142Y-49502438D02*
X143509523Y-49550057D01*
X143509523Y-49550057D02*
X143461904Y-49645295D01*
X143461904Y-49645295D02*
X143414285Y-49835771D01*
X143414285Y-49835771D02*
X143414285Y-50073866D01*
X143414285Y-50073866D02*
X143461904Y-50264342D01*
X143461904Y-50264342D02*
X143509523Y-50359580D01*
X143509523Y-50359580D02*
X143557142Y-50407200D01*
X143557142Y-50407200D02*
X143652380Y-50454819D01*
X143652380Y-50454819D02*
X143747618Y-50454819D01*
X143747618Y-50454819D02*
X143842856Y-50407200D01*
X143842856Y-50407200D02*
X143890475Y-50359580D01*
X143890475Y-50359580D02*
X143938094Y-50264342D01*
X143938094Y-50264342D02*
X143985713Y-50073866D01*
X143985713Y-50073866D02*
X143985713Y-49835771D01*
X143985713Y-49835771D02*
X143938094Y-49645295D01*
X143938094Y-49645295D02*
X143890475Y-49550057D01*
X143890475Y-49550057D02*
X143842856Y-49502438D01*
X143842856Y-49502438D02*
X143747618Y-49454819D01*
X142509523Y-49454819D02*
X142985713Y-49454819D01*
X142985713Y-49454819D02*
X143033332Y-49931009D01*
X143033332Y-49931009D02*
X142985713Y-49883390D01*
X142985713Y-49883390D02*
X142890475Y-49835771D01*
X142890475Y-49835771D02*
X142652380Y-49835771D01*
X142652380Y-49835771D02*
X142557142Y-49883390D01*
X142557142Y-49883390D02*
X142509523Y-49931009D01*
X142509523Y-49931009D02*
X142461904Y-50026247D01*
X142461904Y-50026247D02*
X142461904Y-50264342D01*
X142461904Y-50264342D02*
X142509523Y-50359580D01*
X142509523Y-50359580D02*
X142557142Y-50407200D01*
X142557142Y-50407200D02*
X142652380Y-50454819D01*
X142652380Y-50454819D02*
X142890475Y-50454819D01*
X142890475Y-50454819D02*
X142985713Y-50407200D01*
X142985713Y-50407200D02*
X143033332Y-50359580D01*
X172959580Y-55080952D02*
X173007200Y-55033333D01*
X173007200Y-55033333D02*
X173054819Y-54890476D01*
X173054819Y-54890476D02*
X173054819Y-54795238D01*
X173054819Y-54795238D02*
X173007200Y-54652381D01*
X173007200Y-54652381D02*
X172911961Y-54557143D01*
X172911961Y-54557143D02*
X172816723Y-54509524D01*
X172816723Y-54509524D02*
X172626247Y-54461905D01*
X172626247Y-54461905D02*
X172483390Y-54461905D01*
X172483390Y-54461905D02*
X172292914Y-54509524D01*
X172292914Y-54509524D02*
X172197676Y-54557143D01*
X172197676Y-54557143D02*
X172102438Y-54652381D01*
X172102438Y-54652381D02*
X172054819Y-54795238D01*
X172054819Y-54795238D02*
X172054819Y-54890476D01*
X172054819Y-54890476D02*
X172102438Y-55033333D01*
X172102438Y-55033333D02*
X172150057Y-55080952D01*
X172054819Y-55985714D02*
X172054819Y-55509524D01*
X172054819Y-55509524D02*
X172531009Y-55461905D01*
X172531009Y-55461905D02*
X172483390Y-55509524D01*
X172483390Y-55509524D02*
X172435771Y-55604762D01*
X172435771Y-55604762D02*
X172435771Y-55842857D01*
X172435771Y-55842857D02*
X172483390Y-55938095D01*
X172483390Y-55938095D02*
X172531009Y-55985714D01*
X172531009Y-55985714D02*
X172626247Y-56033333D01*
X172626247Y-56033333D02*
X172864342Y-56033333D01*
X172864342Y-56033333D02*
X172959580Y-55985714D01*
X172959580Y-55985714D02*
X173007200Y-55938095D01*
X173007200Y-55938095D02*
X173054819Y-55842857D01*
X173054819Y-55842857D02*
X173054819Y-55604762D01*
X173054819Y-55604762D02*
X173007200Y-55509524D01*
X173007200Y-55509524D02*
X172959580Y-55461905D01*
X173054819Y-56985714D02*
X173054819Y-56414286D01*
X173054819Y-56700000D02*
X172054819Y-56700000D01*
X172054819Y-56700000D02*
X172197676Y-56604762D01*
X172197676Y-56604762D02*
X172292914Y-56509524D01*
X172292914Y-56509524D02*
X172340533Y-56414286D01*
X173054819Y-57938095D02*
X173054819Y-57366667D01*
X173054819Y-57652381D02*
X172054819Y-57652381D01*
X172054819Y-57652381D02*
X172197676Y-57557143D01*
X172197676Y-57557143D02*
X172292914Y-57461905D01*
X172292914Y-57461905D02*
X172340533Y-57366667D01*
X174959580Y-63580952D02*
X175007200Y-63533333D01*
X175007200Y-63533333D02*
X175054819Y-63390476D01*
X175054819Y-63390476D02*
X175054819Y-63295238D01*
X175054819Y-63295238D02*
X175007200Y-63152381D01*
X175007200Y-63152381D02*
X174911961Y-63057143D01*
X174911961Y-63057143D02*
X174816723Y-63009524D01*
X174816723Y-63009524D02*
X174626247Y-62961905D01*
X174626247Y-62961905D02*
X174483390Y-62961905D01*
X174483390Y-62961905D02*
X174292914Y-63009524D01*
X174292914Y-63009524D02*
X174197676Y-63057143D01*
X174197676Y-63057143D02*
X174102438Y-63152381D01*
X174102438Y-63152381D02*
X174054819Y-63295238D01*
X174054819Y-63295238D02*
X174054819Y-63390476D01*
X174054819Y-63390476D02*
X174102438Y-63533333D01*
X174102438Y-63533333D02*
X174150057Y-63580952D01*
X174054819Y-64485714D02*
X174054819Y-64009524D01*
X174054819Y-64009524D02*
X174531009Y-63961905D01*
X174531009Y-63961905D02*
X174483390Y-64009524D01*
X174483390Y-64009524D02*
X174435771Y-64104762D01*
X174435771Y-64104762D02*
X174435771Y-64342857D01*
X174435771Y-64342857D02*
X174483390Y-64438095D01*
X174483390Y-64438095D02*
X174531009Y-64485714D01*
X174531009Y-64485714D02*
X174626247Y-64533333D01*
X174626247Y-64533333D02*
X174864342Y-64533333D01*
X174864342Y-64533333D02*
X174959580Y-64485714D01*
X174959580Y-64485714D02*
X175007200Y-64438095D01*
X175007200Y-64438095D02*
X175054819Y-64342857D01*
X175054819Y-64342857D02*
X175054819Y-64104762D01*
X175054819Y-64104762D02*
X175007200Y-64009524D01*
X175007200Y-64009524D02*
X174959580Y-63961905D01*
X174054819Y-65152381D02*
X174054819Y-65247619D01*
X174054819Y-65247619D02*
X174102438Y-65342857D01*
X174102438Y-65342857D02*
X174150057Y-65390476D01*
X174150057Y-65390476D02*
X174245295Y-65438095D01*
X174245295Y-65438095D02*
X174435771Y-65485714D01*
X174435771Y-65485714D02*
X174673866Y-65485714D01*
X174673866Y-65485714D02*
X174864342Y-65438095D01*
X174864342Y-65438095D02*
X174959580Y-65390476D01*
X174959580Y-65390476D02*
X175007200Y-65342857D01*
X175007200Y-65342857D02*
X175054819Y-65247619D01*
X175054819Y-65247619D02*
X175054819Y-65152381D01*
X175054819Y-65152381D02*
X175007200Y-65057143D01*
X175007200Y-65057143D02*
X174959580Y-65009524D01*
X174959580Y-65009524D02*
X174864342Y-64961905D01*
X174864342Y-64961905D02*
X174673866Y-64914286D01*
X174673866Y-64914286D02*
X174435771Y-64914286D01*
X174435771Y-64914286D02*
X174245295Y-64961905D01*
X174245295Y-64961905D02*
X174150057Y-65009524D01*
X174150057Y-65009524D02*
X174102438Y-65057143D01*
X174102438Y-65057143D02*
X174054819Y-65152381D01*
X175054819Y-65961905D02*
X175054819Y-66152381D01*
X175054819Y-66152381D02*
X175007200Y-66247619D01*
X175007200Y-66247619D02*
X174959580Y-66295238D01*
X174959580Y-66295238D02*
X174816723Y-66390476D01*
X174816723Y-66390476D02*
X174626247Y-66438095D01*
X174626247Y-66438095D02*
X174245295Y-66438095D01*
X174245295Y-66438095D02*
X174150057Y-66390476D01*
X174150057Y-66390476D02*
X174102438Y-66342857D01*
X174102438Y-66342857D02*
X174054819Y-66247619D01*
X174054819Y-66247619D02*
X174054819Y-66057143D01*
X174054819Y-66057143D02*
X174102438Y-65961905D01*
X174102438Y-65961905D02*
X174150057Y-65914286D01*
X174150057Y-65914286D02*
X174245295Y-65866667D01*
X174245295Y-65866667D02*
X174483390Y-65866667D01*
X174483390Y-65866667D02*
X174578628Y-65914286D01*
X174578628Y-65914286D02*
X174626247Y-65961905D01*
X174626247Y-65961905D02*
X174673866Y-66057143D01*
X174673866Y-66057143D02*
X174673866Y-66247619D01*
X174673866Y-66247619D02*
X174626247Y-66342857D01*
X174626247Y-66342857D02*
X174578628Y-66390476D01*
X174578628Y-66390476D02*
X174483390Y-66438095D01*
X170259580Y-45880952D02*
X170307200Y-45833333D01*
X170307200Y-45833333D02*
X170354819Y-45690476D01*
X170354819Y-45690476D02*
X170354819Y-45595238D01*
X170354819Y-45595238D02*
X170307200Y-45452381D01*
X170307200Y-45452381D02*
X170211961Y-45357143D01*
X170211961Y-45357143D02*
X170116723Y-45309524D01*
X170116723Y-45309524D02*
X169926247Y-45261905D01*
X169926247Y-45261905D02*
X169783390Y-45261905D01*
X169783390Y-45261905D02*
X169592914Y-45309524D01*
X169592914Y-45309524D02*
X169497676Y-45357143D01*
X169497676Y-45357143D02*
X169402438Y-45452381D01*
X169402438Y-45452381D02*
X169354819Y-45595238D01*
X169354819Y-45595238D02*
X169354819Y-45690476D01*
X169354819Y-45690476D02*
X169402438Y-45833333D01*
X169402438Y-45833333D02*
X169450057Y-45880952D01*
X169354819Y-46214286D02*
X169354819Y-46833333D01*
X169354819Y-46833333D02*
X169735771Y-46500000D01*
X169735771Y-46500000D02*
X169735771Y-46642857D01*
X169735771Y-46642857D02*
X169783390Y-46738095D01*
X169783390Y-46738095D02*
X169831009Y-46785714D01*
X169831009Y-46785714D02*
X169926247Y-46833333D01*
X169926247Y-46833333D02*
X170164342Y-46833333D01*
X170164342Y-46833333D02*
X170259580Y-46785714D01*
X170259580Y-46785714D02*
X170307200Y-46738095D01*
X170307200Y-46738095D02*
X170354819Y-46642857D01*
X170354819Y-46642857D02*
X170354819Y-46357143D01*
X170354819Y-46357143D02*
X170307200Y-46261905D01*
X170307200Y-46261905D02*
X170259580Y-46214286D01*
X169354819Y-47452381D02*
X169354819Y-47547619D01*
X169354819Y-47547619D02*
X169402438Y-47642857D01*
X169402438Y-47642857D02*
X169450057Y-47690476D01*
X169450057Y-47690476D02*
X169545295Y-47738095D01*
X169545295Y-47738095D02*
X169735771Y-47785714D01*
X169735771Y-47785714D02*
X169973866Y-47785714D01*
X169973866Y-47785714D02*
X170164342Y-47738095D01*
X170164342Y-47738095D02*
X170259580Y-47690476D01*
X170259580Y-47690476D02*
X170307200Y-47642857D01*
X170307200Y-47642857D02*
X170354819Y-47547619D01*
X170354819Y-47547619D02*
X170354819Y-47452381D01*
X170354819Y-47452381D02*
X170307200Y-47357143D01*
X170307200Y-47357143D02*
X170259580Y-47309524D01*
X170259580Y-47309524D02*
X170164342Y-47261905D01*
X170164342Y-47261905D02*
X169973866Y-47214286D01*
X169973866Y-47214286D02*
X169735771Y-47214286D01*
X169735771Y-47214286D02*
X169545295Y-47261905D01*
X169545295Y-47261905D02*
X169450057Y-47309524D01*
X169450057Y-47309524D02*
X169402438Y-47357143D01*
X169402438Y-47357143D02*
X169354819Y-47452381D01*
X169688152Y-48642857D02*
X170354819Y-48642857D01*
X169307200Y-48404762D02*
X170021485Y-48166667D01*
X170021485Y-48166667D02*
X170021485Y-48785714D01*
X118519047Y-47409580D02*
X118566666Y-47457200D01*
X118566666Y-47457200D02*
X118709523Y-47504819D01*
X118709523Y-47504819D02*
X118804761Y-47504819D01*
X118804761Y-47504819D02*
X118947618Y-47457200D01*
X118947618Y-47457200D02*
X119042856Y-47361961D01*
X119042856Y-47361961D02*
X119090475Y-47266723D01*
X119090475Y-47266723D02*
X119138094Y-47076247D01*
X119138094Y-47076247D02*
X119138094Y-46933390D01*
X119138094Y-46933390D02*
X119090475Y-46742914D01*
X119090475Y-46742914D02*
X119042856Y-46647676D01*
X119042856Y-46647676D02*
X118947618Y-46552438D01*
X118947618Y-46552438D02*
X118804761Y-46504819D01*
X118804761Y-46504819D02*
X118709523Y-46504819D01*
X118709523Y-46504819D02*
X118566666Y-46552438D01*
X118566666Y-46552438D02*
X118519047Y-46600057D01*
X117614285Y-46504819D02*
X118090475Y-46504819D01*
X118090475Y-46504819D02*
X118138094Y-46981009D01*
X118138094Y-46981009D02*
X118090475Y-46933390D01*
X118090475Y-46933390D02*
X117995237Y-46885771D01*
X117995237Y-46885771D02*
X117757142Y-46885771D01*
X117757142Y-46885771D02*
X117661904Y-46933390D01*
X117661904Y-46933390D02*
X117614285Y-46981009D01*
X117614285Y-46981009D02*
X117566666Y-47076247D01*
X117566666Y-47076247D02*
X117566666Y-47314342D01*
X117566666Y-47314342D02*
X117614285Y-47409580D01*
X117614285Y-47409580D02*
X117661904Y-47457200D01*
X117661904Y-47457200D02*
X117757142Y-47504819D01*
X117757142Y-47504819D02*
X117995237Y-47504819D01*
X117995237Y-47504819D02*
X118090475Y-47457200D01*
X118090475Y-47457200D02*
X118138094Y-47409580D01*
X116947618Y-46504819D02*
X116852380Y-46504819D01*
X116852380Y-46504819D02*
X116757142Y-46552438D01*
X116757142Y-46552438D02*
X116709523Y-46600057D01*
X116709523Y-46600057D02*
X116661904Y-46695295D01*
X116661904Y-46695295D02*
X116614285Y-46885771D01*
X116614285Y-46885771D02*
X116614285Y-47123866D01*
X116614285Y-47123866D02*
X116661904Y-47314342D01*
X116661904Y-47314342D02*
X116709523Y-47409580D01*
X116709523Y-47409580D02*
X116757142Y-47457200D01*
X116757142Y-47457200D02*
X116852380Y-47504819D01*
X116852380Y-47504819D02*
X116947618Y-47504819D01*
X116947618Y-47504819D02*
X117042856Y-47457200D01*
X117042856Y-47457200D02*
X117090475Y-47409580D01*
X117090475Y-47409580D02*
X117138094Y-47314342D01*
X117138094Y-47314342D02*
X117185713Y-47123866D01*
X117185713Y-47123866D02*
X117185713Y-46885771D01*
X117185713Y-46885771D02*
X117138094Y-46695295D01*
X117138094Y-46695295D02*
X117090475Y-46600057D01*
X117090475Y-46600057D02*
X117042856Y-46552438D01*
X117042856Y-46552438D02*
X116947618Y-46504819D01*
X116233332Y-46600057D02*
X116185713Y-46552438D01*
X116185713Y-46552438D02*
X116090475Y-46504819D01*
X116090475Y-46504819D02*
X115852380Y-46504819D01*
X115852380Y-46504819D02*
X115757142Y-46552438D01*
X115757142Y-46552438D02*
X115709523Y-46600057D01*
X115709523Y-46600057D02*
X115661904Y-46695295D01*
X115661904Y-46695295D02*
X115661904Y-46790533D01*
X115661904Y-46790533D02*
X115709523Y-46933390D01*
X115709523Y-46933390D02*
X116280951Y-47504819D01*
X116280951Y-47504819D02*
X115661904Y-47504819D01*
X187590475Y-52224819D02*
X187590475Y-51224819D01*
X187590475Y-51224819D02*
X187352380Y-51224819D01*
X187352380Y-51224819D02*
X187209523Y-51272438D01*
X187209523Y-51272438D02*
X187114285Y-51367676D01*
X187114285Y-51367676D02*
X187066666Y-51462914D01*
X187066666Y-51462914D02*
X187019047Y-51653390D01*
X187019047Y-51653390D02*
X187019047Y-51796247D01*
X187019047Y-51796247D02*
X187066666Y-51986723D01*
X187066666Y-51986723D02*
X187114285Y-52081961D01*
X187114285Y-52081961D02*
X187209523Y-52177200D01*
X187209523Y-52177200D02*
X187352380Y-52224819D01*
X187352380Y-52224819D02*
X187590475Y-52224819D01*
X186114285Y-51224819D02*
X186590475Y-51224819D01*
X186590475Y-51224819D02*
X186638094Y-51701009D01*
X186638094Y-51701009D02*
X186590475Y-51653390D01*
X186590475Y-51653390D02*
X186495237Y-51605771D01*
X186495237Y-51605771D02*
X186257142Y-51605771D01*
X186257142Y-51605771D02*
X186161904Y-51653390D01*
X186161904Y-51653390D02*
X186114285Y-51701009D01*
X186114285Y-51701009D02*
X186066666Y-51796247D01*
X186066666Y-51796247D02*
X186066666Y-52034342D01*
X186066666Y-52034342D02*
X186114285Y-52129580D01*
X186114285Y-52129580D02*
X186161904Y-52177200D01*
X186161904Y-52177200D02*
X186257142Y-52224819D01*
X186257142Y-52224819D02*
X186495237Y-52224819D01*
X186495237Y-52224819D02*
X186590475Y-52177200D01*
X186590475Y-52177200D02*
X186638094Y-52129580D01*
X185447618Y-51224819D02*
X185352380Y-51224819D01*
X185352380Y-51224819D02*
X185257142Y-51272438D01*
X185257142Y-51272438D02*
X185209523Y-51320057D01*
X185209523Y-51320057D02*
X185161904Y-51415295D01*
X185161904Y-51415295D02*
X185114285Y-51605771D01*
X185114285Y-51605771D02*
X185114285Y-51843866D01*
X185114285Y-51843866D02*
X185161904Y-52034342D01*
X185161904Y-52034342D02*
X185209523Y-52129580D01*
X185209523Y-52129580D02*
X185257142Y-52177200D01*
X185257142Y-52177200D02*
X185352380Y-52224819D01*
X185352380Y-52224819D02*
X185447618Y-52224819D01*
X185447618Y-52224819D02*
X185542856Y-52177200D01*
X185542856Y-52177200D02*
X185590475Y-52129580D01*
X185590475Y-52129580D02*
X185638094Y-52034342D01*
X185638094Y-52034342D02*
X185685713Y-51843866D01*
X185685713Y-51843866D02*
X185685713Y-51605771D01*
X185685713Y-51605771D02*
X185638094Y-51415295D01*
X185638094Y-51415295D02*
X185590475Y-51320057D01*
X185590475Y-51320057D02*
X185542856Y-51272438D01*
X185542856Y-51272438D02*
X185447618Y-51224819D01*
X184257142Y-51224819D02*
X184447618Y-51224819D01*
X184447618Y-51224819D02*
X184542856Y-51272438D01*
X184542856Y-51272438D02*
X184590475Y-51320057D01*
X184590475Y-51320057D02*
X184685713Y-51462914D01*
X184685713Y-51462914D02*
X184733332Y-51653390D01*
X184733332Y-51653390D02*
X184733332Y-52034342D01*
X184733332Y-52034342D02*
X184685713Y-52129580D01*
X184685713Y-52129580D02*
X184638094Y-52177200D01*
X184638094Y-52177200D02*
X184542856Y-52224819D01*
X184542856Y-52224819D02*
X184352380Y-52224819D01*
X184352380Y-52224819D02*
X184257142Y-52177200D01*
X184257142Y-52177200D02*
X184209523Y-52129580D01*
X184209523Y-52129580D02*
X184161904Y-52034342D01*
X184161904Y-52034342D02*
X184161904Y-51796247D01*
X184161904Y-51796247D02*
X184209523Y-51701009D01*
X184209523Y-51701009D02*
X184257142Y-51653390D01*
X184257142Y-51653390D02*
X184352380Y-51605771D01*
X184352380Y-51605771D02*
X184542856Y-51605771D01*
X184542856Y-51605771D02*
X184638094Y-51653390D01*
X184638094Y-51653390D02*
X184685713Y-51701009D01*
X184685713Y-51701009D02*
X184733332Y-51796247D01*
X156219047Y-52359580D02*
X156266666Y-52407200D01*
X156266666Y-52407200D02*
X156409523Y-52454819D01*
X156409523Y-52454819D02*
X156504761Y-52454819D01*
X156504761Y-52454819D02*
X156647618Y-52407200D01*
X156647618Y-52407200D02*
X156742856Y-52311961D01*
X156742856Y-52311961D02*
X156790475Y-52216723D01*
X156790475Y-52216723D02*
X156838094Y-52026247D01*
X156838094Y-52026247D02*
X156838094Y-51883390D01*
X156838094Y-51883390D02*
X156790475Y-51692914D01*
X156790475Y-51692914D02*
X156742856Y-51597676D01*
X156742856Y-51597676D02*
X156647618Y-51502438D01*
X156647618Y-51502438D02*
X156504761Y-51454819D01*
X156504761Y-51454819D02*
X156409523Y-51454819D01*
X156409523Y-51454819D02*
X156266666Y-51502438D01*
X156266666Y-51502438D02*
X156219047Y-51550057D01*
X155885713Y-51454819D02*
X155266666Y-51454819D01*
X155266666Y-51454819D02*
X155599999Y-51835771D01*
X155599999Y-51835771D02*
X155457142Y-51835771D01*
X155457142Y-51835771D02*
X155361904Y-51883390D01*
X155361904Y-51883390D02*
X155314285Y-51931009D01*
X155314285Y-51931009D02*
X155266666Y-52026247D01*
X155266666Y-52026247D02*
X155266666Y-52264342D01*
X155266666Y-52264342D02*
X155314285Y-52359580D01*
X155314285Y-52359580D02*
X155361904Y-52407200D01*
X155361904Y-52407200D02*
X155457142Y-52454819D01*
X155457142Y-52454819D02*
X155742856Y-52454819D01*
X155742856Y-52454819D02*
X155838094Y-52407200D01*
X155838094Y-52407200D02*
X155885713Y-52359580D01*
X154647618Y-51454819D02*
X154552380Y-51454819D01*
X154552380Y-51454819D02*
X154457142Y-51502438D01*
X154457142Y-51502438D02*
X154409523Y-51550057D01*
X154409523Y-51550057D02*
X154361904Y-51645295D01*
X154361904Y-51645295D02*
X154314285Y-51835771D01*
X154314285Y-51835771D02*
X154314285Y-52073866D01*
X154314285Y-52073866D02*
X154361904Y-52264342D01*
X154361904Y-52264342D02*
X154409523Y-52359580D01*
X154409523Y-52359580D02*
X154457142Y-52407200D01*
X154457142Y-52407200D02*
X154552380Y-52454819D01*
X154552380Y-52454819D02*
X154647618Y-52454819D01*
X154647618Y-52454819D02*
X154742856Y-52407200D01*
X154742856Y-52407200D02*
X154790475Y-52359580D01*
X154790475Y-52359580D02*
X154838094Y-52264342D01*
X154838094Y-52264342D02*
X154885713Y-52073866D01*
X154885713Y-52073866D02*
X154885713Y-51835771D01*
X154885713Y-51835771D02*
X154838094Y-51645295D01*
X154838094Y-51645295D02*
X154790475Y-51550057D01*
X154790475Y-51550057D02*
X154742856Y-51502438D01*
X154742856Y-51502438D02*
X154647618Y-51454819D01*
X153980951Y-51454819D02*
X153361904Y-51454819D01*
X153361904Y-51454819D02*
X153695237Y-51835771D01*
X153695237Y-51835771D02*
X153552380Y-51835771D01*
X153552380Y-51835771D02*
X153457142Y-51883390D01*
X153457142Y-51883390D02*
X153409523Y-51931009D01*
X153409523Y-51931009D02*
X153361904Y-52026247D01*
X153361904Y-52026247D02*
X153361904Y-52264342D01*
X153361904Y-52264342D02*
X153409523Y-52359580D01*
X153409523Y-52359580D02*
X153457142Y-52407200D01*
X153457142Y-52407200D02*
X153552380Y-52454819D01*
X153552380Y-52454819D02*
X153838094Y-52454819D01*
X153838094Y-52454819D02*
X153933332Y-52407200D01*
X153933332Y-52407200D02*
X153980951Y-52359580D01*
X89585714Y-74609819D02*
X89585714Y-75324104D01*
X89585714Y-75324104D02*
X89633333Y-75466961D01*
X89633333Y-75466961D02*
X89728571Y-75562200D01*
X89728571Y-75562200D02*
X89871428Y-75609819D01*
X89871428Y-75609819D02*
X89966666Y-75609819D01*
X89157142Y-74705057D02*
X89109523Y-74657438D01*
X89109523Y-74657438D02*
X89014285Y-74609819D01*
X89014285Y-74609819D02*
X88776190Y-74609819D01*
X88776190Y-74609819D02*
X88680952Y-74657438D01*
X88680952Y-74657438D02*
X88633333Y-74705057D01*
X88633333Y-74705057D02*
X88585714Y-74800295D01*
X88585714Y-74800295D02*
X88585714Y-74895533D01*
X88585714Y-74895533D02*
X88633333Y-75038390D01*
X88633333Y-75038390D02*
X89204761Y-75609819D01*
X89204761Y-75609819D02*
X88585714Y-75609819D01*
X87966666Y-74609819D02*
X87871428Y-74609819D01*
X87871428Y-74609819D02*
X87776190Y-74657438D01*
X87776190Y-74657438D02*
X87728571Y-74705057D01*
X87728571Y-74705057D02*
X87680952Y-74800295D01*
X87680952Y-74800295D02*
X87633333Y-74990771D01*
X87633333Y-74990771D02*
X87633333Y-75228866D01*
X87633333Y-75228866D02*
X87680952Y-75419342D01*
X87680952Y-75419342D02*
X87728571Y-75514580D01*
X87728571Y-75514580D02*
X87776190Y-75562200D01*
X87776190Y-75562200D02*
X87871428Y-75609819D01*
X87871428Y-75609819D02*
X87966666Y-75609819D01*
X87966666Y-75609819D02*
X88061904Y-75562200D01*
X88061904Y-75562200D02*
X88109523Y-75514580D01*
X88109523Y-75514580D02*
X88157142Y-75419342D01*
X88157142Y-75419342D02*
X88204761Y-75228866D01*
X88204761Y-75228866D02*
X88204761Y-74990771D01*
X88204761Y-74990771D02*
X88157142Y-74800295D01*
X88157142Y-74800295D02*
X88109523Y-74705057D01*
X88109523Y-74705057D02*
X88061904Y-74657438D01*
X88061904Y-74657438D02*
X87966666Y-74609819D01*
X86776190Y-74609819D02*
X86966666Y-74609819D01*
X86966666Y-74609819D02*
X87061904Y-74657438D01*
X87061904Y-74657438D02*
X87109523Y-74705057D01*
X87109523Y-74705057D02*
X87204761Y-74847914D01*
X87204761Y-74847914D02*
X87252380Y-75038390D01*
X87252380Y-75038390D02*
X87252380Y-75419342D01*
X87252380Y-75419342D02*
X87204761Y-75514580D01*
X87204761Y-75514580D02*
X87157142Y-75562200D01*
X87157142Y-75562200D02*
X87061904Y-75609819D01*
X87061904Y-75609819D02*
X86871428Y-75609819D01*
X86871428Y-75609819D02*
X86776190Y-75562200D01*
X86776190Y-75562200D02*
X86728571Y-75514580D01*
X86728571Y-75514580D02*
X86680952Y-75419342D01*
X86680952Y-75419342D02*
X86680952Y-75181247D01*
X86680952Y-75181247D02*
X86728571Y-75086009D01*
X86728571Y-75086009D02*
X86776190Y-75038390D01*
X86776190Y-75038390D02*
X86871428Y-74990771D01*
X86871428Y-74990771D02*
X87061904Y-74990771D01*
X87061904Y-74990771D02*
X87157142Y-75038390D01*
X87157142Y-75038390D02*
X87204761Y-75086009D01*
X87204761Y-75086009D02*
X87252380Y-75181247D01*
X114654819Y-91314285D02*
X115369104Y-91314285D01*
X115369104Y-91314285D02*
X115511961Y-91266666D01*
X115511961Y-91266666D02*
X115607200Y-91171428D01*
X115607200Y-91171428D02*
X115654819Y-91028571D01*
X115654819Y-91028571D02*
X115654819Y-90933333D01*
X114750057Y-91742857D02*
X114702438Y-91790476D01*
X114702438Y-91790476D02*
X114654819Y-91885714D01*
X114654819Y-91885714D02*
X114654819Y-92123809D01*
X114654819Y-92123809D02*
X114702438Y-92219047D01*
X114702438Y-92219047D02*
X114750057Y-92266666D01*
X114750057Y-92266666D02*
X114845295Y-92314285D01*
X114845295Y-92314285D02*
X114940533Y-92314285D01*
X114940533Y-92314285D02*
X115083390Y-92266666D01*
X115083390Y-92266666D02*
X115654819Y-91695238D01*
X115654819Y-91695238D02*
X115654819Y-92314285D01*
X115654819Y-93266666D02*
X115654819Y-92695238D01*
X115654819Y-92980952D02*
X114654819Y-92980952D01*
X114654819Y-92980952D02*
X114797676Y-92885714D01*
X114797676Y-92885714D02*
X114892914Y-92790476D01*
X114892914Y-92790476D02*
X114940533Y-92695238D01*
X114654819Y-93885714D02*
X114654819Y-93980952D01*
X114654819Y-93980952D02*
X114702438Y-94076190D01*
X114702438Y-94076190D02*
X114750057Y-94123809D01*
X114750057Y-94123809D02*
X114845295Y-94171428D01*
X114845295Y-94171428D02*
X115035771Y-94219047D01*
X115035771Y-94219047D02*
X115273866Y-94219047D01*
X115273866Y-94219047D02*
X115464342Y-94171428D01*
X115464342Y-94171428D02*
X115559580Y-94123809D01*
X115559580Y-94123809D02*
X115607200Y-94076190D01*
X115607200Y-94076190D02*
X115654819Y-93980952D01*
X115654819Y-93980952D02*
X115654819Y-93885714D01*
X115654819Y-93885714D02*
X115607200Y-93790476D01*
X115607200Y-93790476D02*
X115559580Y-93742857D01*
X115559580Y-93742857D02*
X115464342Y-93695238D01*
X115464342Y-93695238D02*
X115273866Y-93647619D01*
X115273866Y-93647619D02*
X115035771Y-93647619D01*
X115035771Y-93647619D02*
X114845295Y-93695238D01*
X114845295Y-93695238D02*
X114750057Y-93742857D01*
X114750057Y-93742857D02*
X114702438Y-93790476D01*
X114702438Y-93790476D02*
X114654819Y-93885714D01*
X182954819Y-84080952D02*
X182478628Y-83747619D01*
X182954819Y-83509524D02*
X181954819Y-83509524D01*
X181954819Y-83509524D02*
X181954819Y-83890476D01*
X181954819Y-83890476D02*
X182002438Y-83985714D01*
X182002438Y-83985714D02*
X182050057Y-84033333D01*
X182050057Y-84033333D02*
X182145295Y-84080952D01*
X182145295Y-84080952D02*
X182288152Y-84080952D01*
X182288152Y-84080952D02*
X182383390Y-84033333D01*
X182383390Y-84033333D02*
X182431009Y-83985714D01*
X182431009Y-83985714D02*
X182478628Y-83890476D01*
X182478628Y-83890476D02*
X182478628Y-83509524D01*
X182288152Y-84938095D02*
X182954819Y-84938095D01*
X181907200Y-84700000D02*
X182621485Y-84461905D01*
X182621485Y-84461905D02*
X182621485Y-85080952D01*
X181954819Y-85652381D02*
X181954819Y-85747619D01*
X181954819Y-85747619D02*
X182002438Y-85842857D01*
X182002438Y-85842857D02*
X182050057Y-85890476D01*
X182050057Y-85890476D02*
X182145295Y-85938095D01*
X182145295Y-85938095D02*
X182335771Y-85985714D01*
X182335771Y-85985714D02*
X182573866Y-85985714D01*
X182573866Y-85985714D02*
X182764342Y-85938095D01*
X182764342Y-85938095D02*
X182859580Y-85890476D01*
X182859580Y-85890476D02*
X182907200Y-85842857D01*
X182907200Y-85842857D02*
X182954819Y-85747619D01*
X182954819Y-85747619D02*
X182954819Y-85652381D01*
X182954819Y-85652381D02*
X182907200Y-85557143D01*
X182907200Y-85557143D02*
X182859580Y-85509524D01*
X182859580Y-85509524D02*
X182764342Y-85461905D01*
X182764342Y-85461905D02*
X182573866Y-85414286D01*
X182573866Y-85414286D02*
X182335771Y-85414286D01*
X182335771Y-85414286D02*
X182145295Y-85461905D01*
X182145295Y-85461905D02*
X182050057Y-85509524D01*
X182050057Y-85509524D02*
X182002438Y-85557143D01*
X182002438Y-85557143D02*
X181954819Y-85652381D01*
X181954819Y-86319048D02*
X181954819Y-86985714D01*
X181954819Y-86985714D02*
X182954819Y-86557143D01*
X82585714Y-74609819D02*
X82585714Y-75324104D01*
X82585714Y-75324104D02*
X82633333Y-75466961D01*
X82633333Y-75466961D02*
X82728571Y-75562200D01*
X82728571Y-75562200D02*
X82871428Y-75609819D01*
X82871428Y-75609819D02*
X82966666Y-75609819D01*
X82157142Y-74705057D02*
X82109523Y-74657438D01*
X82109523Y-74657438D02*
X82014285Y-74609819D01*
X82014285Y-74609819D02*
X81776190Y-74609819D01*
X81776190Y-74609819D02*
X81680952Y-74657438D01*
X81680952Y-74657438D02*
X81633333Y-74705057D01*
X81633333Y-74705057D02*
X81585714Y-74800295D01*
X81585714Y-74800295D02*
X81585714Y-74895533D01*
X81585714Y-74895533D02*
X81633333Y-75038390D01*
X81633333Y-75038390D02*
X82204761Y-75609819D01*
X82204761Y-75609819D02*
X81585714Y-75609819D01*
X80966666Y-74609819D02*
X80871428Y-74609819D01*
X80871428Y-74609819D02*
X80776190Y-74657438D01*
X80776190Y-74657438D02*
X80728571Y-74705057D01*
X80728571Y-74705057D02*
X80680952Y-74800295D01*
X80680952Y-74800295D02*
X80633333Y-74990771D01*
X80633333Y-74990771D02*
X80633333Y-75228866D01*
X80633333Y-75228866D02*
X80680952Y-75419342D01*
X80680952Y-75419342D02*
X80728571Y-75514580D01*
X80728571Y-75514580D02*
X80776190Y-75562200D01*
X80776190Y-75562200D02*
X80871428Y-75609819D01*
X80871428Y-75609819D02*
X80966666Y-75609819D01*
X80966666Y-75609819D02*
X81061904Y-75562200D01*
X81061904Y-75562200D02*
X81109523Y-75514580D01*
X81109523Y-75514580D02*
X81157142Y-75419342D01*
X81157142Y-75419342D02*
X81204761Y-75228866D01*
X81204761Y-75228866D02*
X81204761Y-74990771D01*
X81204761Y-74990771D02*
X81157142Y-74800295D01*
X81157142Y-74800295D02*
X81109523Y-74705057D01*
X81109523Y-74705057D02*
X81061904Y-74657438D01*
X81061904Y-74657438D02*
X80966666Y-74609819D01*
X80299999Y-74609819D02*
X79680952Y-74609819D01*
X79680952Y-74609819D02*
X80014285Y-74990771D01*
X80014285Y-74990771D02*
X79871428Y-74990771D01*
X79871428Y-74990771D02*
X79776190Y-75038390D01*
X79776190Y-75038390D02*
X79728571Y-75086009D01*
X79728571Y-75086009D02*
X79680952Y-75181247D01*
X79680952Y-75181247D02*
X79680952Y-75419342D01*
X79680952Y-75419342D02*
X79728571Y-75514580D01*
X79728571Y-75514580D02*
X79776190Y-75562200D01*
X79776190Y-75562200D02*
X79871428Y-75609819D01*
X79871428Y-75609819D02*
X80157142Y-75609819D01*
X80157142Y-75609819D02*
X80252380Y-75562200D01*
X80252380Y-75562200D02*
X80299999Y-75514580D01*
X183190475Y-58654819D02*
X183190475Y-57654819D01*
X183190475Y-57654819D02*
X182952380Y-57654819D01*
X182952380Y-57654819D02*
X182809523Y-57702438D01*
X182809523Y-57702438D02*
X182714285Y-57797676D01*
X182714285Y-57797676D02*
X182666666Y-57892914D01*
X182666666Y-57892914D02*
X182619047Y-58083390D01*
X182619047Y-58083390D02*
X182619047Y-58226247D01*
X182619047Y-58226247D02*
X182666666Y-58416723D01*
X182666666Y-58416723D02*
X182714285Y-58511961D01*
X182714285Y-58511961D02*
X182809523Y-58607200D01*
X182809523Y-58607200D02*
X182952380Y-58654819D01*
X182952380Y-58654819D02*
X183190475Y-58654819D01*
X181714285Y-57654819D02*
X182190475Y-57654819D01*
X182190475Y-57654819D02*
X182238094Y-58131009D01*
X182238094Y-58131009D02*
X182190475Y-58083390D01*
X182190475Y-58083390D02*
X182095237Y-58035771D01*
X182095237Y-58035771D02*
X181857142Y-58035771D01*
X181857142Y-58035771D02*
X181761904Y-58083390D01*
X181761904Y-58083390D02*
X181714285Y-58131009D01*
X181714285Y-58131009D02*
X181666666Y-58226247D01*
X181666666Y-58226247D02*
X181666666Y-58464342D01*
X181666666Y-58464342D02*
X181714285Y-58559580D01*
X181714285Y-58559580D02*
X181761904Y-58607200D01*
X181761904Y-58607200D02*
X181857142Y-58654819D01*
X181857142Y-58654819D02*
X182095237Y-58654819D01*
X182095237Y-58654819D02*
X182190475Y-58607200D01*
X182190475Y-58607200D02*
X182238094Y-58559580D01*
X181047618Y-57654819D02*
X180952380Y-57654819D01*
X180952380Y-57654819D02*
X180857142Y-57702438D01*
X180857142Y-57702438D02*
X180809523Y-57750057D01*
X180809523Y-57750057D02*
X180761904Y-57845295D01*
X180761904Y-57845295D02*
X180714285Y-58035771D01*
X180714285Y-58035771D02*
X180714285Y-58273866D01*
X180714285Y-58273866D02*
X180761904Y-58464342D01*
X180761904Y-58464342D02*
X180809523Y-58559580D01*
X180809523Y-58559580D02*
X180857142Y-58607200D01*
X180857142Y-58607200D02*
X180952380Y-58654819D01*
X180952380Y-58654819D02*
X181047618Y-58654819D01*
X181047618Y-58654819D02*
X181142856Y-58607200D01*
X181142856Y-58607200D02*
X181190475Y-58559580D01*
X181190475Y-58559580D02*
X181238094Y-58464342D01*
X181238094Y-58464342D02*
X181285713Y-58273866D01*
X181285713Y-58273866D02*
X181285713Y-58035771D01*
X181285713Y-58035771D02*
X181238094Y-57845295D01*
X181238094Y-57845295D02*
X181190475Y-57750057D01*
X181190475Y-57750057D02*
X181142856Y-57702438D01*
X181142856Y-57702438D02*
X181047618Y-57654819D01*
X179809523Y-57654819D02*
X180285713Y-57654819D01*
X180285713Y-57654819D02*
X180333332Y-58131009D01*
X180333332Y-58131009D02*
X180285713Y-58083390D01*
X180285713Y-58083390D02*
X180190475Y-58035771D01*
X180190475Y-58035771D02*
X179952380Y-58035771D01*
X179952380Y-58035771D02*
X179857142Y-58083390D01*
X179857142Y-58083390D02*
X179809523Y-58131009D01*
X179809523Y-58131009D02*
X179761904Y-58226247D01*
X179761904Y-58226247D02*
X179761904Y-58464342D01*
X179761904Y-58464342D02*
X179809523Y-58559580D01*
X179809523Y-58559580D02*
X179857142Y-58607200D01*
X179857142Y-58607200D02*
X179952380Y-58654819D01*
X179952380Y-58654819D02*
X180190475Y-58654819D01*
X180190475Y-58654819D02*
X180285713Y-58607200D01*
X180285713Y-58607200D02*
X180333332Y-58559580D01*
X150219047Y-47154819D02*
X150552380Y-46678628D01*
X150790475Y-47154819D02*
X150790475Y-46154819D01*
X150790475Y-46154819D02*
X150409523Y-46154819D01*
X150409523Y-46154819D02*
X150314285Y-46202438D01*
X150314285Y-46202438D02*
X150266666Y-46250057D01*
X150266666Y-46250057D02*
X150219047Y-46345295D01*
X150219047Y-46345295D02*
X150219047Y-46488152D01*
X150219047Y-46488152D02*
X150266666Y-46583390D01*
X150266666Y-46583390D02*
X150314285Y-46631009D01*
X150314285Y-46631009D02*
X150409523Y-46678628D01*
X150409523Y-46678628D02*
X150790475Y-46678628D01*
X149361904Y-46488152D02*
X149361904Y-47154819D01*
X149599999Y-46107200D02*
X149838094Y-46821485D01*
X149838094Y-46821485D02*
X149219047Y-46821485D01*
X148647618Y-46154819D02*
X148552380Y-46154819D01*
X148552380Y-46154819D02*
X148457142Y-46202438D01*
X148457142Y-46202438D02*
X148409523Y-46250057D01*
X148409523Y-46250057D02*
X148361904Y-46345295D01*
X148361904Y-46345295D02*
X148314285Y-46535771D01*
X148314285Y-46535771D02*
X148314285Y-46773866D01*
X148314285Y-46773866D02*
X148361904Y-46964342D01*
X148361904Y-46964342D02*
X148409523Y-47059580D01*
X148409523Y-47059580D02*
X148457142Y-47107200D01*
X148457142Y-47107200D02*
X148552380Y-47154819D01*
X148552380Y-47154819D02*
X148647618Y-47154819D01*
X148647618Y-47154819D02*
X148742856Y-47107200D01*
X148742856Y-47107200D02*
X148790475Y-47059580D01*
X148790475Y-47059580D02*
X148838094Y-46964342D01*
X148838094Y-46964342D02*
X148885713Y-46773866D01*
X148885713Y-46773866D02*
X148885713Y-46535771D01*
X148885713Y-46535771D02*
X148838094Y-46345295D01*
X148838094Y-46345295D02*
X148790475Y-46250057D01*
X148790475Y-46250057D02*
X148742856Y-46202438D01*
X148742856Y-46202438D02*
X148647618Y-46154819D01*
X147838094Y-47154819D02*
X147647618Y-47154819D01*
X147647618Y-47154819D02*
X147552380Y-47107200D01*
X147552380Y-47107200D02*
X147504761Y-47059580D01*
X147504761Y-47059580D02*
X147409523Y-46916723D01*
X147409523Y-46916723D02*
X147361904Y-46726247D01*
X147361904Y-46726247D02*
X147361904Y-46345295D01*
X147361904Y-46345295D02*
X147409523Y-46250057D01*
X147409523Y-46250057D02*
X147457142Y-46202438D01*
X147457142Y-46202438D02*
X147552380Y-46154819D01*
X147552380Y-46154819D02*
X147742856Y-46154819D01*
X147742856Y-46154819D02*
X147838094Y-46202438D01*
X147838094Y-46202438D02*
X147885713Y-46250057D01*
X147885713Y-46250057D02*
X147933332Y-46345295D01*
X147933332Y-46345295D02*
X147933332Y-46583390D01*
X147933332Y-46583390D02*
X147885713Y-46678628D01*
X147885713Y-46678628D02*
X147838094Y-46726247D01*
X147838094Y-46726247D02*
X147742856Y-46773866D01*
X147742856Y-46773866D02*
X147552380Y-46773866D01*
X147552380Y-46773866D02*
X147457142Y-46726247D01*
X147457142Y-46726247D02*
X147409523Y-46678628D01*
X147409523Y-46678628D02*
X147361904Y-46583390D01*
X152985714Y-74609819D02*
X152985714Y-75324104D01*
X152985714Y-75324104D02*
X153033333Y-75466961D01*
X153033333Y-75466961D02*
X153128571Y-75562200D01*
X153128571Y-75562200D02*
X153271428Y-75609819D01*
X153271428Y-75609819D02*
X153366666Y-75609819D01*
X152557142Y-74705057D02*
X152509523Y-74657438D01*
X152509523Y-74657438D02*
X152414285Y-74609819D01*
X152414285Y-74609819D02*
X152176190Y-74609819D01*
X152176190Y-74609819D02*
X152080952Y-74657438D01*
X152080952Y-74657438D02*
X152033333Y-74705057D01*
X152033333Y-74705057D02*
X151985714Y-74800295D01*
X151985714Y-74800295D02*
X151985714Y-74895533D01*
X151985714Y-74895533D02*
X152033333Y-75038390D01*
X152033333Y-75038390D02*
X152604761Y-75609819D01*
X152604761Y-75609819D02*
X151985714Y-75609819D01*
X151366666Y-74609819D02*
X151271428Y-74609819D01*
X151271428Y-74609819D02*
X151176190Y-74657438D01*
X151176190Y-74657438D02*
X151128571Y-74705057D01*
X151128571Y-74705057D02*
X151080952Y-74800295D01*
X151080952Y-74800295D02*
X151033333Y-74990771D01*
X151033333Y-74990771D02*
X151033333Y-75228866D01*
X151033333Y-75228866D02*
X151080952Y-75419342D01*
X151080952Y-75419342D02*
X151128571Y-75514580D01*
X151128571Y-75514580D02*
X151176190Y-75562200D01*
X151176190Y-75562200D02*
X151271428Y-75609819D01*
X151271428Y-75609819D02*
X151366666Y-75609819D01*
X151366666Y-75609819D02*
X151461904Y-75562200D01*
X151461904Y-75562200D02*
X151509523Y-75514580D01*
X151509523Y-75514580D02*
X151557142Y-75419342D01*
X151557142Y-75419342D02*
X151604761Y-75228866D01*
X151604761Y-75228866D02*
X151604761Y-74990771D01*
X151604761Y-74990771D02*
X151557142Y-74800295D01*
X151557142Y-74800295D02*
X151509523Y-74705057D01*
X151509523Y-74705057D02*
X151461904Y-74657438D01*
X151461904Y-74657438D02*
X151366666Y-74609819D01*
X150699999Y-74609819D02*
X150033333Y-74609819D01*
X150033333Y-74609819D02*
X150461904Y-75609819D01*
X168319047Y-84659580D02*
X168366666Y-84707200D01*
X168366666Y-84707200D02*
X168509523Y-84754819D01*
X168509523Y-84754819D02*
X168604761Y-84754819D01*
X168604761Y-84754819D02*
X168747618Y-84707200D01*
X168747618Y-84707200D02*
X168842856Y-84611961D01*
X168842856Y-84611961D02*
X168890475Y-84516723D01*
X168890475Y-84516723D02*
X168938094Y-84326247D01*
X168938094Y-84326247D02*
X168938094Y-84183390D01*
X168938094Y-84183390D02*
X168890475Y-83992914D01*
X168890475Y-83992914D02*
X168842856Y-83897676D01*
X168842856Y-83897676D02*
X168747618Y-83802438D01*
X168747618Y-83802438D02*
X168604761Y-83754819D01*
X168604761Y-83754819D02*
X168509523Y-83754819D01*
X168509523Y-83754819D02*
X168366666Y-83802438D01*
X168366666Y-83802438D02*
X168319047Y-83850057D01*
X167985713Y-83754819D02*
X167366666Y-83754819D01*
X167366666Y-83754819D02*
X167699999Y-84135771D01*
X167699999Y-84135771D02*
X167557142Y-84135771D01*
X167557142Y-84135771D02*
X167461904Y-84183390D01*
X167461904Y-84183390D02*
X167414285Y-84231009D01*
X167414285Y-84231009D02*
X167366666Y-84326247D01*
X167366666Y-84326247D02*
X167366666Y-84564342D01*
X167366666Y-84564342D02*
X167414285Y-84659580D01*
X167414285Y-84659580D02*
X167461904Y-84707200D01*
X167461904Y-84707200D02*
X167557142Y-84754819D01*
X167557142Y-84754819D02*
X167842856Y-84754819D01*
X167842856Y-84754819D02*
X167938094Y-84707200D01*
X167938094Y-84707200D02*
X167985713Y-84659580D01*
X166747618Y-83754819D02*
X166652380Y-83754819D01*
X166652380Y-83754819D02*
X166557142Y-83802438D01*
X166557142Y-83802438D02*
X166509523Y-83850057D01*
X166509523Y-83850057D02*
X166461904Y-83945295D01*
X166461904Y-83945295D02*
X166414285Y-84135771D01*
X166414285Y-84135771D02*
X166414285Y-84373866D01*
X166414285Y-84373866D02*
X166461904Y-84564342D01*
X166461904Y-84564342D02*
X166509523Y-84659580D01*
X166509523Y-84659580D02*
X166557142Y-84707200D01*
X166557142Y-84707200D02*
X166652380Y-84754819D01*
X166652380Y-84754819D02*
X166747618Y-84754819D01*
X166747618Y-84754819D02*
X166842856Y-84707200D01*
X166842856Y-84707200D02*
X166890475Y-84659580D01*
X166890475Y-84659580D02*
X166938094Y-84564342D01*
X166938094Y-84564342D02*
X166985713Y-84373866D01*
X166985713Y-84373866D02*
X166985713Y-84135771D01*
X166985713Y-84135771D02*
X166938094Y-83945295D01*
X166938094Y-83945295D02*
X166890475Y-83850057D01*
X166890475Y-83850057D02*
X166842856Y-83802438D01*
X166842856Y-83802438D02*
X166747618Y-83754819D01*
X166033332Y-83850057D02*
X165985713Y-83802438D01*
X165985713Y-83802438D02*
X165890475Y-83754819D01*
X165890475Y-83754819D02*
X165652380Y-83754819D01*
X165652380Y-83754819D02*
X165557142Y-83802438D01*
X165557142Y-83802438D02*
X165509523Y-83850057D01*
X165509523Y-83850057D02*
X165461904Y-83945295D01*
X165461904Y-83945295D02*
X165461904Y-84040533D01*
X165461904Y-84040533D02*
X165509523Y-84183390D01*
X165509523Y-84183390D02*
X166080951Y-84754819D01*
X166080951Y-84754819D02*
X165461904Y-84754819D01*
X98459580Y-96180952D02*
X98507200Y-96133333D01*
X98507200Y-96133333D02*
X98554819Y-95990476D01*
X98554819Y-95990476D02*
X98554819Y-95895238D01*
X98554819Y-95895238D02*
X98507200Y-95752381D01*
X98507200Y-95752381D02*
X98411961Y-95657143D01*
X98411961Y-95657143D02*
X98316723Y-95609524D01*
X98316723Y-95609524D02*
X98126247Y-95561905D01*
X98126247Y-95561905D02*
X97983390Y-95561905D01*
X97983390Y-95561905D02*
X97792914Y-95609524D01*
X97792914Y-95609524D02*
X97697676Y-95657143D01*
X97697676Y-95657143D02*
X97602438Y-95752381D01*
X97602438Y-95752381D02*
X97554819Y-95895238D01*
X97554819Y-95895238D02*
X97554819Y-95990476D01*
X97554819Y-95990476D02*
X97602438Y-96133333D01*
X97602438Y-96133333D02*
X97650057Y-96180952D01*
X97650057Y-96561905D02*
X97602438Y-96609524D01*
X97602438Y-96609524D02*
X97554819Y-96704762D01*
X97554819Y-96704762D02*
X97554819Y-96942857D01*
X97554819Y-96942857D02*
X97602438Y-97038095D01*
X97602438Y-97038095D02*
X97650057Y-97085714D01*
X97650057Y-97085714D02*
X97745295Y-97133333D01*
X97745295Y-97133333D02*
X97840533Y-97133333D01*
X97840533Y-97133333D02*
X97983390Y-97085714D01*
X97983390Y-97085714D02*
X98554819Y-96514286D01*
X98554819Y-96514286D02*
X98554819Y-97133333D01*
X97554819Y-97752381D02*
X97554819Y-97847619D01*
X97554819Y-97847619D02*
X97602438Y-97942857D01*
X97602438Y-97942857D02*
X97650057Y-97990476D01*
X97650057Y-97990476D02*
X97745295Y-98038095D01*
X97745295Y-98038095D02*
X97935771Y-98085714D01*
X97935771Y-98085714D02*
X98173866Y-98085714D01*
X98173866Y-98085714D02*
X98364342Y-98038095D01*
X98364342Y-98038095D02*
X98459580Y-97990476D01*
X98459580Y-97990476D02*
X98507200Y-97942857D01*
X98507200Y-97942857D02*
X98554819Y-97847619D01*
X98554819Y-97847619D02*
X98554819Y-97752381D01*
X98554819Y-97752381D02*
X98507200Y-97657143D01*
X98507200Y-97657143D02*
X98459580Y-97609524D01*
X98459580Y-97609524D02*
X98364342Y-97561905D01*
X98364342Y-97561905D02*
X98173866Y-97514286D01*
X98173866Y-97514286D02*
X97935771Y-97514286D01*
X97935771Y-97514286D02*
X97745295Y-97561905D01*
X97745295Y-97561905D02*
X97650057Y-97609524D01*
X97650057Y-97609524D02*
X97602438Y-97657143D01*
X97602438Y-97657143D02*
X97554819Y-97752381D01*
X97554819Y-98990476D02*
X97554819Y-98514286D01*
X97554819Y-98514286D02*
X98031009Y-98466667D01*
X98031009Y-98466667D02*
X97983390Y-98514286D01*
X97983390Y-98514286D02*
X97935771Y-98609524D01*
X97935771Y-98609524D02*
X97935771Y-98847619D01*
X97935771Y-98847619D02*
X97983390Y-98942857D01*
X97983390Y-98942857D02*
X98031009Y-98990476D01*
X98031009Y-98990476D02*
X98126247Y-99038095D01*
X98126247Y-99038095D02*
X98364342Y-99038095D01*
X98364342Y-99038095D02*
X98459580Y-98990476D01*
X98459580Y-98990476D02*
X98507200Y-98942857D01*
X98507200Y-98942857D02*
X98554819Y-98847619D01*
X98554819Y-98847619D02*
X98554819Y-98609524D01*
X98554819Y-98609524D02*
X98507200Y-98514286D01*
X98507200Y-98514286D02*
X98459580Y-98466667D01*
X185919047Y-63254819D02*
X186252380Y-62778628D01*
X186490475Y-63254819D02*
X186490475Y-62254819D01*
X186490475Y-62254819D02*
X186109523Y-62254819D01*
X186109523Y-62254819D02*
X186014285Y-62302438D01*
X186014285Y-62302438D02*
X185966666Y-62350057D01*
X185966666Y-62350057D02*
X185919047Y-62445295D01*
X185919047Y-62445295D02*
X185919047Y-62588152D01*
X185919047Y-62588152D02*
X185966666Y-62683390D01*
X185966666Y-62683390D02*
X186014285Y-62731009D01*
X186014285Y-62731009D02*
X186109523Y-62778628D01*
X186109523Y-62778628D02*
X186490475Y-62778628D01*
X185014285Y-62254819D02*
X185490475Y-62254819D01*
X185490475Y-62254819D02*
X185538094Y-62731009D01*
X185538094Y-62731009D02*
X185490475Y-62683390D01*
X185490475Y-62683390D02*
X185395237Y-62635771D01*
X185395237Y-62635771D02*
X185157142Y-62635771D01*
X185157142Y-62635771D02*
X185061904Y-62683390D01*
X185061904Y-62683390D02*
X185014285Y-62731009D01*
X185014285Y-62731009D02*
X184966666Y-62826247D01*
X184966666Y-62826247D02*
X184966666Y-63064342D01*
X184966666Y-63064342D02*
X185014285Y-63159580D01*
X185014285Y-63159580D02*
X185061904Y-63207200D01*
X185061904Y-63207200D02*
X185157142Y-63254819D01*
X185157142Y-63254819D02*
X185395237Y-63254819D01*
X185395237Y-63254819D02*
X185490475Y-63207200D01*
X185490475Y-63207200D02*
X185538094Y-63159580D01*
X184347618Y-62254819D02*
X184252380Y-62254819D01*
X184252380Y-62254819D02*
X184157142Y-62302438D01*
X184157142Y-62302438D02*
X184109523Y-62350057D01*
X184109523Y-62350057D02*
X184061904Y-62445295D01*
X184061904Y-62445295D02*
X184014285Y-62635771D01*
X184014285Y-62635771D02*
X184014285Y-62873866D01*
X184014285Y-62873866D02*
X184061904Y-63064342D01*
X184061904Y-63064342D02*
X184109523Y-63159580D01*
X184109523Y-63159580D02*
X184157142Y-63207200D01*
X184157142Y-63207200D02*
X184252380Y-63254819D01*
X184252380Y-63254819D02*
X184347618Y-63254819D01*
X184347618Y-63254819D02*
X184442856Y-63207200D01*
X184442856Y-63207200D02*
X184490475Y-63159580D01*
X184490475Y-63159580D02*
X184538094Y-63064342D01*
X184538094Y-63064342D02*
X184585713Y-62873866D01*
X184585713Y-62873866D02*
X184585713Y-62635771D01*
X184585713Y-62635771D02*
X184538094Y-62445295D01*
X184538094Y-62445295D02*
X184490475Y-62350057D01*
X184490475Y-62350057D02*
X184442856Y-62302438D01*
X184442856Y-62302438D02*
X184347618Y-62254819D01*
X183442856Y-62683390D02*
X183538094Y-62635771D01*
X183538094Y-62635771D02*
X183585713Y-62588152D01*
X183585713Y-62588152D02*
X183633332Y-62492914D01*
X183633332Y-62492914D02*
X183633332Y-62445295D01*
X183633332Y-62445295D02*
X183585713Y-62350057D01*
X183585713Y-62350057D02*
X183538094Y-62302438D01*
X183538094Y-62302438D02*
X183442856Y-62254819D01*
X183442856Y-62254819D02*
X183252380Y-62254819D01*
X183252380Y-62254819D02*
X183157142Y-62302438D01*
X183157142Y-62302438D02*
X183109523Y-62350057D01*
X183109523Y-62350057D02*
X183061904Y-62445295D01*
X183061904Y-62445295D02*
X183061904Y-62492914D01*
X183061904Y-62492914D02*
X183109523Y-62588152D01*
X183109523Y-62588152D02*
X183157142Y-62635771D01*
X183157142Y-62635771D02*
X183252380Y-62683390D01*
X183252380Y-62683390D02*
X183442856Y-62683390D01*
X183442856Y-62683390D02*
X183538094Y-62731009D01*
X183538094Y-62731009D02*
X183585713Y-62778628D01*
X183585713Y-62778628D02*
X183633332Y-62873866D01*
X183633332Y-62873866D02*
X183633332Y-63064342D01*
X183633332Y-63064342D02*
X183585713Y-63159580D01*
X183585713Y-63159580D02*
X183538094Y-63207200D01*
X183538094Y-63207200D02*
X183442856Y-63254819D01*
X183442856Y-63254819D02*
X183252380Y-63254819D01*
X183252380Y-63254819D02*
X183157142Y-63207200D01*
X183157142Y-63207200D02*
X183109523Y-63159580D01*
X183109523Y-63159580D02*
X183061904Y-63064342D01*
X183061904Y-63064342D02*
X183061904Y-62873866D01*
X183061904Y-62873866D02*
X183109523Y-62778628D01*
X183109523Y-62778628D02*
X183157142Y-62731009D01*
X183157142Y-62731009D02*
X183252380Y-62683390D01*
X80859580Y-42380952D02*
X80907200Y-42333333D01*
X80907200Y-42333333D02*
X80954819Y-42190476D01*
X80954819Y-42190476D02*
X80954819Y-42095238D01*
X80954819Y-42095238D02*
X80907200Y-41952381D01*
X80907200Y-41952381D02*
X80811961Y-41857143D01*
X80811961Y-41857143D02*
X80716723Y-41809524D01*
X80716723Y-41809524D02*
X80526247Y-41761905D01*
X80526247Y-41761905D02*
X80383390Y-41761905D01*
X80383390Y-41761905D02*
X80192914Y-41809524D01*
X80192914Y-41809524D02*
X80097676Y-41857143D01*
X80097676Y-41857143D02*
X80002438Y-41952381D01*
X80002438Y-41952381D02*
X79954819Y-42095238D01*
X79954819Y-42095238D02*
X79954819Y-42190476D01*
X79954819Y-42190476D02*
X80002438Y-42333333D01*
X80002438Y-42333333D02*
X80050057Y-42380952D01*
X79954819Y-42714286D02*
X79954819Y-43333333D01*
X79954819Y-43333333D02*
X80335771Y-43000000D01*
X80335771Y-43000000D02*
X80335771Y-43142857D01*
X80335771Y-43142857D02*
X80383390Y-43238095D01*
X80383390Y-43238095D02*
X80431009Y-43285714D01*
X80431009Y-43285714D02*
X80526247Y-43333333D01*
X80526247Y-43333333D02*
X80764342Y-43333333D01*
X80764342Y-43333333D02*
X80859580Y-43285714D01*
X80859580Y-43285714D02*
X80907200Y-43238095D01*
X80907200Y-43238095D02*
X80954819Y-43142857D01*
X80954819Y-43142857D02*
X80954819Y-42857143D01*
X80954819Y-42857143D02*
X80907200Y-42761905D01*
X80907200Y-42761905D02*
X80859580Y-42714286D01*
X79954819Y-43952381D02*
X79954819Y-44047619D01*
X79954819Y-44047619D02*
X80002438Y-44142857D01*
X80002438Y-44142857D02*
X80050057Y-44190476D01*
X80050057Y-44190476D02*
X80145295Y-44238095D01*
X80145295Y-44238095D02*
X80335771Y-44285714D01*
X80335771Y-44285714D02*
X80573866Y-44285714D01*
X80573866Y-44285714D02*
X80764342Y-44238095D01*
X80764342Y-44238095D02*
X80859580Y-44190476D01*
X80859580Y-44190476D02*
X80907200Y-44142857D01*
X80907200Y-44142857D02*
X80954819Y-44047619D01*
X80954819Y-44047619D02*
X80954819Y-43952381D01*
X80954819Y-43952381D02*
X80907200Y-43857143D01*
X80907200Y-43857143D02*
X80859580Y-43809524D01*
X80859580Y-43809524D02*
X80764342Y-43761905D01*
X80764342Y-43761905D02*
X80573866Y-43714286D01*
X80573866Y-43714286D02*
X80335771Y-43714286D01*
X80335771Y-43714286D02*
X80145295Y-43761905D01*
X80145295Y-43761905D02*
X80050057Y-43809524D01*
X80050057Y-43809524D02*
X80002438Y-43857143D01*
X80002438Y-43857143D02*
X79954819Y-43952381D01*
X79954819Y-44619048D02*
X79954819Y-45285714D01*
X79954819Y-45285714D02*
X80954819Y-44857143D01*
X98219047Y-47734819D02*
X98552380Y-47258628D01*
X98790475Y-47734819D02*
X98790475Y-46734819D01*
X98790475Y-46734819D02*
X98409523Y-46734819D01*
X98409523Y-46734819D02*
X98314285Y-46782438D01*
X98314285Y-46782438D02*
X98266666Y-46830057D01*
X98266666Y-46830057D02*
X98219047Y-46925295D01*
X98219047Y-46925295D02*
X98219047Y-47068152D01*
X98219047Y-47068152D02*
X98266666Y-47163390D01*
X98266666Y-47163390D02*
X98314285Y-47211009D01*
X98314285Y-47211009D02*
X98409523Y-47258628D01*
X98409523Y-47258628D02*
X98790475Y-47258628D01*
X97361904Y-47068152D02*
X97361904Y-47734819D01*
X97599999Y-46687200D02*
X97838094Y-47401485D01*
X97838094Y-47401485D02*
X97219047Y-47401485D01*
X96647618Y-46734819D02*
X96552380Y-46734819D01*
X96552380Y-46734819D02*
X96457142Y-46782438D01*
X96457142Y-46782438D02*
X96409523Y-46830057D01*
X96409523Y-46830057D02*
X96361904Y-46925295D01*
X96361904Y-46925295D02*
X96314285Y-47115771D01*
X96314285Y-47115771D02*
X96314285Y-47353866D01*
X96314285Y-47353866D02*
X96361904Y-47544342D01*
X96361904Y-47544342D02*
X96409523Y-47639580D01*
X96409523Y-47639580D02*
X96457142Y-47687200D01*
X96457142Y-47687200D02*
X96552380Y-47734819D01*
X96552380Y-47734819D02*
X96647618Y-47734819D01*
X96647618Y-47734819D02*
X96742856Y-47687200D01*
X96742856Y-47687200D02*
X96790475Y-47639580D01*
X96790475Y-47639580D02*
X96838094Y-47544342D01*
X96838094Y-47544342D02*
X96885713Y-47353866D01*
X96885713Y-47353866D02*
X96885713Y-47115771D01*
X96885713Y-47115771D02*
X96838094Y-46925295D01*
X96838094Y-46925295D02*
X96790475Y-46830057D01*
X96790475Y-46830057D02*
X96742856Y-46782438D01*
X96742856Y-46782438D02*
X96647618Y-46734819D01*
X95933332Y-46830057D02*
X95885713Y-46782438D01*
X95885713Y-46782438D02*
X95790475Y-46734819D01*
X95790475Y-46734819D02*
X95552380Y-46734819D01*
X95552380Y-46734819D02*
X95457142Y-46782438D01*
X95457142Y-46782438D02*
X95409523Y-46830057D01*
X95409523Y-46830057D02*
X95361904Y-46925295D01*
X95361904Y-46925295D02*
X95361904Y-47020533D01*
X95361904Y-47020533D02*
X95409523Y-47163390D01*
X95409523Y-47163390D02*
X95980951Y-47734819D01*
X95980951Y-47734819D02*
X95361904Y-47734819D01*
X102559580Y-42380952D02*
X102607200Y-42333333D01*
X102607200Y-42333333D02*
X102654819Y-42190476D01*
X102654819Y-42190476D02*
X102654819Y-42095238D01*
X102654819Y-42095238D02*
X102607200Y-41952381D01*
X102607200Y-41952381D02*
X102511961Y-41857143D01*
X102511961Y-41857143D02*
X102416723Y-41809524D01*
X102416723Y-41809524D02*
X102226247Y-41761905D01*
X102226247Y-41761905D02*
X102083390Y-41761905D01*
X102083390Y-41761905D02*
X101892914Y-41809524D01*
X101892914Y-41809524D02*
X101797676Y-41857143D01*
X101797676Y-41857143D02*
X101702438Y-41952381D01*
X101702438Y-41952381D02*
X101654819Y-42095238D01*
X101654819Y-42095238D02*
X101654819Y-42190476D01*
X101654819Y-42190476D02*
X101702438Y-42333333D01*
X101702438Y-42333333D02*
X101750057Y-42380952D01*
X101654819Y-42714286D02*
X101654819Y-43333333D01*
X101654819Y-43333333D02*
X102035771Y-43000000D01*
X102035771Y-43000000D02*
X102035771Y-43142857D01*
X102035771Y-43142857D02*
X102083390Y-43238095D01*
X102083390Y-43238095D02*
X102131009Y-43285714D01*
X102131009Y-43285714D02*
X102226247Y-43333333D01*
X102226247Y-43333333D02*
X102464342Y-43333333D01*
X102464342Y-43333333D02*
X102559580Y-43285714D01*
X102559580Y-43285714D02*
X102607200Y-43238095D01*
X102607200Y-43238095D02*
X102654819Y-43142857D01*
X102654819Y-43142857D02*
X102654819Y-42857143D01*
X102654819Y-42857143D02*
X102607200Y-42761905D01*
X102607200Y-42761905D02*
X102559580Y-42714286D01*
X102654819Y-44285714D02*
X102654819Y-43714286D01*
X102654819Y-44000000D02*
X101654819Y-44000000D01*
X101654819Y-44000000D02*
X101797676Y-43904762D01*
X101797676Y-43904762D02*
X101892914Y-43809524D01*
X101892914Y-43809524D02*
X101940533Y-43714286D01*
X101654819Y-44904762D02*
X101654819Y-45000000D01*
X101654819Y-45000000D02*
X101702438Y-45095238D01*
X101702438Y-45095238D02*
X101750057Y-45142857D01*
X101750057Y-45142857D02*
X101845295Y-45190476D01*
X101845295Y-45190476D02*
X102035771Y-45238095D01*
X102035771Y-45238095D02*
X102273866Y-45238095D01*
X102273866Y-45238095D02*
X102464342Y-45190476D01*
X102464342Y-45190476D02*
X102559580Y-45142857D01*
X102559580Y-45142857D02*
X102607200Y-45095238D01*
X102607200Y-45095238D02*
X102654819Y-45000000D01*
X102654819Y-45000000D02*
X102654819Y-44904762D01*
X102654819Y-44904762D02*
X102607200Y-44809524D01*
X102607200Y-44809524D02*
X102559580Y-44761905D01*
X102559580Y-44761905D02*
X102464342Y-44714286D01*
X102464342Y-44714286D02*
X102273866Y-44666667D01*
X102273866Y-44666667D02*
X102035771Y-44666667D01*
X102035771Y-44666667D02*
X101845295Y-44714286D01*
X101845295Y-44714286D02*
X101750057Y-44761905D01*
X101750057Y-44761905D02*
X101702438Y-44809524D01*
X101702438Y-44809524D02*
X101654819Y-44904762D01*
X183190475Y-59954819D02*
X183190475Y-58954819D01*
X183190475Y-58954819D02*
X182952380Y-58954819D01*
X182952380Y-58954819D02*
X182809523Y-59002438D01*
X182809523Y-59002438D02*
X182714285Y-59097676D01*
X182714285Y-59097676D02*
X182666666Y-59192914D01*
X182666666Y-59192914D02*
X182619047Y-59383390D01*
X182619047Y-59383390D02*
X182619047Y-59526247D01*
X182619047Y-59526247D02*
X182666666Y-59716723D01*
X182666666Y-59716723D02*
X182714285Y-59811961D01*
X182714285Y-59811961D02*
X182809523Y-59907200D01*
X182809523Y-59907200D02*
X182952380Y-59954819D01*
X182952380Y-59954819D02*
X183190475Y-59954819D01*
X181714285Y-58954819D02*
X182190475Y-58954819D01*
X182190475Y-58954819D02*
X182238094Y-59431009D01*
X182238094Y-59431009D02*
X182190475Y-59383390D01*
X182190475Y-59383390D02*
X182095237Y-59335771D01*
X182095237Y-59335771D02*
X181857142Y-59335771D01*
X181857142Y-59335771D02*
X181761904Y-59383390D01*
X181761904Y-59383390D02*
X181714285Y-59431009D01*
X181714285Y-59431009D02*
X181666666Y-59526247D01*
X181666666Y-59526247D02*
X181666666Y-59764342D01*
X181666666Y-59764342D02*
X181714285Y-59859580D01*
X181714285Y-59859580D02*
X181761904Y-59907200D01*
X181761904Y-59907200D02*
X181857142Y-59954819D01*
X181857142Y-59954819D02*
X182095237Y-59954819D01*
X182095237Y-59954819D02*
X182190475Y-59907200D01*
X182190475Y-59907200D02*
X182238094Y-59859580D01*
X181047618Y-58954819D02*
X180952380Y-58954819D01*
X180952380Y-58954819D02*
X180857142Y-59002438D01*
X180857142Y-59002438D02*
X180809523Y-59050057D01*
X180809523Y-59050057D02*
X180761904Y-59145295D01*
X180761904Y-59145295D02*
X180714285Y-59335771D01*
X180714285Y-59335771D02*
X180714285Y-59573866D01*
X180714285Y-59573866D02*
X180761904Y-59764342D01*
X180761904Y-59764342D02*
X180809523Y-59859580D01*
X180809523Y-59859580D02*
X180857142Y-59907200D01*
X180857142Y-59907200D02*
X180952380Y-59954819D01*
X180952380Y-59954819D02*
X181047618Y-59954819D01*
X181047618Y-59954819D02*
X181142856Y-59907200D01*
X181142856Y-59907200D02*
X181190475Y-59859580D01*
X181190475Y-59859580D02*
X181238094Y-59764342D01*
X181238094Y-59764342D02*
X181285713Y-59573866D01*
X181285713Y-59573866D02*
X181285713Y-59335771D01*
X181285713Y-59335771D02*
X181238094Y-59145295D01*
X181238094Y-59145295D02*
X181190475Y-59050057D01*
X181190475Y-59050057D02*
X181142856Y-59002438D01*
X181142856Y-59002438D02*
X181047618Y-58954819D01*
X179857142Y-59288152D02*
X179857142Y-59954819D01*
X180095237Y-58907200D02*
X180333332Y-59621485D01*
X180333332Y-59621485D02*
X179714285Y-59621485D01*
X124859580Y-40680952D02*
X124907200Y-40633333D01*
X124907200Y-40633333D02*
X124954819Y-40490476D01*
X124954819Y-40490476D02*
X124954819Y-40395238D01*
X124954819Y-40395238D02*
X124907200Y-40252381D01*
X124907200Y-40252381D02*
X124811961Y-40157143D01*
X124811961Y-40157143D02*
X124716723Y-40109524D01*
X124716723Y-40109524D02*
X124526247Y-40061905D01*
X124526247Y-40061905D02*
X124383390Y-40061905D01*
X124383390Y-40061905D02*
X124192914Y-40109524D01*
X124192914Y-40109524D02*
X124097676Y-40157143D01*
X124097676Y-40157143D02*
X124002438Y-40252381D01*
X124002438Y-40252381D02*
X123954819Y-40395238D01*
X123954819Y-40395238D02*
X123954819Y-40490476D01*
X123954819Y-40490476D02*
X124002438Y-40633333D01*
X124002438Y-40633333D02*
X124050057Y-40680952D01*
X123954819Y-41585714D02*
X123954819Y-41109524D01*
X123954819Y-41109524D02*
X124431009Y-41061905D01*
X124431009Y-41061905D02*
X124383390Y-41109524D01*
X124383390Y-41109524D02*
X124335771Y-41204762D01*
X124335771Y-41204762D02*
X124335771Y-41442857D01*
X124335771Y-41442857D02*
X124383390Y-41538095D01*
X124383390Y-41538095D02*
X124431009Y-41585714D01*
X124431009Y-41585714D02*
X124526247Y-41633333D01*
X124526247Y-41633333D02*
X124764342Y-41633333D01*
X124764342Y-41633333D02*
X124859580Y-41585714D01*
X124859580Y-41585714D02*
X124907200Y-41538095D01*
X124907200Y-41538095D02*
X124954819Y-41442857D01*
X124954819Y-41442857D02*
X124954819Y-41204762D01*
X124954819Y-41204762D02*
X124907200Y-41109524D01*
X124907200Y-41109524D02*
X124859580Y-41061905D01*
X123954819Y-42252381D02*
X123954819Y-42347619D01*
X123954819Y-42347619D02*
X124002438Y-42442857D01*
X124002438Y-42442857D02*
X124050057Y-42490476D01*
X124050057Y-42490476D02*
X124145295Y-42538095D01*
X124145295Y-42538095D02*
X124335771Y-42585714D01*
X124335771Y-42585714D02*
X124573866Y-42585714D01*
X124573866Y-42585714D02*
X124764342Y-42538095D01*
X124764342Y-42538095D02*
X124859580Y-42490476D01*
X124859580Y-42490476D02*
X124907200Y-42442857D01*
X124907200Y-42442857D02*
X124954819Y-42347619D01*
X124954819Y-42347619D02*
X124954819Y-42252381D01*
X124954819Y-42252381D02*
X124907200Y-42157143D01*
X124907200Y-42157143D02*
X124859580Y-42109524D01*
X124859580Y-42109524D02*
X124764342Y-42061905D01*
X124764342Y-42061905D02*
X124573866Y-42014286D01*
X124573866Y-42014286D02*
X124335771Y-42014286D01*
X124335771Y-42014286D02*
X124145295Y-42061905D01*
X124145295Y-42061905D02*
X124050057Y-42109524D01*
X124050057Y-42109524D02*
X124002438Y-42157143D01*
X124002438Y-42157143D02*
X123954819Y-42252381D01*
X123954819Y-42919048D02*
X123954819Y-43538095D01*
X123954819Y-43538095D02*
X124335771Y-43204762D01*
X124335771Y-43204762D02*
X124335771Y-43347619D01*
X124335771Y-43347619D02*
X124383390Y-43442857D01*
X124383390Y-43442857D02*
X124431009Y-43490476D01*
X124431009Y-43490476D02*
X124526247Y-43538095D01*
X124526247Y-43538095D02*
X124764342Y-43538095D01*
X124764342Y-43538095D02*
X124859580Y-43490476D01*
X124859580Y-43490476D02*
X124907200Y-43442857D01*
X124907200Y-43442857D02*
X124954819Y-43347619D01*
X124954819Y-43347619D02*
X124954819Y-43061905D01*
X124954819Y-43061905D02*
X124907200Y-42966667D01*
X124907200Y-42966667D02*
X124859580Y-42919048D01*
X89585714Y-94409819D02*
X89585714Y-95124104D01*
X89585714Y-95124104D02*
X89633333Y-95266961D01*
X89633333Y-95266961D02*
X89728571Y-95362200D01*
X89728571Y-95362200D02*
X89871428Y-95409819D01*
X89871428Y-95409819D02*
X89966666Y-95409819D01*
X89157142Y-94505057D02*
X89109523Y-94457438D01*
X89109523Y-94457438D02*
X89014285Y-94409819D01*
X89014285Y-94409819D02*
X88776190Y-94409819D01*
X88776190Y-94409819D02*
X88680952Y-94457438D01*
X88680952Y-94457438D02*
X88633333Y-94505057D01*
X88633333Y-94505057D02*
X88585714Y-94600295D01*
X88585714Y-94600295D02*
X88585714Y-94695533D01*
X88585714Y-94695533D02*
X88633333Y-94838390D01*
X88633333Y-94838390D02*
X89204761Y-95409819D01*
X89204761Y-95409819D02*
X88585714Y-95409819D01*
X87633333Y-95409819D02*
X88204761Y-95409819D01*
X87919047Y-95409819D02*
X87919047Y-94409819D01*
X87919047Y-94409819D02*
X88014285Y-94552676D01*
X88014285Y-94552676D02*
X88109523Y-94647914D01*
X88109523Y-94647914D02*
X88204761Y-94695533D01*
X86680952Y-95409819D02*
X87252380Y-95409819D01*
X86966666Y-95409819D02*
X86966666Y-94409819D01*
X86966666Y-94409819D02*
X87061904Y-94552676D01*
X87061904Y-94552676D02*
X87157142Y-94647914D01*
X87157142Y-94647914D02*
X87252380Y-94695533D01*
X121590475Y-39754819D02*
X121590475Y-38754819D01*
X121590475Y-38754819D02*
X121352380Y-38754819D01*
X121352380Y-38754819D02*
X121209523Y-38802438D01*
X121209523Y-38802438D02*
X121114285Y-38897676D01*
X121114285Y-38897676D02*
X121066666Y-38992914D01*
X121066666Y-38992914D02*
X121019047Y-39183390D01*
X121019047Y-39183390D02*
X121019047Y-39326247D01*
X121019047Y-39326247D02*
X121066666Y-39516723D01*
X121066666Y-39516723D02*
X121114285Y-39611961D01*
X121114285Y-39611961D02*
X121209523Y-39707200D01*
X121209523Y-39707200D02*
X121352380Y-39754819D01*
X121352380Y-39754819D02*
X121590475Y-39754819D01*
X120114285Y-38754819D02*
X120590475Y-38754819D01*
X120590475Y-38754819D02*
X120638094Y-39231009D01*
X120638094Y-39231009D02*
X120590475Y-39183390D01*
X120590475Y-39183390D02*
X120495237Y-39135771D01*
X120495237Y-39135771D02*
X120257142Y-39135771D01*
X120257142Y-39135771D02*
X120161904Y-39183390D01*
X120161904Y-39183390D02*
X120114285Y-39231009D01*
X120114285Y-39231009D02*
X120066666Y-39326247D01*
X120066666Y-39326247D02*
X120066666Y-39564342D01*
X120066666Y-39564342D02*
X120114285Y-39659580D01*
X120114285Y-39659580D02*
X120161904Y-39707200D01*
X120161904Y-39707200D02*
X120257142Y-39754819D01*
X120257142Y-39754819D02*
X120495237Y-39754819D01*
X120495237Y-39754819D02*
X120590475Y-39707200D01*
X120590475Y-39707200D02*
X120638094Y-39659580D01*
X119447618Y-38754819D02*
X119352380Y-38754819D01*
X119352380Y-38754819D02*
X119257142Y-38802438D01*
X119257142Y-38802438D02*
X119209523Y-38850057D01*
X119209523Y-38850057D02*
X119161904Y-38945295D01*
X119161904Y-38945295D02*
X119114285Y-39135771D01*
X119114285Y-39135771D02*
X119114285Y-39373866D01*
X119114285Y-39373866D02*
X119161904Y-39564342D01*
X119161904Y-39564342D02*
X119209523Y-39659580D01*
X119209523Y-39659580D02*
X119257142Y-39707200D01*
X119257142Y-39707200D02*
X119352380Y-39754819D01*
X119352380Y-39754819D02*
X119447618Y-39754819D01*
X119447618Y-39754819D02*
X119542856Y-39707200D01*
X119542856Y-39707200D02*
X119590475Y-39659580D01*
X119590475Y-39659580D02*
X119638094Y-39564342D01*
X119638094Y-39564342D02*
X119685713Y-39373866D01*
X119685713Y-39373866D02*
X119685713Y-39135771D01*
X119685713Y-39135771D02*
X119638094Y-38945295D01*
X119638094Y-38945295D02*
X119590475Y-38850057D01*
X119590475Y-38850057D02*
X119542856Y-38802438D01*
X119542856Y-38802438D02*
X119447618Y-38754819D01*
X118733332Y-38850057D02*
X118685713Y-38802438D01*
X118685713Y-38802438D02*
X118590475Y-38754819D01*
X118590475Y-38754819D02*
X118352380Y-38754819D01*
X118352380Y-38754819D02*
X118257142Y-38802438D01*
X118257142Y-38802438D02*
X118209523Y-38850057D01*
X118209523Y-38850057D02*
X118161904Y-38945295D01*
X118161904Y-38945295D02*
X118161904Y-39040533D01*
X118161904Y-39040533D02*
X118209523Y-39183390D01*
X118209523Y-39183390D02*
X118780951Y-39754819D01*
X118780951Y-39754819D02*
X118161904Y-39754819D01*
X174959580Y-52980952D02*
X175007200Y-52933333D01*
X175007200Y-52933333D02*
X175054819Y-52790476D01*
X175054819Y-52790476D02*
X175054819Y-52695238D01*
X175054819Y-52695238D02*
X175007200Y-52552381D01*
X175007200Y-52552381D02*
X174911961Y-52457143D01*
X174911961Y-52457143D02*
X174816723Y-52409524D01*
X174816723Y-52409524D02*
X174626247Y-52361905D01*
X174626247Y-52361905D02*
X174483390Y-52361905D01*
X174483390Y-52361905D02*
X174292914Y-52409524D01*
X174292914Y-52409524D02*
X174197676Y-52457143D01*
X174197676Y-52457143D02*
X174102438Y-52552381D01*
X174102438Y-52552381D02*
X174054819Y-52695238D01*
X174054819Y-52695238D02*
X174054819Y-52790476D01*
X174054819Y-52790476D02*
X174102438Y-52933333D01*
X174102438Y-52933333D02*
X174150057Y-52980952D01*
X174054819Y-53885714D02*
X174054819Y-53409524D01*
X174054819Y-53409524D02*
X174531009Y-53361905D01*
X174531009Y-53361905D02*
X174483390Y-53409524D01*
X174483390Y-53409524D02*
X174435771Y-53504762D01*
X174435771Y-53504762D02*
X174435771Y-53742857D01*
X174435771Y-53742857D02*
X174483390Y-53838095D01*
X174483390Y-53838095D02*
X174531009Y-53885714D01*
X174531009Y-53885714D02*
X174626247Y-53933333D01*
X174626247Y-53933333D02*
X174864342Y-53933333D01*
X174864342Y-53933333D02*
X174959580Y-53885714D01*
X174959580Y-53885714D02*
X175007200Y-53838095D01*
X175007200Y-53838095D02*
X175054819Y-53742857D01*
X175054819Y-53742857D02*
X175054819Y-53504762D01*
X175054819Y-53504762D02*
X175007200Y-53409524D01*
X175007200Y-53409524D02*
X174959580Y-53361905D01*
X174054819Y-54552381D02*
X174054819Y-54647619D01*
X174054819Y-54647619D02*
X174102438Y-54742857D01*
X174102438Y-54742857D02*
X174150057Y-54790476D01*
X174150057Y-54790476D02*
X174245295Y-54838095D01*
X174245295Y-54838095D02*
X174435771Y-54885714D01*
X174435771Y-54885714D02*
X174673866Y-54885714D01*
X174673866Y-54885714D02*
X174864342Y-54838095D01*
X174864342Y-54838095D02*
X174959580Y-54790476D01*
X174959580Y-54790476D02*
X175007200Y-54742857D01*
X175007200Y-54742857D02*
X175054819Y-54647619D01*
X175054819Y-54647619D02*
X175054819Y-54552381D01*
X175054819Y-54552381D02*
X175007200Y-54457143D01*
X175007200Y-54457143D02*
X174959580Y-54409524D01*
X174959580Y-54409524D02*
X174864342Y-54361905D01*
X174864342Y-54361905D02*
X174673866Y-54314286D01*
X174673866Y-54314286D02*
X174435771Y-54314286D01*
X174435771Y-54314286D02*
X174245295Y-54361905D01*
X174245295Y-54361905D02*
X174150057Y-54409524D01*
X174150057Y-54409524D02*
X174102438Y-54457143D01*
X174102438Y-54457143D02*
X174054819Y-54552381D01*
X174483390Y-55457143D02*
X174435771Y-55361905D01*
X174435771Y-55361905D02*
X174388152Y-55314286D01*
X174388152Y-55314286D02*
X174292914Y-55266667D01*
X174292914Y-55266667D02*
X174245295Y-55266667D01*
X174245295Y-55266667D02*
X174150057Y-55314286D01*
X174150057Y-55314286D02*
X174102438Y-55361905D01*
X174102438Y-55361905D02*
X174054819Y-55457143D01*
X174054819Y-55457143D02*
X174054819Y-55647619D01*
X174054819Y-55647619D02*
X174102438Y-55742857D01*
X174102438Y-55742857D02*
X174150057Y-55790476D01*
X174150057Y-55790476D02*
X174245295Y-55838095D01*
X174245295Y-55838095D02*
X174292914Y-55838095D01*
X174292914Y-55838095D02*
X174388152Y-55790476D01*
X174388152Y-55790476D02*
X174435771Y-55742857D01*
X174435771Y-55742857D02*
X174483390Y-55647619D01*
X174483390Y-55647619D02*
X174483390Y-55457143D01*
X174483390Y-55457143D02*
X174531009Y-55361905D01*
X174531009Y-55361905D02*
X174578628Y-55314286D01*
X174578628Y-55314286D02*
X174673866Y-55266667D01*
X174673866Y-55266667D02*
X174864342Y-55266667D01*
X174864342Y-55266667D02*
X174959580Y-55314286D01*
X174959580Y-55314286D02*
X175007200Y-55361905D01*
X175007200Y-55361905D02*
X175054819Y-55457143D01*
X175054819Y-55457143D02*
X175054819Y-55647619D01*
X175054819Y-55647619D02*
X175007200Y-55742857D01*
X175007200Y-55742857D02*
X174959580Y-55790476D01*
X174959580Y-55790476D02*
X174864342Y-55838095D01*
X174864342Y-55838095D02*
X174673866Y-55838095D01*
X174673866Y-55838095D02*
X174578628Y-55790476D01*
X174578628Y-55790476D02*
X174531009Y-55742857D01*
X174531009Y-55742857D02*
X174483390Y-55647619D01*
X134831009Y-45614285D02*
X134831009Y-45280952D01*
X135354819Y-45280952D02*
X134354819Y-45280952D01*
X134354819Y-45280952D02*
X134354819Y-45757142D01*
X134354819Y-46614285D02*
X134354819Y-46138095D01*
X134354819Y-46138095D02*
X134831009Y-46090476D01*
X134831009Y-46090476D02*
X134783390Y-46138095D01*
X134783390Y-46138095D02*
X134735771Y-46233333D01*
X134735771Y-46233333D02*
X134735771Y-46471428D01*
X134735771Y-46471428D02*
X134783390Y-46566666D01*
X134783390Y-46566666D02*
X134831009Y-46614285D01*
X134831009Y-46614285D02*
X134926247Y-46661904D01*
X134926247Y-46661904D02*
X135164342Y-46661904D01*
X135164342Y-46661904D02*
X135259580Y-46614285D01*
X135259580Y-46614285D02*
X135307200Y-46566666D01*
X135307200Y-46566666D02*
X135354819Y-46471428D01*
X135354819Y-46471428D02*
X135354819Y-46233333D01*
X135354819Y-46233333D02*
X135307200Y-46138095D01*
X135307200Y-46138095D02*
X135259580Y-46090476D01*
X134354819Y-47280952D02*
X134354819Y-47376190D01*
X134354819Y-47376190D02*
X134402438Y-47471428D01*
X134402438Y-47471428D02*
X134450057Y-47519047D01*
X134450057Y-47519047D02*
X134545295Y-47566666D01*
X134545295Y-47566666D02*
X134735771Y-47614285D01*
X134735771Y-47614285D02*
X134973866Y-47614285D01*
X134973866Y-47614285D02*
X135164342Y-47566666D01*
X135164342Y-47566666D02*
X135259580Y-47519047D01*
X135259580Y-47519047D02*
X135307200Y-47471428D01*
X135307200Y-47471428D02*
X135354819Y-47376190D01*
X135354819Y-47376190D02*
X135354819Y-47280952D01*
X135354819Y-47280952D02*
X135307200Y-47185714D01*
X135307200Y-47185714D02*
X135259580Y-47138095D01*
X135259580Y-47138095D02*
X135164342Y-47090476D01*
X135164342Y-47090476D02*
X134973866Y-47042857D01*
X134973866Y-47042857D02*
X134735771Y-47042857D01*
X134735771Y-47042857D02*
X134545295Y-47090476D01*
X134545295Y-47090476D02*
X134450057Y-47138095D01*
X134450057Y-47138095D02*
X134402438Y-47185714D01*
X134402438Y-47185714D02*
X134354819Y-47280952D01*
X135354819Y-48566666D02*
X135354819Y-47995238D01*
X135354819Y-48280952D02*
X134354819Y-48280952D01*
X134354819Y-48280952D02*
X134497676Y-48185714D01*
X134497676Y-48185714D02*
X134592914Y-48090476D01*
X134592914Y-48090476D02*
X134640533Y-47995238D01*
X127559580Y-40680952D02*
X127607200Y-40633333D01*
X127607200Y-40633333D02*
X127654819Y-40490476D01*
X127654819Y-40490476D02*
X127654819Y-40395238D01*
X127654819Y-40395238D02*
X127607200Y-40252381D01*
X127607200Y-40252381D02*
X127511961Y-40157143D01*
X127511961Y-40157143D02*
X127416723Y-40109524D01*
X127416723Y-40109524D02*
X127226247Y-40061905D01*
X127226247Y-40061905D02*
X127083390Y-40061905D01*
X127083390Y-40061905D02*
X126892914Y-40109524D01*
X126892914Y-40109524D02*
X126797676Y-40157143D01*
X126797676Y-40157143D02*
X126702438Y-40252381D01*
X126702438Y-40252381D02*
X126654819Y-40395238D01*
X126654819Y-40395238D02*
X126654819Y-40490476D01*
X126654819Y-40490476D02*
X126702438Y-40633333D01*
X126702438Y-40633333D02*
X126750057Y-40680952D01*
X126654819Y-41585714D02*
X126654819Y-41109524D01*
X126654819Y-41109524D02*
X127131009Y-41061905D01*
X127131009Y-41061905D02*
X127083390Y-41109524D01*
X127083390Y-41109524D02*
X127035771Y-41204762D01*
X127035771Y-41204762D02*
X127035771Y-41442857D01*
X127035771Y-41442857D02*
X127083390Y-41538095D01*
X127083390Y-41538095D02*
X127131009Y-41585714D01*
X127131009Y-41585714D02*
X127226247Y-41633333D01*
X127226247Y-41633333D02*
X127464342Y-41633333D01*
X127464342Y-41633333D02*
X127559580Y-41585714D01*
X127559580Y-41585714D02*
X127607200Y-41538095D01*
X127607200Y-41538095D02*
X127654819Y-41442857D01*
X127654819Y-41442857D02*
X127654819Y-41204762D01*
X127654819Y-41204762D02*
X127607200Y-41109524D01*
X127607200Y-41109524D02*
X127559580Y-41061905D01*
X126654819Y-42252381D02*
X126654819Y-42347619D01*
X126654819Y-42347619D02*
X126702438Y-42442857D01*
X126702438Y-42442857D02*
X126750057Y-42490476D01*
X126750057Y-42490476D02*
X126845295Y-42538095D01*
X126845295Y-42538095D02*
X127035771Y-42585714D01*
X127035771Y-42585714D02*
X127273866Y-42585714D01*
X127273866Y-42585714D02*
X127464342Y-42538095D01*
X127464342Y-42538095D02*
X127559580Y-42490476D01*
X127559580Y-42490476D02*
X127607200Y-42442857D01*
X127607200Y-42442857D02*
X127654819Y-42347619D01*
X127654819Y-42347619D02*
X127654819Y-42252381D01*
X127654819Y-42252381D02*
X127607200Y-42157143D01*
X127607200Y-42157143D02*
X127559580Y-42109524D01*
X127559580Y-42109524D02*
X127464342Y-42061905D01*
X127464342Y-42061905D02*
X127273866Y-42014286D01*
X127273866Y-42014286D02*
X127035771Y-42014286D01*
X127035771Y-42014286D02*
X126845295Y-42061905D01*
X126845295Y-42061905D02*
X126750057Y-42109524D01*
X126750057Y-42109524D02*
X126702438Y-42157143D01*
X126702438Y-42157143D02*
X126654819Y-42252381D01*
X127654819Y-43538095D02*
X127654819Y-42966667D01*
X127654819Y-43252381D02*
X126654819Y-43252381D01*
X126654819Y-43252381D02*
X126797676Y-43157143D01*
X126797676Y-43157143D02*
X126892914Y-43061905D01*
X126892914Y-43061905D02*
X126940533Y-42966667D01*
X152985714Y-94409819D02*
X152985714Y-95124104D01*
X152985714Y-95124104D02*
X153033333Y-95266961D01*
X153033333Y-95266961D02*
X153128571Y-95362200D01*
X153128571Y-95362200D02*
X153271428Y-95409819D01*
X153271428Y-95409819D02*
X153366666Y-95409819D01*
X152557142Y-94505057D02*
X152509523Y-94457438D01*
X152509523Y-94457438D02*
X152414285Y-94409819D01*
X152414285Y-94409819D02*
X152176190Y-94409819D01*
X152176190Y-94409819D02*
X152080952Y-94457438D01*
X152080952Y-94457438D02*
X152033333Y-94505057D01*
X152033333Y-94505057D02*
X151985714Y-94600295D01*
X151985714Y-94600295D02*
X151985714Y-94695533D01*
X151985714Y-94695533D02*
X152033333Y-94838390D01*
X152033333Y-94838390D02*
X152604761Y-95409819D01*
X152604761Y-95409819D02*
X151985714Y-95409819D01*
X151033333Y-95409819D02*
X151604761Y-95409819D01*
X151319047Y-95409819D02*
X151319047Y-94409819D01*
X151319047Y-94409819D02*
X151414285Y-94552676D01*
X151414285Y-94552676D02*
X151509523Y-94647914D01*
X151509523Y-94647914D02*
X151604761Y-94695533D01*
X150652380Y-94505057D02*
X150604761Y-94457438D01*
X150604761Y-94457438D02*
X150509523Y-94409819D01*
X150509523Y-94409819D02*
X150271428Y-94409819D01*
X150271428Y-94409819D02*
X150176190Y-94457438D01*
X150176190Y-94457438D02*
X150128571Y-94505057D01*
X150128571Y-94505057D02*
X150080952Y-94600295D01*
X150080952Y-94600295D02*
X150080952Y-94695533D01*
X150080952Y-94695533D02*
X150128571Y-94838390D01*
X150128571Y-94838390D02*
X150699999Y-95409819D01*
X150699999Y-95409819D02*
X150080952Y-95409819D01*
X154059580Y-43880952D02*
X154107200Y-43833333D01*
X154107200Y-43833333D02*
X154154819Y-43690476D01*
X154154819Y-43690476D02*
X154154819Y-43595238D01*
X154154819Y-43595238D02*
X154107200Y-43452381D01*
X154107200Y-43452381D02*
X154011961Y-43357143D01*
X154011961Y-43357143D02*
X153916723Y-43309524D01*
X153916723Y-43309524D02*
X153726247Y-43261905D01*
X153726247Y-43261905D02*
X153583390Y-43261905D01*
X153583390Y-43261905D02*
X153392914Y-43309524D01*
X153392914Y-43309524D02*
X153297676Y-43357143D01*
X153297676Y-43357143D02*
X153202438Y-43452381D01*
X153202438Y-43452381D02*
X153154819Y-43595238D01*
X153154819Y-43595238D02*
X153154819Y-43690476D01*
X153154819Y-43690476D02*
X153202438Y-43833333D01*
X153202438Y-43833333D02*
X153250057Y-43880952D01*
X153154819Y-44214286D02*
X153154819Y-44833333D01*
X153154819Y-44833333D02*
X153535771Y-44500000D01*
X153535771Y-44500000D02*
X153535771Y-44642857D01*
X153535771Y-44642857D02*
X153583390Y-44738095D01*
X153583390Y-44738095D02*
X153631009Y-44785714D01*
X153631009Y-44785714D02*
X153726247Y-44833333D01*
X153726247Y-44833333D02*
X153964342Y-44833333D01*
X153964342Y-44833333D02*
X154059580Y-44785714D01*
X154059580Y-44785714D02*
X154107200Y-44738095D01*
X154107200Y-44738095D02*
X154154819Y-44642857D01*
X154154819Y-44642857D02*
X154154819Y-44357143D01*
X154154819Y-44357143D02*
X154107200Y-44261905D01*
X154107200Y-44261905D02*
X154059580Y-44214286D01*
X153154819Y-45452381D02*
X153154819Y-45547619D01*
X153154819Y-45547619D02*
X153202438Y-45642857D01*
X153202438Y-45642857D02*
X153250057Y-45690476D01*
X153250057Y-45690476D02*
X153345295Y-45738095D01*
X153345295Y-45738095D02*
X153535771Y-45785714D01*
X153535771Y-45785714D02*
X153773866Y-45785714D01*
X153773866Y-45785714D02*
X153964342Y-45738095D01*
X153964342Y-45738095D02*
X154059580Y-45690476D01*
X154059580Y-45690476D02*
X154107200Y-45642857D01*
X154107200Y-45642857D02*
X154154819Y-45547619D01*
X154154819Y-45547619D02*
X154154819Y-45452381D01*
X154154819Y-45452381D02*
X154107200Y-45357143D01*
X154107200Y-45357143D02*
X154059580Y-45309524D01*
X154059580Y-45309524D02*
X153964342Y-45261905D01*
X153964342Y-45261905D02*
X153773866Y-45214286D01*
X153773866Y-45214286D02*
X153535771Y-45214286D01*
X153535771Y-45214286D02*
X153345295Y-45261905D01*
X153345295Y-45261905D02*
X153250057Y-45309524D01*
X153250057Y-45309524D02*
X153202438Y-45357143D01*
X153202438Y-45357143D02*
X153154819Y-45452381D01*
X153154819Y-46642857D02*
X153154819Y-46452381D01*
X153154819Y-46452381D02*
X153202438Y-46357143D01*
X153202438Y-46357143D02*
X153250057Y-46309524D01*
X153250057Y-46309524D02*
X153392914Y-46214286D01*
X153392914Y-46214286D02*
X153583390Y-46166667D01*
X153583390Y-46166667D02*
X153964342Y-46166667D01*
X153964342Y-46166667D02*
X154059580Y-46214286D01*
X154059580Y-46214286D02*
X154107200Y-46261905D01*
X154107200Y-46261905D02*
X154154819Y-46357143D01*
X154154819Y-46357143D02*
X154154819Y-46547619D01*
X154154819Y-46547619D02*
X154107200Y-46642857D01*
X154107200Y-46642857D02*
X154059580Y-46690476D01*
X154059580Y-46690476D02*
X153964342Y-46738095D01*
X153964342Y-46738095D02*
X153726247Y-46738095D01*
X153726247Y-46738095D02*
X153631009Y-46690476D01*
X153631009Y-46690476D02*
X153583390Y-46642857D01*
X153583390Y-46642857D02*
X153535771Y-46547619D01*
X153535771Y-46547619D02*
X153535771Y-46357143D01*
X153535771Y-46357143D02*
X153583390Y-46261905D01*
X153583390Y-46261905D02*
X153631009Y-46214286D01*
X153631009Y-46214286D02*
X153726247Y-46166667D01*
X168319047Y-86459580D02*
X168366666Y-86507200D01*
X168366666Y-86507200D02*
X168509523Y-86554819D01*
X168509523Y-86554819D02*
X168604761Y-86554819D01*
X168604761Y-86554819D02*
X168747618Y-86507200D01*
X168747618Y-86507200D02*
X168842856Y-86411961D01*
X168842856Y-86411961D02*
X168890475Y-86316723D01*
X168890475Y-86316723D02*
X168938094Y-86126247D01*
X168938094Y-86126247D02*
X168938094Y-85983390D01*
X168938094Y-85983390D02*
X168890475Y-85792914D01*
X168890475Y-85792914D02*
X168842856Y-85697676D01*
X168842856Y-85697676D02*
X168747618Y-85602438D01*
X168747618Y-85602438D02*
X168604761Y-85554819D01*
X168604761Y-85554819D02*
X168509523Y-85554819D01*
X168509523Y-85554819D02*
X168366666Y-85602438D01*
X168366666Y-85602438D02*
X168319047Y-85650057D01*
X167985713Y-85554819D02*
X167366666Y-85554819D01*
X167366666Y-85554819D02*
X167699999Y-85935771D01*
X167699999Y-85935771D02*
X167557142Y-85935771D01*
X167557142Y-85935771D02*
X167461904Y-85983390D01*
X167461904Y-85983390D02*
X167414285Y-86031009D01*
X167414285Y-86031009D02*
X167366666Y-86126247D01*
X167366666Y-86126247D02*
X167366666Y-86364342D01*
X167366666Y-86364342D02*
X167414285Y-86459580D01*
X167414285Y-86459580D02*
X167461904Y-86507200D01*
X167461904Y-86507200D02*
X167557142Y-86554819D01*
X167557142Y-86554819D02*
X167842856Y-86554819D01*
X167842856Y-86554819D02*
X167938094Y-86507200D01*
X167938094Y-86507200D02*
X167985713Y-86459580D01*
X166747618Y-85554819D02*
X166652380Y-85554819D01*
X166652380Y-85554819D02*
X166557142Y-85602438D01*
X166557142Y-85602438D02*
X166509523Y-85650057D01*
X166509523Y-85650057D02*
X166461904Y-85745295D01*
X166461904Y-85745295D02*
X166414285Y-85935771D01*
X166414285Y-85935771D02*
X166414285Y-86173866D01*
X166414285Y-86173866D02*
X166461904Y-86364342D01*
X166461904Y-86364342D02*
X166509523Y-86459580D01*
X166509523Y-86459580D02*
X166557142Y-86507200D01*
X166557142Y-86507200D02*
X166652380Y-86554819D01*
X166652380Y-86554819D02*
X166747618Y-86554819D01*
X166747618Y-86554819D02*
X166842856Y-86507200D01*
X166842856Y-86507200D02*
X166890475Y-86459580D01*
X166890475Y-86459580D02*
X166938094Y-86364342D01*
X166938094Y-86364342D02*
X166985713Y-86173866D01*
X166985713Y-86173866D02*
X166985713Y-85935771D01*
X166985713Y-85935771D02*
X166938094Y-85745295D01*
X166938094Y-85745295D02*
X166890475Y-85650057D01*
X166890475Y-85650057D02*
X166842856Y-85602438D01*
X166842856Y-85602438D02*
X166747618Y-85554819D01*
X165461904Y-86554819D02*
X166033332Y-86554819D01*
X165747618Y-86554819D02*
X165747618Y-85554819D01*
X165747618Y-85554819D02*
X165842856Y-85697676D01*
X165842856Y-85697676D02*
X165938094Y-85792914D01*
X165938094Y-85792914D02*
X166033332Y-85840533D01*
X92459580Y-42380952D02*
X92507200Y-42333333D01*
X92507200Y-42333333D02*
X92554819Y-42190476D01*
X92554819Y-42190476D02*
X92554819Y-42095238D01*
X92554819Y-42095238D02*
X92507200Y-41952381D01*
X92507200Y-41952381D02*
X92411961Y-41857143D01*
X92411961Y-41857143D02*
X92316723Y-41809524D01*
X92316723Y-41809524D02*
X92126247Y-41761905D01*
X92126247Y-41761905D02*
X91983390Y-41761905D01*
X91983390Y-41761905D02*
X91792914Y-41809524D01*
X91792914Y-41809524D02*
X91697676Y-41857143D01*
X91697676Y-41857143D02*
X91602438Y-41952381D01*
X91602438Y-41952381D02*
X91554819Y-42095238D01*
X91554819Y-42095238D02*
X91554819Y-42190476D01*
X91554819Y-42190476D02*
X91602438Y-42333333D01*
X91602438Y-42333333D02*
X91650057Y-42380952D01*
X91554819Y-42714286D02*
X91554819Y-43333333D01*
X91554819Y-43333333D02*
X91935771Y-43000000D01*
X91935771Y-43000000D02*
X91935771Y-43142857D01*
X91935771Y-43142857D02*
X91983390Y-43238095D01*
X91983390Y-43238095D02*
X92031009Y-43285714D01*
X92031009Y-43285714D02*
X92126247Y-43333333D01*
X92126247Y-43333333D02*
X92364342Y-43333333D01*
X92364342Y-43333333D02*
X92459580Y-43285714D01*
X92459580Y-43285714D02*
X92507200Y-43238095D01*
X92507200Y-43238095D02*
X92554819Y-43142857D01*
X92554819Y-43142857D02*
X92554819Y-42857143D01*
X92554819Y-42857143D02*
X92507200Y-42761905D01*
X92507200Y-42761905D02*
X92459580Y-42714286D01*
X91554819Y-43952381D02*
X91554819Y-44047619D01*
X91554819Y-44047619D02*
X91602438Y-44142857D01*
X91602438Y-44142857D02*
X91650057Y-44190476D01*
X91650057Y-44190476D02*
X91745295Y-44238095D01*
X91745295Y-44238095D02*
X91935771Y-44285714D01*
X91935771Y-44285714D02*
X92173866Y-44285714D01*
X92173866Y-44285714D02*
X92364342Y-44238095D01*
X92364342Y-44238095D02*
X92459580Y-44190476D01*
X92459580Y-44190476D02*
X92507200Y-44142857D01*
X92507200Y-44142857D02*
X92554819Y-44047619D01*
X92554819Y-44047619D02*
X92554819Y-43952381D01*
X92554819Y-43952381D02*
X92507200Y-43857143D01*
X92507200Y-43857143D02*
X92459580Y-43809524D01*
X92459580Y-43809524D02*
X92364342Y-43761905D01*
X92364342Y-43761905D02*
X92173866Y-43714286D01*
X92173866Y-43714286D02*
X91935771Y-43714286D01*
X91935771Y-43714286D02*
X91745295Y-43761905D01*
X91745295Y-43761905D02*
X91650057Y-43809524D01*
X91650057Y-43809524D02*
X91602438Y-43857143D01*
X91602438Y-43857143D02*
X91554819Y-43952381D01*
X92554819Y-44761905D02*
X92554819Y-44952381D01*
X92554819Y-44952381D02*
X92507200Y-45047619D01*
X92507200Y-45047619D02*
X92459580Y-45095238D01*
X92459580Y-45095238D02*
X92316723Y-45190476D01*
X92316723Y-45190476D02*
X92126247Y-45238095D01*
X92126247Y-45238095D02*
X91745295Y-45238095D01*
X91745295Y-45238095D02*
X91650057Y-45190476D01*
X91650057Y-45190476D02*
X91602438Y-45142857D01*
X91602438Y-45142857D02*
X91554819Y-45047619D01*
X91554819Y-45047619D02*
X91554819Y-44857143D01*
X91554819Y-44857143D02*
X91602438Y-44761905D01*
X91602438Y-44761905D02*
X91650057Y-44714286D01*
X91650057Y-44714286D02*
X91745295Y-44666667D01*
X91745295Y-44666667D02*
X91983390Y-44666667D01*
X91983390Y-44666667D02*
X92078628Y-44714286D01*
X92078628Y-44714286D02*
X92126247Y-44761905D01*
X92126247Y-44761905D02*
X92173866Y-44857143D01*
X92173866Y-44857143D02*
X92173866Y-45047619D01*
X92173866Y-45047619D02*
X92126247Y-45142857D01*
X92126247Y-45142857D02*
X92078628Y-45190476D01*
X92078628Y-45190476D02*
X91983390Y-45238095D01*
D17*
%TO.C,R503*%
X175877500Y-59612258D02*
X175877500Y-59137742D01*
X176922500Y-59612258D02*
X176922500Y-59137742D01*
%TO.C,J205*%
X116320000Y-68855000D02*
X119080000Y-68855000D01*
X116320000Y-71505000D02*
X116320000Y-68855000D01*
X116320000Y-71505000D02*
X119080000Y-71505000D01*
X116320000Y-72775000D02*
X116320000Y-74155000D01*
X116320000Y-74155000D02*
X117700000Y-74155000D01*
X119080000Y-71505000D02*
X119080000Y-68855000D01*
%TO.C,R408*%
X161402631Y-49990000D02*
X162997369Y-49990000D01*
X161402631Y-54410000D02*
X162997369Y-54410000D01*
%TO.C,R401*%
X84690131Y-41890000D02*
X86284869Y-41890000D01*
X84690131Y-46310000D02*
X86284869Y-46310000D01*
%TO.C,J204*%
X109320000Y-68855000D02*
X112080000Y-68855000D01*
X109320000Y-71505000D02*
X109320000Y-68855000D01*
X109320000Y-71505000D02*
X112080000Y-71505000D01*
X109320000Y-72775000D02*
X109320000Y-74155000D01*
X109320000Y-74155000D02*
X110700000Y-74155000D01*
X112080000Y-71505000D02*
X112080000Y-68855000D01*
%TO.C,C510*%
X170490000Y-60040580D02*
X170490000Y-59759420D01*
X171510000Y-60040580D02*
X171510000Y-59759420D01*
%TO.C,U501*%
X120140000Y-46000000D02*
X120140000Y-45350000D01*
X120140000Y-46000000D02*
X120140000Y-46650000D01*
X123260000Y-46000000D02*
X123260000Y-45350000D01*
X123260000Y-46000000D02*
X123260000Y-46650000D01*
X120190000Y-44837500D02*
X119860000Y-45077500D01*
X119860000Y-44597500D01*
X120190000Y-44837500D01*
G36*
X120190000Y-44837500D02*
G01*
X119860000Y-45077500D01*
X119860000Y-44597500D01*
X120190000Y-44837500D01*
G37*
%TO.C,C308*%
X89690000Y-40040580D02*
X89690000Y-39759420D01*
X90710000Y-40040580D02*
X90710000Y-39759420D01*
%TO.C,R509*%
X181262742Y-55677500D02*
X181737258Y-55677500D01*
X181262742Y-56722500D02*
X181737258Y-56722500D01*
%TO.C,J208*%
X79920000Y-88655000D02*
X82680000Y-88655000D01*
X79920000Y-91305000D02*
X79920000Y-88655000D01*
X79920000Y-91305000D02*
X82680000Y-91305000D01*
X79920000Y-92575000D02*
X79920000Y-93955000D01*
X79920000Y-93955000D02*
X81300000Y-93955000D01*
X82680000Y-91305000D02*
X82680000Y-88655000D01*
%TO.C,C201*%
X84190000Y-98011252D02*
X84190000Y-96588748D01*
X86010000Y-98011252D02*
X86010000Y-96588748D01*
%TO.C,J209*%
X109320000Y-88655000D02*
X112080000Y-88655000D01*
X109320000Y-91305000D02*
X109320000Y-88655000D01*
X109320000Y-91305000D02*
X112080000Y-91305000D01*
X109320000Y-92575000D02*
X109320000Y-93955000D01*
X109320000Y-93955000D02*
X110700000Y-93955000D01*
X112080000Y-91305000D02*
X112080000Y-88655000D01*
%TO.C,C206*%
X116990000Y-98011252D02*
X116990000Y-96588748D01*
X118810000Y-98011252D02*
X118810000Y-96588748D01*
%TO.C,R510*%
X181262742Y-54077500D02*
X181737258Y-54077500D01*
X181262742Y-55122500D02*
X181737258Y-55122500D01*
%TO.C,C305*%
X143390000Y-47359420D02*
X143390000Y-47640580D01*
X144410000Y-47359420D02*
X144410000Y-47640580D01*
%TO.C,C511*%
X172090000Y-60040580D02*
X172090000Y-59759420D01*
X173110000Y-60040580D02*
X173110000Y-59759420D01*
%TO.C,C509*%
X174090000Y-61215580D02*
X174090000Y-60934420D01*
X175110000Y-61215580D02*
X175110000Y-60934420D01*
%TO.C,C304*%
X169390000Y-50640580D02*
X169390000Y-50359420D01*
X170410000Y-50640580D02*
X170410000Y-50359420D01*
%TO.C,C502*%
X116688748Y-44290000D02*
X118111252Y-44290000D01*
X116688748Y-46110000D02*
X118111252Y-46110000D01*
%TO.C,D506*%
X184300000Y-52465000D02*
X188185000Y-52465000D01*
X188185000Y-52465000D02*
X188185000Y-54735000D01*
X188185000Y-54735000D02*
X184300000Y-54735000D01*
%TO.C,C303*%
X155240580Y-49890000D02*
X154959420Y-49890000D01*
X155240580Y-50910000D02*
X154959420Y-50910000D01*
%TO.C,J206*%
X86920000Y-68855000D02*
X89680000Y-68855000D01*
X86920000Y-71505000D02*
X86920000Y-68855000D01*
X86920000Y-71505000D02*
X89680000Y-71505000D01*
X86920000Y-72775000D02*
X86920000Y-74155000D01*
X86920000Y-74155000D02*
X88300000Y-74155000D01*
X89680000Y-71505000D02*
X89680000Y-68855000D01*
%TO.C,J210*%
X116320000Y-88655000D02*
X119080000Y-88655000D01*
X116320000Y-91305000D02*
X116320000Y-88655000D01*
X116320000Y-91305000D02*
X119080000Y-91305000D01*
X116320000Y-92575000D02*
X116320000Y-93955000D01*
X116320000Y-93955000D02*
X117700000Y-93955000D01*
X119080000Y-91305000D02*
X119080000Y-88655000D01*
%TO.C,R407*%
X183490000Y-85997369D02*
X183490000Y-84402631D01*
X187910000Y-85997369D02*
X187910000Y-84402631D01*
%TO.C,J203*%
X79920000Y-68855000D02*
X82680000Y-68855000D01*
X79920000Y-71505000D02*
X79920000Y-68855000D01*
X79920000Y-71505000D02*
X82680000Y-71505000D01*
X79920000Y-72775000D02*
X79920000Y-74155000D01*
X79920000Y-74155000D02*
X81300000Y-74155000D01*
X82680000Y-71505000D02*
X82680000Y-68855000D01*
%TO.C,D505*%
X184300000Y-55165000D02*
X188185000Y-55165000D01*
X188185000Y-55165000D02*
X188185000Y-57435000D01*
X188185000Y-57435000D02*
X184300000Y-57435000D01*
%TO.C,R409*%
X145802631Y-41190000D02*
X147397369Y-41190000D01*
X145802631Y-45610000D02*
X147397369Y-45610000D01*
%TO.C,J207*%
X150320000Y-68855000D02*
X153080000Y-68855000D01*
X150320000Y-71505000D02*
X150320000Y-68855000D01*
X150320000Y-71505000D02*
X153080000Y-71505000D01*
X150320000Y-72775000D02*
X150320000Y-74155000D01*
X150320000Y-74155000D02*
X151700000Y-74155000D01*
X153080000Y-71505000D02*
X153080000Y-68855000D01*
%TO.C,C302*%
X170940580Y-83790000D02*
X170659420Y-83790000D01*
X170940580Y-84810000D02*
X170659420Y-84810000D01*
%TO.C,C205*%
X98990000Y-98011252D02*
X98990000Y-96588748D01*
X100810000Y-98011252D02*
X100810000Y-96588748D01*
%TO.C,R508*%
X185312258Y-60677500D02*
X184837742Y-60677500D01*
X185312258Y-61722500D02*
X184837742Y-61722500D01*
%TO.C,C307*%
X80190000Y-40040580D02*
X80190000Y-39759420D01*
X81210000Y-40040580D02*
X81210000Y-39759420D01*
%TO.C,R402*%
X96302631Y-41890000D02*
X97897369Y-41890000D01*
X96302631Y-46310000D02*
X97897369Y-46310000D01*
%TO.C,C310*%
X101390000Y-40040580D02*
X101390000Y-39759420D01*
X102410000Y-40040580D02*
X102410000Y-39759420D01*
%TO.C,D504*%
X184300000Y-57865000D02*
X188185000Y-57865000D01*
X188185000Y-57865000D02*
X188185000Y-60135000D01*
X188185000Y-60135000D02*
X184300000Y-60135000D01*
%TO.C,C503*%
X124090000Y-45488748D02*
X124090000Y-46911252D01*
X125910000Y-45488748D02*
X125910000Y-46911252D01*
%TO.C,J211*%
X86920000Y-88655000D02*
X89680000Y-88655000D01*
X86920000Y-91305000D02*
X86920000Y-88655000D01*
X86920000Y-91305000D02*
X89680000Y-91305000D01*
X86920000Y-92575000D02*
X86920000Y-93955000D01*
X86920000Y-93955000D02*
X88300000Y-93955000D01*
X89680000Y-91305000D02*
X89680000Y-88655000D01*
%TO.C,D502*%
X123410000Y-40150000D02*
X117900000Y-40150000D01*
X123410000Y-40150000D02*
X123410000Y-43450000D01*
X123410000Y-43450000D02*
X117900000Y-43450000D01*
%TO.C,C508*%
X174090000Y-57559420D02*
X174090000Y-57840580D01*
X175110000Y-57559420D02*
X175110000Y-57840580D01*
%TO.C,F501*%
X130390000Y-45513748D02*
X130390000Y-48286252D01*
X133810000Y-45513748D02*
X133810000Y-48286252D01*
%TO.C,C501*%
X126790000Y-45488748D02*
X126790000Y-46911252D01*
X128610000Y-45488748D02*
X128610000Y-46911252D01*
%TO.C,J212*%
X150320000Y-88655000D02*
X153080000Y-88655000D01*
X150320000Y-91305000D02*
X150320000Y-88655000D01*
X150320000Y-91305000D02*
X153080000Y-91305000D01*
X150320000Y-92575000D02*
X150320000Y-93955000D01*
X150320000Y-93955000D02*
X151700000Y-93955000D01*
X153080000Y-91305000D02*
X153080000Y-88655000D01*
%TO.C,C306*%
X151490000Y-44859420D02*
X151490000Y-45140580D01*
X152510000Y-44859420D02*
X152510000Y-45140580D01*
%TO.C,C301*%
X170965580Y-85590000D02*
X170684420Y-85590000D01*
X170965580Y-86610000D02*
X170684420Y-86610000D01*
%TO.C,C309*%
X91790000Y-40065580D02*
X91790000Y-39784420D01*
X92810000Y-40065580D02*
X92810000Y-39784420D01*
%TD*%
M02*
