%TF.GenerationSoftware,KiCad,Pcbnew,9.0.1*%
%TF.CreationDate,2025-05-06T20:53:02+02:00*%
%TF.ProjectId,apm,61706d2e-6b69-4636-9164-5f7063625858,rev?*%
%TF.SameCoordinates,Original*%
%TF.FileFunction,Soldermask,Bot*%
%TF.FilePolarity,Negative*%
%FSLAX46Y46*%
G04 Gerber Fmt 4.6, Leading zero omitted, Abs format (unit mm)*
G04 Created by KiCad (PCBNEW 9.0.1) date 2025-05-06 20:53:02*
%MOMM*%
%LPD*%
G01*
G04 APERTURE LIST*
G04 Aperture macros list*
%AMRoundRect*
0 Rectangle with rounded corners*
0 $1 Rounding radius*
0 $2 $3 $4 $5 $6 $7 $8 $9 X,Y pos of 4 corners*
0 Add a 4 corners polygon primitive as box body*
4,1,4,$2,$3,$4,$5,$6,$7,$8,$9,$2,$3,0*
0 Add four circle primitives for the rounded corners*
1,1,$1+$1,$2,$3*
1,1,$1+$1,$4,$5*
1,1,$1+$1,$6,$7*
1,1,$1+$1,$8,$9*
0 Add four rect primitives between the rounded corners*
20,1,$1+$1,$2,$3,$4,$5,0*
20,1,$1+$1,$4,$5,$6,$7,0*
20,1,$1+$1,$6,$7,$8,$9,0*
20,1,$1+$1,$8,$9,$2,$3,0*%
%AMFreePoly0*
4,1,27,0.300191,4.550462,0.300462,4.550191,0.300500,4.550000,0.300500,1.310500,0.545000,1.310500,0.545191,1.310462,0.545462,1.310191,0.545500,1.310000,0.545500,-1.310000,0.545462,-1.310191,0.545191,-1.310462,0.545000,-1.310500,-0.545000,-1.310500,-0.545191,-1.310462,-0.545462,-1.310191,-0.545500,-1.310000,-0.545500,1.310000,-0.545462,1.310191,-0.545191,1.310462,-0.545000,1.310500,
-0.300500,1.310500,-0.300500,4.550000,-0.300462,4.550191,-0.300191,4.550462,-0.300000,4.550500,0.300000,4.550500,0.300191,4.550462,0.300191,4.550462,$1*%
%AMFreePoly1*
4,1,27,0.545019,1.545046,0.545046,1.545019,0.545050,1.545000,0.545050,-1.545000,0.545046,-1.545019,0.545019,-1.545046,0.545000,-1.545050,0.300500,-1.545050,0.300500,-4.315000,0.300462,-4.315191,0.300191,-4.315462,0.300000,-4.315500,-0.300000,-4.315500,-0.300191,-4.315462,-0.300462,-4.315191,-0.300500,-4.315000,-0.300500,-1.545050,-0.545000,-1.545050,-0.545019,-1.545046,-0.545046,-1.545019,
-0.545050,-1.545000,-0.545050,1.545000,-0.545046,1.545019,-0.545019,1.545046,-0.545000,1.545050,0.545000,1.545050,0.545019,1.545046,0.545019,1.545046,$1*%
G04 Aperture macros list end*
%ADD10C,0.010000*%
%ADD11C,1.000000*%
%ADD12RoundRect,0.250001X-0.799999X-0.799999X0.799999X-0.799999X0.799999X0.799999X-0.799999X0.799999X0*%
%ADD13C,2.100000*%
%ADD14C,2.540000*%
%ADD15C,4.000000*%
%ADD16C,2.400000*%
%ADD17R,1.700000X1.700000*%
%ADD18C,1.700000*%
%ADD19C,1.520000*%
%ADD20C,3.000000*%
%ADD21RoundRect,0.250001X-1.599999X1.099999X-1.599999X-1.099999X1.599999X-1.099999X1.599999X1.099999X0*%
%ADD22O,3.700000X2.700000*%
%ADD23C,1.500000*%
%ADD24FreePoly0,0.000000*%
%ADD25FreePoly1,0.000000*%
%ADD26C,0.900000*%
%ADD27RoundRect,0.200000X0.275000X-0.200000X0.275000X0.200000X-0.275000X0.200000X-0.275000X-0.200000X0*%
%ADD28RoundRect,0.250001X-1.262499X-1.974999X1.262499X-1.974999X1.262499X1.974999X-1.262499X1.974999X0*%
%ADD29RoundRect,0.225000X0.250000X-0.225000X0.250000X0.225000X-0.250000X0.225000X-0.250000X-0.225000X0*%
%ADD30RoundRect,0.150000X-0.150000X0.587500X-0.150000X-0.587500X0.150000X-0.587500X0.150000X0.587500X0*%
%ADD31RoundRect,0.200000X-0.200000X-0.275000X0.200000X-0.275000X0.200000X0.275000X-0.200000X0.275000X0*%
%ADD32RoundRect,0.250000X0.650000X-0.325000X0.650000X0.325000X-0.650000X0.325000X-0.650000X-0.325000X0*%
%ADD33RoundRect,0.225000X-0.250000X0.225000X-0.250000X-0.225000X0.250000X-0.225000X0.250000X0.225000X0*%
%ADD34RoundRect,0.250000X-0.325000X-0.650000X0.325000X-0.650000X0.325000X0.650000X-0.325000X0.650000X0*%
%ADD35RoundRect,0.250000X0.375000X0.625000X-0.375000X0.625000X-0.375000X-0.625000X0.375000X-0.625000X0*%
%ADD36RoundRect,0.225000X0.225000X0.250000X-0.225000X0.250000X-0.225000X-0.250000X0.225000X-0.250000X0*%
%ADD37RoundRect,0.250001X1.974999X-1.262499X1.974999X1.262499X-1.974999X1.262499X-1.974999X-1.262499X0*%
%ADD38RoundRect,0.200000X0.200000X0.275000X-0.200000X0.275000X-0.200000X-0.275000X0.200000X-0.275000X0*%
%ADD39RoundRect,0.250000X-0.650000X0.325000X-0.650000X-0.325000X0.650000X-0.325000X0.650000X0.325000X0*%
%ADD40RoundRect,0.250000X1.000000X0.650000X-1.000000X0.650000X-1.000000X-0.650000X1.000000X-0.650000X0*%
%ADD41RoundRect,0.250000X-1.450000X0.312500X-1.450000X-0.312500X1.450000X-0.312500X1.450000X0.312500X0*%
G04 APERTURE END LIST*
D10*
%TO.C,J201*%
X151475000Y-111080000D02*
X83475000Y-111080000D01*
X83475000Y-104050000D01*
X151475000Y-104050000D01*
X151475000Y-111080000D01*
G36*
X151475000Y-111080000D02*
G01*
X83475000Y-111080000D01*
X83475000Y-104050000D01*
X151475000Y-104050000D01*
X151475000Y-111080000D01*
G37*
%TD*%
D11*
%TO.C,Y502*%
X172600000Y-64400000D03*
X171100000Y-64400000D03*
%TD*%
D12*
%TO.C,J306*%
X94520000Y-39900000D03*
D13*
X99600000Y-39900000D03*
%TD*%
D14*
%TO.C,J304*%
X165200000Y-45800000D03*
D15*
X170280000Y-38180000D03*
X180440000Y-38180000D03*
D14*
X185520000Y-45800000D03*
D16*
X182980000Y-48340000D03*
X177900000Y-48340000D03*
X172820000Y-48340000D03*
X167740000Y-48340000D03*
%TD*%
D17*
%TO.C,J502*%
X186480000Y-67900000D03*
D18*
X183940000Y-67900000D03*
X181400000Y-67900000D03*
X178860000Y-67900000D03*
%TD*%
D19*
%TO.C,J202*%
X84800000Y-54800000D03*
X85800000Y-52800000D03*
X86800000Y-54800000D03*
X87800000Y-52800000D03*
X88800000Y-54800000D03*
X89800000Y-52800000D03*
X90800000Y-54800000D03*
X91800000Y-52800000D03*
X92800000Y-54800000D03*
X93800000Y-52800000D03*
X94800000Y-54800000D03*
X95800000Y-52800000D03*
X96800000Y-54800000D03*
X97800000Y-52800000D03*
X98800000Y-54800000D03*
X99800000Y-52800000D03*
X100800000Y-54800000D03*
X101800000Y-52800000D03*
X102800000Y-54800000D03*
X103800000Y-52800000D03*
X104800000Y-54800000D03*
X105800000Y-52800000D03*
X106800000Y-54800000D03*
X107800000Y-52800000D03*
X108800000Y-54800000D03*
X109800000Y-52800000D03*
X110800000Y-54800000D03*
X111800000Y-52800000D03*
X112800000Y-54800000D03*
X113800000Y-52800000D03*
X114800000Y-54800000D03*
X115800000Y-52800000D03*
X116800000Y-54800000D03*
X117800000Y-52800000D03*
X118800000Y-54800000D03*
X119800000Y-52800000D03*
X120800000Y-54800000D03*
X121800000Y-52800000D03*
X122800000Y-54800000D03*
X123800000Y-52800000D03*
X124800000Y-54800000D03*
X125800000Y-52800000D03*
X126800000Y-54800000D03*
X127800000Y-52800000D03*
X128800000Y-54800000D03*
X129800000Y-52800000D03*
X130800000Y-54800000D03*
X131800000Y-52800000D03*
X132800000Y-54800000D03*
X133800000Y-52800000D03*
X134800000Y-54800000D03*
X135800000Y-52800000D03*
X136800000Y-54800000D03*
X137800000Y-52800000D03*
X138800000Y-54800000D03*
X139800000Y-52800000D03*
X140800000Y-54800000D03*
X141800000Y-52800000D03*
X142800000Y-54800000D03*
X143800000Y-52800000D03*
X144800000Y-54800000D03*
X145800000Y-52800000D03*
X146800000Y-54800000D03*
X147800000Y-52800000D03*
X148800000Y-54800000D03*
X149800000Y-52800000D03*
X84800000Y-58800000D03*
X85800000Y-56800000D03*
X86800000Y-58800000D03*
X87800000Y-56800000D03*
X88800000Y-58800000D03*
X89800000Y-56800000D03*
X90800000Y-58800000D03*
X91800000Y-56800000D03*
X92800000Y-58800000D03*
X93800000Y-56800000D03*
X94800000Y-58800000D03*
X95800000Y-56800000D03*
X96800000Y-58800000D03*
X97800000Y-56800000D03*
X98800000Y-58800000D03*
X99800000Y-56800000D03*
X100800000Y-58800000D03*
X101800000Y-56800000D03*
X102800000Y-58800000D03*
X103800000Y-56800000D03*
X104800000Y-58800000D03*
X105800000Y-56800000D03*
X106800000Y-58800000D03*
X107800000Y-56800000D03*
X108800000Y-58800000D03*
X109800000Y-56800000D03*
X110800000Y-58800000D03*
X111800000Y-56800000D03*
X112800000Y-58800000D03*
X113800000Y-56800000D03*
X114800000Y-58800000D03*
X115800000Y-56800000D03*
X116800000Y-58800000D03*
X117800000Y-56800000D03*
X118800000Y-58800000D03*
X119800000Y-56800000D03*
X120800000Y-58800000D03*
X121800000Y-56800000D03*
X122800000Y-58800000D03*
X123800000Y-56800000D03*
X124800000Y-58800000D03*
X125800000Y-56800000D03*
X126800000Y-58800000D03*
X127800000Y-56800000D03*
X128800000Y-58800000D03*
X129800000Y-56800000D03*
X130800000Y-58800000D03*
X131800000Y-56800000D03*
X132800000Y-58800000D03*
X133800000Y-56800000D03*
X134800000Y-58800000D03*
X135800000Y-56800000D03*
X136800000Y-58800000D03*
X137800000Y-56800000D03*
X138800000Y-58800000D03*
X139800000Y-56800000D03*
X140800000Y-58800000D03*
X141800000Y-56800000D03*
X142800000Y-58800000D03*
X143800000Y-56800000D03*
X144800000Y-58800000D03*
X145800000Y-56800000D03*
X146800000Y-58800000D03*
X147800000Y-56800000D03*
X148800000Y-58800000D03*
X149800000Y-56800000D03*
%TD*%
D12*
%TO.C,J305*%
X82920000Y-39900000D03*
D13*
X88000000Y-39900000D03*
%TD*%
D20*
%TO.C,J302*%
X181000000Y-73400000D03*
X181000000Y-81800000D03*
D21*
X173700000Y-73400000D03*
D22*
X173700000Y-77600000D03*
X173700000Y-81800000D03*
X168200000Y-73400000D03*
X168200000Y-77600000D03*
X168200000Y-81800000D03*
%TD*%
D23*
%TO.C,Y501*%
X176400000Y-56950000D03*
X176400000Y-61830000D03*
%TD*%
D24*
%TO.C,J201*%
X85070000Y-108605000D03*
D25*
X86065000Y-105600000D03*
D24*
X87060000Y-108605000D03*
D25*
X88055000Y-105600000D03*
D24*
X89050000Y-108605000D03*
D25*
X90045000Y-105600000D03*
D24*
X91040000Y-108605000D03*
D25*
X92035000Y-105600000D03*
D24*
X93030000Y-108605000D03*
D25*
X94025000Y-105600000D03*
D24*
X95020000Y-108605000D03*
D25*
X96015000Y-105600000D03*
D24*
X97010000Y-108605000D03*
D25*
X98005000Y-105600000D03*
D24*
X99000000Y-108605000D03*
D25*
X99995000Y-105600000D03*
D24*
X100990000Y-108605000D03*
D25*
X101985000Y-105600000D03*
D24*
X102980000Y-108605000D03*
D25*
X103975000Y-105600000D03*
D24*
X104970000Y-108605000D03*
D25*
X109945000Y-105600000D03*
D24*
X110940000Y-108605000D03*
D25*
X111935000Y-105600000D03*
D24*
X112930000Y-108605000D03*
D25*
X113925000Y-105600000D03*
D24*
X114920000Y-108605000D03*
D25*
X115915000Y-105600000D03*
D24*
X116910000Y-108605000D03*
D25*
X117905000Y-105600000D03*
D24*
X118900000Y-108605000D03*
D25*
X119895000Y-105600000D03*
D24*
X120890000Y-108605000D03*
D25*
X121885000Y-105600000D03*
D24*
X122880000Y-108605000D03*
D25*
X123875000Y-105600000D03*
D24*
X124870000Y-108605000D03*
D25*
X129845000Y-105600000D03*
D24*
X130840000Y-108605000D03*
D25*
X131835000Y-105600000D03*
D24*
X132830000Y-108605000D03*
D25*
X133825000Y-105600000D03*
D24*
X134820000Y-108605000D03*
D25*
X135815000Y-105600000D03*
D24*
X136810000Y-108605000D03*
D25*
X137805000Y-105600000D03*
D24*
X138800000Y-108605000D03*
D25*
X139795000Y-105600000D03*
D24*
X140790000Y-108605000D03*
D25*
X141785000Y-105600000D03*
D24*
X142780000Y-108605000D03*
D25*
X143775000Y-105600000D03*
D24*
X144770000Y-108605000D03*
D25*
X145765000Y-105600000D03*
D24*
X146760000Y-108605000D03*
D25*
X147755000Y-105600000D03*
D24*
X148750000Y-108605000D03*
D25*
X149745000Y-105600000D03*
%TD*%
D14*
%TO.C,J303*%
X138980000Y-45800000D03*
D15*
X144060000Y-38180000D03*
X154220000Y-38180000D03*
D14*
X159300000Y-45800000D03*
D16*
X156760000Y-48340000D03*
X151680000Y-48340000D03*
X146600000Y-48340000D03*
X141520000Y-48340000D03*
%TD*%
D17*
%TO.C,J503*%
X174480000Y-67900000D03*
D18*
X171940000Y-67900000D03*
X169400000Y-67900000D03*
X166860000Y-67900000D03*
%TD*%
D20*
%TO.C,J301*%
X181000000Y-88600000D03*
X181000000Y-97000000D03*
D21*
X173700000Y-88600000D03*
D22*
X173700000Y-92800000D03*
X173700000Y-97000000D03*
X168200000Y-88600000D03*
X168200000Y-92800000D03*
X168200000Y-97000000D03*
%TD*%
D26*
%TO.C,J501*%
X130325000Y-41325000D03*
X125925000Y-41325000D03*
%TD*%
D27*
%TO.C,R503*%
X176400000Y-60200000D03*
X176400000Y-58550000D03*
%TD*%
D17*
%TO.C,J205*%
X117700000Y-72775000D03*
D18*
X117700000Y-70235000D03*
%TD*%
D28*
%TO.C,R408*%
X159687500Y-52200000D03*
X164712500Y-52200000D03*
%TD*%
%TO.C,R401*%
X82975000Y-44100000D03*
X88000000Y-44100000D03*
%TD*%
D17*
%TO.C,J204*%
X110700000Y-72775000D03*
D18*
X110700000Y-70235000D03*
%TD*%
D29*
%TO.C,C510*%
X171000000Y-60675000D03*
X171000000Y-59125000D03*
%TD*%
D30*
%TO.C,U501*%
X120750000Y-45062500D03*
X122650000Y-45062500D03*
X121700000Y-46937500D03*
%TD*%
D29*
%TO.C,C308*%
X90200000Y-40675000D03*
X90200000Y-39125000D03*
%TD*%
D31*
%TO.C,R509*%
X180675000Y-56200000D03*
X182325000Y-56200000D03*
%TD*%
D17*
%TO.C,J208*%
X81300000Y-92575000D03*
D18*
X81300000Y-90035000D03*
%TD*%
D32*
%TO.C,C201*%
X85100000Y-98775000D03*
X85100000Y-95825000D03*
%TD*%
D17*
%TO.C,J209*%
X110700000Y-92575000D03*
D18*
X110700000Y-90035000D03*
%TD*%
D32*
%TO.C,C206*%
X117900000Y-98775000D03*
X117900000Y-95825000D03*
%TD*%
D31*
%TO.C,R510*%
X180675000Y-54600000D03*
X182325000Y-54600000D03*
%TD*%
D33*
%TO.C,C305*%
X143900000Y-46725000D03*
X143900000Y-48275000D03*
%TD*%
D29*
%TO.C,C511*%
X172600000Y-60675000D03*
X172600000Y-59125000D03*
%TD*%
%TO.C,C509*%
X174600000Y-61850000D03*
X174600000Y-60300000D03*
%TD*%
%TO.C,C304*%
X169900000Y-51275000D03*
X169900000Y-49725000D03*
%TD*%
D34*
%TO.C,C502*%
X115925000Y-45200000D03*
X118875000Y-45200000D03*
%TD*%
D35*
%TO.C,D506*%
X187300000Y-53600000D03*
X184500000Y-53600000D03*
%TD*%
D36*
%TO.C,C303*%
X155875000Y-50400000D03*
X154325000Y-50400000D03*
%TD*%
D17*
%TO.C,J206*%
X88300000Y-72775000D03*
D18*
X88300000Y-70235000D03*
%TD*%
D17*
%TO.C,J210*%
X117700000Y-92575000D03*
D18*
X117700000Y-90035000D03*
%TD*%
D37*
%TO.C,R407*%
X185700000Y-87712500D03*
X185700000Y-82687500D03*
%TD*%
D17*
%TO.C,J203*%
X81300000Y-72775000D03*
D18*
X81300000Y-70235000D03*
%TD*%
D35*
%TO.C,D505*%
X187300000Y-56300000D03*
X184500000Y-56300000D03*
%TD*%
D28*
%TO.C,R409*%
X144087500Y-43400000D03*
X149112500Y-43400000D03*
%TD*%
D17*
%TO.C,J207*%
X151700000Y-72775000D03*
D18*
X151700000Y-70235000D03*
%TD*%
D36*
%TO.C,C302*%
X171575000Y-84300000D03*
X170025000Y-84300000D03*
%TD*%
D32*
%TO.C,C205*%
X99900000Y-98775000D03*
X99900000Y-95825000D03*
%TD*%
D38*
%TO.C,R508*%
X185900000Y-61200000D03*
X184250000Y-61200000D03*
%TD*%
D29*
%TO.C,C307*%
X80700000Y-40675000D03*
X80700000Y-39125000D03*
%TD*%
D28*
%TO.C,R402*%
X94587500Y-44100000D03*
X99612500Y-44100000D03*
%TD*%
D29*
%TO.C,C310*%
X101900000Y-40675000D03*
X101900000Y-39125000D03*
%TD*%
D35*
%TO.C,D504*%
X187300000Y-59000000D03*
X184500000Y-59000000D03*
%TD*%
D39*
%TO.C,C503*%
X125000000Y-44725000D03*
X125000000Y-47675000D03*
%TD*%
D17*
%TO.C,J211*%
X88300000Y-92575000D03*
D18*
X88300000Y-90035000D03*
%TD*%
D40*
%TO.C,D502*%
X121900000Y-41800000D03*
X117900000Y-41800000D03*
%TD*%
D33*
%TO.C,C508*%
X174600000Y-56925000D03*
X174600000Y-58475000D03*
%TD*%
D41*
%TO.C,F501*%
X132100000Y-44762500D03*
X132100000Y-49037500D03*
%TD*%
D39*
%TO.C,C501*%
X127700000Y-44725000D03*
X127700000Y-47675000D03*
%TD*%
D17*
%TO.C,J212*%
X151700000Y-92575000D03*
D18*
X151700000Y-90035000D03*
%TD*%
D33*
%TO.C,C306*%
X152000000Y-44225000D03*
X152000000Y-45775000D03*
%TD*%
D36*
%TO.C,C301*%
X171600000Y-86100000D03*
X170050000Y-86100000D03*
%TD*%
D29*
%TO.C,C309*%
X92300000Y-40700000D03*
X92300000Y-39150000D03*
%TD*%
M02*
