M48
; DRILL file {KiCad 9.0.1} date 2025-05-06T20:53:13+0200
; FORMAT={-:-/ absolute / inch / decimal}
; #@! TF.CreationDate,2025-05-06T20:53:13+02:00
; #@! TF.GenerationSoftware,Kicad,Pcbnew,9.0.1
; #@! TF.FileFunction,Plated,1,4,PTH
FMAT,2
INCH
; #@! TA.AperFunction,Plated,PTH,ViaDrill
T1C0.0118
; #@! TA.AperFunction,Plated,PTH,ComponentDrill
T2C0.0197
; #@! TA.AperFunction,Plated,PTH,ComponentDrill
T3C0.0295
; #@! TA.AperFunction,Plated,PTH,ComponentDrill
T4C0.0315
; #@! TA.AperFunction,Plated,PTH,ComponentDrill
T5C0.0394
; #@! TA.AperFunction,Plated,PTH,ComponentDrill
T6C0.0433
; #@! TA.AperFunction,Plated,PTH,ComponentDrill
T7C0.0630
; #@! TA.AperFunction,Plated,PTH,ComponentDrill
T8C0.0709
%
G90
G05
T1
X3.1378Y-2.9331
X3.1378Y-2.9685
X3.1378Y-3.0039
X3.1378Y-3.3819
X3.1378Y-3.4173
X3.1378Y-3.4528
X3.1654Y-2.5472
X3.1693Y-2.9331
X3.1693Y-2.9685
X3.1693Y-3.0039
X3.1693Y-3.3819
X3.1693Y-3.4173
X3.1693Y-3.4528
X3.2008Y-2.9331
X3.2008Y-2.9685
X3.2008Y-3.0039
X3.2008Y-3.3819
X3.2008Y-3.4173
X3.2008Y-3.4528
X3.2323Y-2.9331
X3.2323Y-2.9685
X3.2323Y-3.0039
X3.2323Y-3.3819
X3.2323Y-3.4173
X3.2323Y-3.4528
X3.2638Y-2.9331
X3.2638Y-2.9685
X3.2638Y-3.0039
X3.2638Y-3.3819
X3.2638Y-3.4173
X3.2638Y-3.4528
X3.315Y-2.5394
X3.3465Y-1.6732
X3.3492Y-3.9291
X3.3492Y-3.9606
X3.3661Y-1.5118
X3.3661Y-1.5394
X3.3661Y-1.5669
X3.3661Y-1.5945
X3.3819Y-3.6969
X3.3858Y-1.6732
X3.4134Y-2.9331
X3.4134Y-2.9685
X3.4134Y-3.0039
X3.4134Y-3.3819
X3.4134Y-3.4173
X3.4134Y-3.4528
X3.4276Y-3.9291
X3.4276Y-3.9606
X3.4449Y-2.9331
X3.4449Y-2.9685
X3.4449Y-3.0039
X3.4449Y-3.3819
X3.4449Y-3.4173
X3.4449Y-3.4528
X3.4528Y-3.1929
X3.4685Y-2.5433
X3.4764Y-2.9331
X3.4764Y-2.9685
X3.4764Y-3.0039
X3.4764Y-3.3819
X3.4764Y-3.4173
X3.4764Y-3.4528
X3.4961Y-3.1929
X3.5079Y-2.9331
X3.5079Y-2.9685
X3.5079Y-3.0039
X3.5079Y-3.3819
X3.5079Y-3.4173
X3.5079Y-3.4528
X3.5079Y-3.9567
X3.5394Y-2.9331
X3.5394Y-2.9685
X3.5394Y-3.0039
X3.5394Y-3.3819
X3.5394Y-3.4173
X3.5394Y-3.4528
X3.5748Y-2.3819
X3.6654Y-3.9567
X3.7323Y-2.3819
X3.8031Y-1.6732
X3.8189Y-3.9567
X3.8228Y-1.5079
X3.8228Y-1.5354
X3.8228Y-1.563
X3.8228Y-1.5906
X3.8386Y-2.4646
X3.8425Y-1.6732
X3.9331Y-3.685
X3.9331Y-3.9567
X4.0551Y-3.9567
X4.1063Y-1.9291
X4.2008Y-2.3819
X4.2913Y-2.9291
X4.2913Y-2.9646
X4.2913Y-3.0
X4.2953Y-3.378
X4.2953Y-3.4134
X4.2953Y-3.4488
X4.3228Y-2.9291
X4.3228Y-2.9646
X4.3228Y-3.0
X4.3268Y-3.378
X4.3268Y-3.4134
X4.3268Y-3.4488
X4.3346Y-3.185
X4.3465Y-1.689
X4.3543Y-2.9291
X4.3543Y-2.9646
X4.3543Y-3.0
X4.3583Y-3.378
X4.3583Y-3.4134
X4.3583Y-3.4488
X4.3819Y-3.185
X4.3858Y-2.9291
X4.3858Y-2.9646
X4.3858Y-3.0
X4.3898Y-1.7638
X4.3898Y-3.378
X4.3898Y-3.4134
X4.3898Y-3.4488
X4.4055Y-3.9606
X4.4173Y-2.9291
X4.4173Y-2.9646
X4.4173Y-3.0
X4.4213Y-3.378
X4.4213Y-3.4134
X4.4213Y-3.4488
X4.4409Y-2.3819
X4.4921Y-1.689
X4.5236Y-3.9567
X4.5709Y-2.9291
X4.5709Y-2.9646
X4.5709Y-3.0
X4.5709Y-3.378
X4.5709Y-3.4134
X4.5709Y-3.4488
X4.5984Y-2.3819
X4.6024Y-2.9291
X4.6024Y-2.9646
X4.6024Y-3.0
X4.6024Y-3.378
X4.6024Y-3.4134
X4.6024Y-3.4488
X4.6102Y-3.189
X4.622Y-1.7795
X4.6339Y-2.9291
X4.6339Y-2.9646
X4.6339Y-3.0
X4.6339Y-3.378
X4.6339Y-3.4134
X4.6339Y-3.4488
X4.6417Y-3.9567
X4.6575Y-3.185
X4.6654Y-2.9291
X4.6654Y-2.9646
X4.6654Y-3.0
X4.6654Y-3.378
X4.6654Y-3.4134
X4.6654Y-3.4488
X4.6969Y-2.9291
X4.6969Y-2.9646
X4.6969Y-3.0
X4.6969Y-3.378
X4.6969Y-3.4134
X4.6969Y-3.4488
X4.7559Y-3.7717
X4.7598Y-3.9567
X4.811Y-1.9331
X4.8504Y-1.8819
X4.878Y-3.9567
X4.937Y-1.6969
X4.9409Y-1.5157
X5.1063Y-1.8386
X5.1457Y-1.5157
X5.1496Y-3.9567
X5.2283Y-3.9567
X5.3189Y-1.7598
X5.3465Y-3.9567
X5.3504Y-2.4646
X5.4134Y-2.4055
X5.4646Y-3.9567
X5.5827Y-2.4055
X5.5827Y-3.9567
X5.7008Y-3.9567
X5.752Y-1.7087
X5.7913Y-1.7087
X5.815Y-3.9567
X6.0512Y-3.2559
X6.0512Y-3.315
X6.0787Y-3.8189
X6.0827Y-2.9016
X6.1378Y-3.8189
X6.1457Y-2.9016
X6.1614Y-3.3189
X6.1614Y-3.374
X6.1732Y-3.1614
X6.2126Y-2.9016
X6.2126Y-3.8189
X6.2165Y-3.374
X6.2441Y-2.374
X6.2717Y-2.9016
X6.2717Y-3.8189
X6.2756Y-2.6929
X6.2756Y-2.7323
X6.3071Y-2.1732
X6.3071Y-2.4843
X6.311Y-3.3622
X6.311Y-3.5709
X6.3228Y-3.4213
X6.3386Y-2.9055
X6.3465Y-3.8189
X6.3661Y-2.0551
X6.4016Y-2.9055
X6.4055Y-2.0551
X6.4055Y-3.8189
X6.4094Y-2.2402
X6.4173Y-2.5906
X6.4291Y-3.4213
X6.4291Y-3.4803
X6.4646Y-2.5906
X6.5236Y-2.5669
X6.5866Y-2.3071
X6.5945Y-2.2362
X6.626Y-2.1142
X6.626Y-2.1575
X6.6614Y-2.5118
X6.7992Y-2.1142
X6.9961Y-2.3386
X7.1732Y-2.4921
X7.315Y-3.3346
X7.315Y-3.374
X7.3898Y-2.4016
T2
X6.7362Y-2.5354
X6.7953Y-2.5354
T3
X3.3386Y-2.1575
X3.3386Y-2.315
X3.378Y-2.0787
X3.378Y-2.2362
X3.4173Y-2.1575
X3.4173Y-2.315
X3.4567Y-2.0787
X3.4567Y-2.2362
X3.4961Y-2.1575
X3.4961Y-2.315
X3.5354Y-2.0787
X3.5354Y-2.2362
X3.5748Y-2.1575
X3.5748Y-2.315
X3.6142Y-2.0787
X3.6142Y-2.2362
X3.6535Y-2.1575
X3.6535Y-2.315
X3.6929Y-2.0787
X3.6929Y-2.2362
X3.7323Y-2.1575
X3.7323Y-2.315
X3.7717Y-2.0787
X3.7717Y-2.2362
X3.811Y-2.1575
X3.811Y-2.315
X3.8504Y-2.0787
X3.8504Y-2.2362
X3.8898Y-2.1575
X3.8898Y-2.315
X3.9291Y-2.0787
X3.9291Y-2.2362
X3.9685Y-2.1575
X3.9685Y-2.315
X4.0079Y-2.0787
X4.0079Y-2.2362
X4.0472Y-2.1575
X4.0472Y-2.315
X4.0866Y-2.0787
X4.0866Y-2.2362
X4.126Y-2.1575
X4.126Y-2.315
X4.1654Y-2.0787
X4.1654Y-2.2362
X4.2047Y-2.1575
X4.2047Y-2.315
X4.2441Y-2.0787
X4.2441Y-2.2362
X4.2835Y-2.1575
X4.2835Y-2.315
X4.3228Y-2.0787
X4.3228Y-2.2362
X4.3622Y-2.1575
X4.3622Y-2.315
X4.4016Y-2.0787
X4.4016Y-2.2362
X4.4409Y-2.1575
X4.4409Y-2.315
X4.4803Y-2.0787
X4.4803Y-2.2362
X4.5197Y-2.1575
X4.5197Y-2.315
X4.5591Y-2.0787
X4.5591Y-2.2362
X4.5984Y-2.1575
X4.5984Y-2.315
X4.6378Y-2.0787
X4.6378Y-2.2362
X4.6772Y-2.1575
X4.6772Y-2.315
X4.7165Y-2.0787
X4.7165Y-2.2362
X4.7559Y-2.1575
X4.7559Y-2.315
X4.7953Y-2.0787
X4.7953Y-2.2362
X4.8346Y-2.1575
X4.8346Y-2.315
X4.874Y-2.0787
X4.874Y-2.2362
X4.9134Y-2.1575
X4.9134Y-2.315
X4.9528Y-2.0787
X4.9528Y-2.2362
X4.9921Y-2.1575
X4.9921Y-2.315
X5.0315Y-2.0787
X5.0315Y-2.2362
X5.0709Y-2.1575
X5.0709Y-2.315
X5.1102Y-2.0787
X5.1102Y-2.2362
X5.1496Y-2.1575
X5.1496Y-2.315
X5.189Y-2.0787
X5.189Y-2.2362
X5.2283Y-2.1575
X5.2283Y-2.315
X5.2677Y-2.0787
X5.2677Y-2.2362
X5.3071Y-2.1575
X5.3071Y-2.315
X5.3465Y-2.0787
X5.3465Y-2.2362
X5.3858Y-2.1575
X5.3858Y-2.315
X5.4252Y-2.0787
X5.4252Y-2.2362
X5.4646Y-2.1575
X5.4646Y-2.315
X5.5039Y-2.0787
X5.5039Y-2.2362
X5.5433Y-2.1575
X5.5433Y-2.315
X5.5827Y-2.0787
X5.5827Y-2.2362
X5.622Y-2.1575
X5.622Y-2.315
X5.6614Y-2.0787
X5.6614Y-2.2362
X5.7008Y-2.1575
X5.7008Y-2.315
X5.7402Y-2.0787
X5.7402Y-2.2362
X5.7795Y-2.1575
X5.7795Y-2.315
X5.8189Y-2.0787
X5.8189Y-2.2362
X5.8583Y-2.1575
X5.8583Y-2.315
X5.8976Y-2.0787
X5.8976Y-2.2362
T4
X6.9449Y-2.2421
X6.9449Y-2.4343
T5
X3.2008Y-2.7652
X3.2008Y-2.8652
X3.2008Y-3.5447
X3.2008Y-3.6447
X3.4764Y-2.7652
X3.4764Y-2.8652
X3.4764Y-3.5447
X3.4764Y-3.6447
X4.3583Y-2.7652
X4.3583Y-2.8652
X4.3583Y-3.5447
X4.3583Y-3.6447
X4.6339Y-2.7652
X4.6339Y-2.8652
X4.6339Y-3.5447
X4.6339Y-3.6447
X5.9724Y-2.7652
X5.9724Y-2.8652
X5.9724Y-3.5447
X5.9724Y-3.6447
X6.5693Y-2.6732
X6.6693Y-2.6732
X6.7693Y-2.6732
X6.8693Y-2.6732
X7.0417Y-2.6732
X7.1417Y-2.6732
X7.2417Y-2.6732
X7.3417Y-2.6732
T6
X3.2646Y-1.5709
X3.4646Y-1.5709
X3.7213Y-1.5709
X3.9213Y-1.5709
T7
X5.5717Y-1.9031
X5.7717Y-1.9031
X5.9717Y-1.9031
X6.1717Y-1.9031
X6.6039Y-1.9031
X6.8039Y-1.9031
X7.0039Y-1.9031
X7.2039Y-1.9031
T8
X6.622Y-2.8898
X6.622Y-3.0551
X6.622Y-3.2205
X6.622Y-3.4882
X6.622Y-3.6535
X6.622Y-3.8189
X6.8386Y-2.8898
X6.8386Y-3.0551
X6.8386Y-3.2205
X6.8386Y-3.4882
X6.8386Y-3.6535
X6.8386Y-3.8189
M30
