%TF.GenerationSoftware,KiCad,Pcbnew,9.0.1*%
%TF.CreationDate,2025-05-06T20:53:02+02:00*%
%TF.ProjectId,apm,61706d2e-6b69-4636-9164-5f7063625858,rev?*%
%TF.SameCoordinates,Original*%
%TF.FileFunction,Copper,L1,Top*%
%TF.FilePolarity,Positive*%
%FSLAX46Y46*%
G04 Gerber Fmt 4.6, Leading zero omitted, Abs format (unit mm)*
G04 Created by KiCad (PCBNEW 9.0.1) date 2025-05-06 20:53:02*
%MOMM*%
%LPD*%
G01*
G04 APERTURE LIST*
G04 Aperture macros list*
%AMRoundRect*
0 Rectangle with rounded corners*
0 $1 Rounding radius*
0 $2 $3 $4 $5 $6 $7 $8 $9 X,Y pos of 4 corners*
0 Add a 4 corners polygon primitive as box body*
4,1,4,$2,$3,$4,$5,$6,$7,$8,$9,$2,$3,0*
0 Add four circle primitives for the rounded corners*
1,1,$1+$1,$2,$3*
1,1,$1+$1,$4,$5*
1,1,$1+$1,$6,$7*
1,1,$1+$1,$8,$9*
0 Add four rect primitives between the rounded corners*
20,1,$1+$1,$2,$3,$4,$5,0*
20,1,$1+$1,$4,$5,$6,$7,0*
20,1,$1+$1,$6,$7,$8,$9,0*
20,1,$1+$1,$8,$9,$2,$3,0*%
%AMFreePoly0*
4,1,27,0.545019,1.545046,0.545046,1.545019,0.545050,1.545000,0.545050,-1.545000,0.545046,-1.545019,0.545019,-1.545046,0.545000,-1.545050,0.300500,-1.545050,0.300500,-4.315000,0.300462,-4.315191,0.300191,-4.315462,0.300000,-4.315500,-0.300000,-4.315500,-0.300191,-4.315462,-0.300462,-4.315191,-0.300500,-4.315000,-0.300500,-1.545050,-0.545000,-1.545050,-0.545019,-1.545046,-0.545046,-1.545019,
-0.545050,-1.545000,-0.545050,1.545000,-0.545046,1.545019,-0.545019,1.545046,-0.545000,1.545050,0.545000,1.545050,0.545019,1.545046,0.545019,1.545046,$1*%
%AMFreePoly1*
4,1,27,0.300191,4.550462,0.300462,4.550191,0.300500,4.550000,0.300500,1.310500,0.545000,1.310500,0.545191,1.310462,0.545462,1.310191,0.545500,1.310000,0.545500,-1.310000,0.545462,-1.310191,0.545191,-1.310462,0.545000,-1.310500,-0.545000,-1.310500,-0.545191,-1.310462,-0.545462,-1.310191,-0.545500,-1.310000,-0.545500,1.310000,-0.545462,1.310191,-0.545191,1.310462,-0.545000,1.310500,
-0.300500,1.310500,-0.300500,4.550000,-0.300462,4.550191,-0.300191,4.550462,-0.300000,4.550500,0.300000,4.550500,0.300191,4.550462,0.300191,4.550462,$1*%
G04 Aperture macros list end*
%TA.AperFunction,ComponentPad*%
%ADD10C,1.000000*%
%TD*%
%TA.AperFunction,SMDPad,CuDef*%
%ADD11RoundRect,0.200000X-0.200000X-0.275000X0.200000X-0.275000X0.200000X0.275000X-0.200000X0.275000X0*%
%TD*%
%TA.AperFunction,SMDPad,CuDef*%
%ADD12RoundRect,0.225000X0.250000X-0.225000X0.250000X0.225000X-0.250000X0.225000X-0.250000X-0.225000X0*%
%TD*%
%TA.AperFunction,ComponentPad*%
%ADD13RoundRect,0.250001X-0.799999X-0.799999X0.799999X-0.799999X0.799999X0.799999X-0.799999X0.799999X0*%
%TD*%
%TA.AperFunction,ComponentPad*%
%ADD14C,2.100000*%
%TD*%
%TA.AperFunction,ComponentPad*%
%ADD15C,2.400000*%
%TD*%
%TA.AperFunction,ComponentPad*%
%ADD16R,1.700000X1.700000*%
%TD*%
%TA.AperFunction,ComponentPad*%
%ADD17C,1.700000*%
%TD*%
%TA.AperFunction,SMDPad,CuDef*%
%ADD18RoundRect,0.225000X-0.225000X-0.250000X0.225000X-0.250000X0.225000X0.250000X-0.225000X0.250000X0*%
%TD*%
%TA.AperFunction,SMDPad,CuDef*%
%ADD19RoundRect,0.250000X0.650000X-0.325000X0.650000X0.325000X-0.650000X0.325000X-0.650000X-0.325000X0*%
%TD*%
%TA.AperFunction,ComponentPad*%
%ADD20C,1.520000*%
%TD*%
%TA.AperFunction,SMDPad,CuDef*%
%ADD21RoundRect,0.200000X-0.275000X0.200000X-0.275000X-0.200000X0.275000X-0.200000X0.275000X0.200000X0*%
%TD*%
%TA.AperFunction,SMDPad,CuDef*%
%ADD22RoundRect,0.200000X0.200000X0.275000X-0.200000X0.275000X-0.200000X-0.275000X0.200000X-0.275000X0*%
%TD*%
%TA.AperFunction,SMDPad,CuDef*%
%ADD23RoundRect,0.225000X-0.250000X0.225000X-0.250000X-0.225000X0.250000X-0.225000X0.250000X0.225000X0*%
%TD*%
%TA.AperFunction,SMDPad,CuDef*%
%ADD24RoundRect,0.250000X0.325000X0.650000X-0.325000X0.650000X-0.325000X-0.650000X0.325000X-0.650000X0*%
%TD*%
%TA.AperFunction,SMDPad,CuDef*%
%ADD25RoundRect,0.250000X-0.325000X-0.650000X0.325000X-0.650000X0.325000X0.650000X-0.325000X0.650000X0*%
%TD*%
%TA.AperFunction,SMDPad,CuDef*%
%ADD26RoundRect,0.200000X0.275000X-0.200000X0.275000X0.200000X-0.275000X0.200000X-0.275000X-0.200000X0*%
%TD*%
%TA.AperFunction,SMDPad,CuDef*%
%ADD27RoundRect,0.225000X0.225000X0.250000X-0.225000X0.250000X-0.225000X-0.250000X0.225000X-0.250000X0*%
%TD*%
%TA.AperFunction,SMDPad,CuDef*%
%ADD28RoundRect,0.087500X0.087500X-0.425000X0.087500X0.425000X-0.087500X0.425000X-0.087500X-0.425000X0*%
%TD*%
%TA.AperFunction,SMDPad,CuDef*%
%ADD29RoundRect,0.087500X0.425000X-0.087500X0.425000X0.087500X-0.425000X0.087500X-0.425000X-0.087500X0*%
%TD*%
%TA.AperFunction,HeatsinkPad*%
%ADD30R,2.100000X2.100000*%
%TD*%
%TA.AperFunction,ComponentPad*%
%ADD31RoundRect,0.250001X-1.599999X1.099999X-1.599999X-1.099999X1.599999X-1.099999X1.599999X1.099999X0*%
%TD*%
%TA.AperFunction,ComponentPad*%
%ADD32O,3.700000X2.700000*%
%TD*%
%TA.AperFunction,ComponentPad*%
%ADD33C,1.500000*%
%TD*%
%TA.AperFunction,SMDPad,CuDef*%
%ADD34RoundRect,0.175000X-0.175000X-0.325000X0.175000X-0.325000X0.175000X0.325000X-0.175000X0.325000X0*%
%TD*%
%TA.AperFunction,SMDPad,CuDef*%
%ADD35RoundRect,0.150000X-0.200000X-0.150000X0.200000X-0.150000X0.200000X0.150000X-0.200000X0.150000X0*%
%TD*%
%TA.AperFunction,SMDPad,CuDef*%
%ADD36FreePoly0,0.000000*%
%TD*%
%TA.AperFunction,SMDPad,CuDef*%
%ADD37FreePoly1,0.000000*%
%TD*%
%TA.AperFunction,SMDPad,CuDef*%
%ADD38RoundRect,0.075000X0.662500X0.075000X-0.662500X0.075000X-0.662500X-0.075000X0.662500X-0.075000X0*%
%TD*%
%TA.AperFunction,SMDPad,CuDef*%
%ADD39RoundRect,0.075000X0.075000X0.662500X-0.075000X0.662500X-0.075000X-0.662500X0.075000X-0.662500X0*%
%TD*%
%TA.AperFunction,SMDPad,CuDef*%
%ADD40RoundRect,0.087500X0.425000X0.087500X-0.425000X0.087500X-0.425000X-0.087500X0.425000X-0.087500X0*%
%TD*%
%TA.AperFunction,SMDPad,CuDef*%
%ADD41RoundRect,0.087500X0.087500X0.425000X-0.087500X0.425000X-0.087500X-0.425000X0.087500X-0.425000X0*%
%TD*%
%TA.AperFunction,SMDPad,CuDef*%
%ADD42RoundRect,0.250001X1.974999X-1.262499X1.974999X1.262499X-1.974999X1.262499X-1.974999X-1.262499X0*%
%TD*%
%TA.AperFunction,SMDPad,CuDef*%
%ADD43R,0.500000X2.500000*%
%TD*%
%TA.AperFunction,SMDPad,CuDef*%
%ADD44R,2.000000X2.500000*%
%TD*%
%TA.AperFunction,SMDPad,CuDef*%
%ADD45RoundRect,0.087500X-0.425000X-0.087500X0.425000X-0.087500X0.425000X0.087500X-0.425000X0.087500X0*%
%TD*%
%TA.AperFunction,SMDPad,CuDef*%
%ADD46RoundRect,0.087500X-0.087500X-0.425000X0.087500X-0.425000X0.087500X0.425000X-0.087500X0.425000X0*%
%TD*%
%TA.AperFunction,ViaPad*%
%ADD47C,0.600000*%
%TD*%
%TA.AperFunction,ViaPad*%
%ADD48C,0.500000*%
%TD*%
%TA.AperFunction,Conductor*%
%ADD49C,0.600000*%
%TD*%
%TA.AperFunction,Conductor*%
%ADD50C,3.000000*%
%TD*%
%TA.AperFunction,Conductor*%
%ADD51C,0.250000*%
%TD*%
%TA.AperFunction,Conductor*%
%ADD52C,0.150000*%
%TD*%
%TA.AperFunction,Conductor*%
%ADD53C,0.300000*%
%TD*%
%TA.AperFunction,Conductor*%
%ADD54C,0.500000*%
%TD*%
%TA.AperFunction,Conductor*%
%ADD55C,0.200000*%
%TD*%
%TA.AperFunction,Conductor*%
%ADD56C,1.000000*%
%TD*%
%TA.AperFunction,Conductor*%
%ADD57C,0.800000*%
%TD*%
G04 APERTURE END LIST*
D10*
%TO.P,Y502,1,1*%
%TO.N,Net-(U502-PC15)*%
X172600000Y-64400000D03*
%TO.P,Y502,2,2*%
%TO.N,Net-(U502-PC14)*%
X171100000Y-64400000D03*
%TD*%
D11*
%TO.P,R501,1*%
%TO.N,Net-(D501-I{slash}O2)*%
X131475000Y-48800000D03*
%TO.P,R501,2*%
%TO.N,Net-(U502-PA12)*%
X133125000Y-48800000D03*
%TD*%
D12*
%TO.P,C403,1*%
%TO.N,Net-(U401-IN+3)*%
X108487500Y-45112500D03*
%TO.P,C403,2*%
%TO.N,Net-(U401-IN-3)*%
X108487500Y-43562500D03*
%TD*%
D13*
%TO.P,J306,1,Pin_1*%
%TO.N,ALT_IN_B*%
X94520000Y-39900000D03*
D14*
%TO.P,J306,2,Pin_2*%
%TO.N,ALT_OUT_B*%
X99600000Y-39900000D03*
%TD*%
D15*
%TO.P,J304,1,1*%
%TO.N,EXT_OUT_5V*%
X182980000Y-48340000D03*
%TO.P,J304,2,2*%
%TO.N,GND*%
X177900000Y-48340000D03*
%TO.P,J304,3,3*%
X172820000Y-48340000D03*
%TO.P,J304,4,4*%
%TO.N,EXT_OUT_12V*%
X167740000Y-48340000D03*
%TD*%
D16*
%TO.P,J502,1,Pin_1*%
%TO.N,+3.3V*%
X186480000Y-67900000D03*
D17*
%TO.P,J502,2,Pin_2*%
%TO.N,SCL*%
X183940000Y-67900000D03*
%TO.P,J502,3,Pin_3*%
%TO.N,SDA*%
X181400000Y-67900000D03*
%TO.P,J502,4,Pin_4*%
%TO.N,GND*%
X178860000Y-67900000D03*
%TD*%
D18*
%TO.P,C408,1*%
%TO.N,Net-(U403-IN+2)*%
X157750000Y-78000000D03*
%TO.P,C408,2*%
%TO.N,Net-(U403-IN-2)*%
X159300000Y-78000000D03*
%TD*%
D19*
%TO.P,C204,1*%
%TO.N,VBUS_IN_5V*%
X87100000Y-98775000D03*
%TO.P,C204,2*%
%TO.N,GND*%
X87100000Y-95825000D03*
%TD*%
D20*
%TO.P,J202,A1,1*%
%TO.N,VBUS_OUT_12V*%
X84800000Y-54800000D03*
%TO.P,J202,A2,2*%
%TO.N,/agp_connectors/TYPEDET#*%
X85800000Y-52800000D03*
%TO.P,J202,A3,3*%
%TO.N,/agp_connectors/GC_DET#*%
X86800000Y-54800000D03*
%TO.P,J202,A4,4*%
%TO.N,/agp_connectors/USB-*%
X87800000Y-52800000D03*
%TO.P,J202,A5,5*%
%TO.N,GND*%
X88800000Y-54800000D03*
%TO.P,J202,A6,6*%
%TO.N,/agp_connectors/INTA#*%
X89800000Y-52800000D03*
%TO.P,J202,A7,7*%
%TO.N,/agp_connectors/RST#*%
X90800000Y-54800000D03*
%TO.P,J202,A8,8*%
%TO.N,/agp_connectors/GNT#*%
X91800000Y-52800000D03*
%TO.P,J202,A9,9*%
%TO.N,VBUS_OUT_3.3V*%
X92800000Y-54800000D03*
%TO.P,J202,A10,10*%
%TO.N,/agp_connectors/ST1*%
X93800000Y-52800000D03*
%TO.P,J202,A11,11*%
%TO.N,/agp_connectors/MB_DET#*%
X94800000Y-54800000D03*
%TO.P,J202,A12,12*%
%TO.N,/agp_connectors/DBI_HI{slash}PIPE#*%
X95800000Y-52800000D03*
%TO.P,J202,A13,13*%
%TO.N,GND*%
X96800000Y-54800000D03*
%TO.P,J202,A14,14*%
%TO.N,/agp_connectors/WBF#*%
X97800000Y-52800000D03*
%TO.P,J202,A15,15*%
%TO.N,/agp_connectors/SBA1*%
X98800000Y-54800000D03*
%TO.P,J202,A16,16*%
%TO.N,VBUS_OUT_3.3V*%
X99800000Y-52800000D03*
%TO.P,J202,A17,17*%
%TO.N,/agp_connectors/SBA3*%
X100800000Y-54800000D03*
%TO.P,J202,A18,18*%
%TO.N,/agp_connectors/SB_STB#*%
X101800000Y-52800000D03*
%TO.P,J202,A19,19*%
%TO.N,GND*%
X102800000Y-54800000D03*
%TO.P,J202,A20,20*%
%TO.N,/agp_connectors/SBA5*%
X103800000Y-52800000D03*
%TO.P,J202,A21,21*%
%TO.N,/agp_connectors/SBA7*%
X104800000Y-54800000D03*
%TO.P,J202,A22,22*%
%TO.N,unconnected-(J202-22-PadA22)*%
X105800000Y-52800000D03*
%TO.P,J202,A23,23*%
%TO.N,unconnected-(J202-23-PadA23)*%
X106800000Y-54800000D03*
%TO.P,J202,A24,24*%
%TO.N,unconnected-(J202-24-PadA24)*%
X107800000Y-52800000D03*
%TO.P,J202,A25,25*%
%TO.N,unconnected-(J202-25-PadA25)*%
X108800000Y-54800000D03*
%TO.P,J202,A26,26*%
%TO.N,/agp_connectors/AD30*%
X109800000Y-52800000D03*
%TO.P,J202,A27,27*%
%TO.N,/agp_connectors/AD28*%
X110800000Y-54800000D03*
%TO.P,J202,A28,28*%
%TO.N,VBUS_OUT_3.3V*%
X111800000Y-52800000D03*
%TO.P,J202,A29,29*%
%TO.N,/agp_connectors/AD26*%
X112800000Y-54800000D03*
%TO.P,J202,A30,30*%
%TO.N,/agp_connectors/AD24*%
X113800000Y-52800000D03*
%TO.P,J202,A31,31*%
%TO.N,GND*%
X114800000Y-54800000D03*
%TO.P,J202,A32,32*%
%TO.N,/agp_connectors/AD_STB1#*%
X115800000Y-52800000D03*
%TO.P,J202,A33,33*%
%TO.N,/agp_connectors/C{slash}BE3#*%
X116800000Y-54800000D03*
%TO.P,J202,A34,34*%
%TO.N,VBUS_OUT_VDDQ*%
X117800000Y-52800000D03*
%TO.P,J202,A35,35*%
%TO.N,/agp_connectors/AD22*%
X118800000Y-54800000D03*
%TO.P,J202,A36,36*%
%TO.N,/agp_connectors/AD20*%
X119800000Y-52800000D03*
%TO.P,J202,A37,37*%
%TO.N,GND*%
X120800000Y-54800000D03*
%TO.P,J202,A38,38*%
%TO.N,/agp_connectors/AD18*%
X121800000Y-52800000D03*
%TO.P,J202,A39,39*%
%TO.N,/agp_connectors/AD16*%
X122800000Y-54800000D03*
%TO.P,J202,A40,40*%
%TO.N,VBUS_OUT_VDDQ*%
X123800000Y-52800000D03*
%TO.P,J202,A41,41*%
%TO.N,/agp_connectors/FRAME#*%
X124800000Y-54800000D03*
%TO.P,J202,A42,42*%
%TO.N,unconnected-(J202-42-PadA42)*%
X125800000Y-52800000D03*
%TO.P,J202,A43,43*%
%TO.N,unconnected-(J202-43-PadA43)*%
X126800000Y-54800000D03*
%TO.P,J202,A44,44*%
%TO.N,unconnected-(J202-44-PadA44)*%
X127800000Y-52800000D03*
%TO.P,J202,A45,45*%
%TO.N,unconnected-(J202-45-PadA45)*%
X128800000Y-54800000D03*
%TO.P,J202,A46,46*%
%TO.N,/agp_connectors/TRDY#*%
X129800000Y-52800000D03*
%TO.P,J202,A47,47*%
%TO.N,/agp_connectors/STOP*%
X130800000Y-54800000D03*
%TO.P,J202,A48,48*%
%TO.N,/agp_connectors/PME#*%
X131800000Y-52800000D03*
%TO.P,J202,A49,49*%
%TO.N,GND*%
X132800000Y-54800000D03*
%TO.P,J202,A50,50*%
%TO.N,/agp_connectors/PAR*%
X133800000Y-52800000D03*
%TO.P,J202,A51,51*%
%TO.N,/agp_connectors/AD15*%
X134800000Y-54800000D03*
%TO.P,J202,A52,52*%
%TO.N,VBUS_OUT_VDDQ*%
X135800000Y-52800000D03*
%TO.P,J202,A53,53*%
%TO.N,/agp_connectors/AD13*%
X136800000Y-54800000D03*
%TO.P,J202,A54,54*%
%TO.N,/agp_connectors/AD11*%
X137800000Y-52800000D03*
%TO.P,J202,A55,55*%
%TO.N,GND*%
X138800000Y-54800000D03*
%TO.P,J202,A56,56*%
%TO.N,/agp_connectors/AD9*%
X139800000Y-52800000D03*
%TO.P,J202,A57,57*%
%TO.N,/agp_connectors/C{slash}BE0#*%
X140800000Y-54800000D03*
%TO.P,J202,A58,58*%
%TO.N,VBUS_OUT_VDDQ*%
X141800000Y-52800000D03*
%TO.P,J202,A59,59*%
%TO.N,/agp_connectors/AD_STB0#*%
X142800000Y-54800000D03*
%TO.P,J202,A60,60*%
%TO.N,/agp_connectors/AD6*%
X143800000Y-52800000D03*
%TO.P,J202,A61,61*%
%TO.N,GND*%
X144800000Y-54800000D03*
%TO.P,J202,A62,62*%
%TO.N,/agp_connectors/AD4*%
X145800000Y-52800000D03*
%TO.P,J202,A63,63*%
%TO.N,/agp_connectors/AD2*%
X146800000Y-54800000D03*
%TO.P,J202,A64,64*%
%TO.N,VBUS_OUT_VDDQ*%
X147800000Y-52800000D03*
%TO.P,J202,A65,65*%
%TO.N,/agp_connectors/AD0*%
X148800000Y-54800000D03*
%TO.P,J202,A66,66*%
%TO.N,/agp_connectors/VREFGC*%
X149800000Y-52800000D03*
%TO.P,J202,B1,67*%
%TO.N,/agp_connectors/OVRCNT#*%
X84800000Y-58800000D03*
%TO.P,J202,B2,68*%
%TO.N,VBUS_OUT_5V*%
X85800000Y-56800000D03*
%TO.P,J202,B3,69*%
X86800000Y-58800000D03*
%TO.P,J202,B4,70*%
%TO.N,/agp_connectors/USB+*%
X87800000Y-56800000D03*
%TO.P,J202,B5,71*%
%TO.N,GND*%
X88800000Y-58800000D03*
%TO.P,J202,B6,72*%
%TO.N,/agp_connectors/INTB#*%
X89800000Y-56800000D03*
%TO.P,J202,B7,73*%
%TO.N,/agp_connectors/CLK*%
X90800000Y-58800000D03*
%TO.P,J202,B8,74*%
%TO.N,/agp_connectors/REQ#*%
X91800000Y-56800000D03*
%TO.P,J202,B9,75*%
%TO.N,VBUS_OUT_3.3V*%
X92800000Y-58800000D03*
%TO.P,J202,B10,76*%
%TO.N,/agp_connectors/ST0*%
X93800000Y-56800000D03*
%TO.P,J202,B11,77*%
%TO.N,/agp_connectors/ST2*%
X94800000Y-58800000D03*
%TO.P,J202,B12,78*%
%TO.N,/agp_connectors/RBF#*%
X95800000Y-56800000D03*
%TO.P,J202,B13,79*%
%TO.N,GND*%
X96800000Y-58800000D03*
%TO.P,J202,B14,80*%
%TO.N,/agp_connectors/DBI_LO*%
X97800000Y-56800000D03*
%TO.P,J202,B15,81*%
%TO.N,/agp_connectors/SBA0*%
X98800000Y-58800000D03*
%TO.P,J202,B16,82*%
%TO.N,VBUS_OUT_3.3V*%
X99800000Y-56800000D03*
%TO.P,J202,B17,83*%
%TO.N,/agp_connectors/SBA2*%
X100800000Y-58800000D03*
%TO.P,J202,B18,84*%
%TO.N,/agp_connectors/SB_STB*%
X101800000Y-56800000D03*
%TO.P,J202,B19,85*%
%TO.N,GND*%
X102800000Y-58800000D03*
%TO.P,J202,B20,86*%
%TO.N,/agp_connectors/SBA4*%
X103800000Y-56800000D03*
%TO.P,J202,B21,87*%
%TO.N,/agp_connectors/SBA6*%
X104800000Y-58800000D03*
%TO.P,J202,B22,88*%
%TO.N,unconnected-(J202-88-PadB22)*%
X105800000Y-56800000D03*
%TO.P,J202,B23,B24*%
%TO.N,unconnected-(J202-B24-PadB23)*%
X106800000Y-58800000D03*
%TO.P,J202,B24,90*%
%TO.N,unconnected-(J202-90-PadB24)*%
X107800000Y-56800000D03*
%TO.P,J202,B25,91*%
%TO.N,unconnected-(J202-91-PadB25)*%
X108800000Y-58800000D03*
%TO.P,J202,B26,92*%
%TO.N,/agp_connectors/AD31*%
X109800000Y-56800000D03*
%TO.P,J202,B27,93*%
%TO.N,/agp_connectors/AD29*%
X110800000Y-58800000D03*
%TO.P,J202,B28,94*%
%TO.N,VBUS_OUT_3.3V*%
X111800000Y-56800000D03*
%TO.P,J202,B29,95*%
%TO.N,/agp_connectors/AD27*%
X112800000Y-58800000D03*
%TO.P,J202,B30,96*%
%TO.N,/agp_connectors/AD25*%
X113800000Y-56800000D03*
%TO.P,J202,B31,97*%
%TO.N,GND*%
X114800000Y-58800000D03*
%TO.P,J202,B32,98*%
%TO.N,/agp_connectors/AD_STB1*%
X115800000Y-56800000D03*
%TO.P,J202,B33,99*%
%TO.N,/agp_connectors/AD23*%
X116800000Y-58800000D03*
%TO.P,J202,B34,100*%
%TO.N,VBUS_OUT_VDDQ*%
X117800000Y-56800000D03*
%TO.P,J202,B35,101*%
%TO.N,/agp_connectors/AD21*%
X118800000Y-58800000D03*
%TO.P,J202,B36,102*%
%TO.N,/agp_connectors/AD19*%
X119800000Y-56800000D03*
%TO.P,J202,B37,103*%
%TO.N,GND*%
X120800000Y-58800000D03*
%TO.P,J202,B38,104*%
%TO.N,/agp_connectors/AD17*%
X121800000Y-56800000D03*
%TO.P,J202,B39,105*%
%TO.N,/agp_connectors/C{slash}BE2#*%
X122800000Y-58800000D03*
%TO.P,J202,B40,106*%
%TO.N,VBUS_OUT_VDDQ*%
X123800000Y-56800000D03*
%TO.P,J202,B41,107*%
%TO.N,/agp_connectors/IRDY#*%
X124800000Y-58800000D03*
%TO.P,J202,B42,108*%
%TO.N,unconnected-(J202-108-PadB42)*%
X125800000Y-56800000D03*
%TO.P,J202,B43,109*%
%TO.N,unconnected-(J202-109-PadB43)*%
X126800000Y-58800000D03*
%TO.P,J202,B44,110*%
%TO.N,unconnected-(J202-110-PadB44)*%
X127800000Y-56800000D03*
%TO.P,J202,B45,111*%
%TO.N,unconnected-(J202-111-PadB45)*%
X128800000Y-58800000D03*
%TO.P,J202,B46,112*%
%TO.N,/agp_connectors/DEVSEL#*%
X129800000Y-56800000D03*
%TO.P,J202,B47,113*%
%TO.N,VBUS_OUT_VDDQ*%
X130800000Y-58800000D03*
%TO.P,J202,B48,114*%
%TO.N,/agp_connectors/PERR#*%
X131800000Y-56800000D03*
%TO.P,J202,B49,115*%
%TO.N,GND*%
X132800000Y-58800000D03*
%TO.P,J202,B50,116*%
%TO.N,/agp_connectors/SERR#*%
X133800000Y-56800000D03*
%TO.P,J202,B51,117*%
%TO.N,/agp_connectors/C{slash}BE1#*%
X134800000Y-58800000D03*
%TO.P,J202,B52,118*%
%TO.N,VBUS_OUT_VDDQ*%
X135800000Y-56800000D03*
%TO.P,J202,B53,119*%
%TO.N,/agp_connectors/AD14*%
X136800000Y-58800000D03*
%TO.P,J202,B54,120*%
%TO.N,/agp_connectors/AD12*%
X137800000Y-56800000D03*
%TO.P,J202,B55,121*%
%TO.N,GND*%
X138800000Y-58800000D03*
%TO.P,J202,B56,122*%
%TO.N,/agp_connectors/AD10*%
X139800000Y-56800000D03*
%TO.P,J202,B57,123*%
%TO.N,/agp_connectors/AD8*%
X140800000Y-58800000D03*
%TO.P,J202,B58,124*%
%TO.N,VBUS_OUT_VDDQ*%
X141800000Y-56800000D03*
%TO.P,J202,B59,125*%
%TO.N,/agp_connectors/AD_STB0*%
X142800000Y-58800000D03*
%TO.P,J202,B60,126*%
%TO.N,/agp_connectors/AD7*%
X143800000Y-56800000D03*
%TO.P,J202,B61,127*%
%TO.N,GND*%
X144800000Y-58800000D03*
%TO.P,J202,B62,128*%
%TO.N,/agp_connectors/AD5*%
X145800000Y-56800000D03*
%TO.P,J202,B63,129*%
%TO.N,/agp_connectors/AD3*%
X146800000Y-58800000D03*
%TO.P,J202,B64,130*%
%TO.N,VBUS_OUT_VDDQ*%
X147800000Y-56800000D03*
%TO.P,J202,B65,131*%
%TO.N,/agp_connectors/AD1*%
X148800000Y-58800000D03*
%TO.P,J202,B66,132*%
%TO.N,/agp_connectors/VREFCG*%
X149800000Y-56800000D03*
%TD*%
D21*
%TO.P,R427,1*%
%TO.N,EXT_OUT_12V*%
X156100000Y-74775000D03*
%TO.P,R427,2*%
%TO.N,Net-(U403-IN-3)*%
X156100000Y-76425000D03*
%TD*%
D22*
%TO.P,R507,1*%
%TO.N,+3.3V*%
X186525000Y-65100000D03*
%TO.P,R507,2*%
%TO.N,SCL*%
X184875000Y-65100000D03*
%TD*%
D13*
%TO.P,J305,1,Pin_1*%
%TO.N,ALT_IN_A*%
X82920000Y-39900000D03*
D14*
%TO.P,J305,2,Pin_2*%
%TO.N,ALT_OUT_A*%
X88000000Y-39900000D03*
%TD*%
D23*
%TO.P,C412,1*%
%TO.N,+3.3V*%
X162100000Y-86825000D03*
%TO.P,C412,2*%
%TO.N,GND*%
X162100000Y-88375000D03*
%TD*%
D24*
%TO.P,C211,1*%
%TO.N,VBUS_OUT_5V*%
X88175000Y-62700000D03*
%TO.P,C211,2*%
%TO.N,GND*%
X85225000Y-62700000D03*
%TD*%
D25*
%TO.P,C208,1*%
%TO.N,VBUS_OUT_3.3V*%
X99925000Y-49000000D03*
%TO.P,C208,2*%
%TO.N,GND*%
X102875000Y-49000000D03*
%TD*%
D26*
%TO.P,R419,1*%
%TO.N,VBUS_OUT_5V*%
X157725000Y-95725000D03*
%TO.P,R419,2*%
%TO.N,Net-(U402-IN-2)*%
X157725000Y-94075000D03*
%TD*%
D21*
%TO.P,R426,1*%
%TO.N,EXT_IN_12V*%
X154500000Y-74775000D03*
%TO.P,R426,2*%
%TO.N,Net-(U403-IN+3)*%
X154500000Y-76425000D03*
%TD*%
D26*
%TO.P,R416,1*%
%TO.N,VBUS_IN_VDDQ*%
X155925000Y-95725000D03*
%TO.P,R416,2*%
%TO.N,Net-(U402-IN+1)*%
X155925000Y-94075000D03*
%TD*%
D11*
%TO.P,R415,1*%
%TO.N,VBUS_OUT_12V*%
X105362500Y-43562500D03*
%TO.P,R415,2*%
%TO.N,Net-(U401-IN-3)*%
X107012500Y-43562500D03*
%TD*%
D27*
%TO.P,C406,1*%
%TO.N,Net-(U402-IN+3)*%
X162675000Y-92500000D03*
%TO.P,C406,2*%
%TO.N,Net-(U402-IN-3)*%
X161125000Y-92500000D03*
%TD*%
D28*
%TO.P,U401,1,IN-3*%
%TO.N,Net-(U401-IN-3)*%
X111250000Y-43000000D03*
%TO.P,U401,2,IN+3*%
%TO.N,Net-(U401-IN+3)*%
X111900000Y-43000000D03*
%TO.P,U401,3,GND*%
%TO.N,GND*%
X112550000Y-43000000D03*
%TO.P,U401,4,VS*%
%TO.N,+3.3V*%
X113200000Y-43000000D03*
D29*
%TO.P,U401,5,A0*%
%TO.N,SCL*%
X114087500Y-42112500D03*
%TO.P,U401,6,SCL*%
X114087500Y-41462500D03*
%TO.P,U401,7,SDA*%
%TO.N,SDA*%
X114087500Y-40812500D03*
%TO.P,U401,8,WARNING*%
%TO.N,unconnected-(U401-WARNING-Pad8)*%
X114087500Y-40162500D03*
D28*
%TO.P,U401,9,CRITICAL*%
%TO.N,unconnected-(U401-CRITICAL-Pad9)*%
X113200000Y-39275000D03*
%TO.P,U401,10,PV*%
%TO.N,unconnected-(U401-PV-Pad10)*%
X112550000Y-39275000D03*
%TO.P,U401,11,IN-1*%
%TO.N,Net-(U401-IN-1)*%
X111900000Y-39275000D03*
%TO.P,U401,12,IN+1*%
%TO.N,Net-(U401-IN+1)*%
X111250000Y-39275000D03*
D29*
%TO.P,U401,13,TC*%
%TO.N,unconnected-(U401-TC-Pad13)*%
X110362500Y-40162500D03*
%TO.P,U401,14,IN-2*%
%TO.N,Net-(U401-IN-2)*%
X110362500Y-40812500D03*
%TO.P,U401,15,IN+2*%
%TO.N,Net-(U401-IN+2)*%
X110362500Y-41462500D03*
%TO.P,U401,16,VPU*%
%TO.N,+3.3V*%
X110362500Y-42112500D03*
D30*
%TO.P,U401,17,EP*%
%TO.N,GND*%
X112225000Y-41137500D03*
%TD*%
D18*
%TO.P,C409,1*%
%TO.N,Net-(U403-IN+3)*%
X154525000Y-78000000D03*
%TO.P,C409,2*%
%TO.N,Net-(U403-IN-3)*%
X156075000Y-78000000D03*
%TD*%
D31*
%TO.P,J302,1,Pin_1*%
%TO.N,EXT_OUT_12V_PCIE*%
X173700000Y-73400000D03*
D32*
%TO.P,J302,2,Pin_2*%
X173700000Y-77600000D03*
%TO.P,J302,3,Pin_3*%
X173700000Y-81800000D03*
%TO.P,J302,4,Pin_4*%
%TO.N,GND*%
X168200000Y-73400000D03*
%TO.P,J302,5,Pin_5*%
X168200000Y-77600000D03*
%TO.P,J302,6,Pin_6*%
X168200000Y-81800000D03*
%TD*%
D21*
%TO.P,R425,1*%
%TO.N,EXT_OUT_5V*%
X159350000Y-74775000D03*
%TO.P,R425,2*%
%TO.N,Net-(U403-IN-2)*%
X159350000Y-76425000D03*
%TD*%
D12*
%TO.P,C402,1*%
%TO.N,Net-(U401-IN+2)*%
X108487500Y-41812500D03*
%TO.P,C402,2*%
%TO.N,Net-(U401-IN-2)*%
X108487500Y-40262500D03*
%TD*%
D11*
%TO.P,R413,1*%
%TO.N,ALT_OUT_B*%
X105362500Y-40237500D03*
%TO.P,R413,2*%
%TO.N,Net-(U401-IN-2)*%
X107012500Y-40237500D03*
%TD*%
D33*
%TO.P,Y501,1,1*%
%TO.N,Net-(U502-PD1)*%
X176400000Y-56950000D03*
%TO.P,Y501,2,2*%
%TO.N,Net-(U502-PD0)*%
X176400000Y-61830000D03*
%TD*%
D19*
%TO.P,C202,1*%
%TO.N,VBUS_IN_3.3V*%
X99900000Y-98775000D03*
%TO.P,C202,2*%
%TO.N,GND*%
X99900000Y-95825000D03*
%TD*%
D27*
%TO.P,C404,1*%
%TO.N,Net-(U402-IN+1)*%
X155925000Y-92500000D03*
%TO.P,C404,2*%
%TO.N,Net-(U402-IN-1)*%
X154375000Y-92500000D03*
%TD*%
D34*
%TO.P,D503,1,GND*%
%TO.N,GND*%
X181200000Y-63350000D03*
D35*
%TO.P,D503,2,I/O1*%
%TO.N,SDA*%
X181200000Y-65050000D03*
%TO.P,D503,3,I/O2*%
%TO.N,SCL*%
X183200000Y-65050000D03*
%TO.P,D503,4,VCC*%
%TO.N,+3.3V*%
X183200000Y-63150000D03*
%TD*%
D26*
%TO.P,R421,1*%
%TO.N,VBUS_OUT_3.3V*%
X161125000Y-95725000D03*
%TO.P,R421,2*%
%TO.N,Net-(U402-IN-3)*%
X161125000Y-94075000D03*
%TD*%
D27*
%TO.P,C405,1*%
%TO.N,Net-(U402-IN+2)*%
X159325000Y-92500000D03*
%TO.P,C405,2*%
%TO.N,Net-(U402-IN-2)*%
X157775000Y-92500000D03*
%TD*%
D21*
%TO.P,R424,1*%
%TO.N,EXT_IN_5V*%
X157750000Y-74775000D03*
%TO.P,R424,2*%
%TO.N,Net-(U403-IN+2)*%
X157750000Y-76425000D03*
%TD*%
D18*
%TO.P,C407,1*%
%TO.N,Net-(U403-IN+1)*%
X161050000Y-78000000D03*
%TO.P,C407,2*%
%TO.N,Net-(U403-IN-1)*%
X162600000Y-78000000D03*
%TD*%
%TO.P,C505,1*%
%TO.N,+3.3V*%
X161225000Y-53200000D03*
%TO.P,C505,2*%
%TO.N,GND*%
X162775000Y-53200000D03*
%TD*%
D11*
%TO.P,R502,1*%
%TO.N,Net-(D501-I{slash}O1)*%
X131475000Y-47200000D03*
%TO.P,R502,2*%
%TO.N,Net-(U502-PA11)*%
X133125000Y-47200000D03*
%TD*%
D36*
%TO.P,J201,B1,OVRCNT#*%
%TO.N,/agp_connectors/OVRCNT#*%
X85070000Y-105600000D03*
D37*
%TO.P,J201,B2,5.0V*%
%TO.N,VBUS_IN_5V*%
X86065000Y-108605000D03*
D36*
%TO.P,J201,B3,5.0V*%
X87060000Y-105600000D03*
D37*
%TO.P,J201,B4,USB+*%
%TO.N,/agp_connectors/USB+*%
X88055000Y-108605000D03*
D36*
%TO.P,J201,B5,GND*%
%TO.N,GND*%
X89050000Y-105600000D03*
D37*
%TO.P,J201,B6,INTB#*%
%TO.N,/agp_connectors/INTB#*%
X90045000Y-108605000D03*
D36*
%TO.P,J201,B7,CLK*%
%TO.N,/agp_connectors/CLK*%
X91040000Y-105600000D03*
D37*
%TO.P,J201,B8,REQ#*%
%TO.N,/agp_connectors/REQ#*%
X92035000Y-108605000D03*
D36*
%TO.P,J201,B9,VCC_3.3*%
%TO.N,VBUS_IN_3.3V*%
X93030000Y-105600000D03*
D37*
%TO.P,J201,B10,ST0*%
%TO.N,/agp_connectors/ST0*%
X94025000Y-108605000D03*
D36*
%TO.P,J201,B11,ST2*%
%TO.N,/agp_connectors/ST2*%
X95020000Y-105600000D03*
D37*
%TO.P,J201,B12,RBF#*%
%TO.N,/agp_connectors/RBF#*%
X96015000Y-108605000D03*
D36*
%TO.P,J201,B13,GND*%
%TO.N,GND*%
X97010000Y-105600000D03*
D37*
%TO.P,J201,B14,DBI_LO*%
%TO.N,/agp_connectors/DBI_LO*%
X98005000Y-108605000D03*
D36*
%TO.P,J201,B15,SBA0*%
%TO.N,/agp_connectors/SBA0*%
X99000000Y-105600000D03*
D37*
%TO.P,J201,B16,VCC_3.3*%
%TO.N,VBUS_IN_3.3V*%
X99995000Y-108605000D03*
D36*
%TO.P,J201,B17,SBA2*%
%TO.N,/agp_connectors/SBA2*%
X100990000Y-105600000D03*
D37*
%TO.P,J201,B18,SB_STB*%
%TO.N,/agp_connectors/SB_STB*%
X101985000Y-108605000D03*
D36*
%TO.P,J201,B19,GND*%
%TO.N,GND*%
X102980000Y-105600000D03*
D37*
%TO.P,J201,B20,SBA4*%
%TO.N,/agp_connectors/SBA4*%
X103975000Y-108605000D03*
D36*
%TO.P,J201,B21,SBA6*%
%TO.N,/agp_connectors/SBA6*%
X104970000Y-105600000D03*
D37*
%TO.P,J201,B26,AD31*%
%TO.N,/agp_connectors/AD31*%
X109945000Y-108605000D03*
D36*
%TO.P,J201,B27,AD29*%
%TO.N,/agp_connectors/AD29*%
X110940000Y-105600000D03*
D37*
%TO.P,J201,B28,VCC_3.3*%
%TO.N,VBUS_IN_3.3V*%
X111935000Y-108605000D03*
D36*
%TO.P,J201,B29,AD27*%
%TO.N,/agp_connectors/AD27*%
X112930000Y-105600000D03*
D37*
%TO.P,J201,B30,AD25*%
%TO.N,/agp_connectors/AD25*%
X113925000Y-108605000D03*
D36*
%TO.P,J201,B31,GND*%
%TO.N,GND*%
X114920000Y-105600000D03*
D37*
%TO.P,J201,B32,AD_STB1*%
%TO.N,/agp_connectors/AD_STB1*%
X115915000Y-108605000D03*
D36*
%TO.P,J201,B33,AD23*%
%TO.N,/agp_connectors/AD23*%
X116910000Y-105600000D03*
D37*
%TO.P,J201,B34,VDDQ*%
%TO.N,VBUS_IN_VDDQ*%
X117905000Y-108605000D03*
D36*
%TO.P,J201,B35,AD21*%
%TO.N,/agp_connectors/AD21*%
X118900000Y-105600000D03*
D37*
%TO.P,J201,B36,AD19*%
%TO.N,/agp_connectors/AD19*%
X119895000Y-108605000D03*
D36*
%TO.P,J201,B37,GND*%
%TO.N,GND*%
X120890000Y-105600000D03*
D37*
%TO.P,J201,B38,AD17*%
%TO.N,/agp_connectors/AD17*%
X121885000Y-108605000D03*
D36*
%TO.P,J201,B39,C/BE2#*%
%TO.N,/agp_connectors/C{slash}BE2#*%
X122880000Y-105600000D03*
D37*
%TO.P,J201,B40,VDDQ*%
%TO.N,VBUS_IN_VDDQ*%
X123875000Y-108605000D03*
D36*
%TO.P,J201,B41,IRDY#*%
%TO.N,/agp_connectors/IRDY#*%
X124870000Y-105600000D03*
D37*
%TO.P,J201,B46,DEVSEL#*%
%TO.N,/agp_connectors/DEVSEL#*%
X129845000Y-108605000D03*
D36*
%TO.P,J201,B47,VDDQ*%
%TO.N,VBUS_IN_VDDQ*%
X130840000Y-105600000D03*
D37*
%TO.P,J201,B48,PERR#*%
%TO.N,/agp_connectors/PERR#*%
X131835000Y-108605000D03*
D36*
%TO.P,J201,B49,GND*%
%TO.N,GND*%
X132830000Y-105600000D03*
D37*
%TO.P,J201,B50,SERR#*%
%TO.N,/agp_connectors/SERR#*%
X133825000Y-108605000D03*
D36*
%TO.P,J201,B51,C/BE1#*%
%TO.N,/agp_connectors/C{slash}BE1#*%
X134820000Y-105600000D03*
D37*
%TO.P,J201,B52,VDDQ*%
%TO.N,VBUS_IN_VDDQ*%
X135815000Y-108605000D03*
D36*
%TO.P,J201,B53,AD14*%
%TO.N,/agp_connectors/AD14*%
X136810000Y-105600000D03*
D37*
%TO.P,J201,B54,AD12*%
%TO.N,/agp_connectors/AD12*%
X137805000Y-108605000D03*
D36*
%TO.P,J201,B55,GND*%
%TO.N,GND*%
X138800000Y-105600000D03*
D37*
%TO.P,J201,B56,AD10*%
%TO.N,/agp_connectors/AD10*%
X139795000Y-108605000D03*
D36*
%TO.P,J201,B57,AD8*%
%TO.N,/agp_connectors/AD8*%
X140790000Y-105600000D03*
D37*
%TO.P,J201,B58,VDDQ*%
%TO.N,VBUS_IN_VDDQ*%
X141785000Y-108605000D03*
D36*
%TO.P,J201,B59,AD_STB0*%
%TO.N,/agp_connectors/AD_STB0*%
X142780000Y-105600000D03*
D37*
%TO.P,J201,B60,AD7*%
%TO.N,/agp_connectors/AD7*%
X143775000Y-108605000D03*
D36*
%TO.P,J201,B61,GND*%
%TO.N,GND*%
X144770000Y-105600000D03*
D37*
%TO.P,J201,B62,AD5*%
%TO.N,/agp_connectors/AD5*%
X145765000Y-108605000D03*
D36*
%TO.P,J201,B63,AD3*%
%TO.N,/agp_connectors/AD3*%
X146760000Y-105600000D03*
D37*
%TO.P,J201,B64,VDDQ*%
%TO.N,VBUS_IN_VDDQ*%
X147755000Y-108605000D03*
D36*
%TO.P,J201,B65,AD1*%
%TO.N,/agp_connectors/AD1*%
X148750000Y-105600000D03*
D37*
%TO.P,J201,B66,VREFCG*%
%TO.N,/agp_connectors/VREFCG*%
X149745000Y-108605000D03*
%TD*%
D38*
%TO.P,U502,1,VBAT*%
%TO.N,unconnected-(U502-VBAT-Pad1)*%
X168962500Y-62050000D03*
%TO.P,U502,2,PC13*%
%TO.N,unconnected-(U502-PC13-Pad2)*%
X168962500Y-61550000D03*
%TO.P,U502,3,PC14*%
%TO.N,Net-(U502-PC14)*%
X168962500Y-61050000D03*
%TO.P,U502,4,PC15*%
%TO.N,Net-(U502-PC15)*%
X168962500Y-60550000D03*
%TO.P,U502,5,PD0*%
%TO.N,Net-(U502-PD0)*%
X168962500Y-60050000D03*
%TO.P,U502,6,PD1*%
%TO.N,Net-(U502-PD1)*%
X168962500Y-59550000D03*
%TO.P,U502,7,NRST*%
%TO.N,Net-(U502-NRST)*%
X168962500Y-59050000D03*
%TO.P,U502,8,VSSA*%
%TO.N,GND*%
X168962500Y-58550000D03*
%TO.P,U502,9,VDDA*%
%TO.N,+3.3V*%
X168962500Y-58050000D03*
%TO.P,U502,10,PA0*%
%TO.N,unconnected-(U502-PA0-Pad10)*%
X168962500Y-57550000D03*
%TO.P,U502,11,PA1*%
%TO.N,unconnected-(U502-PA1-Pad11)*%
X168962500Y-57050000D03*
%TO.P,U502,12,PA2*%
%TO.N,unconnected-(U502-PA2-Pad12)*%
X168962500Y-56550000D03*
D39*
%TO.P,U502,13,PA3*%
%TO.N,unconnected-(U502-PA3-Pad13)*%
X167550000Y-55137500D03*
%TO.P,U502,14,PA4*%
%TO.N,Net-(U502-PA4)*%
X167050000Y-55137500D03*
%TO.P,U502,15,PA5*%
%TO.N,Net-(U502-PA5)*%
X166550000Y-55137500D03*
%TO.P,U502,16,PA6*%
%TO.N,unconnected-(U502-PA6-Pad16)*%
X166050000Y-55137500D03*
%TO.P,U502,17,PA7*%
%TO.N,unconnected-(U502-PA7-Pad17)*%
X165550000Y-55137500D03*
%TO.P,U502,18,PB0*%
%TO.N,unconnected-(U502-PB0-Pad18)*%
X165050000Y-55137500D03*
%TO.P,U502,19,PB1*%
%TO.N,unconnected-(U502-PB1-Pad19)*%
X164550000Y-55137500D03*
%TO.P,U502,20,PB2*%
%TO.N,unconnected-(U502-PB2-Pad20)*%
X164050000Y-55137500D03*
%TO.P,U502,21,PB10*%
%TO.N,unconnected-(U502-PB10-Pad21)*%
X163550000Y-55137500D03*
%TO.P,U502,22,PB11*%
%TO.N,unconnected-(U502-PB11-Pad22)*%
X163050000Y-55137500D03*
%TO.P,U502,23,VSS*%
%TO.N,GND*%
X162550000Y-55137500D03*
%TO.P,U502,24,VDD*%
%TO.N,+3.3V*%
X162050000Y-55137500D03*
D38*
%TO.P,U502,25,PB12*%
%TO.N,unconnected-(U502-PB12-Pad25)*%
X160637500Y-56550000D03*
%TO.P,U502,26,PB13*%
%TO.N,unconnected-(U502-PB13-Pad26)*%
X160637500Y-57050000D03*
%TO.P,U502,27,PB14*%
%TO.N,unconnected-(U502-PB14-Pad27)*%
X160637500Y-57550000D03*
%TO.P,U502,28,PB15*%
%TO.N,unconnected-(U502-PB15-Pad28)*%
X160637500Y-58050000D03*
%TO.P,U502,29,PA8*%
%TO.N,unconnected-(U502-PA8-Pad29)*%
X160637500Y-58550000D03*
%TO.P,U502,30,PA9*%
%TO.N,unconnected-(U502-PA9-Pad30)*%
X160637500Y-59050000D03*
%TO.P,U502,31,PA10*%
%TO.N,unconnected-(U502-PA10-Pad31)*%
X160637500Y-59550000D03*
%TO.P,U502,32,PA11*%
%TO.N,Net-(U502-PA11)*%
X160637500Y-60050000D03*
%TO.P,U502,33,PA12*%
%TO.N,Net-(U502-PA12)*%
X160637500Y-60550000D03*
%TO.P,U502,34,PA13*%
%TO.N,/usb_interface/SWDIO*%
X160637500Y-61050000D03*
%TO.P,U502,35,VSS*%
%TO.N,GND*%
X160637500Y-61550000D03*
%TO.P,U502,36,VDD*%
%TO.N,+3.3V*%
X160637500Y-62050000D03*
D39*
%TO.P,U502,37,PA14*%
%TO.N,/usb_interface/SWDCLK*%
X162050000Y-63462500D03*
%TO.P,U502,38,PA15*%
%TO.N,unconnected-(U502-PA15-Pad38)*%
X162550000Y-63462500D03*
%TO.P,U502,39,PB3*%
%TO.N,unconnected-(U502-PB3-Pad39)*%
X163050000Y-63462500D03*
%TO.P,U502,40,PB4*%
%TO.N,unconnected-(U502-PB4-Pad40)*%
X163550000Y-63462500D03*
%TO.P,U502,41,PB5*%
%TO.N,unconnected-(U502-PB5-Pad41)*%
X164050000Y-63462500D03*
%TO.P,U502,42,PB6*%
%TO.N,SCL*%
X164550000Y-63462500D03*
%TO.P,U502,43,PB7*%
%TO.N,SDA*%
X165050000Y-63462500D03*
%TO.P,U502,44,BOOT0*%
%TO.N,Net-(U502-BOOT0)*%
X165550000Y-63462500D03*
%TO.P,U502,45,PB8*%
%TO.N,unconnected-(U502-PB8-Pad45)*%
X166050000Y-63462500D03*
%TO.P,U502,46,PB9*%
%TO.N,unconnected-(U502-PB9-Pad46)*%
X166550000Y-63462500D03*
%TO.P,U502,47,VSS*%
%TO.N,GND*%
X167050000Y-63462500D03*
%TO.P,U502,48,VDD*%
%TO.N,+3.3V*%
X167550000Y-63462500D03*
%TD*%
D15*
%TO.P,J303,1,1*%
%TO.N,EXT_IN_5V*%
X156760000Y-48340000D03*
%TO.P,J303,2,2*%
%TO.N,GND*%
X151680000Y-48340000D03*
%TO.P,J303,3,3*%
X146600000Y-48340000D03*
%TO.P,J303,4,4*%
%TO.N,EXT_IN_12V*%
X141520000Y-48340000D03*
%TD*%
D18*
%TO.P,C512,1*%
%TO.N,Net-(U502-NRST)*%
X171125000Y-55100000D03*
%TO.P,C512,2*%
%TO.N,GND*%
X172675000Y-55100000D03*
%TD*%
D12*
%TO.P,C504,1*%
%TO.N,+3.3V*%
X158600000Y-63075000D03*
%TO.P,C504,2*%
%TO.N,GND*%
X158600000Y-61525000D03*
%TD*%
D26*
%TO.P,R511,1*%
%TO.N,GND*%
X163675000Y-68650000D03*
%TO.P,R511,2*%
%TO.N,Net-(U502-BOOT0)*%
X163675000Y-67000000D03*
%TD*%
D16*
%TO.P,J503,1,Pin_1*%
%TO.N,+3.3V*%
X174480000Y-67900000D03*
D17*
%TO.P,J503,2,Pin_2*%
%TO.N,/usb_interface/SWDIO*%
X171940000Y-67900000D03*
%TO.P,J503,3,Pin_3*%
%TO.N,/usb_interface/SWDCLK*%
X169400000Y-67900000D03*
%TO.P,J503,4,Pin_4*%
%TO.N,GND*%
X166860000Y-67900000D03*
%TD*%
D25*
%TO.P,C207,1*%
%TO.N,VBUS_OUT_12V*%
X80325000Y-62700000D03*
%TO.P,C207,2*%
%TO.N,GND*%
X83275000Y-62700000D03*
%TD*%
D26*
%TO.P,R504,1*%
%TO.N,+3.3V*%
X169500000Y-55125000D03*
%TO.P,R504,2*%
%TO.N,Net-(U502-NRST)*%
X169500000Y-53475000D03*
%TD*%
%TO.P,R418,1*%
%TO.N,VBUS_IN_5V*%
X159325000Y-95725000D03*
%TO.P,R418,2*%
%TO.N,Net-(U402-IN+2)*%
X159325000Y-94075000D03*
%TD*%
D27*
%TO.P,C506,1*%
%TO.N,+3.3V*%
X168500000Y-65200000D03*
%TO.P,C506,2*%
%TO.N,GND*%
X166950000Y-65200000D03*
%TD*%
D21*
%TO.P,R423,1*%
%TO.N,EXT_OUT_12V_PCIE*%
X162600000Y-74775000D03*
%TO.P,R423,2*%
%TO.N,Net-(U403-IN-1)*%
X162600000Y-76425000D03*
%TD*%
D25*
%TO.P,C210,1*%
%TO.N,VBUS_OUT_VDDQ*%
X117900000Y-49100000D03*
%TO.P,C210,2*%
%TO.N,GND*%
X120850000Y-49100000D03*
%TD*%
%TO.P,C212,1*%
%TO.N,VBUS_OUT_3.3V*%
X92750000Y-62600000D03*
%TO.P,C212,2*%
%TO.N,GND*%
X95700000Y-62600000D03*
%TD*%
%TO.P,C209,1*%
%TO.N,VBUS_OUT_VDDQ*%
X130825000Y-62600000D03*
%TO.P,C209,2*%
%TO.N,GND*%
X133775000Y-62600000D03*
%TD*%
D21*
%TO.P,R422,1*%
%TO.N,EXT_IN_12V_PCIE*%
X161000000Y-74775000D03*
%TO.P,R422,2*%
%TO.N,Net-(U403-IN+1)*%
X161000000Y-76425000D03*
%TD*%
D40*
%TO.P,U402,1,IN-3*%
%TO.N,Net-(U402-IN-3)*%
X160387500Y-89737500D03*
%TO.P,U402,2,IN+3*%
%TO.N,Net-(U402-IN+3)*%
X160387500Y-89087500D03*
%TO.P,U402,3,GND*%
%TO.N,GND*%
X160387500Y-88437500D03*
%TO.P,U402,4,VS*%
%TO.N,+3.3V*%
X160387500Y-87787500D03*
D41*
%TO.P,U402,5,A0*%
%TO.N,SDA*%
X159500000Y-86900000D03*
%TO.P,U402,6,SCL*%
%TO.N,SCL*%
X158850000Y-86900000D03*
%TO.P,U402,7,SDA*%
%TO.N,SDA*%
X158200000Y-86900000D03*
%TO.P,U402,8,WARNING*%
%TO.N,unconnected-(U402-WARNING-Pad8)*%
X157550000Y-86900000D03*
D40*
%TO.P,U402,9,CRITICAL*%
%TO.N,unconnected-(U402-CRITICAL-Pad9)*%
X156662500Y-87787500D03*
%TO.P,U402,10,PV*%
%TO.N,unconnected-(U402-PV-Pad10)*%
X156662500Y-88437500D03*
%TO.P,U402,11,IN-1*%
%TO.N,Net-(U402-IN-1)*%
X156662500Y-89087500D03*
%TO.P,U402,12,IN+1*%
%TO.N,Net-(U402-IN+1)*%
X156662500Y-89737500D03*
D41*
%TO.P,U402,13,TC*%
%TO.N,unconnected-(U402-TC-Pad13)*%
X157550000Y-90625000D03*
%TO.P,U402,14,IN-2*%
%TO.N,Net-(U402-IN-2)*%
X158200000Y-90625000D03*
%TO.P,U402,15,IN+2*%
%TO.N,Net-(U402-IN+2)*%
X158850000Y-90625000D03*
%TO.P,U402,16,VPU*%
%TO.N,+3.3V*%
X159500000Y-90625000D03*
D30*
%TO.P,U402,17,EP*%
%TO.N,GND*%
X158525000Y-88762500D03*
%TD*%
D27*
%TO.P,C410,1*%
%TO.N,+3.3V*%
X114175000Y-44800000D03*
%TO.P,C410,2*%
%TO.N,GND*%
X112625000Y-44800000D03*
%TD*%
D42*
%TO.P,R403,1*%
%TO.N,VBUS_IN_12V*%
X81300000Y-83612500D03*
%TO.P,R403,2*%
%TO.N,VBUS_OUT_12V*%
X81300000Y-78587500D03*
%TD*%
D11*
%TO.P,R411,1*%
%TO.N,ALT_OUT_A*%
X105362500Y-36962500D03*
%TO.P,R411,2*%
%TO.N,Net-(U401-IN-1)*%
X107012500Y-36962500D03*
%TD*%
D31*
%TO.P,J301,1,Pin_1*%
%TO.N,EXT_IN_12V_PCIE*%
X173700000Y-88600000D03*
D32*
%TO.P,J301,2,Pin_2*%
X173700000Y-92800000D03*
%TO.P,J301,3,Pin_3*%
X173700000Y-97000000D03*
%TO.P,J301,4,Pin_4*%
%TO.N,GND*%
X168200000Y-88600000D03*
%TO.P,J301,5,Pin_5*%
X168200000Y-92800000D03*
%TO.P,J301,6,Pin_6*%
X168200000Y-97000000D03*
%TD*%
D18*
%TO.P,C507,1*%
%TO.N,+3.3V*%
X171125000Y-56800000D03*
%TO.P,C507,2*%
%TO.N,GND*%
X172675000Y-56800000D03*
%TD*%
D19*
%TO.P,C203,1*%
%TO.N,VBUS_IN_VDDQ*%
X117900000Y-98775000D03*
%TO.P,C203,2*%
%TO.N,GND*%
X117900000Y-95825000D03*
%TD*%
D11*
%TO.P,R414,1*%
%TO.N,VBUS_IN_12V*%
X105362500Y-45162500D03*
%TO.P,R414,2*%
%TO.N,Net-(U401-IN+3)*%
X107012500Y-45162500D03*
%TD*%
%TO.P,R412,1*%
%TO.N,ALT_IN_B*%
X105362500Y-41837500D03*
%TO.P,R412,2*%
%TO.N,Net-(U401-IN+2)*%
X107012500Y-41837500D03*
%TD*%
D26*
%TO.P,R417,1*%
%TO.N,VBUS_OUT_VDDQ*%
X154325000Y-95725000D03*
%TO.P,R417,2*%
%TO.N,Net-(U402-IN-1)*%
X154325000Y-94075000D03*
%TD*%
D11*
%TO.P,R410,1*%
%TO.N,ALT_IN_A*%
X105362500Y-38562500D03*
%TO.P,R410,2*%
%TO.N,Net-(U401-IN+1)*%
X107012500Y-38562500D03*
%TD*%
D43*
%TO.P,J501,1,VBUS*%
%TO.N,Net-(D501-VCC)*%
X129725000Y-43925000D03*
%TO.P,J501,2,D-*%
%TO.N,Net-(D501-I{slash}O1)*%
X128925000Y-43925000D03*
%TO.P,J501,3,D+*%
%TO.N,Net-(D501-I{slash}O2)*%
X128125000Y-43925000D03*
%TO.P,J501,4,ID*%
%TO.N,unconnected-(J501-ID-Pad4)*%
X127325000Y-43925000D03*
%TO.P,J501,5,GND*%
%TO.N,GND*%
X126525000Y-43925000D03*
D44*
%TO.P,J501,6,Shield*%
X132525000Y-43925000D03*
X132525000Y-38425000D03*
X123725000Y-43925000D03*
X123725000Y-38425000D03*
%TD*%
D34*
%TO.P,D501,1,GND*%
%TO.N,GND*%
X126625000Y-47300000D03*
D35*
%TO.P,D501,2,I/O1*%
%TO.N,Net-(D501-I{slash}O1)*%
X126625000Y-49000000D03*
%TO.P,D501,3,I/O2*%
%TO.N,Net-(D501-I{slash}O2)*%
X128625000Y-49000000D03*
%TO.P,D501,4,VCC*%
%TO.N,Net-(D501-VCC)*%
X128625000Y-47100000D03*
%TD*%
D26*
%TO.P,R505,1*%
%TO.N,Net-(U502-PA12)*%
X135200000Y-47325000D03*
%TO.P,R505,2*%
%TO.N,Net-(U501-VI)*%
X135200000Y-45675000D03*
%TD*%
D12*
%TO.P,C401,1*%
%TO.N,Net-(U401-IN+1)*%
X108487500Y-38562500D03*
%TO.P,C401,2*%
%TO.N,Net-(U401-IN-1)*%
X108487500Y-37012500D03*
%TD*%
D45*
%TO.P,U403,1,IN-3*%
%TO.N,Net-(U403-IN-3)*%
X156662500Y-81300000D03*
%TO.P,U403,2,IN+3*%
%TO.N,Net-(U403-IN+3)*%
X156662500Y-81950000D03*
%TO.P,U403,3,GND*%
%TO.N,GND*%
X156662500Y-82600000D03*
%TO.P,U403,4,VS*%
%TO.N,+3.3V*%
X156662500Y-83250000D03*
D46*
%TO.P,U403,5,A0*%
%TO.N,GND*%
X157550000Y-84137500D03*
%TO.P,U403,6,SCL*%
%TO.N,SCL*%
X158200000Y-84137500D03*
%TO.P,U403,7,SDA*%
%TO.N,SDA*%
X158850000Y-84137500D03*
%TO.P,U403,8,WARNING*%
%TO.N,unconnected-(U403-WARNING-Pad8)*%
X159500000Y-84137500D03*
D45*
%TO.P,U403,9,CRITICAL*%
%TO.N,unconnected-(U403-CRITICAL-Pad9)*%
X160387500Y-83250000D03*
%TO.P,U403,10,PV*%
%TO.N,unconnected-(U403-PV-Pad10)*%
X160387500Y-82600000D03*
%TO.P,U403,11,IN-1*%
%TO.N,Net-(U403-IN-1)*%
X160387500Y-81950000D03*
%TO.P,U403,12,IN+1*%
%TO.N,Net-(U403-IN+1)*%
X160387500Y-81300000D03*
D46*
%TO.P,U403,13,TC*%
%TO.N,unconnected-(U403-TC-Pad13)*%
X159500000Y-80412500D03*
%TO.P,U403,14,IN-2*%
%TO.N,Net-(U403-IN-2)*%
X158850000Y-80412500D03*
%TO.P,U403,15,IN+2*%
%TO.N,Net-(U403-IN+2)*%
X158200000Y-80412500D03*
%TO.P,U403,16,VPU*%
%TO.N,+3.3V*%
X157550000Y-80412500D03*
D30*
%TO.P,U403,17,EP*%
%TO.N,GND*%
X158525000Y-82275000D03*
%TD*%
D22*
%TO.P,R506,1*%
%TO.N,+3.3V*%
X186525000Y-63500000D03*
%TO.P,R506,2*%
%TO.N,SDA*%
X184875000Y-63500000D03*
%TD*%
D42*
%TO.P,R405,1*%
%TO.N,VBUS_IN_5V*%
X88300000Y-83612500D03*
%TO.P,R405,2*%
%TO.N,VBUS_OUT_5V*%
X88300000Y-78587500D03*
%TD*%
%TO.P,R404,1*%
%TO.N,VBUS_IN_VDDQ*%
X117700000Y-83512500D03*
%TO.P,R404,2*%
%TO.N,VBUS_OUT_VDDQ*%
X117700000Y-78487500D03*
%TD*%
%TO.P,R406,1*%
%TO.N,VBUS_IN_3.3V*%
X110700000Y-83512500D03*
%TO.P,R406,2*%
%TO.N,VBUS_OUT_3.3V*%
X110700000Y-78487500D03*
%TD*%
D12*
%TO.P,C411,1*%
%TO.N,+3.3V*%
X155000000Y-84275000D03*
%TO.P,C411,2*%
%TO.N,GND*%
X155000000Y-82725000D03*
%TD*%
D26*
%TO.P,R420,1*%
%TO.N,VBUS_IN_3.3V*%
X162725000Y-95725000D03*
%TO.P,R420,2*%
%TO.N,Net-(U402-IN+3)*%
X162725000Y-94075000D03*
%TD*%
D16*
%TO.P,J205,1,Pin_1*%
%TO.N,VBUS_OUT_VDDQ*%
X117700000Y-72775000D03*
D17*
%TO.P,J205,2,Pin_2*%
X117700000Y-70235000D03*
%TD*%
D16*
%TO.P,J204,1,Pin_1*%
%TO.N,VBUS_OUT_3.3V*%
X110700000Y-72775000D03*
D17*
%TO.P,J204,2,Pin_2*%
X110700000Y-70235000D03*
%TD*%
D16*
%TO.P,J208,1,Pin_1*%
%TO.N,VBUS_IN_12V*%
X81300000Y-92575000D03*
D17*
%TO.P,J208,2,Pin_2*%
X81300000Y-90035000D03*
%TD*%
D16*
%TO.P,J209,1,Pin_1*%
%TO.N,VBUS_IN_3.3V*%
X110700000Y-92575000D03*
D17*
%TO.P,J209,2,Pin_2*%
X110700000Y-90035000D03*
%TD*%
D16*
%TO.P,J206,1,Pin_1*%
%TO.N,VBUS_OUT_5V*%
X88300000Y-72775000D03*
D17*
%TO.P,J206,2,Pin_2*%
X88300000Y-70235000D03*
%TD*%
D16*
%TO.P,J210,1,Pin_1*%
%TO.N,VBUS_IN_VDDQ*%
X117700000Y-92575000D03*
D17*
%TO.P,J210,2,Pin_2*%
X117700000Y-90035000D03*
%TD*%
D16*
%TO.P,J203,1,Pin_1*%
%TO.N,VBUS_OUT_12V*%
X81300000Y-72775000D03*
D17*
%TO.P,J203,2,Pin_2*%
X81300000Y-70235000D03*
%TD*%
D16*
%TO.P,J207,1,Pin_1*%
%TO.N,GND*%
X151700000Y-72775000D03*
D17*
%TO.P,J207,2,Pin_2*%
X151700000Y-70235000D03*
%TD*%
D16*
%TO.P,J211,1,Pin_1*%
%TO.N,VBUS_IN_5V*%
X88300000Y-92575000D03*
D17*
%TO.P,J211,2,Pin_2*%
X88300000Y-90035000D03*
%TD*%
D16*
%TO.P,J212,1,Pin_1*%
%TO.N,GND*%
X151700000Y-92575000D03*
D17*
%TO.P,J212,2,Pin_2*%
X151700000Y-90035000D03*
%TD*%
D47*
%TO.N,VBUS_IN_VDDQ*%
X119300000Y-86700000D03*
X117700000Y-87600000D03*
X135800000Y-100500000D03*
X116100000Y-85800000D03*
X116900000Y-85800000D03*
X119300000Y-85800000D03*
X117700000Y-86700000D03*
X118500000Y-85800000D03*
X130800000Y-100500000D03*
X118500000Y-86700000D03*
X117700000Y-85800000D03*
D48*
X155900000Y-97000000D03*
D47*
X147700000Y-100500000D03*
X116900000Y-87600000D03*
X119300000Y-87600000D03*
X118500000Y-87600000D03*
X116100000Y-87600000D03*
X117100000Y-81000000D03*
X116100000Y-86700000D03*
X117900000Y-100500000D03*
X141800000Y-100500000D03*
X123900000Y-100500000D03*
X116900000Y-86700000D03*
%TO.N,/agp_connectors/SBA7*%
X106700000Y-60500000D03*
%TO.N,VBUS_IN_3.3V*%
X99900000Y-100500000D03*
X112300000Y-86700000D03*
X110100000Y-80900000D03*
X111900000Y-100600000D03*
X109100000Y-85800000D03*
X109100000Y-86700000D03*
X111500000Y-86700000D03*
X111500000Y-85800000D03*
X112300000Y-87600000D03*
X93100000Y-100500000D03*
X111500000Y-87600000D03*
X109900000Y-86700000D03*
X110700000Y-85800000D03*
X110700000Y-87600000D03*
D48*
X162700000Y-97000000D03*
D47*
X109100000Y-87600000D03*
X109900000Y-87600000D03*
X112300000Y-85800000D03*
X110700000Y-86700000D03*
X109900000Y-85800000D03*
%TO.N,/agp_connectors/MB_DET#*%
X94800000Y-60500000D03*
%TO.N,/agp_connectors/AD22*%
X116800000Y-60500000D03*
%TO.N,/agp_connectors/AD24*%
X112800000Y-60500000D03*
%TO.N,VBUS_IN_12V*%
X79700000Y-87700000D03*
X81300000Y-87700000D03*
X81300000Y-85900000D03*
X82100000Y-87700000D03*
X82100000Y-85900000D03*
X85070000Y-100600000D03*
X80500000Y-87700000D03*
X82100000Y-86800000D03*
X79700000Y-85900000D03*
X82900000Y-85900000D03*
X79700000Y-86800000D03*
X81300000Y-86800000D03*
X85070000Y-99800000D03*
X80500000Y-86800000D03*
X80500000Y-85900000D03*
X82900000Y-86800000D03*
X82900000Y-87700000D03*
%TO.N,GND*%
X104300000Y-49000000D03*
X84200000Y-64500000D03*
X117400000Y-45200000D03*
X135900000Y-62600000D03*
X120900000Y-100500000D03*
X153700000Y-82700000D03*
X144800000Y-100500000D03*
D48*
X97100000Y-38300000D03*
D47*
X138800000Y-100500000D03*
D48*
X97100000Y-39000000D03*
D47*
X162800000Y-56900000D03*
X120800000Y-95800000D03*
D48*
X85500000Y-40500000D03*
D47*
X85900000Y-93900000D03*
X97000000Y-100500000D03*
D48*
X85500000Y-38400000D03*
X123200000Y-47800000D03*
D47*
X165700000Y-65200000D03*
D48*
X97100000Y-39700000D03*
D47*
X167300000Y-58600000D03*
X97500000Y-62600000D03*
D48*
X97100000Y-40400000D03*
D47*
X187700000Y-61000000D03*
X158600000Y-60300000D03*
X103000000Y-100500000D03*
D48*
X85500000Y-39800000D03*
X85500000Y-39100000D03*
D47*
X163300000Y-88400000D03*
X114900000Y-100500000D03*
X99900000Y-93600000D03*
X132800000Y-100500000D03*
D48*
X111500000Y-44800000D03*
D47*
X130700000Y-38500000D03*
X122200000Y-49100000D03*
X125500000Y-38500000D03*
X172700000Y-53700000D03*
X89100000Y-100500000D03*
X182200000Y-63300000D03*
X177700000Y-59400000D03*
%TO.N,/agp_connectors/AD_STB0#*%
X141800000Y-61100000D03*
%TO.N,VBUS_IN_5V*%
X89100000Y-85900000D03*
X86700000Y-87700000D03*
X86700000Y-85900000D03*
X87500000Y-87700000D03*
X87700000Y-81100000D03*
X87500000Y-86800000D03*
X89100000Y-87700000D03*
X89100000Y-86800000D03*
X89900000Y-87700000D03*
X86700000Y-86800000D03*
X87500000Y-85900000D03*
X87060000Y-100600000D03*
D48*
X159300000Y-97000000D03*
D47*
X89900000Y-85900000D03*
X88300000Y-87700000D03*
X87060000Y-99800000D03*
X89900000Y-86800000D03*
X88300000Y-86800000D03*
X88300000Y-85900000D03*
%TO.N,/agp_connectors/AD11*%
X137500000Y-61100000D03*
%TO.N,/agp_connectors/RST#*%
X90800000Y-60500000D03*
%TO.N,VBUS_OUT_VDDQ*%
X118500000Y-74400000D03*
X117700000Y-74400000D03*
X117700000Y-76200000D03*
X118300000Y-80900000D03*
X119300000Y-74400000D03*
X116100000Y-76200000D03*
X119300000Y-75300000D03*
X118500000Y-75300000D03*
X118500000Y-76200000D03*
X119300000Y-76200000D03*
X117700000Y-75300000D03*
X116900000Y-76200000D03*
X116900000Y-75300000D03*
D48*
X154400000Y-97000000D03*
D47*
X116900000Y-74400000D03*
X116100000Y-74400000D03*
X116100000Y-75300000D03*
%TO.N,VBUS_OUT_3.3V*%
X111300000Y-80900000D03*
X111400000Y-76200000D03*
X112200000Y-76200000D03*
X110600000Y-75300000D03*
X111400000Y-75300000D03*
X110600000Y-74400000D03*
X109000000Y-76200000D03*
X111400000Y-74400000D03*
X109000000Y-75300000D03*
X109800000Y-74400000D03*
X109000000Y-74400000D03*
D48*
X161200000Y-97000000D03*
D47*
X110600000Y-76200000D03*
X112200000Y-74400000D03*
X112200000Y-75300000D03*
X109800000Y-75300000D03*
X109800000Y-76200000D03*
%TO.N,VBUS_OUT_5V*%
X88300000Y-74500000D03*
X87500000Y-76300000D03*
X89900000Y-75400000D03*
X86700000Y-75400000D03*
X88300000Y-75400000D03*
X88800000Y-81100000D03*
X86700000Y-76300000D03*
X86700000Y-74500000D03*
X89100000Y-75400000D03*
X89100000Y-76300000D03*
X89900000Y-74500000D03*
X88300000Y-76300000D03*
X87500000Y-74500000D03*
X89900000Y-76300000D03*
X87500000Y-75400000D03*
X89100000Y-74500000D03*
X88100000Y-64600000D03*
D48*
X157800000Y-97000000D03*
D47*
%TO.N,VBUS_OUT_12V*%
X79700000Y-75400000D03*
X81300000Y-76300000D03*
X82900000Y-74500000D03*
X81300000Y-74500000D03*
X79700000Y-74500000D03*
X82100000Y-75400000D03*
X80500000Y-75400000D03*
X82900000Y-76300000D03*
X82900000Y-75400000D03*
X80400000Y-64700000D03*
X80500000Y-76300000D03*
X79700000Y-76300000D03*
X80500000Y-74500000D03*
X81300000Y-75400000D03*
X82100000Y-74500000D03*
X82100000Y-76300000D03*
%TO.N,EXT_IN_5V*%
X157800000Y-73700000D03*
D48*
X161700000Y-52200000D03*
%TO.N,EXT_OUT_5V*%
X162700000Y-52200000D03*
D47*
X159300000Y-73700000D03*
D48*
%TO.N,EXT_OUT_12V*%
X147100000Y-43400000D03*
D47*
X156100000Y-73700000D03*
D48*
%TO.N,EXT_IN_12V*%
X146100000Y-43400000D03*
D47*
X154500000Y-73700000D03*
D48*
%TO.N,EXT_OUT_12V_PCIE*%
X185800000Y-84700000D03*
D47*
X162600000Y-73800000D03*
%TO.N,EXT_IN_12V_PCIE*%
X161000000Y-73800000D03*
D48*
X185800000Y-85700000D03*
%TO.N,+3.3V*%
X160300000Y-90700000D03*
X160600000Y-86900000D03*
D47*
X163300000Y-86900000D03*
D48*
X114100000Y-42900000D03*
X110400000Y-42900000D03*
D47*
X156500000Y-84300000D03*
X167500000Y-56800000D03*
X169200000Y-63800000D03*
X160200000Y-63100000D03*
X160200000Y-55200000D03*
X156800000Y-80300000D03*
X125400000Y-43100000D03*
X153700000Y-84200000D03*
%TO.N,SCL*%
X163000000Y-65800000D03*
X156500000Y-85700000D03*
X159400000Y-69400000D03*
%TO.N,SDA*%
X159400000Y-68400000D03*
X160300000Y-85400000D03*
X157900000Y-85700000D03*
X164200000Y-65800000D03*
D48*
%TO.N,ALT_OUT_A*%
X86000000Y-42500000D03*
%TO.N,ALT_IN_A*%
X85000000Y-42500000D03*
%TO.N,ALT_OUT_B*%
X97600000Y-42500000D03*
%TO.N,ALT_IN_B*%
X96600000Y-42500000D03*
D47*
%TO.N,Net-(U501-VI)*%
X135100000Y-44700000D03*
%TO.N,Net-(D501-VCC)*%
X129700000Y-46700000D03*
%TO.N,Net-(U502-PA4)*%
X168300000Y-54800000D03*
%TO.N,Net-(U502-PA5)*%
X168300000Y-53700000D03*
%TD*%
D49*
%TO.N,VBUS_IN_VDDQ*%
X135815000Y-100515000D02*
X135800000Y-100500000D01*
X130840000Y-100540000D02*
X130800000Y-100500000D01*
X123875000Y-108605000D02*
X123875000Y-100525000D01*
X117900000Y-98775000D02*
X117900000Y-100500000D01*
X141785000Y-100515000D02*
X141800000Y-100500000D01*
X117900000Y-100500000D02*
X117905000Y-100505000D01*
X141785000Y-108605000D02*
X141785000Y-100515000D01*
D50*
X117700000Y-83512500D02*
X117700000Y-85800000D01*
D49*
X123875000Y-100525000D02*
X123900000Y-100500000D01*
X147755000Y-108605000D02*
X147755000Y-100555000D01*
X117905000Y-108605000D02*
X117905000Y-100505000D01*
D51*
X155925000Y-95725000D02*
X155925000Y-96975000D01*
D52*
X117700000Y-83512500D02*
X117700000Y-81600000D01*
D49*
X130840000Y-105600000D02*
X130840000Y-100540000D01*
D51*
X155925000Y-96975000D02*
X155900000Y-97000000D01*
D49*
X135815000Y-108605000D02*
X135815000Y-100515000D01*
X147755000Y-100555000D02*
X147700000Y-100500000D01*
D52*
X117700000Y-81600000D02*
X117100000Y-81000000D01*
%TO.N,/agp_connectors/AD8*%
X141541039Y-97920197D02*
X140790000Y-97920197D01*
X141541039Y-94320197D02*
X140790000Y-94320197D01*
X140098958Y-95280197D02*
X140098958Y-95160197D01*
X140790000Y-98520197D02*
X141541039Y-98520197D01*
X141541039Y-96720197D02*
X140790000Y-96720197D01*
X140671617Y-98520197D02*
X140790000Y-98520197D01*
X141541048Y-93120197D02*
X141030000Y-93120197D01*
X140338958Y-93720197D02*
X140790000Y-93720197D01*
X141030000Y-93720197D02*
X141541048Y-93720197D01*
X141781039Y-97080197D02*
X141781039Y-96960197D01*
X140790000Y-58810000D02*
X140800000Y-58800000D01*
X141781039Y-98280197D02*
X141781039Y-98160197D01*
X141781048Y-93480197D02*
X141781048Y-93360197D01*
X140790000Y-97320197D02*
X141541039Y-97320197D01*
X140670701Y-96120197D02*
X140790000Y-96120197D01*
X141781039Y-94680197D02*
X141781039Y-94560197D01*
X140790000Y-96120197D02*
X141541039Y-96120197D01*
X140790000Y-92880197D02*
X140790000Y-92760197D01*
X140790000Y-94920197D02*
X141541039Y-94920197D01*
X141781039Y-95880197D02*
X141781039Y-95760197D01*
X140338958Y-94920197D02*
X140790000Y-94920197D01*
X140790000Y-92760197D02*
X140790000Y-84229854D01*
X140790000Y-94320197D02*
X140338958Y-94320197D01*
X140098958Y-94080197D02*
X140098958Y-93960197D01*
X140790000Y-84229854D02*
X140790000Y-58810000D01*
X140790000Y-95520197D02*
X140338958Y-95520197D01*
X140670713Y-97320197D02*
X140790000Y-97320197D01*
X140551427Y-97800911D02*
X140551427Y-97439483D01*
X140790000Y-93720197D02*
X141030000Y-93720197D01*
X141541039Y-95520197D02*
X140790000Y-95520197D01*
X140551403Y-96600899D02*
X140551403Y-96239495D01*
X140790000Y-105600000D02*
X140790000Y-99245197D01*
X140790000Y-96720197D02*
X140670701Y-96720197D01*
X140790000Y-97920197D02*
X140670713Y-97920197D01*
X140553234Y-99008431D02*
X140553234Y-98638580D01*
X140338958Y-95520197D02*
G75*
G02*
X140099003Y-95280197I42J239997D01*
G01*
X140671617Y-99126814D02*
G75*
G02*
X140553186Y-99008431I-17J118414D01*
G01*
X140553234Y-98638580D02*
G75*
G02*
X140671617Y-98520234I118366J-20D01*
G01*
X141541039Y-98520197D02*
G75*
G03*
X141780997Y-98280197I-39J239997D01*
G01*
X141030000Y-93120197D02*
G75*
G02*
X140790003Y-92880197I0J239997D01*
G01*
X140551427Y-97439483D02*
G75*
G02*
X140670713Y-97320227I119273J-17D01*
G01*
X141781039Y-94560197D02*
G75*
G03*
X141541039Y-94320161I-240039J-3D01*
G01*
X140670713Y-97920197D02*
G75*
G02*
X140551403Y-97800911I-13J119297D01*
G01*
X140338958Y-94320197D02*
G75*
G02*
X140099003Y-94080197I42J239997D01*
G01*
X141541048Y-93720197D02*
G75*
G03*
X141780997Y-93480197I-48J239997D01*
G01*
X141781039Y-98160197D02*
G75*
G03*
X141541039Y-97920161I-240039J-3D01*
G01*
X141781039Y-96960197D02*
G75*
G03*
X141541039Y-96720161I-240039J-3D01*
G01*
X141541039Y-97320197D02*
G75*
G03*
X141780997Y-97080197I-39J239997D01*
G01*
X141781039Y-95760197D02*
G75*
G03*
X141541039Y-95520161I-240039J-3D01*
G01*
X141541039Y-96120197D02*
G75*
G03*
X141780997Y-95880197I-39J239997D01*
G01*
X141781048Y-93360197D02*
G75*
G03*
X141541048Y-93120152I-240048J-3D01*
G01*
X140790000Y-99245197D02*
G75*
G03*
X140671617Y-99126800I-118400J-3D01*
G01*
X140098958Y-93960197D02*
G75*
G02*
X140338958Y-93720158I240042J-3D01*
G01*
X140670701Y-96720197D02*
G75*
G02*
X140551403Y-96600899I-1J119297D01*
G01*
X140551403Y-96239495D02*
G75*
G02*
X140670701Y-96120203I119297J-5D01*
G01*
X140098958Y-95160197D02*
G75*
G02*
X140338958Y-94920158I240042J-3D01*
G01*
X141541039Y-94920197D02*
G75*
G03*
X141780997Y-94680197I-39J239997D01*
G01*
%TO.N,/agp_connectors/SBA4*%
X103975000Y-98172608D02*
X104180949Y-98172608D01*
X103975000Y-96372608D02*
X103735000Y-96372608D01*
X103488536Y-96972608D02*
X103975000Y-96972608D01*
X104180949Y-97572608D02*
X103975000Y-97572608D01*
X103975000Y-99372608D02*
X104180949Y-99372608D01*
X103488536Y-98172608D02*
X103975000Y-98172608D01*
X103975000Y-108605000D02*
X103975000Y-100212608D01*
X103248536Y-98532608D02*
X103248536Y-98412608D01*
X103735000Y-99372608D02*
X103975000Y-99372608D01*
X103975000Y-96972608D02*
X104180949Y-96972608D01*
X104180949Y-98772608D02*
X103975000Y-98772608D01*
X103975000Y-61575000D02*
X103800000Y-61400000D01*
X103735000Y-99972608D02*
X103288536Y-99972608D01*
X104386898Y-99166659D02*
X104386898Y-98978557D01*
X103800000Y-61400000D02*
X103800000Y-56800000D01*
X103735000Y-96372608D02*
X103488536Y-96372608D01*
X103248536Y-97332608D02*
X103248536Y-97212608D01*
X103975000Y-98772608D02*
X103488536Y-98772608D01*
X103248536Y-96132608D02*
X103248536Y-96012608D01*
X103048536Y-99732608D02*
X103048536Y-99612608D01*
X103288536Y-99372608D02*
X103735000Y-99372608D01*
X103975000Y-95412608D02*
X103975000Y-88974850D01*
X103975000Y-95532608D02*
X103975000Y-95412608D01*
X103975000Y-88974850D02*
X103975000Y-61575000D01*
X104180949Y-96372608D02*
X103975000Y-96372608D01*
X104386898Y-96766659D02*
X104386898Y-96578557D01*
X103975000Y-97572608D02*
X103488536Y-97572608D01*
X103488536Y-95772608D02*
X103735000Y-95772608D01*
X104386898Y-97966659D02*
X104386898Y-97778557D01*
X103488536Y-98772608D02*
G75*
G02*
X103248492Y-98532608I-36J240008D01*
G01*
X103488536Y-96372608D02*
G75*
G02*
X103248492Y-96132608I-36J240008D01*
G01*
X104386898Y-98978557D02*
G75*
G03*
X104180949Y-98772602I-205998J-43D01*
G01*
X103488536Y-97572608D02*
G75*
G02*
X103248492Y-97332608I-36J240008D01*
G01*
X103735000Y-95772608D02*
G75*
G03*
X103975008Y-95532608I0J240008D01*
G01*
X103248536Y-97212608D02*
G75*
G02*
X103488536Y-96972636I239964J8D01*
G01*
X104386898Y-96578557D02*
G75*
G03*
X104180949Y-96372602I-205998J-43D01*
G01*
X103248536Y-98412608D02*
G75*
G02*
X103488536Y-98172636I239964J8D01*
G01*
X103975000Y-100212608D02*
G75*
G03*
X103735000Y-99972600I-240000J8D01*
G01*
X104180949Y-99372608D02*
G75*
G03*
X104386808Y-99166659I-49J205908D01*
G01*
X103048536Y-99612608D02*
G75*
G02*
X103288536Y-99372636I239964J8D01*
G01*
X104386898Y-97778557D02*
G75*
G03*
X104180949Y-97572602I-205998J-43D01*
G01*
X104180949Y-96972608D02*
G75*
G03*
X104386808Y-96766659I-49J205908D01*
G01*
X104180949Y-98172608D02*
G75*
G03*
X104386808Y-97966659I-49J205908D01*
G01*
X103248536Y-96012608D02*
G75*
G02*
X103488536Y-95772636I239964J8D01*
G01*
X103288536Y-99972608D02*
G75*
G02*
X103048492Y-99732608I-36J240008D01*
G01*
%TO.N,/agp_connectors/AD27*%
X113211330Y-96372608D02*
X112930000Y-96372608D01*
X112198663Y-99372608D02*
X112690000Y-99372608D01*
X112208670Y-96132608D02*
X112208670Y-96012608D01*
X112328657Y-92920000D02*
X112328657Y-92800000D01*
X113060000Y-93160000D02*
X112568657Y-93160000D01*
X112208670Y-98532608D02*
X112208670Y-98412608D01*
X113211330Y-97572608D02*
X112930000Y-97572608D01*
X112448670Y-98172608D02*
X112930000Y-98172608D01*
X112930000Y-94332608D02*
X112930000Y-94212608D01*
X113451340Y-95532608D02*
X113451340Y-95412608D01*
X112198663Y-94572608D02*
X112690000Y-94572608D01*
X113451330Y-97932608D02*
X113451330Y-97812608D01*
X112568657Y-92560000D02*
X113060000Y-92560000D01*
X112930000Y-99372608D02*
X113211330Y-99372608D01*
X112930000Y-96972608D02*
X113211330Y-96972608D01*
X113303000Y-76597000D02*
X113303000Y-59303000D01*
X113300000Y-92320000D02*
X113300000Y-92200000D01*
X113211340Y-95172608D02*
X112930000Y-95172608D01*
X112448670Y-95772608D02*
X112930000Y-95772608D01*
X113451330Y-96732608D02*
X113451330Y-96612608D01*
X113300000Y-87228219D02*
X113300000Y-76600000D01*
X113303000Y-59303000D02*
X112800000Y-58800000D01*
X111958663Y-94932608D02*
X111958663Y-94812608D01*
X112930000Y-97572608D02*
X112448670Y-97572608D01*
X112208670Y-97332608D02*
X112208670Y-97212608D01*
X112930000Y-95172608D02*
X112690000Y-95172608D01*
X112690000Y-99972608D02*
X112198663Y-99972608D01*
X112930000Y-98172608D02*
X113211330Y-98172608D01*
X112690000Y-95172608D02*
X112198663Y-95172608D01*
X113211330Y-98772608D02*
X112930000Y-98772608D01*
X112690000Y-99372608D02*
X112930000Y-99372608D01*
X113300000Y-92200000D02*
X113300000Y-87228219D01*
X112930000Y-93770000D02*
X113300000Y-93400000D01*
X113300000Y-76600000D02*
X113303000Y-76597000D01*
X112930000Y-105600000D02*
X112930000Y-100212608D01*
X111958663Y-99732608D02*
X111958663Y-99612608D01*
X113451330Y-99132608D02*
X113451330Y-99012608D01*
X112930000Y-94212608D02*
X112930000Y-93770000D01*
X112930000Y-98772608D02*
X112448670Y-98772608D01*
X112448670Y-96972608D02*
X112930000Y-96972608D01*
X112930000Y-96372608D02*
X112448670Y-96372608D01*
X112930000Y-95772608D02*
X113211340Y-95772608D01*
X112208670Y-97212608D02*
G75*
G02*
X112448670Y-96972570I240030J8D01*
G01*
X113451330Y-96612608D02*
G75*
G03*
X113211330Y-96372570I-240030J8D01*
G01*
X112198663Y-99972608D02*
G75*
G02*
X111958692Y-99732608I37J240008D01*
G01*
X113451330Y-99012608D02*
G75*
G03*
X113211330Y-98772570I-240030J8D01*
G01*
X112690000Y-94572608D02*
G75*
G03*
X112930008Y-94332608I0J240008D01*
G01*
X113300000Y-93400000D02*
G75*
G03*
X113060000Y-93160000I-240000J0D01*
G01*
X113451330Y-97812608D02*
G75*
G03*
X113211330Y-97572570I-240030J8D01*
G01*
X113211330Y-98172608D02*
G75*
G03*
X113451308Y-97932608I-30J240008D01*
G01*
X112328657Y-92800000D02*
G75*
G02*
X112568657Y-92559957I240043J0D01*
G01*
X112208670Y-98412608D02*
G75*
G02*
X112448670Y-98172570I240030J8D01*
G01*
X113211340Y-95772608D02*
G75*
G03*
X113451308Y-95532608I-40J240008D01*
G01*
X112448670Y-97572608D02*
G75*
G02*
X112208692Y-97332608I30J240008D01*
G01*
X112448670Y-98772608D02*
G75*
G02*
X112208692Y-98532608I30J240008D01*
G01*
X111958663Y-94812608D02*
G75*
G02*
X112198663Y-94572563I240037J8D01*
G01*
X113211330Y-99372608D02*
G75*
G03*
X113451308Y-99132608I-30J240008D01*
G01*
X112568657Y-93160000D02*
G75*
G02*
X112328700Y-92920000I43J240000D01*
G01*
X111958663Y-99612608D02*
G75*
G02*
X112198663Y-99372563I240037J8D01*
G01*
X113451340Y-95412608D02*
G75*
G03*
X113211340Y-95172560I-240040J8D01*
G01*
X112448670Y-96372608D02*
G75*
G02*
X112208692Y-96132608I30J240008D01*
G01*
X112198663Y-95172608D02*
G75*
G02*
X111958692Y-94932608I37J240008D01*
G01*
X112208670Y-96012608D02*
G75*
G02*
X112448670Y-95772570I240030J8D01*
G01*
X112930000Y-100212608D02*
G75*
G03*
X112690000Y-99972600I-240000J8D01*
G01*
X113211330Y-96972608D02*
G75*
G03*
X113451308Y-96732608I-30J240008D01*
G01*
X113060000Y-92560000D02*
G75*
G03*
X113300000Y-92320000I0J240000D01*
G01*
D49*
%TO.N,VBUS_IN_3.3V*%
X93030000Y-100570000D02*
X93100000Y-100500000D01*
D52*
X110700000Y-81500000D02*
X110100000Y-80900000D01*
D49*
X99995000Y-108605000D02*
X99995000Y-100595000D01*
X111900000Y-100600000D02*
X111935000Y-100635000D01*
X111935000Y-108605000D02*
X111935000Y-100635000D01*
D50*
X110700000Y-83512500D02*
X110700000Y-85800000D01*
D51*
X162725000Y-96975000D02*
X162700000Y-97000000D01*
D49*
X93030000Y-105600000D02*
X93030000Y-100570000D01*
X99995000Y-100595000D02*
X99900000Y-100500000D01*
X99900000Y-98775000D02*
X99900000Y-100500000D01*
D51*
X162725000Y-95725000D02*
X162725000Y-96975000D01*
D52*
X110700000Y-83512500D02*
X110700000Y-81500000D01*
%TO.N,/agp_connectors/SERR#*%
X133825000Y-96664343D02*
X133825000Y-93764975D01*
X132700000Y-63900000D02*
X132700000Y-61700000D01*
X133825000Y-100024343D02*
X134211249Y-100024343D01*
X134451249Y-99784343D02*
X134451249Y-99664343D01*
X133825000Y-97624343D02*
X134065000Y-97624343D01*
X134211249Y-99424343D02*
X133825000Y-99424343D01*
X133048751Y-99184343D02*
X133048751Y-99064343D01*
X134065000Y-97624343D02*
X134211245Y-97624343D01*
X133288751Y-98824343D02*
X133825000Y-98824343D01*
X133825000Y-65025000D02*
X132700000Y-63900000D01*
X134211248Y-98224343D02*
X133825000Y-98224343D01*
X133825000Y-96784343D02*
X133825000Y-96664343D01*
X133825000Y-99424343D02*
X133288751Y-99424343D01*
X133424172Y-100463515D02*
X133424172Y-100224757D01*
X133825000Y-93764975D02*
X133825000Y-65025000D01*
X133624586Y-100024343D02*
X133825000Y-100024343D01*
X133288751Y-97624343D02*
X133825000Y-97624343D01*
X133825000Y-98224343D02*
X133288751Y-98224343D01*
X134211245Y-97024343D02*
X134065000Y-97024343D01*
X133048751Y-97984343D02*
X133048751Y-97864343D01*
X133825000Y-98824343D02*
X134211248Y-98824343D01*
X133825000Y-108605000D02*
X133825000Y-100864343D01*
X134451248Y-98584343D02*
X134451248Y-98464343D01*
X134451245Y-97384343D02*
X134451245Y-97264343D01*
X133800000Y-60600000D02*
X133800000Y-56800000D01*
X132700000Y-61700000D02*
X133800000Y-60600000D01*
X133288751Y-98224343D02*
G75*
G02*
X133048657Y-97984343I-51J240043D01*
G01*
X134211248Y-98824343D02*
G75*
G03*
X134451243Y-98584343I-48J240043D01*
G01*
X133624586Y-100663929D02*
G75*
G02*
X133424171Y-100463515I14J200429D01*
G01*
X134451249Y-99664343D02*
G75*
G03*
X134211249Y-99424351I-239949J43D01*
G01*
X134211249Y-100024343D02*
G75*
G03*
X134451343Y-99784343I51J240043D01*
G01*
X134065000Y-97024343D02*
G75*
G02*
X133824957Y-96784343I0J240043D01*
G01*
X134211245Y-97624343D02*
G75*
G03*
X134451243Y-97384343I-45J240043D01*
G01*
X133288751Y-99424343D02*
G75*
G02*
X133048657Y-99184343I-51J240043D01*
G01*
X134451248Y-98464343D02*
G75*
G03*
X134211248Y-98224252I-240048J43D01*
G01*
X134451245Y-97264343D02*
G75*
G03*
X134211245Y-97024255I-240045J43D01*
G01*
X133048751Y-97864343D02*
G75*
G02*
X133288751Y-97624351I239949J43D01*
G01*
X133424172Y-100224757D02*
G75*
G02*
X133624586Y-100024372I200428J-43D01*
G01*
X133048751Y-99064343D02*
G75*
G02*
X133288751Y-98824351I239949J43D01*
G01*
X133825000Y-100864343D02*
G75*
G03*
X133624586Y-100663900I-200400J43D01*
G01*
%TO.N,/agp_connectors/DBI_LO*%
X97053852Y-94498751D02*
X97053852Y-94378751D01*
X98005000Y-96298751D02*
X98005000Y-96178751D01*
X97543854Y-97738751D02*
X97765000Y-97738751D01*
X97293848Y-95338751D02*
X97765000Y-95338751D01*
X98005000Y-95098751D02*
X98005000Y-94978751D01*
X97303854Y-99298751D02*
X97303854Y-99178751D01*
X98005000Y-93778751D02*
X98005000Y-89014463D01*
X97765000Y-94738751D02*
X97293852Y-94738751D01*
X98800000Y-72700000D02*
X98800000Y-60900000D01*
X97293852Y-94138751D02*
X97765000Y-94138751D01*
X98005000Y-93898751D02*
X98005000Y-93778751D01*
X98005000Y-73495000D02*
X98800000Y-72700000D01*
X98005000Y-98698751D02*
X98005000Y-98578751D01*
X97053852Y-96898751D02*
X97053852Y-96778751D01*
X98800000Y-60900000D02*
X97800000Y-59900000D01*
X98005000Y-89014463D02*
X98005000Y-73495000D01*
X97053848Y-95698751D02*
X97053848Y-95578751D01*
X97543854Y-98938751D02*
X97765000Y-98938751D01*
X97303854Y-98098751D02*
X97303854Y-97978751D01*
X97293852Y-96538751D02*
X97765000Y-96538751D01*
X97800000Y-59900000D02*
X97800000Y-56800000D01*
X98005000Y-108605000D02*
X98005000Y-99778751D01*
X97765000Y-98338751D02*
X97543854Y-98338751D01*
X97765000Y-97138751D02*
X97293852Y-97138751D01*
X98005000Y-97498751D02*
X98005000Y-97378751D01*
X97765000Y-95938751D02*
X97293848Y-95938751D01*
X97765000Y-99538751D02*
X97543854Y-99538751D01*
X97543854Y-98338751D02*
G75*
G02*
X97303949Y-98098751I46J239951D01*
G01*
X97293852Y-97138751D02*
G75*
G02*
X97053949Y-96898751I48J239951D01*
G01*
X97303854Y-99178751D02*
G75*
G02*
X97543854Y-98938654I240046J51D01*
G01*
X97765000Y-97738751D02*
G75*
G03*
X98004951Y-97498751I0J239951D01*
G01*
X97053852Y-94378751D02*
G75*
G02*
X97293852Y-94138652I240048J51D01*
G01*
X97053848Y-95578751D02*
G75*
G02*
X97293848Y-95338748I239952J51D01*
G01*
X98005000Y-97378751D02*
G75*
G03*
X97765000Y-97138700I-240000J51D01*
G01*
X97765000Y-98938751D02*
G75*
G03*
X98004951Y-98698751I0J239951D01*
G01*
X97293852Y-94738751D02*
G75*
G02*
X97053949Y-94498751I48J239951D01*
G01*
X97765000Y-94138751D02*
G75*
G03*
X98004951Y-93898751I0J239951D01*
G01*
X97303854Y-97978751D02*
G75*
G02*
X97543854Y-97738654I240046J51D01*
G01*
X98005000Y-96178751D02*
G75*
G03*
X97765000Y-95938700I-240000J51D01*
G01*
X98005000Y-99778751D02*
G75*
G03*
X97765000Y-99538700I-240000J51D01*
G01*
X98005000Y-94978751D02*
G75*
G03*
X97765000Y-94738700I-240000J51D01*
G01*
X97765000Y-95338751D02*
G75*
G03*
X98004951Y-95098751I0J239951D01*
G01*
X97293848Y-95938751D02*
G75*
G02*
X97053849Y-95698751I-48J239951D01*
G01*
X97543854Y-99538751D02*
G75*
G02*
X97303949Y-99298751I46J239951D01*
G01*
X97053852Y-96778751D02*
G75*
G02*
X97293852Y-96538652I240048J51D01*
G01*
X97765000Y-96538751D02*
G75*
G03*
X98004951Y-96298751I0J239951D01*
G01*
X98005000Y-98578751D02*
G75*
G03*
X97765000Y-98338700I-240000J51D01*
G01*
%TO.N,/agp_connectors/SBA6*%
X105792759Y-97003055D02*
X105792759Y-96883055D01*
X105040000Y-97243055D02*
X105552759Y-97243055D01*
X104800000Y-98803055D02*
X104800000Y-98683055D01*
X104800000Y-94843055D02*
X105552759Y-94843055D01*
X104800000Y-92083055D02*
X104800000Y-87162308D01*
X104307248Y-92803055D02*
X104307248Y-92683055D01*
X105040000Y-95443055D02*
X104800000Y-95443055D01*
X105040000Y-98443055D02*
X105552759Y-98443055D01*
X104800000Y-95443055D02*
X104547234Y-95443055D01*
X104547234Y-94843055D02*
X104800000Y-94843055D01*
X104800000Y-92203055D02*
X104800000Y-92083055D01*
X104800000Y-94243055D02*
X104547234Y-94243055D01*
X104547234Y-93643055D02*
X104800000Y-93643055D01*
X105040000Y-99643055D02*
X105552772Y-99643055D01*
X105552759Y-96643055D02*
X105040000Y-96643055D01*
X105040000Y-96043055D02*
X105552759Y-96043055D01*
X104800000Y-93643055D02*
X105552759Y-93643055D01*
X104307234Y-94003055D02*
X104307234Y-93883055D01*
X104560000Y-93043055D02*
X104547248Y-93043055D01*
X104800000Y-93043055D02*
X104560000Y-93043055D01*
X104800000Y-87162308D02*
X104800000Y-58800000D01*
X105552759Y-97843055D02*
X105040000Y-97843055D01*
X105552759Y-94243055D02*
X104800000Y-94243055D01*
X105552759Y-93043055D02*
X104800000Y-93043055D01*
X105792759Y-95803055D02*
X105792759Y-95683055D01*
X104800000Y-105430000D02*
X104800000Y-99883055D01*
X104800000Y-97603055D02*
X104800000Y-97483055D01*
X105792759Y-94603055D02*
X105792759Y-94483055D01*
X105792759Y-98203055D02*
X105792759Y-98083055D01*
X105792772Y-99403055D02*
X105792772Y-99283055D01*
X105552759Y-95443055D02*
X105040000Y-95443055D01*
X104800000Y-96403055D02*
X104800000Y-96283055D01*
X104547248Y-92443055D02*
X104560000Y-92443055D01*
X104307234Y-95203055D02*
X104307234Y-95083055D01*
X104970000Y-105600000D02*
X104800000Y-105430000D01*
X105552772Y-99043055D02*
X105040000Y-99043055D01*
X105792759Y-93403055D02*
X105792759Y-93283055D01*
X104307234Y-95083055D02*
G75*
G02*
X104547234Y-94843134I239966J-45D01*
G01*
X104800000Y-99883055D02*
G75*
G02*
X105040000Y-99643100I240000J-45D01*
G01*
X105552759Y-96043055D02*
G75*
G03*
X105792755Y-95803055I41J239955D01*
G01*
X105040000Y-99043055D02*
G75*
G02*
X104800045Y-98803055I0J239955D01*
G01*
X105040000Y-97843055D02*
G75*
G02*
X104800045Y-97603055I0J239955D01*
G01*
X105552759Y-93643055D02*
G75*
G03*
X105792755Y-93403055I41J239955D01*
G01*
X104307234Y-93883055D02*
G75*
G02*
X104547234Y-93643134I239966J-45D01*
G01*
X105792759Y-98083055D02*
G75*
G03*
X105552759Y-97843141I-239959J-45D01*
G01*
X104800000Y-97483055D02*
G75*
G02*
X105040000Y-97243100I240000J-45D01*
G01*
X104307248Y-92683055D02*
G75*
G02*
X104547248Y-92443148I239952J-45D01*
G01*
X105552759Y-94843055D02*
G75*
G03*
X105792755Y-94603055I41J239955D01*
G01*
X104560000Y-92443055D02*
G75*
G03*
X104799955Y-92203055I0J239955D01*
G01*
X105552759Y-98443055D02*
G75*
G03*
X105792755Y-98203055I41J239955D01*
G01*
X104547234Y-94243055D02*
G75*
G02*
X104307245Y-94003055I-34J239955D01*
G01*
X104547248Y-93043055D02*
G75*
G02*
X104307245Y-92803055I-48J239955D01*
G01*
X105792759Y-96883055D02*
G75*
G03*
X105552759Y-96643141I-239959J-45D01*
G01*
X105792772Y-99283055D02*
G75*
G03*
X105552772Y-99043128I-239972J-45D01*
G01*
X104800000Y-96283055D02*
G75*
G02*
X105040000Y-96043100I240000J-45D01*
G01*
X105792759Y-93283055D02*
G75*
G03*
X105552759Y-93043141I-239959J-45D01*
G01*
X104800000Y-98683055D02*
G75*
G02*
X105040000Y-98443100I240000J-45D01*
G01*
X105552759Y-97243055D02*
G75*
G03*
X105792755Y-97003055I41J239955D01*
G01*
X105792759Y-95683055D02*
G75*
G03*
X105552759Y-95443141I-239959J-45D01*
G01*
X105552772Y-99643055D02*
G75*
G03*
X105792755Y-99403055I28J239955D01*
G01*
X104547234Y-95443055D02*
G75*
G02*
X104307245Y-95203055I-34J239955D01*
G01*
X105040000Y-96643055D02*
G75*
G02*
X104800045Y-96403055I0J239955D01*
G01*
X105792759Y-94483055D02*
G75*
G03*
X105552759Y-94243141I-239959J-45D01*
G01*
%TO.N,/agp_connectors/AD23*%
X115668470Y-93633419D02*
X115240000Y-93633419D01*
X115000000Y-90993419D02*
X115000000Y-90873419D01*
X115668470Y-91233419D02*
X115240000Y-91233419D01*
X115240000Y-91833419D02*
X115668470Y-91833419D01*
X115668470Y-97233419D02*
X115240000Y-97233419D01*
X117800000Y-59800000D02*
X116800000Y-58800000D01*
X115908470Y-96393419D02*
X115908470Y-96273419D01*
X115000000Y-89673419D02*
X115000000Y-88247811D01*
X115240000Y-95433419D02*
X115668470Y-95433419D01*
X115240000Y-94233419D02*
X115668470Y-94233419D01*
X115000000Y-89793419D02*
X115000000Y-89673419D01*
X115000000Y-98300000D02*
X115000000Y-98073419D01*
X115908470Y-93993419D02*
X115908470Y-93873419D01*
X115000000Y-94593419D02*
X115000000Y-94473419D01*
X116910000Y-105600000D02*
X116910000Y-100210000D01*
X115000000Y-88247811D02*
X115000000Y-64400000D01*
X115908470Y-97593419D02*
X115908470Y-97473419D01*
X115240000Y-96633419D02*
X115668470Y-96633419D01*
X115908470Y-91593419D02*
X115908470Y-91473419D01*
X115000000Y-93393419D02*
X115000000Y-93273419D01*
X115668495Y-90033419D02*
X115240000Y-90033419D01*
X115240000Y-93033419D02*
X115668470Y-93033419D01*
X115240000Y-97833419D02*
X115668470Y-97833419D01*
X117800000Y-61600000D02*
X117800000Y-59800000D01*
X115908470Y-95193419D02*
X115908470Y-95073419D01*
X115000000Y-96993419D02*
X115000000Y-96873419D01*
X115668470Y-94833419D02*
X115240000Y-94833419D01*
X115668470Y-96033419D02*
X115240000Y-96033419D01*
X116910000Y-100210000D02*
X115000000Y-98300000D01*
X115908470Y-92793419D02*
X115908470Y-92673419D01*
X115000000Y-64400000D02*
X117800000Y-61600000D01*
X115908495Y-90393419D02*
X115908495Y-90273419D01*
X115000000Y-92193419D02*
X115000000Y-92073419D01*
X115240000Y-90633419D02*
X115668495Y-90633419D01*
X115000000Y-95793419D02*
X115000000Y-95673419D01*
X115668470Y-92433419D02*
X115240000Y-92433419D01*
X115240000Y-96033419D02*
G75*
G02*
X114999981Y-95793419I0J240019D01*
G01*
X115000000Y-90873419D02*
G75*
G02*
X115240000Y-90633400I240000J19D01*
G01*
X115000000Y-95673419D02*
G75*
G02*
X115240000Y-95433400I240000J19D01*
G01*
X115000000Y-98073419D02*
G75*
G02*
X115240000Y-97833400I240000J19D01*
G01*
X115908470Y-92673419D02*
G75*
G03*
X115668470Y-92433430I-239970J19D01*
G01*
X115240000Y-91233419D02*
G75*
G02*
X114999981Y-90993419I0J240019D01*
G01*
X115908470Y-91473419D02*
G75*
G03*
X115668470Y-91233430I-239970J19D01*
G01*
X115668470Y-97833419D02*
G75*
G03*
X115908519Y-97593419I30J240019D01*
G01*
X115000000Y-96873419D02*
G75*
G02*
X115240000Y-96633400I240000J19D01*
G01*
X115668495Y-90633419D02*
G75*
G03*
X115908519Y-90393419I5J240019D01*
G01*
X115668470Y-93033419D02*
G75*
G03*
X115908519Y-92793419I30J240019D01*
G01*
X115908470Y-93873419D02*
G75*
G03*
X115668470Y-93633430I-239970J19D01*
G01*
X115240000Y-94833419D02*
G75*
G02*
X114999981Y-94593419I0J240019D01*
G01*
X115668470Y-94233419D02*
G75*
G03*
X115908519Y-93993419I30J240019D01*
G01*
X115908470Y-97473419D02*
G75*
G03*
X115668470Y-97233430I-239970J19D01*
G01*
X115240000Y-90033419D02*
G75*
G02*
X114999981Y-89793419I0J240019D01*
G01*
X115908495Y-90273419D02*
G75*
G03*
X115668495Y-90033405I-239995J19D01*
G01*
X115908470Y-95073419D02*
G75*
G03*
X115668470Y-94833430I-239970J19D01*
G01*
X115000000Y-93273419D02*
G75*
G02*
X115240000Y-93033400I240000J19D01*
G01*
X115240000Y-92433419D02*
G75*
G02*
X114999981Y-92193419I0J240019D01*
G01*
X115668470Y-95433419D02*
G75*
G03*
X115908519Y-95193419I30J240019D01*
G01*
X115000000Y-92073419D02*
G75*
G02*
X115240000Y-91833400I240000J19D01*
G01*
X115908470Y-96273419D02*
G75*
G03*
X115668470Y-96033430I-239970J19D01*
G01*
X115000000Y-94473419D02*
G75*
G02*
X115240000Y-94233400I240000J19D01*
G01*
X115668470Y-91833419D02*
G75*
G03*
X115908519Y-91593419I30J240019D01*
G01*
X115240000Y-93633419D02*
G75*
G02*
X114999981Y-93393419I0J240019D01*
G01*
X115668470Y-96633419D02*
G75*
G03*
X115908519Y-96393419I30J240019D01*
G01*
X115240000Y-97233419D02*
G75*
G02*
X114999981Y-96993419I0J240019D01*
G01*
%TO.N,/agp_connectors/VREFCG*%
X150498627Y-96644806D02*
X149985000Y-96644806D01*
X150400000Y-60600000D02*
X150400000Y-57400000D01*
X149745000Y-98804806D02*
X149745000Y-98684806D01*
X149745000Y-61255000D02*
X150400000Y-60600000D01*
X150738627Y-95804806D02*
X150738627Y-95684806D01*
X149745000Y-95204806D02*
X149745000Y-95084806D01*
X149745000Y-99644806D02*
X149985000Y-99644806D01*
X149745000Y-108605000D02*
X149745000Y-100344806D01*
X149985000Y-98444806D02*
X150498627Y-98444806D01*
X149645000Y-99644806D02*
X149745000Y-99644806D01*
X149745000Y-83926513D02*
X149745000Y-61255000D01*
X149745000Y-96404806D02*
X149745000Y-96284806D01*
X149545000Y-100144806D02*
X149545000Y-99744806D01*
X150738627Y-98204806D02*
X150738627Y-98084806D01*
X149985000Y-97244806D02*
X150498627Y-97244806D01*
X150738627Y-97004806D02*
X150738627Y-96884806D01*
X150498627Y-95444806D02*
X149985000Y-95444806D01*
X149985000Y-96044806D02*
X150498627Y-96044806D01*
X149745000Y-95084806D02*
X149745000Y-83926513D01*
X150738627Y-99404806D02*
X150738627Y-99284806D01*
X150498627Y-97844806D02*
X149985000Y-97844806D01*
X149985000Y-99644806D02*
X150498627Y-99644806D01*
X150498627Y-99044806D02*
X149985000Y-99044806D01*
X149745000Y-97604806D02*
X149745000Y-97484806D01*
X150400000Y-57400000D02*
X149800000Y-56800000D01*
X149985000Y-99044806D02*
G75*
G02*
X149744994Y-98804806I0J240006D01*
G01*
X149745000Y-100344806D02*
G75*
G03*
X149645000Y-100244800I-100000J6D01*
G01*
X150498627Y-98444806D02*
G75*
G03*
X150738606Y-98204806I-27J240006D01*
G01*
X149985000Y-96644806D02*
G75*
G02*
X149744994Y-96404806I0J240006D01*
G01*
X150738627Y-98084806D02*
G75*
G03*
X150498627Y-97844773I-240027J6D01*
G01*
X150738627Y-95684806D02*
G75*
G03*
X150498627Y-95444773I-240027J6D01*
G01*
X149985000Y-97844806D02*
G75*
G02*
X149744994Y-97604806I0J240006D01*
G01*
X150498627Y-97244806D02*
G75*
G03*
X150738606Y-97004806I-27J240006D01*
G01*
X149985000Y-95444806D02*
G75*
G02*
X149744994Y-95204806I0J240006D01*
G01*
X150498627Y-96044806D02*
G75*
G03*
X150738606Y-95804806I-27J240006D01*
G01*
X149745000Y-97484806D02*
G75*
G02*
X149985000Y-97244800I240000J6D01*
G01*
X150738627Y-96884806D02*
G75*
G03*
X150498627Y-96644773I-240027J6D01*
G01*
X149745000Y-96284806D02*
G75*
G02*
X149985000Y-96044800I240000J6D01*
G01*
X150738627Y-99284806D02*
G75*
G03*
X150498627Y-99044773I-240027J6D01*
G01*
X149745000Y-98684806D02*
G75*
G02*
X149985000Y-98444800I240000J6D01*
G01*
X149645000Y-100244806D02*
G75*
G02*
X149544994Y-100144806I0J100006D01*
G01*
X150498627Y-99644806D02*
G75*
G03*
X150738606Y-99404806I-27J240006D01*
G01*
X149545000Y-99744806D02*
G75*
G02*
X149645000Y-99644800I100000J6D01*
G01*
%TO.N,/agp_connectors/AD17*%
X121885000Y-108605000D02*
X121885000Y-100917000D01*
X122602000Y-100200000D02*
X122600000Y-100198000D01*
X122468950Y-65414239D02*
X122468950Y-65294239D01*
X122228950Y-65054239D02*
X122040000Y-65054239D01*
X121800000Y-65054239D02*
X121171052Y-65054239D01*
X121800000Y-63494239D02*
X121800000Y-61595916D01*
X122600000Y-97798000D02*
X122600000Y-94881842D01*
X122600000Y-67200000D02*
X121800000Y-66400000D01*
X121940000Y-98158000D02*
X122360000Y-98158000D01*
X122228950Y-63854239D02*
X122040000Y-63854239D01*
X122040000Y-65054239D02*
X121800000Y-65054239D01*
X121600000Y-99718000D02*
X121600000Y-99598000D01*
X121920662Y-100881338D02*
X122380281Y-100421718D01*
X122040000Y-65654239D02*
X122228950Y-65654239D01*
X122040000Y-64454239D02*
X122228950Y-64454239D01*
X121800000Y-64454239D02*
X122040000Y-64454239D01*
X122360000Y-99958000D02*
X121840000Y-99958000D01*
X122380281Y-100421718D02*
X122602000Y-100200000D01*
X122600000Y-99118000D02*
X122600000Y-98998000D01*
X121885000Y-100917000D02*
X121920662Y-100881338D01*
X121800000Y-63614239D02*
X121800000Y-63494239D01*
X121840000Y-99358000D02*
X122360000Y-99358000D01*
X122468950Y-64214239D02*
X122468950Y-64094239D01*
X121700000Y-98518000D02*
X121700000Y-98398000D01*
X122600000Y-97918000D02*
X122600000Y-97798000D01*
X122600000Y-94881842D02*
X122600000Y-67200000D01*
X121171052Y-64454239D02*
X121800000Y-64454239D01*
X121800000Y-66400000D02*
X121800000Y-65894239D01*
X122360000Y-98758000D02*
X121940000Y-98758000D01*
X121800000Y-61595916D02*
X121800000Y-56800000D01*
X120931052Y-64814239D02*
X120931052Y-64694239D01*
X121171052Y-65054239D02*
G75*
G02*
X120931061Y-64814239I48J240039D01*
G01*
X122600000Y-98998000D02*
G75*
G03*
X122360000Y-98758000I-240000J0D01*
G01*
X121600000Y-99598000D02*
G75*
G02*
X121840000Y-99358000I240000J0D01*
G01*
X121840000Y-99958000D02*
G75*
G02*
X121600000Y-99718000I0J240000D01*
G01*
X122360000Y-98158000D02*
G75*
G03*
X122600000Y-97918000I0J240000D01*
G01*
X122360000Y-99358000D02*
G75*
G03*
X122600000Y-99118000I0J240000D01*
G01*
X122468950Y-64094239D02*
G75*
G03*
X122228950Y-63854250I-239950J39D01*
G01*
X122600000Y-100198000D02*
G75*
G03*
X122360000Y-99958000I-240000J0D01*
G01*
X122040000Y-63854239D02*
G75*
G02*
X121799961Y-63614239I0J240039D01*
G01*
X120931052Y-64694239D02*
G75*
G02*
X121171052Y-64454152I240048J39D01*
G01*
X122468950Y-65294239D02*
G75*
G03*
X122228950Y-65054250I-239950J39D01*
G01*
X122228950Y-65654239D02*
G75*
G03*
X122469039Y-65414239I50J240039D01*
G01*
X122228950Y-64454239D02*
G75*
G03*
X122469039Y-64214239I50J240039D01*
G01*
X121940000Y-98758000D02*
G75*
G02*
X121700000Y-98518000I0J240000D01*
G01*
X121800000Y-65894239D02*
G75*
G02*
X122040000Y-65654200I240000J39D01*
G01*
X121700000Y-98398000D02*
G75*
G02*
X121940000Y-98158000I240000J0D01*
G01*
%TO.N,/agp_connectors/AD29*%
X110940000Y-105600000D02*
X110940000Y-100462613D01*
X110940000Y-98662613D02*
X110940000Y-98440000D01*
X107800000Y-69400000D02*
X110800000Y-66400000D01*
X109083835Y-96583835D02*
X109083836Y-96583836D01*
X110461034Y-96564292D02*
X110376179Y-96479437D01*
X110800000Y-66400000D02*
X110800000Y-58800000D01*
X107980746Y-95480746D02*
X107800000Y-95300000D01*
X107706621Y-96263986D02*
X108065598Y-95905010D01*
X110492346Y-99622613D02*
X110700000Y-99622613D01*
X108555152Y-97112517D02*
X109083835Y-96583835D01*
X111677654Y-99382613D02*
X111677654Y-99262613D01*
X109612515Y-95715745D02*
X109527660Y-95630890D01*
X108659570Y-96159570D02*
X108489863Y-96329274D01*
X110940000Y-98440000D02*
X110480380Y-97980380D01*
X110700000Y-100222613D02*
X110492346Y-100222613D01*
X109932365Y-97432366D02*
X109932369Y-97432369D01*
X107800000Y-95300000D02*
X107800000Y-94451973D01*
X107800000Y-94451973D02*
X107800000Y-69400000D01*
X111437654Y-99022613D02*
X111180000Y-99022613D01*
X108489863Y-96329274D02*
X108130886Y-96688251D01*
X109188248Y-95630890D02*
X108659568Y-96159569D01*
X111180000Y-99622613D02*
X111437654Y-99622613D01*
X110036767Y-96479437D02*
X109508101Y-97008102D01*
X110940000Y-98782613D02*
X110940000Y-98662613D01*
X109932369Y-97432369D02*
X110461034Y-96903703D01*
X108640009Y-97536785D02*
X108555153Y-97451929D01*
X109083836Y-96583836D02*
X109612515Y-96055156D01*
X107791476Y-96688252D02*
X107706622Y-96603398D01*
X110011142Y-97980380D02*
X109815057Y-97784295D01*
X110700000Y-99622613D02*
X111180000Y-99622613D01*
X108659568Y-96159569D02*
X108659570Y-96159570D01*
X109508101Y-97008102D02*
X109508103Y-97008103D01*
X108065598Y-95565598D02*
X107980746Y-95480746D01*
X110252346Y-99982613D02*
X110252346Y-99862613D01*
X109815057Y-97549677D02*
X109932365Y-97432366D01*
X109508103Y-97008103D02*
X108979419Y-97536784D01*
X110245760Y-97980379D02*
G75*
G02*
X110011192Y-97980331I-117260J117279D01*
G01*
X110252346Y-99862613D02*
G75*
G02*
X110492346Y-99622646I239954J13D01*
G01*
X108130886Y-96688251D02*
G75*
G02*
X107791496Y-96688233I-169686J169651D01*
G01*
X110492346Y-100222613D02*
G75*
G02*
X110252287Y-99982613I-46J240013D01*
G01*
X110940000Y-100462613D02*
G75*
G03*
X110700000Y-100222600I-240000J13D01*
G01*
X109815057Y-97784295D02*
G75*
G02*
X109815071Y-97549691I117343J117295D01*
G01*
X108555153Y-97451929D02*
G75*
G02*
X108555129Y-97112495I169747J169729D01*
G01*
X109527660Y-95630890D02*
G75*
G03*
X109188248Y-95630890I-169706J-169704D01*
G01*
X109612515Y-96055156D02*
G75*
G03*
X109612466Y-95715795I-169715J169656D01*
G01*
X110376179Y-96479437D02*
G75*
G03*
X110036767Y-96479437I-169706J-169704D01*
G01*
X111180000Y-99022613D02*
G75*
G02*
X110939987Y-98782613I0J240013D01*
G01*
X111677654Y-99262613D02*
G75*
G03*
X111437654Y-99022646I-239954J13D01*
G01*
X110461034Y-96903703D02*
G75*
G03*
X110461032Y-96564294I-169734J169703D01*
G01*
X110480380Y-97980380D02*
G75*
G03*
X110245791Y-97980409I-117280J-117320D01*
G01*
X111437654Y-99622613D02*
G75*
G03*
X111677713Y-99382613I46J240013D01*
G01*
X107706622Y-96603398D02*
G75*
G02*
X107706629Y-96263995I169678J169698D01*
G01*
X108065598Y-95905010D02*
G75*
G03*
X108065602Y-95565594I-169698J169710D01*
G01*
X108979419Y-97536784D02*
G75*
G02*
X108639995Y-97536799I-169719J169684D01*
G01*
%TO.N,/agp_connectors/AD31*%
X108332788Y-98032789D02*
X108247937Y-97947937D01*
X109605588Y-99645000D02*
X109290131Y-99960454D01*
X109836188Y-98226454D02*
X109751333Y-98141599D01*
X108865863Y-99536187D02*
X109181317Y-99220730D01*
X109351023Y-99051024D02*
X109351027Y-99051027D01*
X109800000Y-64700000D02*
X109800000Y-56800000D01*
X109181317Y-99220730D02*
X109351023Y-99051024D01*
X108950719Y-99960454D02*
X108865862Y-99875597D01*
X108247937Y-97947937D02*
X106900000Y-96600000D01*
X106900000Y-67600000D02*
X109800000Y-64700000D01*
X106900000Y-96600000D02*
X106900000Y-94663935D01*
X108102242Y-99111868D02*
X108017388Y-99027014D01*
X108926761Y-98626761D02*
X108757054Y-98796465D01*
X108017387Y-98687602D02*
X108332789Y-98372201D01*
X109945000Y-100810837D02*
X109945000Y-100160837D01*
X109945000Y-100160837D02*
X109945000Y-99645000D01*
X109351027Y-99051027D02*
X109836188Y-98565865D01*
X108757054Y-98796465D02*
X108441652Y-99111867D01*
X108926759Y-98626760D02*
X108926761Y-98626761D01*
X109411921Y-98141599D02*
X108926759Y-98626760D01*
X106900000Y-94663935D02*
X106900000Y-67600000D01*
X109945000Y-108605000D02*
X109945000Y-100810837D01*
X109836188Y-98565865D02*
G75*
G03*
X109836148Y-98226495I-169688J169665D01*
G01*
X108865862Y-99875597D02*
G75*
G02*
X108865870Y-99536194I169738J169697D01*
G01*
X108332789Y-98372201D02*
G75*
G03*
X108332784Y-98032794I-169689J169701D01*
G01*
X109290131Y-99960454D02*
G75*
G02*
X108950719Y-99960454I-169706J169701D01*
G01*
X109751333Y-98141599D02*
G75*
G03*
X109411921Y-98141599I-169706J-169704D01*
G01*
X109945000Y-99645000D02*
G75*
G03*
X109605588Y-99645000I-169706J-169701D01*
G01*
X108441652Y-99111867D02*
G75*
G02*
X108102195Y-99111915I-169752J169667D01*
G01*
X108017388Y-99027014D02*
G75*
G02*
X108017379Y-98687595I169712J169714D01*
G01*
%TO.N,VBUS_IN_12V*%
X77722000Y-81122000D02*
X78000000Y-81400000D01*
X105362500Y-45162500D02*
X106100000Y-44425000D01*
X77722000Y-45984848D02*
X77722000Y-81122000D01*
X79684848Y-44022000D02*
X77722000Y-45984848D01*
X106100000Y-43000000D02*
X105900000Y-42800000D01*
X81300000Y-81600000D02*
X81300000Y-83612500D01*
X106100000Y-44425000D02*
X106100000Y-43000000D01*
X105900000Y-42800000D02*
X104400000Y-42800000D01*
D50*
X81300000Y-83612500D02*
X81300000Y-85900000D01*
D52*
X104400000Y-42800000D02*
X103178000Y-44022000D01*
X78000000Y-81400000D02*
X81100000Y-81400000D01*
X81100000Y-81400000D02*
X81300000Y-81600000D01*
X103178000Y-44022000D02*
X79684848Y-44022000D01*
%TO.N,/agp_connectors/AD14*%
X137214555Y-98662961D02*
X136810000Y-98662961D01*
X137214549Y-96262961D02*
X136810000Y-96262961D01*
X137500000Y-62200000D02*
X136800000Y-61500000D01*
X136810000Y-66190000D02*
X137500000Y-65500000D01*
X136355450Y-96862961D02*
X136810000Y-96862961D01*
X136800000Y-61500000D02*
X136800000Y-58800000D01*
X136810000Y-98062961D02*
X137214551Y-98062961D01*
X136810000Y-98662961D02*
X136355450Y-98662961D01*
X136115450Y-97222961D02*
X136115450Y-97102961D01*
X137454549Y-95422961D02*
X137454549Y-95302961D01*
X136570000Y-99262961D02*
X136810000Y-99262961D01*
X136115450Y-98422961D02*
X136115450Y-98302961D01*
X136355452Y-94462961D02*
X136810000Y-94462961D01*
X137050000Y-94462961D02*
X137214555Y-94462961D01*
X137454555Y-99022961D02*
X137454555Y-98902961D01*
X136810000Y-99262961D02*
X137214555Y-99262961D01*
X136810000Y-105600000D02*
X136800000Y-105590000D01*
X136355452Y-95662961D02*
X136810000Y-95662961D01*
X136115452Y-96022961D02*
X136115452Y-95902961D01*
X137454551Y-97822961D02*
X137454551Y-97702961D01*
X136810000Y-96862961D02*
X137214549Y-96862961D01*
X137454555Y-94222961D02*
X137454555Y-94102961D01*
X136355450Y-98062961D02*
X136810000Y-98062961D01*
X137214555Y-93862961D02*
X137050000Y-93862961D01*
X135865445Y-99622961D02*
X135865445Y-99502961D01*
X136810000Y-97462961D02*
X136355450Y-97462961D01*
X137214551Y-97462961D02*
X136810000Y-97462961D01*
X136570000Y-99862961D02*
X136105445Y-99862961D01*
X137214549Y-95062961D02*
X136810000Y-95062961D01*
X136105445Y-99262961D02*
X136570000Y-99262961D01*
X136810000Y-95662961D02*
X137214549Y-95662961D01*
X137454549Y-96622961D02*
X137454549Y-96502961D01*
X137500000Y-65500000D02*
X137500000Y-62200000D01*
X136810000Y-105600000D02*
X136810000Y-100102961D01*
X136810000Y-90575404D02*
X136810000Y-66190000D01*
X136810000Y-93502961D02*
X136810000Y-90575404D01*
X136810000Y-95062961D02*
X136355452Y-95062961D01*
X136810000Y-96262961D02*
X136355452Y-96262961D01*
X136115452Y-94822961D02*
X136115452Y-94702961D01*
X136810000Y-94462961D02*
X137050000Y-94462961D01*
X136810000Y-93622961D02*
X136810000Y-93502961D01*
X136115452Y-94702961D02*
G75*
G02*
X136355452Y-94462952I240048J-39D01*
G01*
X137454555Y-98902961D02*
G75*
G03*
X137214555Y-98663045I-239955J-39D01*
G01*
X136115452Y-95902961D02*
G75*
G02*
X136355452Y-95662952I240048J-39D01*
G01*
X137454549Y-96502961D02*
G75*
G03*
X137214549Y-96263051I-239949J-39D01*
G01*
X137214555Y-94462961D02*
G75*
G03*
X137454561Y-94222961I45J239961D01*
G01*
X136355452Y-96262961D02*
G75*
G02*
X136115539Y-96022961I48J239961D01*
G01*
X137454551Y-97702961D02*
G75*
G03*
X137214551Y-97463049I-239951J-39D01*
G01*
X137214555Y-99262961D02*
G75*
G03*
X137454561Y-99022961I45J239961D01*
G01*
X136810000Y-100102961D02*
G75*
G03*
X136570000Y-99863000I-240000J-39D01*
G01*
X137454549Y-95302961D02*
G75*
G03*
X137214549Y-95063051I-239949J-39D01*
G01*
X136355450Y-98662961D02*
G75*
G02*
X136115439Y-98422961I-50J239961D01*
G01*
X136355450Y-97462961D02*
G75*
G02*
X136115439Y-97222961I-50J239961D01*
G01*
X136115450Y-97102961D02*
G75*
G02*
X136355450Y-96863050I239950J-39D01*
G01*
X136115450Y-98302961D02*
G75*
G02*
X136355450Y-98063050I239950J-39D01*
G01*
X137214551Y-98062961D02*
G75*
G03*
X137454561Y-97822961I49J239961D01*
G01*
X137454555Y-94102961D02*
G75*
G03*
X137214555Y-93863045I-239955J-39D01*
G01*
X136355452Y-95062961D02*
G75*
G02*
X136115539Y-94822961I48J239961D01*
G01*
X137214549Y-95662961D02*
G75*
G03*
X137454561Y-95422961I51J239961D01*
G01*
X137050000Y-93862961D02*
G75*
G02*
X136810039Y-93622961I0J239961D01*
G01*
X136105445Y-99862961D02*
G75*
G02*
X135865439Y-99622961I-45J239961D01*
G01*
X135865445Y-99502961D02*
G75*
G02*
X136105445Y-99263045I239955J-39D01*
G01*
X137214549Y-96862961D02*
G75*
G03*
X137454561Y-96622961I51J239961D01*
G01*
%TO.N,/agp_connectors/IRDY#*%
X125583197Y-95998690D02*
X124870000Y-95998690D01*
X125110000Y-98998690D02*
X125583197Y-98998690D01*
X124870000Y-93958690D02*
X124870000Y-93838690D01*
X124630000Y-94798690D02*
X124306816Y-94798690D01*
X124870000Y-105600000D02*
X124870000Y-99238690D01*
X124306816Y-95398690D02*
X124870000Y-95398690D01*
X124870000Y-93838690D02*
X124870000Y-87900279D01*
X124870000Y-97798690D02*
X125583197Y-97798690D01*
X125823197Y-96358690D02*
X125823197Y-96238690D01*
X125583197Y-97198690D02*
X124870000Y-97198690D01*
X124306816Y-94198690D02*
X124630000Y-94198690D01*
X125583197Y-94798690D02*
X124870000Y-94798690D01*
X124870000Y-95398690D02*
X125583197Y-95398690D01*
X124066816Y-94558690D02*
X124066816Y-94438690D01*
X124870000Y-95998690D02*
X124306816Y-95998690D01*
X124066816Y-95758690D02*
X124066816Y-95638690D01*
X124306816Y-96598690D02*
X124870000Y-96598690D01*
X124870000Y-94798690D02*
X124630000Y-94798690D01*
X125110000Y-98398690D02*
X124870000Y-98398690D01*
X124870000Y-97198690D02*
X124306816Y-97198690D01*
X124870000Y-96598690D02*
X125583197Y-96598690D01*
X124066816Y-96958690D02*
X124066816Y-96838690D01*
X124870000Y-87900279D02*
X124870000Y-58870000D01*
X124870000Y-98398690D02*
X124306816Y-98398690D01*
X125823197Y-98758690D02*
X125823197Y-98638690D01*
X125823197Y-95158690D02*
X125823197Y-95038690D01*
X124306816Y-97798690D02*
X124870000Y-97798690D01*
X124066816Y-98158690D02*
X124066816Y-98038690D01*
X125583197Y-98398690D02*
X125110000Y-98398690D01*
X125823197Y-97558690D02*
X125823197Y-97438690D01*
X124870000Y-58870000D02*
X124800000Y-58800000D01*
X125583197Y-95398690D02*
G75*
G03*
X125823190Y-95158690I3J239990D01*
G01*
X125823197Y-98638690D02*
G75*
G03*
X125583197Y-98398703I-239997J-10D01*
G01*
X124306816Y-94798690D02*
G75*
G02*
X124066810Y-94558690I-16J239990D01*
G01*
X125823197Y-96238690D02*
G75*
G03*
X125583197Y-95998703I-239997J-10D01*
G01*
X125583197Y-98998690D02*
G75*
G03*
X125823190Y-98758690I3J239990D01*
G01*
X124066816Y-96838690D02*
G75*
G02*
X124306816Y-96598716I239984J-10D01*
G01*
X124306816Y-98398690D02*
G75*
G02*
X124066810Y-98158690I-16J239990D01*
G01*
X125583197Y-97798690D02*
G75*
G03*
X125823190Y-97558690I3J239990D01*
G01*
X125583197Y-96598690D02*
G75*
G03*
X125823190Y-96358690I3J239990D01*
G01*
X125823197Y-95038690D02*
G75*
G03*
X125583197Y-94798703I-239997J-10D01*
G01*
X124306816Y-97198690D02*
G75*
G02*
X124066810Y-96958690I-16J239990D01*
G01*
X124066816Y-95638690D02*
G75*
G02*
X124306816Y-95398716I239984J-10D01*
G01*
X124066816Y-94438690D02*
G75*
G02*
X124306816Y-94198716I239984J-10D01*
G01*
X124870000Y-99238690D02*
G75*
G02*
X125110000Y-98998700I240000J-10D01*
G01*
X124066816Y-98038690D02*
G75*
G02*
X124306816Y-97798716I239984J-10D01*
G01*
X125823197Y-97438690D02*
G75*
G03*
X125583197Y-97198703I-239997J-10D01*
G01*
X124630000Y-94198690D02*
G75*
G03*
X124869990Y-93958690I0J239990D01*
G01*
X124306816Y-95998690D02*
G75*
G02*
X124066810Y-95758690I-16J239990D01*
G01*
%TO.N,/agp_connectors/AD19*%
X119895000Y-99705000D02*
X122200000Y-97400000D01*
X121606811Y-88876427D02*
X121960000Y-88876427D01*
X122200000Y-86236427D02*
X122200000Y-86116427D01*
X121606811Y-87676427D02*
X121960000Y-87676427D01*
X122200000Y-87436427D02*
X122200000Y-87316427D01*
X122200000Y-90116427D02*
X122200000Y-89716427D01*
X122200000Y-81257081D02*
X122200000Y-68300000D01*
X121960000Y-85876427D02*
X121606823Y-85876427D01*
X121606823Y-85276427D02*
X121960000Y-85276427D01*
X119800000Y-65900000D02*
X119800000Y-56800000D01*
X122000000Y-90716427D02*
X122000000Y-90316427D01*
X121366811Y-88036427D02*
X121366811Y-87916427D01*
X122200000Y-97400000D02*
X122200000Y-90916427D01*
X121606798Y-86476427D02*
X121960000Y-86476427D01*
X122200000Y-68300000D02*
X119800000Y-65900000D01*
X121366823Y-85636427D02*
X121366823Y-85516427D01*
X122200000Y-85036427D02*
X122200000Y-84916427D01*
X121960000Y-87076427D02*
X121606798Y-87076427D01*
X119895000Y-108605000D02*
X119895000Y-99705000D01*
X122200000Y-84916427D02*
X122200000Y-81257081D01*
X121960000Y-89476427D02*
X121606811Y-89476427D01*
X121366798Y-86836427D02*
X121366798Y-86716427D01*
X122200000Y-88636427D02*
X122200000Y-88516427D01*
X121960000Y-88276427D02*
X121606811Y-88276427D01*
X121366811Y-89236427D02*
X121366811Y-89116427D01*
X122200000Y-89716427D02*
G75*
G03*
X121960000Y-89476400I-240000J27D01*
G01*
X121960000Y-87676427D02*
G75*
G03*
X122200027Y-87436427I0J240027D01*
G01*
X121606823Y-85876427D02*
G75*
G02*
X121366773Y-85636427I-23J240027D01*
G01*
X122100000Y-90216427D02*
G75*
G03*
X122200027Y-90116427I0J100027D01*
G01*
X122100000Y-90816427D02*
G75*
G02*
X121999973Y-90716427I0J100027D01*
G01*
X121960000Y-85276427D02*
G75*
G03*
X122200027Y-85036427I0J240027D01*
G01*
X121960000Y-86476427D02*
G75*
G03*
X122200027Y-86236427I0J240027D01*
G01*
X122200000Y-86116427D02*
G75*
G03*
X121960000Y-85876400I-240000J27D01*
G01*
X121366811Y-89116427D02*
G75*
G02*
X121606811Y-88876411I239989J27D01*
G01*
X121606798Y-87076427D02*
G75*
G02*
X121366773Y-86836427I2J240027D01*
G01*
X121366823Y-85516427D02*
G75*
G02*
X121606823Y-85276423I239977J27D01*
G01*
X122200000Y-90916427D02*
G75*
G03*
X122100000Y-90816400I-100000J27D01*
G01*
X122200000Y-88516427D02*
G75*
G03*
X121960000Y-88276400I-240000J27D01*
G01*
X122000000Y-90316427D02*
G75*
G02*
X122100000Y-90216400I100000J27D01*
G01*
X121606811Y-89476427D02*
G75*
G02*
X121366773Y-89236427I-11J240027D01*
G01*
X121366798Y-86716427D02*
G75*
G02*
X121606798Y-86476398I240002J27D01*
G01*
X122200000Y-87316427D02*
G75*
G03*
X121960000Y-87076400I-240000J27D01*
G01*
X121366811Y-87916427D02*
G75*
G02*
X121606811Y-87676411I239989J27D01*
G01*
X121606811Y-88276427D02*
G75*
G02*
X121366773Y-88036427I-11J240027D01*
G01*
X121960000Y-88876427D02*
G75*
G03*
X122200027Y-88636427I0J240027D01*
G01*
D53*
%TO.N,GND*%
X156662500Y-82600000D02*
X158200000Y-82600000D01*
X126500000Y-47200000D02*
X126600000Y-47300000D01*
X155125000Y-82600000D02*
X155000000Y-82725000D01*
D54*
X182150000Y-63350000D02*
X182200000Y-63300000D01*
D51*
X112625000Y-44800000D02*
X111500000Y-44800000D01*
D55*
X162550000Y-56650000D02*
X162550000Y-55137500D01*
D56*
X85225000Y-63475000D02*
X84200000Y-64500000D01*
D53*
X158200000Y-82600000D02*
X158525000Y-82275000D01*
D49*
X97010000Y-100510000D02*
X97000000Y-100500000D01*
D54*
X132525000Y-43925000D02*
X132525000Y-38425000D01*
X130775000Y-38425000D02*
X130700000Y-38500000D01*
D49*
X120890000Y-100510000D02*
X120900000Y-100500000D01*
D54*
X162100000Y-88375000D02*
X163275000Y-88375000D01*
D49*
X144770000Y-100530000D02*
X144800000Y-100500000D01*
D54*
X172675000Y-56800000D02*
X172675000Y-55100000D01*
D55*
X162550000Y-55137500D02*
X162550000Y-53425000D01*
D54*
X158600000Y-60300000D02*
X158600000Y-61525000D01*
D53*
X156662500Y-82600000D02*
X155125000Y-82600000D01*
D49*
X102980000Y-105600000D02*
X102980000Y-100520000D01*
D56*
X85900000Y-94625000D02*
X85900000Y-93900000D01*
D55*
X167050000Y-63462500D02*
X167050000Y-65100000D01*
D49*
X120890000Y-105600000D02*
X120890000Y-100510000D01*
D56*
X133775000Y-62600000D02*
X135900000Y-62600000D01*
D49*
X132830000Y-100530000D02*
X132800000Y-100500000D01*
D56*
X117900000Y-95825000D02*
X120775000Y-95825000D01*
D55*
X158600000Y-61525000D02*
X160612500Y-61525000D01*
D51*
X160387500Y-88437500D02*
X162037500Y-88437500D01*
D53*
X126500000Y-43925000D02*
X126500000Y-47200000D01*
D55*
X167050000Y-65100000D02*
X166950000Y-65200000D01*
D54*
X155000000Y-82725000D02*
X153725000Y-82725000D01*
D55*
X167350000Y-58550000D02*
X167300000Y-58600000D01*
D53*
X157550000Y-84137500D02*
X157550000Y-83250000D01*
D49*
X102980000Y-100520000D02*
X103000000Y-100500000D01*
D54*
X123725000Y-38425000D02*
X125425000Y-38425000D01*
X153725000Y-82725000D02*
X153700000Y-82700000D01*
D49*
X132830000Y-105600000D02*
X132830000Y-100530000D01*
D55*
X163675000Y-68650000D02*
X166110000Y-68650000D01*
X166110000Y-68650000D02*
X166860000Y-67900000D01*
D51*
X160387500Y-88437500D02*
X158850000Y-88437500D01*
D56*
X120775000Y-95825000D02*
X120800000Y-95800000D01*
D49*
X144770000Y-105600000D02*
X144770000Y-100530000D01*
D56*
X102875000Y-49000000D02*
X104300000Y-49000000D01*
X83275000Y-63575000D02*
X84200000Y-64500000D01*
D54*
X172700000Y-53700000D02*
X172700000Y-55075000D01*
D51*
X158850000Y-88437500D02*
X158525000Y-88762500D01*
D54*
X172700000Y-55075000D02*
X172675000Y-55100000D01*
D55*
X160612500Y-61525000D02*
X160637500Y-61550000D01*
D56*
X85225000Y-62700000D02*
X85225000Y-63475000D01*
X83275000Y-62700000D02*
X83275000Y-63575000D01*
X99900000Y-95825000D02*
X99900000Y-93600000D01*
D54*
X181200000Y-63350000D02*
X182150000Y-63350000D01*
X132525000Y-38425000D02*
X130775000Y-38425000D01*
D56*
X95700000Y-62600000D02*
X97500000Y-62600000D01*
D54*
X126525000Y-43925000D02*
X123725000Y-43925000D01*
D51*
X112550000Y-43000000D02*
X112550000Y-44725000D01*
D56*
X87100000Y-95825000D02*
X85900000Y-94625000D01*
D54*
X165700000Y-65200000D02*
X166950000Y-65200000D01*
D49*
X89050000Y-100550000D02*
X89100000Y-100500000D01*
D51*
X112550000Y-44725000D02*
X112625000Y-44800000D01*
D55*
X162800000Y-56900000D02*
X162550000Y-56650000D01*
D49*
X97010000Y-105600000D02*
X97010000Y-100510000D01*
X138800000Y-105600000D02*
X138800000Y-100500000D01*
D51*
X112550000Y-43000000D02*
X112550000Y-41462500D01*
X162037500Y-88437500D02*
X162100000Y-88375000D01*
D53*
X157550000Y-83250000D02*
X158525000Y-82275000D01*
D49*
X89050000Y-105600000D02*
X89050000Y-100550000D01*
D55*
X162550000Y-53425000D02*
X162775000Y-53200000D01*
D49*
X114920000Y-105600000D02*
X114920000Y-100520000D01*
D54*
X123725000Y-43925000D02*
X123725000Y-38425000D01*
X163275000Y-88375000D02*
X163300000Y-88400000D01*
D56*
X120850000Y-49100000D02*
X122200000Y-49100000D01*
D54*
X125425000Y-38425000D02*
X125500000Y-38500000D01*
D51*
X112550000Y-41462500D02*
X112225000Y-41137500D01*
D49*
X114920000Y-100520000D02*
X114900000Y-100500000D01*
D55*
X168962500Y-58550000D02*
X167350000Y-58550000D01*
D52*
%TO.N,/agp_connectors/AD12*%
X137363068Y-92717567D02*
X137565000Y-92717567D01*
X137363053Y-90317567D02*
X137565000Y-90317567D01*
X137800000Y-60000000D02*
X137800000Y-56800000D01*
X137805000Y-90917567D02*
X137565000Y-90917567D01*
X138300000Y-60500000D02*
X137800000Y-60000000D01*
X137565000Y-92717567D02*
X137805000Y-92717567D01*
X138300000Y-72000000D02*
X138300000Y-60500000D01*
X137805000Y-91517567D02*
X138546933Y-91517567D01*
X138546933Y-92117567D02*
X137805000Y-92117567D01*
X137123053Y-90677567D02*
X137123053Y-90557567D01*
X138786933Y-92477567D02*
X138786933Y-92357567D01*
X137123068Y-91877567D02*
X137123068Y-91757567D01*
X137565000Y-93317567D02*
X137363068Y-93317567D01*
X137123068Y-93077567D02*
X137123068Y-92957567D01*
X137805000Y-92717567D02*
X138546933Y-92717567D01*
X137805000Y-108605000D02*
X137805000Y-93557567D01*
X138786933Y-91277567D02*
X138786933Y-91157567D01*
X137805000Y-90077567D02*
X137805000Y-89957567D01*
X137805000Y-92117567D02*
X137363068Y-92117567D01*
X137565000Y-90917567D02*
X137363053Y-90917567D01*
X137805000Y-72495000D02*
X138300000Y-72000000D01*
X137805000Y-89957567D02*
X137805000Y-81613544D01*
X137805000Y-81613544D02*
X137805000Y-72495000D01*
X137363068Y-91517567D02*
X137805000Y-91517567D01*
X138546933Y-90917567D02*
X137805000Y-90917567D01*
X137565000Y-90317567D02*
G75*
G03*
X137804967Y-90077567I0J239967D01*
G01*
X138786933Y-91157567D02*
G75*
G03*
X138546933Y-90917567I-240033J-33D01*
G01*
X138546933Y-91517567D02*
G75*
G03*
X138786867Y-91277567I-33J239967D01*
G01*
X137123053Y-90557567D02*
G75*
G02*
X137363053Y-90317553I240047J-33D01*
G01*
X137363053Y-90917567D02*
G75*
G02*
X137123133Y-90677567I47J239967D01*
G01*
X137123068Y-91757567D02*
G75*
G02*
X137363068Y-91517568I240032J-33D01*
G01*
X138786933Y-92357567D02*
G75*
G03*
X138546933Y-92117567I-240033J-33D01*
G01*
X137805000Y-93557567D02*
G75*
G03*
X137565000Y-93317600I-240000J-33D01*
G01*
X138546933Y-92717567D02*
G75*
G03*
X138786867Y-92477567I-33J239967D01*
G01*
X137363068Y-92117567D02*
G75*
G02*
X137123133Y-91877567I32J239967D01*
G01*
X137363068Y-93317567D02*
G75*
G02*
X137123133Y-93077567I32J239967D01*
G01*
X137123068Y-92957567D02*
G75*
G02*
X137363068Y-92717568I240032J-33D01*
G01*
%TO.N,/agp_connectors/USB+*%
X85804237Y-90587901D02*
X85440000Y-90587901D01*
X85440000Y-90587901D02*
X85200000Y-90587901D01*
X85200000Y-89147901D02*
X85200000Y-89027901D01*
X88700000Y-95500000D02*
X85200000Y-92000000D01*
X84892848Y-90434325D02*
X84892848Y-90141477D01*
X86044237Y-90947901D02*
X86044237Y-90827901D01*
X85200000Y-90587901D02*
X85046424Y-90587901D01*
X89200000Y-61000000D02*
X87800000Y-59600000D01*
X85046424Y-89987901D02*
X85200000Y-89987901D01*
X85804237Y-89387901D02*
X85440000Y-89387901D01*
X87800000Y-59600000D02*
X87800000Y-56800000D01*
X89200000Y-64700000D02*
X89200000Y-61000000D01*
X85200000Y-87083390D02*
X85200000Y-68700000D01*
X88700000Y-99600000D02*
X88700000Y-95500000D01*
X85200000Y-68700000D02*
X89200000Y-64700000D01*
X85440000Y-89987901D02*
X85804237Y-89987901D01*
X88055000Y-100245000D02*
X88700000Y-99600000D01*
X85200000Y-89987901D02*
X85440000Y-89987901D01*
X85440000Y-91187901D02*
X85804237Y-91187901D01*
X86044237Y-89747901D02*
X86044237Y-89627901D01*
X88055000Y-108605000D02*
X88055000Y-100245000D01*
X85200000Y-89027901D02*
X85200000Y-87083390D01*
X85200000Y-92000000D02*
X85200000Y-91427901D01*
X85440000Y-89387901D02*
G75*
G02*
X85199999Y-89147901I0J240001D01*
G01*
X86044237Y-90827901D02*
G75*
G03*
X85804237Y-90587863I-240037J1D01*
G01*
X85804237Y-89987901D02*
G75*
G03*
X86044201Y-89747901I-37J240001D01*
G01*
X84892848Y-90141477D02*
G75*
G02*
X85046424Y-89987948I153552J-23D01*
G01*
X86044237Y-89627901D02*
G75*
G03*
X85804237Y-89387863I-240037J1D01*
G01*
X85046424Y-90587901D02*
G75*
G02*
X84892799Y-90434325I-24J153601D01*
G01*
X85200000Y-91427901D02*
G75*
G02*
X85440000Y-91187900I240000J1D01*
G01*
X85804237Y-91187901D02*
G75*
G03*
X86044201Y-90947901I-37J240001D01*
G01*
%TO.N,/agp_connectors/AD7*%
X143800000Y-108580000D02*
X143800000Y-97538908D01*
X143800000Y-96458908D02*
X143800000Y-96338908D01*
X144764891Y-93458908D02*
X144764891Y-93338908D01*
X144040000Y-93098908D02*
X143560000Y-93098908D01*
X143135096Y-92858908D02*
X143135096Y-92738908D01*
X143375096Y-92498908D02*
X143560000Y-92498908D01*
X143800000Y-92138908D02*
X143800000Y-79490162D01*
X143800000Y-94058908D02*
X143800000Y-93938908D01*
X143560000Y-93098908D02*
X143375096Y-93098908D01*
X144764891Y-95858908D02*
X144764891Y-95738908D01*
X144040000Y-93698908D02*
X144524891Y-93698908D01*
X143800000Y-95258908D02*
X143800000Y-95138908D01*
X144040000Y-94898908D02*
X144524915Y-94898908D01*
X144040000Y-97298908D02*
X144524891Y-97298908D01*
X144524915Y-94298908D02*
X144040000Y-94298908D01*
X144764891Y-97058908D02*
X144764891Y-96938908D01*
X144040000Y-96098908D02*
X144524891Y-96098908D01*
X144524891Y-95498908D02*
X144040000Y-95498908D01*
X143775000Y-108605000D02*
X143800000Y-108580000D01*
X143800000Y-79490162D02*
X143800000Y-56800000D01*
X144524891Y-96698908D02*
X144040000Y-96698908D01*
X144524891Y-93098908D02*
X144040000Y-93098908D01*
X144764915Y-94658908D02*
X144764915Y-94538908D01*
X143800000Y-92258908D02*
X143800000Y-92138908D01*
X144040000Y-94298908D02*
G75*
G02*
X143799992Y-94058908I0J240008D01*
G01*
X143800000Y-96338908D02*
G75*
G02*
X144040000Y-96098900I240000J8D01*
G01*
X144764891Y-96938908D02*
G75*
G03*
X144524891Y-96698909I-239991J8D01*
G01*
X144764891Y-93338908D02*
G75*
G03*
X144524891Y-93098909I-239991J8D01*
G01*
X144040000Y-96698908D02*
G75*
G02*
X143799992Y-96458908I0J240008D01*
G01*
X144764891Y-95738908D02*
G75*
G03*
X144524891Y-95498909I-239991J8D01*
G01*
X144040000Y-95498908D02*
G75*
G02*
X143799992Y-95258908I0J240008D01*
G01*
X144524915Y-94898908D02*
G75*
G03*
X144764908Y-94658908I-15J240008D01*
G01*
X144524891Y-96098908D02*
G75*
G03*
X144764908Y-95858908I9J240008D01*
G01*
X143800000Y-95138908D02*
G75*
G02*
X144040000Y-94898900I240000J8D01*
G01*
X143800000Y-93938908D02*
G75*
G02*
X144040000Y-93698900I240000J8D01*
G01*
X143560000Y-92498908D02*
G75*
G03*
X143800008Y-92258908I0J240008D01*
G01*
X144764915Y-94538908D02*
G75*
G03*
X144524915Y-94298885I-240015J8D01*
G01*
X144524891Y-93698908D02*
G75*
G03*
X144764908Y-93458908I9J240008D01*
G01*
X143375096Y-93098908D02*
G75*
G02*
X143135092Y-92858908I4J240008D01*
G01*
X143135096Y-92738908D02*
G75*
G02*
X143375096Y-92498896I240004J8D01*
G01*
X144524891Y-97298908D02*
G75*
G03*
X144764908Y-97058908I9J240008D01*
G01*
X143800000Y-97538908D02*
G75*
G02*
X144040000Y-97298900I240000J8D01*
G01*
%TO.N,/agp_connectors/AD_STB1*%
X114700000Y-88250000D02*
X114700000Y-87850000D01*
X114700000Y-91850000D02*
X114700000Y-91450000D01*
X114700000Y-93050000D02*
X114700000Y-92650000D01*
X114400000Y-87150000D02*
X114500000Y-87150000D01*
X114500000Y-82217872D02*
X114500000Y-81950000D01*
X114600000Y-84150000D02*
X114500000Y-84150000D01*
X115572234Y-99305056D02*
X115381558Y-99114380D01*
X114700000Y-96650000D02*
X114700000Y-96250000D01*
X114321973Y-84750000D02*
X114500000Y-84750000D01*
X114914380Y-99114380D02*
X114723705Y-98923705D01*
X115915000Y-108605000D02*
X115915000Y-100115000D01*
X114500000Y-85350000D02*
X114321973Y-85350000D01*
X114500000Y-86550000D02*
X114318311Y-86550000D01*
X114700000Y-97850000D02*
X114700000Y-97450000D01*
X114300000Y-87650000D02*
X114300000Y-87250000D01*
X114600000Y-85350000D02*
X114500000Y-85350000D01*
X114500000Y-91250000D02*
X114500000Y-90850000D01*
X114318311Y-85950000D02*
X114500000Y-85950000D01*
X114500000Y-82950000D02*
X114367872Y-82950000D01*
X114500000Y-98700000D02*
X114500000Y-98050000D01*
X114136622Y-86368311D02*
X114136622Y-86131689D01*
X114700000Y-95450000D02*
X114700000Y-95050000D01*
X114500000Y-84750000D02*
X114600000Y-84750000D01*
X114500000Y-88850000D02*
X114500000Y-88450000D01*
X114143946Y-85171973D02*
X114143946Y-84928027D01*
X114500000Y-87150000D02*
X114600000Y-87150000D01*
X114500000Y-87750000D02*
X114400000Y-87750000D01*
X114500000Y-97250000D02*
X114500000Y-96850000D01*
X114600000Y-86550000D02*
X114500000Y-86550000D01*
X114500000Y-83550000D02*
X114600000Y-83550000D01*
X114500000Y-93650000D02*
X114500000Y-93250000D01*
X114700000Y-94250000D02*
X114700000Y-93850000D01*
X114329297Y-83550000D02*
X114500000Y-83550000D01*
X114235744Y-82817872D02*
X114235744Y-82482128D01*
X114158594Y-83979297D02*
X114158594Y-83720703D01*
X114500000Y-96050000D02*
X114500000Y-95650000D01*
X114700000Y-87050000D02*
X114700000Y-86650000D01*
X114500000Y-90050000D02*
X114500000Y-89650000D01*
X114500000Y-92450000D02*
X114500000Y-92050000D01*
X114700000Y-90650000D02*
X114700000Y-90250000D01*
X115800000Y-61600000D02*
X115800000Y-56800000D01*
X114700000Y-83450000D02*
X114700000Y-83050000D01*
X114700000Y-89450000D02*
X114700000Y-89050000D01*
X114500000Y-84150000D02*
X114329297Y-84150000D01*
X114700000Y-84650000D02*
X114700000Y-84250000D01*
X114500000Y-81950000D02*
X114500000Y-81144613D01*
X114500000Y-94850000D02*
X114500000Y-94450000D01*
X114700000Y-85850000D02*
X114700000Y-85450000D01*
X114500000Y-62900000D02*
X115800000Y-61600000D01*
X114600000Y-82950000D02*
X114500000Y-82950000D01*
X114500000Y-85950000D02*
X114600000Y-85950000D01*
X115915000Y-100115000D02*
X115572234Y-99772234D01*
X114500000Y-81144613D02*
X114500000Y-62900000D01*
X114723705Y-98923705D02*
X114500000Y-98700000D01*
X114600000Y-87750000D02*
X114500000Y-87750000D01*
X114700000Y-97450000D02*
G75*
G03*
X114600000Y-97350000I-100000J0D01*
G01*
X114700000Y-87850000D02*
G75*
G03*
X114600000Y-87750000I-100000J0D01*
G01*
X114700000Y-89050000D02*
G75*
G03*
X114600000Y-88950000I-100000J0D01*
G01*
X114700000Y-91450000D02*
G75*
G03*
X114600000Y-91350000I-100000J0D01*
G01*
X114600000Y-93750000D02*
G75*
G02*
X114500000Y-93650000I0J100000D01*
G01*
X114500000Y-96850000D02*
G75*
G02*
X114600000Y-96750000I100000J0D01*
G01*
X114600000Y-83550000D02*
G75*
G03*
X114700000Y-83450000I0J100000D01*
G01*
X114600000Y-87150000D02*
G75*
G03*
X114700000Y-87050000I0J100000D01*
G01*
X114700000Y-85450000D02*
G75*
G03*
X114600000Y-85350000I-100000J0D01*
G01*
X114700000Y-93850000D02*
G75*
G03*
X114600000Y-93750000I-100000J0D01*
G01*
X114600000Y-95550000D02*
G75*
G03*
X114700000Y-95450000I0J100000D01*
G01*
X114700000Y-95050000D02*
G75*
G03*
X114600000Y-94950000I-100000J0D01*
G01*
X114700000Y-83050000D02*
G75*
G03*
X114600000Y-82950000I-100000J0D01*
G01*
X114300000Y-87250000D02*
G75*
G02*
X114400000Y-87150000I100000J0D01*
G01*
X114500000Y-94450000D02*
G75*
G02*
X114600000Y-94350000I100000J0D01*
G01*
X114700000Y-92650000D02*
G75*
G03*
X114600000Y-92550000I-100000J0D01*
G01*
X115381558Y-99114380D02*
G75*
G03*
X115147970Y-99114380I-116794J-116794D01*
G01*
X114500000Y-92050000D02*
G75*
G02*
X114600000Y-91950000I100000J0D01*
G01*
X114600000Y-93150000D02*
G75*
G03*
X114700000Y-93050000I0J100000D01*
G01*
X114600000Y-94350000D02*
G75*
G03*
X114700000Y-94250000I0J100000D01*
G01*
X114500000Y-89650000D02*
G75*
G02*
X114600000Y-89550000I100000J0D01*
G01*
X114500000Y-98050000D02*
G75*
G02*
X114600000Y-97950000I100000J0D01*
G01*
X114600000Y-97350000D02*
G75*
G02*
X114500000Y-97250000I0J100000D01*
G01*
X114136622Y-86131689D02*
G75*
G02*
X114318311Y-85950022I181678J-11D01*
G01*
X114158594Y-83720703D02*
G75*
G02*
X114329297Y-83549994I170706J3D01*
G01*
X114367872Y-82350000D02*
G75*
G03*
X114500000Y-82217872I28J132100D01*
G01*
X114600000Y-96750000D02*
G75*
G03*
X114700000Y-96650000I0J100000D01*
G01*
X114600000Y-90150000D02*
G75*
G02*
X114500000Y-90050000I0J100000D01*
G01*
X115572234Y-99538645D02*
G75*
G03*
X115572185Y-99305105I-116834J116745D01*
G01*
X114500000Y-95650000D02*
G75*
G02*
X114600000Y-95550000I100000J0D01*
G01*
X114143946Y-84928027D02*
G75*
G02*
X114321973Y-84749946I178054J27D01*
G01*
X114500000Y-93250000D02*
G75*
G02*
X114600000Y-93150000I100000J0D01*
G01*
X114318311Y-86550000D02*
G75*
G02*
X114136600Y-86368311I-11J181700D01*
G01*
X114700000Y-96250000D02*
G75*
G03*
X114600000Y-96150000I-100000J0D01*
G01*
X114600000Y-90750000D02*
G75*
G03*
X114700000Y-90650000I0J100000D01*
G01*
X114329297Y-84150000D02*
G75*
G02*
X114158600Y-83979297I3J170700D01*
G01*
X114600000Y-91350000D02*
G75*
G02*
X114500000Y-91250000I0J100000D01*
G01*
X114400000Y-87750000D02*
G75*
G02*
X114300000Y-87650000I0J100000D01*
G01*
X114700000Y-86650000D02*
G75*
G03*
X114600000Y-86550000I-100000J0D01*
G01*
X114700000Y-90250000D02*
G75*
G03*
X114600000Y-90150000I-100000J0D01*
G01*
X114600000Y-84750000D02*
G75*
G03*
X114700000Y-84650000I0J100000D01*
G01*
X114600000Y-94950000D02*
G75*
G02*
X114500000Y-94850000I0J100000D01*
G01*
X114235744Y-82482128D02*
G75*
G02*
X114367872Y-82349944I132156J28D01*
G01*
X114500000Y-90850000D02*
G75*
G02*
X114600000Y-90750000I100000J0D01*
G01*
X114600000Y-92550000D02*
G75*
G02*
X114500000Y-92450000I0J100000D01*
G01*
X115572234Y-99772234D02*
G75*
G02*
X115572194Y-99538605I116766J116834D01*
G01*
X114600000Y-88350000D02*
G75*
G03*
X114700000Y-88250000I0J100000D01*
G01*
X114321973Y-85350000D02*
G75*
G02*
X114144000Y-85171973I27J178000D01*
G01*
X115147969Y-99114380D02*
G75*
G02*
X114914381Y-99114380I-116794J116794D01*
G01*
X114600000Y-97950000D02*
G75*
G03*
X114700000Y-97850000I0J100000D01*
G01*
X114700000Y-84250000D02*
G75*
G03*
X114600000Y-84150000I-100000J0D01*
G01*
X114600000Y-91950000D02*
G75*
G03*
X114700000Y-91850000I0J100000D01*
G01*
X114600000Y-96150000D02*
G75*
G02*
X114500000Y-96050000I0J100000D01*
G01*
X114600000Y-85950000D02*
G75*
G03*
X114700000Y-85850000I0J100000D01*
G01*
X114367872Y-82950000D02*
G75*
G02*
X114235800Y-82817872I28J132100D01*
G01*
X114600000Y-88950000D02*
G75*
G02*
X114500000Y-88850000I0J100000D01*
G01*
X114500000Y-88450000D02*
G75*
G02*
X114600000Y-88350000I100000J0D01*
G01*
X114600000Y-89550000D02*
G75*
G03*
X114700000Y-89450000I0J100000D01*
G01*
%TO.N,/agp_connectors/PERR#*%
X131835000Y-108605000D02*
X131800000Y-108570000D01*
X130996915Y-98111051D02*
X130996915Y-97991051D01*
X132753076Y-97511051D02*
X132753076Y-97391051D01*
X131800000Y-96791051D02*
X131800000Y-90822338D01*
X131236915Y-98951051D02*
X131800000Y-98951051D01*
X132263069Y-99551051D02*
X132040000Y-99551051D01*
X131800000Y-96911051D02*
X131800000Y-96791051D01*
X131800000Y-97751051D02*
X132040000Y-97751051D01*
X132040000Y-97751051D02*
X132513076Y-97751051D01*
X131800000Y-98351051D02*
X131236915Y-98351051D01*
X132503069Y-99911051D02*
X132503069Y-99791051D01*
X131800000Y-108570000D02*
X131800000Y-100391051D01*
X131800000Y-99551051D02*
X131236915Y-99551051D01*
X132753076Y-98711051D02*
X132753076Y-98591051D01*
X130996915Y-99311051D02*
X130996915Y-99191051D01*
X131800000Y-90822338D02*
X131800000Y-56800000D01*
X132040000Y-99551051D02*
X131800000Y-99551051D01*
X131236915Y-97751051D02*
X131800000Y-97751051D01*
X132513076Y-98351051D02*
X131800000Y-98351051D01*
X131800000Y-98951051D02*
X132513076Y-98951051D01*
X132040000Y-100151051D02*
X132263069Y-100151051D01*
X132513076Y-97151051D02*
X132040000Y-97151051D01*
X131800000Y-100391051D02*
G75*
G02*
X132040000Y-100151000I240000J51D01*
G01*
X132753076Y-98591051D02*
G75*
G03*
X132513076Y-98351024I-239976J51D01*
G01*
X132040000Y-97151051D02*
G75*
G02*
X131800049Y-96911051I0J239951D01*
G01*
X132503069Y-99791051D02*
G75*
G03*
X132263069Y-99551031I-239969J51D01*
G01*
X132513076Y-97751051D02*
G75*
G03*
X132753051Y-97511051I24J239951D01*
G01*
X132513076Y-98951051D02*
G75*
G03*
X132753051Y-98711051I24J239951D01*
G01*
X131236915Y-99551051D02*
G75*
G02*
X130996949Y-99311051I-15J239951D01*
G01*
X130996915Y-97991051D02*
G75*
G02*
X131236915Y-97751015I239985J51D01*
G01*
X132263069Y-100151051D02*
G75*
G03*
X132503051Y-99911051I31J239951D01*
G01*
X131236915Y-98351051D02*
G75*
G02*
X130996949Y-98111051I-15J239951D01*
G01*
X132753076Y-97391051D02*
G75*
G03*
X132513076Y-97151024I-239976J51D01*
G01*
X130996915Y-99191051D02*
G75*
G02*
X131236915Y-98951015I239985J51D01*
G01*
%TO.N,/agp_connectors/OVRCNT#*%
X85301451Y-96116987D02*
X85301451Y-95996987D01*
X85070000Y-105600000D02*
X85070000Y-102030000D01*
X84400000Y-97556987D02*
X85061451Y-97556987D01*
X85100000Y-102000000D02*
X84400000Y-101300000D01*
X84400000Y-96956987D02*
X83738549Y-96956987D01*
X85061451Y-96956987D02*
X84400000Y-96956987D01*
X83738549Y-96356987D02*
X84400000Y-96356987D01*
X84861451Y-94556987D02*
X84640000Y-94556987D01*
X86200000Y-61800000D02*
X84800000Y-60400000D01*
X83738549Y-97556987D02*
X84400000Y-97556987D01*
X84400000Y-67400000D02*
X86200000Y-65600000D01*
X84400000Y-94316987D02*
X84400000Y-94196987D01*
X83498549Y-96716987D02*
X83498549Y-96596987D01*
X84400000Y-98156987D02*
X83738549Y-98156987D01*
X83738549Y-95156987D02*
X84400000Y-95156987D01*
X84400000Y-95156987D02*
X84640000Y-95156987D01*
X85061451Y-98156987D02*
X84640000Y-98156987D01*
X85301451Y-97316987D02*
X85301451Y-97196987D01*
X84400000Y-94196987D02*
X84400000Y-89706024D01*
X84800000Y-60400000D02*
X84800000Y-58800000D01*
X85061451Y-95756987D02*
X84400000Y-95756987D01*
X84640000Y-98156987D02*
X84400000Y-98156987D01*
X84640000Y-95156987D02*
X84861451Y-95156987D01*
X84640000Y-98756987D02*
X85061451Y-98756987D01*
X84400000Y-101300000D02*
X84400000Y-98996987D01*
X85101451Y-94916987D02*
X85101451Y-94796987D01*
X84400000Y-96356987D02*
X85061451Y-96356987D01*
X83498549Y-97916987D02*
X83498549Y-97796987D01*
X86200000Y-65600000D02*
X86200000Y-61800000D01*
X84400000Y-95756987D02*
X83738549Y-95756987D01*
X85070000Y-102030000D02*
X85100000Y-102000000D01*
X85301451Y-98516987D02*
X85301451Y-98396987D01*
X84400000Y-89706024D02*
X84400000Y-67400000D01*
X83498549Y-95516987D02*
X83498549Y-95396987D01*
X84640000Y-94556987D02*
G75*
G02*
X84400013Y-94316987I0J239987D01*
G01*
X85061451Y-98756987D02*
G75*
G03*
X85301487Y-98516987I49J239987D01*
G01*
X85301451Y-98396987D02*
G75*
G03*
X85061451Y-98157049I-239951J-13D01*
G01*
X85101451Y-94796987D02*
G75*
G03*
X84861451Y-94557049I-239951J-13D01*
G01*
X83498549Y-95396987D02*
G75*
G02*
X83738549Y-95157049I239951J-13D01*
G01*
X85061451Y-96356987D02*
G75*
G03*
X85301487Y-96116987I49J239987D01*
G01*
X85061451Y-97556987D02*
G75*
G03*
X85301487Y-97316987I49J239987D01*
G01*
X85301451Y-97196987D02*
G75*
G03*
X85061451Y-96957049I-239951J-13D01*
G01*
X83498549Y-96596987D02*
G75*
G02*
X83738549Y-96357049I239951J-13D01*
G01*
X84400000Y-98996987D02*
G75*
G02*
X84640000Y-98757000I240000J-13D01*
G01*
X84861451Y-95156987D02*
G75*
G03*
X85101487Y-94916987I49J239987D01*
G01*
X83738549Y-95756987D02*
G75*
G02*
X83498513Y-95516987I-49J239987D01*
G01*
X83498549Y-97796987D02*
G75*
G02*
X83738549Y-97557049I239951J-13D01*
G01*
X83738549Y-98156987D02*
G75*
G02*
X83498513Y-97916987I-49J239987D01*
G01*
X85301451Y-95996987D02*
G75*
G03*
X85061451Y-95757049I-239951J-13D01*
G01*
X83738549Y-96956987D02*
G75*
G02*
X83498513Y-96716987I-49J239987D01*
G01*
%TO.N,/agp_connectors/AD3*%
X146760000Y-95449795D02*
X146418255Y-95449795D01*
X147000000Y-98449795D02*
X147451737Y-98449795D01*
X147451737Y-96649795D02*
X147000000Y-96649795D01*
X146760000Y-96049795D02*
X147451743Y-96049795D01*
X146760000Y-84798617D02*
X146760000Y-58840000D01*
X146760000Y-92809795D02*
X146760000Y-92689795D01*
X147691737Y-97009795D02*
X147691737Y-96889795D01*
X146760000Y-105600000D02*
X146760000Y-99889795D01*
X146178255Y-95209795D02*
X146178255Y-95089795D01*
X147000000Y-97249795D02*
X147451737Y-97249795D01*
X146760000Y-58840000D02*
X146800000Y-58800000D01*
X147451743Y-93049795D02*
X147000000Y-93049795D01*
X147691737Y-98209795D02*
X147691737Y-98089795D01*
X146760000Y-94849795D02*
X147451747Y-94849795D01*
X147000000Y-96649795D02*
X146760000Y-96649795D01*
X146760000Y-92689795D02*
X146760000Y-84798617D01*
X146178255Y-96409795D02*
X146178255Y-96289795D01*
X147451737Y-97849795D02*
X147000000Y-97849795D01*
X147691743Y-93409795D02*
X147691743Y-93289795D01*
X147691747Y-94609795D02*
X147691747Y-94489795D01*
X146418255Y-94849795D02*
X146760000Y-94849795D01*
X147451743Y-95449795D02*
X146760000Y-95449795D01*
X146760000Y-97609795D02*
X146760000Y-97489795D01*
X146760000Y-94249795D02*
X146418251Y-94249795D01*
X147000000Y-99649795D02*
X147451737Y-99649795D01*
X147691737Y-99409795D02*
X147691737Y-99289795D01*
X146760000Y-98809795D02*
X146760000Y-98689795D01*
X146760000Y-96649795D02*
X146418255Y-96649795D01*
X147451737Y-99049795D02*
X147000000Y-99049795D01*
X147000000Y-93649795D02*
X147451743Y-93649795D01*
X147451747Y-94249795D02*
X146760000Y-94249795D01*
X146418251Y-93649795D02*
X146760000Y-93649795D01*
X146760000Y-93649795D02*
X147000000Y-93649795D01*
X147691743Y-95809795D02*
X147691743Y-95689795D01*
X146418255Y-96049795D02*
X146760000Y-96049795D01*
X146178251Y-94009795D02*
X146178251Y-93889795D01*
X146760000Y-97489795D02*
G75*
G02*
X147000000Y-97249800I240000J-5D01*
G01*
X147691747Y-94489795D02*
G75*
G03*
X147451747Y-94249753I-240047J-5D01*
G01*
X147000000Y-97849795D02*
G75*
G02*
X146760005Y-97609795I0J239995D01*
G01*
X147451743Y-93649795D02*
G75*
G03*
X147691695Y-93409795I-43J239995D01*
G01*
X147691737Y-98089795D02*
G75*
G03*
X147451737Y-97849763I-240037J-5D01*
G01*
X147000000Y-99049795D02*
G75*
G02*
X146760005Y-98809795I0J239995D01*
G01*
X147451737Y-97249795D02*
G75*
G03*
X147691695Y-97009795I-37J239995D01*
G01*
X146178255Y-95089795D02*
G75*
G02*
X146418255Y-94849755I240045J-5D01*
G01*
X147451737Y-98449795D02*
G75*
G03*
X147691695Y-98209795I-37J239995D01*
G01*
X146178255Y-96289795D02*
G75*
G02*
X146418255Y-96049755I240045J-5D01*
G01*
X146418255Y-95449795D02*
G75*
G02*
X146178305Y-95209795I45J239995D01*
G01*
X146760000Y-98689795D02*
G75*
G02*
X147000000Y-98449800I240000J-5D01*
G01*
X147691737Y-99289795D02*
G75*
G03*
X147451737Y-99049763I-240037J-5D01*
G01*
X147000000Y-93049795D02*
G75*
G02*
X146760005Y-92809795I0J239995D01*
G01*
X147451737Y-99649795D02*
G75*
G03*
X147691695Y-99409795I-37J239995D01*
G01*
X147691743Y-95689795D02*
G75*
G03*
X147451743Y-95449757I-240043J-5D01*
G01*
X147691743Y-93289795D02*
G75*
G03*
X147451743Y-93049757I-240043J-5D01*
G01*
X147451747Y-94849795D02*
G75*
G03*
X147691695Y-94609795I-47J239995D01*
G01*
X146178251Y-93889795D02*
G75*
G02*
X146418251Y-93649851I239949J-5D01*
G01*
X146418251Y-94249795D02*
G75*
G02*
X146178205Y-94009795I-51J239995D01*
G01*
X147451743Y-96049795D02*
G75*
G03*
X147691695Y-95809795I-43J239995D01*
G01*
X146418255Y-96649795D02*
G75*
G02*
X146178305Y-96409795I45J239995D01*
G01*
X146760000Y-99889795D02*
G75*
G02*
X147000000Y-99649800I240000J-5D01*
G01*
X147691737Y-96889795D02*
G75*
G03*
X147451737Y-96649763I-240037J-5D01*
G01*
%TO.N,/agp_connectors/AD1*%
X149403216Y-98102723D02*
X149403216Y-97982723D01*
X148186797Y-95942723D02*
X148750000Y-95942723D01*
X148186797Y-98342723D02*
X148750000Y-98342723D01*
X148750000Y-58850000D02*
X148800000Y-58800000D01*
X148750000Y-95342723D02*
X148186797Y-95342723D01*
X147946797Y-96302723D02*
X147946797Y-96182723D01*
X148236784Y-99542723D02*
X148510000Y-99542723D01*
X148990000Y-94742723D02*
X149163216Y-94742723D01*
X148510000Y-100142723D02*
X148236784Y-100142723D01*
X148186797Y-94742723D02*
X148750000Y-94742723D01*
X147946797Y-95102723D02*
X147946797Y-94982723D01*
X148750000Y-97742723D02*
X148186797Y-97742723D01*
X149163216Y-96542723D02*
X148750000Y-96542723D01*
X149403216Y-99302723D02*
X149403216Y-99182723D01*
X148750000Y-105600000D02*
X148750000Y-100382723D01*
X147946797Y-98702723D02*
X147946797Y-98582723D01*
X148750000Y-78504306D02*
X148750000Y-58850000D01*
X149163216Y-97742723D02*
X148750000Y-97742723D01*
X149403216Y-96902723D02*
X149403216Y-96782723D01*
X149403216Y-95702723D02*
X149403216Y-95582723D01*
X148750000Y-93782723D02*
X148750000Y-78504306D01*
X147946797Y-97502723D02*
X147946797Y-97382723D01*
X149163216Y-98942723D02*
X148750000Y-98942723D01*
X149163216Y-94142723D02*
X148990000Y-94142723D01*
X148750000Y-99542723D02*
X149163216Y-99542723D01*
X148750000Y-98342723D02*
X149163216Y-98342723D01*
X148750000Y-95942723D02*
X149163216Y-95942723D01*
X148510000Y-99542723D02*
X148750000Y-99542723D01*
X148750000Y-94742723D02*
X148990000Y-94742723D01*
X148750000Y-97142723D02*
X149163216Y-97142723D01*
X148750000Y-93902723D02*
X148750000Y-93782723D01*
X149163216Y-95342723D02*
X148750000Y-95342723D01*
X148750000Y-96542723D02*
X148186797Y-96542723D01*
X148750000Y-98942723D02*
X148186797Y-98942723D01*
X148186797Y-97142723D02*
X148750000Y-97142723D01*
X147996784Y-99902723D02*
X147996784Y-99782723D01*
X149403216Y-94502723D02*
X149403216Y-94382723D01*
X147946797Y-96182723D02*
G75*
G02*
X148186797Y-95942697I240003J23D01*
G01*
X149163216Y-95942723D02*
G75*
G03*
X149403223Y-95702723I-16J240023D01*
G01*
X149163216Y-97142723D02*
G75*
G03*
X149403223Y-96902723I-16J240023D01*
G01*
X149403216Y-96782723D02*
G75*
G03*
X149163216Y-96542684I-240016J23D01*
G01*
X148186797Y-98942723D02*
G75*
G02*
X147946777Y-98702723I3J240023D01*
G01*
X149403216Y-95582723D02*
G75*
G03*
X149163216Y-95342684I-240016J23D01*
G01*
X148186797Y-95342723D02*
G75*
G02*
X147946777Y-95102723I3J240023D01*
G01*
X147946797Y-97382723D02*
G75*
G02*
X148186797Y-97142697I240003J23D01*
G01*
X148990000Y-94142723D02*
G75*
G02*
X148749977Y-93902723I0J240023D01*
G01*
X147946797Y-94982723D02*
G75*
G02*
X148186797Y-94742697I240003J23D01*
G01*
X149403216Y-97982723D02*
G75*
G03*
X149163216Y-97742684I-240016J23D01*
G01*
X149163216Y-94742723D02*
G75*
G03*
X149403223Y-94502723I-16J240023D01*
G01*
X149403216Y-94382723D02*
G75*
G03*
X149163216Y-94142684I-240016J23D01*
G01*
X148750000Y-100382723D02*
G75*
G03*
X148510000Y-100142700I-240000J23D01*
G01*
X149163216Y-98342723D02*
G75*
G03*
X149403223Y-98102723I-16J240023D01*
G01*
X149163216Y-99542723D02*
G75*
G03*
X149403223Y-99302723I-16J240023D01*
G01*
X149403216Y-99182723D02*
G75*
G03*
X149163216Y-98942684I-240016J23D01*
G01*
X147946797Y-98582723D02*
G75*
G02*
X148186797Y-98342697I240003J23D01*
G01*
X148236784Y-100142723D02*
G75*
G02*
X147996777Y-99902723I16J240023D01*
G01*
X148186797Y-97742723D02*
G75*
G02*
X147946777Y-97502723I3J240023D01*
G01*
X148186797Y-96542723D02*
G75*
G02*
X147946777Y-96302723I3J240023D01*
G01*
X147996784Y-99782723D02*
G75*
G02*
X148236784Y-99542684I240016J23D01*
G01*
%TO.N,VBUS_IN_5V*%
X88300000Y-81700000D02*
X88300000Y-83612500D01*
D49*
X87060000Y-98815000D02*
X87100000Y-98775000D01*
X86065000Y-99810000D02*
X87100000Y-98775000D01*
D52*
X88300000Y-81700000D02*
X87700000Y-81100000D01*
D49*
X87060000Y-105600000D02*
X87060000Y-100600000D01*
X87060000Y-99800000D02*
X87060000Y-98815000D01*
X86065000Y-108605000D02*
X86065000Y-99810000D01*
X87060000Y-100600000D02*
X87060000Y-99800000D01*
D51*
X159325000Y-95725000D02*
X159325000Y-96975000D01*
X159325000Y-96975000D02*
X159300000Y-97000000D01*
D50*
X88300000Y-83612500D02*
X88300000Y-85900000D01*
D52*
%TO.N,/agp_connectors/AD25*%
X113800000Y-87421680D02*
X113800000Y-83734957D01*
X113600000Y-92521680D02*
X113600000Y-92121680D01*
X114171330Y-99050350D02*
X114171330Y-98821680D01*
X113600000Y-91321680D02*
X113600000Y-90921680D01*
X113800000Y-87670651D02*
X113800000Y-87421680D01*
X113700000Y-90821680D02*
X113800000Y-90821680D01*
X114175890Y-95445790D02*
X114175890Y-95209625D01*
X113800000Y-89021680D02*
X113700000Y-89021680D01*
X113989599Y-93821680D02*
X113800000Y-93821680D01*
X113700000Y-92021680D02*
X113800000Y-92021680D01*
X113700000Y-89621680D02*
X113800000Y-89621680D01*
X113600000Y-90121680D02*
X113600000Y-89721680D01*
X113800000Y-98450350D02*
X113800000Y-98221680D01*
X114173509Y-91834926D02*
X114173509Y-91608434D01*
X113800000Y-97250350D02*
X113800000Y-97021680D01*
X113600000Y-88921680D02*
X113600000Y-88521680D01*
X113987945Y-95021680D02*
X113800000Y-95021680D01*
X113986755Y-91421680D02*
X113800000Y-91421680D01*
X113800000Y-90821680D02*
X113984137Y-90821680D01*
X113700000Y-88421680D02*
X113800000Y-88421680D01*
X114176860Y-93033250D02*
X114176860Y-92810110D01*
X113800000Y-95021680D02*
X113635400Y-95021680D01*
X114171330Y-96650350D02*
X114171330Y-96421680D01*
X113978845Y-89021680D02*
X113800000Y-89021680D01*
X113984137Y-90221680D02*
X113800000Y-90221680D01*
X114171330Y-97850350D02*
X114171330Y-97621680D01*
X113635400Y-94421680D02*
X113800000Y-94421680D01*
X113800000Y-93821680D02*
X113700000Y-93821680D01*
X113800000Y-92021680D02*
X113986755Y-92021680D01*
X114157689Y-89442836D02*
X114157689Y-89200524D01*
X114102058Y-88270651D02*
X114102058Y-87972709D01*
X113470801Y-94857081D02*
X113470801Y-94586279D01*
X113925000Y-108605000D02*
X113800000Y-108480000D01*
X113800000Y-83734957D02*
X113800000Y-56800000D01*
X113800000Y-96050350D02*
X113800000Y-95821680D01*
X113800000Y-92621680D02*
X113700000Y-92621680D01*
X114179198Y-94232081D02*
X114179198Y-94011279D01*
X113800000Y-108480000D02*
X113800000Y-99421680D01*
X113800000Y-89621680D02*
X113978845Y-89621680D01*
X113700000Y-93221680D02*
X113800000Y-93221680D01*
X113800000Y-93221680D02*
X113988430Y-93221680D01*
X114168273Y-90637544D02*
X114168273Y-90405816D01*
X113988430Y-92621680D02*
X113800000Y-92621680D01*
X113800000Y-88421680D02*
X113951029Y-88421680D01*
X113800000Y-94421680D02*
X113989599Y-94421680D01*
X113800000Y-91421680D02*
X113700000Y-91421680D01*
X113600000Y-93721680D02*
X113600000Y-93321680D01*
X113800000Y-90221680D02*
X113700000Y-90221680D01*
X113600000Y-90921680D02*
G75*
G02*
X113700000Y-90821700I100000J-20D01*
G01*
X113700000Y-90221680D02*
G75*
G02*
X113600020Y-90121680I0J99980D01*
G01*
X114171330Y-98821680D02*
G75*
G03*
X113985665Y-98636070I-185630J-20D01*
G01*
X113985665Y-97436015D02*
G75*
G02*
X113800085Y-97250350I35J185615D01*
G01*
X113800000Y-99421680D02*
G75*
G02*
X113985665Y-99236000I185700J-20D01*
G01*
X113700000Y-89021680D02*
G75*
G02*
X113600020Y-88921680I0J99980D01*
G01*
X113600000Y-93321680D02*
G75*
G02*
X113700000Y-93221700I100000J-20D01*
G01*
X114176860Y-92810110D02*
G75*
G03*
X113988430Y-92621640I-188460J10D01*
G01*
X114173509Y-91608434D02*
G75*
G03*
X113986755Y-91421691I-186709J34D01*
G01*
X113800000Y-95821680D02*
G75*
G02*
X113987945Y-95633800I187900J-20D01*
G01*
X113800000Y-98221680D02*
G75*
G02*
X113985665Y-98036000I185700J-20D01*
G01*
X113987945Y-95633735D02*
G75*
G03*
X114175835Y-95445790I-45J187935D01*
G01*
X113984137Y-90821680D02*
G75*
G03*
X114168280Y-90637544I-37J184180D01*
G01*
X114171330Y-97621680D02*
G75*
G03*
X113985665Y-97436070I-185630J-20D01*
G01*
X113951029Y-87821680D02*
G75*
G02*
X113800020Y-87670651I-29J150980D01*
G01*
X113985665Y-99236015D02*
G75*
G03*
X114171315Y-99050350I35J185615D01*
G01*
X113470801Y-94586279D02*
G75*
G02*
X113635400Y-94421701I164599J-21D01*
G01*
X113600000Y-89721680D02*
G75*
G02*
X113700000Y-89621700I100000J-20D01*
G01*
X114175890Y-95209625D02*
G75*
G03*
X113987945Y-95021610I-187990J25D01*
G01*
X113700000Y-92621680D02*
G75*
G02*
X113600020Y-92521680I0J99980D01*
G01*
X114168273Y-90405816D02*
G75*
G03*
X113984137Y-90221627I-184173J16D01*
G01*
X113989599Y-94421680D02*
G75*
G03*
X114179180Y-94232081I1J189580D01*
G01*
X113600000Y-88521680D02*
G75*
G02*
X113700000Y-88421700I100000J-20D01*
G01*
X113951029Y-88421680D02*
G75*
G03*
X114101980Y-88270651I-29J150980D01*
G01*
X114171330Y-96421680D02*
G75*
G03*
X113985665Y-96236070I-185630J-20D01*
G01*
X113985665Y-96236015D02*
G75*
G02*
X113800085Y-96050350I35J185615D01*
G01*
X113988430Y-93221680D02*
G75*
G03*
X114176880Y-93033250I-30J188480D01*
G01*
X113600000Y-92121680D02*
G75*
G02*
X113700000Y-92021700I100000J-20D01*
G01*
X114157689Y-89200524D02*
G75*
G03*
X113978845Y-89021611I-178889J24D01*
G01*
X114179198Y-94011279D02*
G75*
G03*
X113989599Y-93821702I-189598J-21D01*
G01*
X113700000Y-91421680D02*
G75*
G02*
X113600020Y-91321680I0J99980D01*
G01*
X114102058Y-87972709D02*
G75*
G03*
X113951029Y-87821642I-151058J9D01*
G01*
X113700000Y-93821680D02*
G75*
G02*
X113600020Y-93721680I0J99980D01*
G01*
X113985665Y-98636015D02*
G75*
G02*
X113800085Y-98450350I35J185615D01*
G01*
X113635400Y-95021680D02*
G75*
G02*
X113470820Y-94857081I0J164580D01*
G01*
X113985665Y-96836015D02*
G75*
G03*
X114171315Y-96650350I35J185615D01*
G01*
X113986755Y-92021680D02*
G75*
G03*
X114173580Y-91834926I45J186780D01*
G01*
X113978845Y-89621680D02*
G75*
G03*
X114157680Y-89442836I-45J178880D01*
G01*
X113985665Y-98036015D02*
G75*
G03*
X114171315Y-97850350I35J185615D01*
G01*
X113800000Y-97021680D02*
G75*
G02*
X113985665Y-96836000I185700J-20D01*
G01*
%TO.N,/agp_connectors/C{slash}BE1#*%
X135560614Y-97178112D02*
X135060000Y-97178112D01*
X134379380Y-94178112D02*
X134820000Y-94178112D01*
X135800614Y-96338112D02*
X135800614Y-96218112D01*
X134820000Y-98138112D02*
X134820000Y-98018112D01*
X136900000Y-64000000D02*
X136900000Y-62500000D01*
X136900000Y-62500000D02*
X134800000Y-60400000D01*
X135060000Y-94178112D02*
X135560614Y-94178112D01*
X134379380Y-95378112D02*
X134820000Y-95378112D01*
X135800614Y-97538112D02*
X135800614Y-97418112D01*
X134139380Y-95738112D02*
X134139380Y-95618112D01*
X135060000Y-95978112D02*
X134820000Y-95978112D01*
X135800614Y-95138112D02*
X135800614Y-95018112D01*
X135800614Y-98738112D02*
X135800614Y-98618112D01*
X134820000Y-105600000D02*
X134820000Y-99218112D01*
X135800614Y-93938112D02*
X135800614Y-93818112D01*
X135060000Y-96578112D02*
X135560614Y-96578112D01*
X134820000Y-94778112D02*
X134379380Y-94778112D01*
X134820000Y-95378112D02*
X135560614Y-95378112D01*
X134139380Y-94538112D02*
X134139380Y-94418112D01*
X134820000Y-93218112D02*
X134820000Y-85904225D01*
X135560614Y-95978112D02*
X135060000Y-95978112D01*
X134800000Y-60400000D02*
X134800000Y-58800000D01*
X134820000Y-66080000D02*
X136900000Y-64000000D01*
X134820000Y-85904225D02*
X134820000Y-66080000D01*
X134820000Y-96938112D02*
X134820000Y-96818112D01*
X135560614Y-98378112D02*
X135060000Y-98378112D01*
X134820000Y-93338112D02*
X134820000Y-93218112D01*
X134820000Y-94178112D02*
X135060000Y-94178112D01*
X135060000Y-97778112D02*
X135560614Y-97778112D01*
X135060000Y-98978112D02*
X135560614Y-98978112D01*
X135560614Y-94778112D02*
X134820000Y-94778112D01*
X134820000Y-95978112D02*
X134379380Y-95978112D01*
X135560614Y-93578112D02*
X135060000Y-93578112D01*
X135060000Y-93578112D02*
G75*
G02*
X134819988Y-93338112I0J240012D01*
G01*
X135560614Y-98978112D02*
G75*
G03*
X135800612Y-98738112I-14J240012D01*
G01*
X134139380Y-94418112D02*
G75*
G02*
X134379380Y-94178080I240020J12D01*
G01*
X135060000Y-97178112D02*
G75*
G02*
X134819988Y-96938112I0J240012D01*
G01*
X135560614Y-96578112D02*
G75*
G03*
X135800612Y-96338112I-14J240012D01*
G01*
X135800614Y-93818112D02*
G75*
G03*
X135560614Y-93578086I-240014J12D01*
G01*
X134139380Y-95618112D02*
G75*
G02*
X134379380Y-95378080I240020J12D01*
G01*
X135800614Y-97418112D02*
G75*
G03*
X135560614Y-97178086I-240014J12D01*
G01*
X134820000Y-96818112D02*
G75*
G02*
X135060000Y-96578100I240000J12D01*
G01*
X135560614Y-95378112D02*
G75*
G03*
X135800612Y-95138112I-14J240012D01*
G01*
X134379380Y-95978112D02*
G75*
G02*
X134139388Y-95738112I20J240012D01*
G01*
X135560614Y-97778112D02*
G75*
G03*
X135800612Y-97538112I-14J240012D01*
G01*
X135800614Y-95018112D02*
G75*
G03*
X135560614Y-94778086I-240014J12D01*
G01*
X134820000Y-99218112D02*
G75*
G02*
X135060000Y-98978100I240000J12D01*
G01*
X134379380Y-94778112D02*
G75*
G02*
X134139388Y-94538112I20J240012D01*
G01*
X135060000Y-98378112D02*
G75*
G02*
X134819988Y-98138112I0J240012D01*
G01*
X135800614Y-96218112D02*
G75*
G03*
X135560614Y-95978086I-240014J12D01*
G01*
X135800614Y-98618112D02*
G75*
G03*
X135560614Y-98378086I-240014J12D01*
G01*
X134820000Y-98018112D02*
G75*
G02*
X135060000Y-97778100I240000J12D01*
G01*
X135560614Y-94178112D02*
G75*
G03*
X135800612Y-93938112I-14J240012D01*
G01*
%TO.N,/agp_connectors/ST2*%
X95260000Y-96411696D02*
X95470508Y-96411696D01*
X95470508Y-92211696D02*
X95020000Y-92211696D01*
X95470478Y-91011696D02*
X95020000Y-91011696D01*
X95020000Y-89134735D02*
X95020000Y-65520000D01*
X94569492Y-92811696D02*
X95020000Y-92811696D01*
X95470508Y-95811696D02*
X95260000Y-95811696D01*
X95020000Y-90051696D02*
X95020000Y-89134735D01*
X95260000Y-95811696D02*
X95020000Y-95811696D01*
X95020000Y-65520000D02*
X94600000Y-65100000D01*
X94329492Y-90771696D02*
X94329492Y-90651696D01*
X95020000Y-90171696D02*
X95020000Y-90051696D01*
X95710508Y-96171696D02*
X95710508Y-96051696D01*
X94780000Y-91011696D02*
X94569492Y-91011696D01*
X95710508Y-94971696D02*
X95710508Y-94851696D01*
X95020000Y-91611696D02*
X95470478Y-91611696D01*
X94569492Y-94011696D02*
X95020000Y-94011696D01*
X95020000Y-95811696D02*
X94569492Y-95811696D01*
X94569492Y-90411696D02*
X94780000Y-90411696D01*
X95470508Y-93411696D02*
X95020000Y-93411696D01*
X94569492Y-95211696D02*
X95020000Y-95211696D01*
X95710508Y-93771696D02*
X95710508Y-93651696D01*
X95020000Y-95211696D02*
X95470508Y-95211696D01*
X95020000Y-91011696D02*
X94780000Y-91011696D01*
X95710508Y-92571696D02*
X95710508Y-92451696D01*
X94329492Y-91971696D02*
X94329492Y-91851696D01*
X94569492Y-91611696D02*
X95020000Y-91611696D01*
X95470508Y-94611696D02*
X95020000Y-94611696D01*
X95020000Y-94011696D02*
X95470508Y-94011696D01*
X94329492Y-95571696D02*
X94329492Y-95451696D01*
X95020000Y-105600000D02*
X95020000Y-96651696D01*
X95020000Y-93411696D02*
X94569492Y-93411696D01*
X94600000Y-65100000D02*
X94600000Y-61700000D01*
X95020000Y-94611696D02*
X94569492Y-94611696D01*
X95020000Y-92811696D02*
X95470508Y-92811696D01*
X95710478Y-91371696D02*
X95710478Y-91251696D01*
X95020000Y-92211696D02*
X94569492Y-92211696D01*
X94329492Y-93171696D02*
X94329492Y-93051696D01*
X95303000Y-59303000D02*
X94800000Y-58800000D01*
X94329492Y-94371696D02*
X94329492Y-94251696D01*
X94600000Y-61700000D02*
X95303000Y-60997000D01*
X95303000Y-60997000D02*
X95303000Y-59303000D01*
X94569492Y-93411696D02*
G75*
G02*
X94329504Y-93171696I8J239996D01*
G01*
X95470508Y-92811696D02*
G75*
G03*
X95710496Y-92571696I-8J239996D01*
G01*
X94569492Y-91011696D02*
G75*
G02*
X94329504Y-90771696I8J239996D01*
G01*
X94329492Y-95451696D02*
G75*
G02*
X94569492Y-95211692I240008J-4D01*
G01*
X95470508Y-94011696D02*
G75*
G03*
X95710496Y-93771696I-8J239996D01*
G01*
X94569492Y-94611696D02*
G75*
G02*
X94329504Y-94371696I8J239996D01*
G01*
X94329492Y-94251696D02*
G75*
G02*
X94569492Y-94011692I240008J-4D01*
G01*
X95470508Y-95211696D02*
G75*
G03*
X95710496Y-94971696I-8J239996D01*
G01*
X95710508Y-96051696D02*
G75*
G03*
X95470508Y-95811692I-240008J-4D01*
G01*
X95470508Y-96411696D02*
G75*
G03*
X95710496Y-96171696I-8J239996D01*
G01*
X94329492Y-91851696D02*
G75*
G02*
X94569492Y-91611692I240008J-4D01*
G01*
X95020000Y-96651696D02*
G75*
G02*
X95260000Y-96411700I240000J-4D01*
G01*
X95710508Y-93651696D02*
G75*
G03*
X95470508Y-93411692I-240008J-4D01*
G01*
X94780000Y-90411696D02*
G75*
G03*
X95019996Y-90171696I0J239996D01*
G01*
X94569492Y-92211696D02*
G75*
G02*
X94329504Y-91971696I8J239996D01*
G01*
X95470478Y-91611696D02*
G75*
G03*
X95710496Y-91371696I22J239996D01*
G01*
X95710508Y-92451696D02*
G75*
G03*
X95470508Y-92211692I-240008J-4D01*
G01*
X94329492Y-90651696D02*
G75*
G02*
X94569492Y-90411692I240008J-4D01*
G01*
X94569492Y-95811696D02*
G75*
G02*
X94329504Y-95571696I8J239996D01*
G01*
X95710478Y-91251696D02*
G75*
G03*
X95470478Y-91011722I-239978J-4D01*
G01*
X95710508Y-94851696D02*
G75*
G03*
X95470508Y-94611692I-240008J-4D01*
G01*
X94329492Y-93051696D02*
G75*
G02*
X94569492Y-92811692I240008J-4D01*
G01*
%TO.N,/agp_connectors/AD10*%
X139800000Y-97925631D02*
X139170262Y-97925631D01*
X138930262Y-97685631D02*
X138930262Y-97565631D01*
X140129734Y-97925631D02*
X139800000Y-97925631D01*
X139800000Y-95765631D02*
X139800000Y-87414927D01*
X139800000Y-95885631D02*
X139800000Y-95765631D01*
X139560000Y-96725631D02*
X139170252Y-96725631D01*
X139800000Y-96725631D02*
X139560000Y-96725631D01*
X139170262Y-97325631D02*
X139800000Y-97325631D01*
X139170262Y-98525631D02*
X139800000Y-98525631D01*
X138930262Y-98885631D02*
X138930262Y-98765631D01*
X139170252Y-96125631D02*
X139560000Y-96125631D01*
X140040000Y-99125631D02*
X139800000Y-99125631D01*
X139800000Y-108600000D02*
X139800000Y-99965631D01*
X138930252Y-96485631D02*
X138930252Y-96365631D01*
X140129742Y-96725631D02*
X139800000Y-96725631D01*
X140369742Y-97085631D02*
X140369742Y-96965631D01*
X140040000Y-99725631D02*
X140129734Y-99725631D01*
X139795000Y-108605000D02*
X139800000Y-108600000D01*
X139800000Y-87414927D02*
X139800000Y-56800000D01*
X140129734Y-99125631D02*
X140040000Y-99125631D01*
X139800000Y-97325631D02*
X140129742Y-97325631D01*
X140369734Y-98285631D02*
X140369734Y-98165631D01*
X139800000Y-98525631D02*
X140129734Y-98525631D01*
X139800000Y-99125631D02*
X139170262Y-99125631D01*
X140369734Y-99485631D02*
X140369734Y-99365631D01*
X138930262Y-97565631D02*
G75*
G02*
X139170262Y-97325562I240038J31D01*
G01*
X140129734Y-98525631D02*
G75*
G03*
X140369731Y-98285631I-34J240031D01*
G01*
X140129742Y-97325631D02*
G75*
G03*
X140369731Y-97085631I-42J240031D01*
G01*
X139170262Y-99125631D02*
G75*
G02*
X138930269Y-98885631I38J240031D01*
G01*
X140369734Y-99365631D02*
G75*
G03*
X140129734Y-99125566I-240034J31D01*
G01*
X138930252Y-96365631D02*
G75*
G02*
X139170252Y-96125552I240048J31D01*
G01*
X140369734Y-98165631D02*
G75*
G03*
X140129734Y-97925566I-240034J31D01*
G01*
X139560000Y-96125631D02*
G75*
G03*
X139800031Y-95885631I0J240031D01*
G01*
X139800000Y-99965631D02*
G75*
G02*
X140040000Y-99725600I240000J31D01*
G01*
X138930262Y-98765631D02*
G75*
G02*
X139170262Y-98525562I240038J31D01*
G01*
X140369742Y-96965631D02*
G75*
G03*
X140129742Y-96725558I-240042J31D01*
G01*
X139170262Y-97925631D02*
G75*
G02*
X138930269Y-97685631I38J240031D01*
G01*
X139170252Y-96725631D02*
G75*
G02*
X138930269Y-96485631I48J240031D01*
G01*
X140129734Y-99725631D02*
G75*
G03*
X140369731Y-99485631I-34J240031D01*
G01*
%TO.N,/agp_connectors/AD_STB0*%
X142780000Y-58820000D02*
X142800000Y-58800000D01*
X143473300Y-96182290D02*
X143473300Y-96062290D01*
X142780000Y-94622290D02*
X142326700Y-94622290D01*
X141786690Y-99182290D02*
X141786690Y-99062290D01*
X142780000Y-96422290D02*
X143233300Y-96422290D01*
X142780000Y-97022290D02*
X142326685Y-97022290D01*
X143233315Y-97022290D02*
X142780000Y-97022290D01*
X142086700Y-95582290D02*
X142086700Y-95462290D01*
X142326685Y-97622290D02*
X142780000Y-97622290D01*
X142326700Y-94022290D02*
X142780000Y-94022290D01*
X142026690Y-98822290D02*
X142540000Y-98822290D01*
X143233300Y-93422290D02*
X143020000Y-93422290D01*
X142780000Y-95822290D02*
X142326700Y-95822290D01*
X142086685Y-97982290D02*
X142086685Y-97862290D01*
X142780000Y-94022290D02*
X143020000Y-94022290D01*
X142086685Y-96782290D02*
X142086685Y-96662290D01*
X142326685Y-96422290D02*
X142780000Y-96422290D01*
X142780000Y-97622290D02*
X143233315Y-97622290D01*
X142780000Y-105600000D02*
X142780000Y-99662290D01*
X143473315Y-97382290D02*
X143473315Y-97262290D01*
X142780000Y-98822290D02*
X143233315Y-98822290D01*
X142780000Y-93182290D02*
X142780000Y-93062290D01*
X143233300Y-94622290D02*
X142780000Y-94622290D01*
X142540000Y-98822290D02*
X142780000Y-98822290D01*
X143020000Y-94022290D02*
X143233300Y-94022290D01*
X142086700Y-94382290D02*
X142086700Y-94262290D01*
X142780000Y-98222290D02*
X142326685Y-98222290D01*
X142780000Y-93062290D02*
X142780000Y-84646947D01*
X142780000Y-95222290D02*
X143233300Y-95222290D01*
X143473315Y-98582290D02*
X143473315Y-98462290D01*
X143473300Y-93782290D02*
X143473300Y-93662290D01*
X143233315Y-98222290D02*
X142780000Y-98222290D01*
X142326700Y-95222290D02*
X142780000Y-95222290D01*
X143233300Y-95822290D02*
X142780000Y-95822290D01*
X142540000Y-99422290D02*
X142026690Y-99422290D01*
X143473300Y-94982290D02*
X143473300Y-94862290D01*
X142780000Y-84646947D02*
X142780000Y-58820000D01*
X142086700Y-95462290D02*
G75*
G02*
X142326700Y-95222300I240000J-10D01*
G01*
X142326685Y-97022290D02*
G75*
G02*
X142086710Y-96782290I15J239990D01*
G01*
X143233300Y-95222290D02*
G75*
G03*
X143473290Y-94982290I0J239990D01*
G01*
X143020000Y-93422290D02*
G75*
G02*
X142780010Y-93182290I0J239990D01*
G01*
X143233315Y-97622290D02*
G75*
G03*
X143473290Y-97382290I-15J239990D01*
G01*
X142326700Y-94622290D02*
G75*
G02*
X142086710Y-94382290I0J239990D01*
G01*
X143233300Y-96422290D02*
G75*
G03*
X143473290Y-96182290I0J239990D01*
G01*
X142780000Y-99662290D02*
G75*
G03*
X142540000Y-99422300I-240000J-10D01*
G01*
X142326700Y-95822290D02*
G75*
G02*
X142086710Y-95582290I0J239990D01*
G01*
X142326685Y-98222290D02*
G75*
G02*
X142086710Y-97982290I15J239990D01*
G01*
X143473300Y-96062290D02*
G75*
G03*
X143233300Y-95822300I-240000J-10D01*
G01*
X142086700Y-94262290D02*
G75*
G02*
X142326700Y-94022300I240000J-10D01*
G01*
X142086685Y-97862290D02*
G75*
G02*
X142326685Y-97622285I240015J-10D01*
G01*
X143473315Y-97262290D02*
G75*
G03*
X143233315Y-97022285I-240015J-10D01*
G01*
X143473300Y-93662290D02*
G75*
G03*
X143233300Y-93422300I-240000J-10D01*
G01*
X142026690Y-99422290D02*
G75*
G02*
X141786710Y-99182290I10J239990D01*
G01*
X142086685Y-96662290D02*
G75*
G02*
X142326685Y-96422285I240015J-10D01*
G01*
X141786690Y-99062290D02*
G75*
G02*
X142026690Y-98822290I240010J-10D01*
G01*
X143233315Y-98822290D02*
G75*
G03*
X143473290Y-98582290I-15J239990D01*
G01*
X143233300Y-94022290D02*
G75*
G03*
X143473290Y-93782290I0J239990D01*
G01*
X143473300Y-94862290D02*
G75*
G03*
X143233300Y-94622300I-240000J-10D01*
G01*
X143473315Y-98462290D02*
G75*
G03*
X143233315Y-98222285I-240015J-10D01*
G01*
%TO.N,/agp_connectors/C{slash}BE2#*%
X123608248Y-91178112D02*
X123120000Y-91178112D01*
X123120000Y-97778112D02*
X123608236Y-97778112D01*
X122880000Y-86480406D02*
X122880000Y-58880000D01*
X123848248Y-90338112D02*
X123848248Y-90218112D01*
X123608248Y-95978112D02*
X123120000Y-95978112D01*
X122880000Y-89738112D02*
X122880000Y-89618112D01*
X122880000Y-92138112D02*
X122880000Y-92018112D01*
X123608236Y-98378112D02*
X123120000Y-98378112D01*
X122880000Y-96938112D02*
X122880000Y-96818112D01*
X122880000Y-95738112D02*
X122880000Y-95618112D01*
X122880000Y-90938112D02*
X122880000Y-90818112D01*
X123120000Y-95378112D02*
X123608248Y-95378112D01*
X123848248Y-91538112D02*
X123848248Y-91418112D01*
X123120000Y-98978112D02*
X123608236Y-98978112D01*
X122880000Y-105600000D02*
X122880000Y-99218112D01*
X123608236Y-97178112D02*
X123120000Y-97178112D01*
X123848248Y-93938112D02*
X123848248Y-93818112D01*
X123848248Y-96338112D02*
X123848248Y-96218112D01*
X123120000Y-92978112D02*
X123608248Y-92978112D01*
X123608248Y-93578112D02*
X123120000Y-93578112D01*
X123608248Y-94778112D02*
X123120000Y-94778112D01*
X122880000Y-58880000D02*
X122800000Y-58800000D01*
X123608248Y-92378112D02*
X123120000Y-92378112D01*
X122880000Y-94538112D02*
X122880000Y-94418112D01*
X122880000Y-98138112D02*
X122880000Y-98018112D01*
X123120000Y-94178112D02*
X123608248Y-94178112D01*
X122880000Y-89618112D02*
X122880000Y-86480406D01*
X123848248Y-95138112D02*
X123848248Y-95018112D01*
X123120000Y-90578112D02*
X123608248Y-90578112D01*
X123608248Y-89978112D02*
X123120000Y-89978112D01*
X123848236Y-97538112D02*
X123848236Y-97418112D01*
X122880000Y-93338112D02*
X122880000Y-93218112D01*
X123120000Y-91778112D02*
X123608248Y-91778112D01*
X123120000Y-96578112D02*
X123608248Y-96578112D01*
X123848248Y-92738112D02*
X123848248Y-92618112D01*
X123848236Y-98738112D02*
X123848236Y-98618112D01*
X123848248Y-95018112D02*
G75*
G03*
X123608248Y-94778052I-240048J12D01*
G01*
X123120000Y-94778112D02*
G75*
G02*
X122879988Y-94538112I0J240012D01*
G01*
X123608248Y-95378112D02*
G75*
G03*
X123848212Y-95138112I-48J240012D01*
G01*
X123608248Y-96578112D02*
G75*
G03*
X123848212Y-96338112I-48J240012D01*
G01*
X123608248Y-91778112D02*
G75*
G03*
X123848212Y-91538112I-48J240012D01*
G01*
X123120000Y-93578112D02*
G75*
G02*
X122879988Y-93338112I0J240012D01*
G01*
X123608248Y-92978112D02*
G75*
G03*
X123848212Y-92738112I-48J240012D01*
G01*
X123608236Y-98978112D02*
G75*
G03*
X123848212Y-98738112I-36J240012D01*
G01*
X123120000Y-95978112D02*
G75*
G02*
X122879988Y-95738112I0J240012D01*
G01*
X122880000Y-95618112D02*
G75*
G02*
X123120000Y-95378100I240000J12D01*
G01*
X123120000Y-97178112D02*
G75*
G02*
X122879988Y-96938112I0J240012D01*
G01*
X123608236Y-97778112D02*
G75*
G03*
X123848212Y-97538112I-36J240012D01*
G01*
X123848248Y-92618112D02*
G75*
G03*
X123608248Y-92378052I-240048J12D01*
G01*
X123120000Y-89978112D02*
G75*
G02*
X122879988Y-89738112I0J240012D01*
G01*
X123848248Y-96218112D02*
G75*
G03*
X123608248Y-95978052I-240048J12D01*
G01*
X123608248Y-90578112D02*
G75*
G03*
X123848212Y-90338112I-48J240012D01*
G01*
X122880000Y-96818112D02*
G75*
G02*
X123120000Y-96578100I240000J12D01*
G01*
X122880000Y-94418112D02*
G75*
G02*
X123120000Y-94178100I240000J12D01*
G01*
X123848248Y-93818112D02*
G75*
G03*
X123608248Y-93578052I-240048J12D01*
G01*
X122880000Y-93218112D02*
G75*
G02*
X123120000Y-92978100I240000J12D01*
G01*
X123848236Y-97418112D02*
G75*
G03*
X123608236Y-97178064I-240036J12D01*
G01*
X123848248Y-90218112D02*
G75*
G03*
X123608248Y-89978052I-240048J12D01*
G01*
X123608248Y-94178112D02*
G75*
G03*
X123848212Y-93938112I-48J240012D01*
G01*
X122880000Y-90818112D02*
G75*
G02*
X123120000Y-90578100I240000J12D01*
G01*
X122880000Y-98018112D02*
G75*
G02*
X123120000Y-97778100I240000J12D01*
G01*
X123120000Y-98378112D02*
G75*
G02*
X122879988Y-98138112I0J240012D01*
G01*
X122880000Y-99218112D02*
G75*
G02*
X123120000Y-98978100I240000J12D01*
G01*
X123120000Y-92378112D02*
G75*
G02*
X122879988Y-92138112I0J240012D01*
G01*
X122880000Y-92018112D02*
G75*
G02*
X123120000Y-91778100I240000J12D01*
G01*
X123120000Y-91178112D02*
G75*
G02*
X122879988Y-90938112I0J240012D01*
G01*
X123848248Y-91418112D02*
G75*
G03*
X123608248Y-91178052I-240048J12D01*
G01*
X123848236Y-98618112D02*
G75*
G03*
X123608236Y-98378064I-240036J12D01*
G01*
%TO.N,/agp_connectors/AD5*%
X146040000Y-100446064D02*
X146146448Y-100446064D01*
X144863549Y-98406064D02*
X144863549Y-98286064D01*
X145800000Y-98646064D02*
X145103549Y-98646064D01*
X145353549Y-96846064D02*
X145560000Y-96846064D01*
X146386448Y-99006064D02*
X146386448Y-98886064D01*
X146040000Y-99846064D02*
X145800000Y-99846064D01*
X145800000Y-84040266D02*
X145800000Y-56800000D01*
X145800000Y-97446064D02*
X145560000Y-97446064D01*
X145800000Y-99246064D02*
X146146448Y-99246064D01*
X146146448Y-99846064D02*
X146040000Y-99846064D01*
X144863551Y-99606064D02*
X144863551Y-99486064D01*
X146146448Y-98646064D02*
X145800000Y-98646064D01*
X145800000Y-96606064D02*
X145800000Y-96486064D01*
X146146448Y-97446064D02*
X145800000Y-97446064D01*
X146386448Y-97806064D02*
X146386448Y-97686064D01*
X145765000Y-108605000D02*
X145800000Y-108570000D01*
X145103549Y-98046064D02*
X145800000Y-98046064D01*
X145800000Y-96486064D02*
X145800000Y-84040266D01*
X145800000Y-98046064D02*
X146146448Y-98046064D01*
X145103551Y-99246064D02*
X145800000Y-99246064D01*
X145800000Y-99846064D02*
X145103551Y-99846064D01*
X145800000Y-108570000D02*
X145800000Y-100686064D01*
X145113549Y-97206064D02*
X145113549Y-97086064D01*
X145560000Y-97446064D02*
X145353549Y-97446064D01*
X146386448Y-100206064D02*
X146386448Y-100086064D01*
X145113549Y-97086064D02*
G75*
G02*
X145353549Y-96846149I239951J-36D01*
G01*
X146386448Y-97686064D02*
G75*
G03*
X146146448Y-97446052I-240048J-36D01*
G01*
X145353549Y-97446064D02*
G75*
G02*
X145113536Y-97206064I-49J239964D01*
G01*
X145800000Y-100686064D02*
G75*
G02*
X146040000Y-100446100I240000J-36D01*
G01*
X145103549Y-98646064D02*
G75*
G02*
X144863536Y-98406064I-49J239964D01*
G01*
X146386448Y-100086064D02*
G75*
G03*
X146146448Y-99846052I-240048J-36D01*
G01*
X145103551Y-99846064D02*
G75*
G02*
X144863536Y-99606064I-51J239964D01*
G01*
X146386448Y-98886064D02*
G75*
G03*
X146146448Y-98646052I-240048J-36D01*
G01*
X146146448Y-99246064D02*
G75*
G03*
X146386364Y-99006064I-48J239964D01*
G01*
X144863551Y-99486064D02*
G75*
G02*
X145103551Y-99246151I239949J-36D01*
G01*
X144863549Y-98286064D02*
G75*
G02*
X145103549Y-98046149I239951J-36D01*
G01*
X145560000Y-96846064D02*
G75*
G03*
X145799964Y-96606064I0J239964D01*
G01*
X146146448Y-100446064D02*
G75*
G03*
X146386364Y-100206064I-48J239964D01*
G01*
X146146448Y-98046064D02*
G75*
G03*
X146386364Y-97806064I-48J239964D01*
G01*
%TO.N,/agp_connectors/RBF#*%
X96715447Y-97860379D02*
X96255000Y-97860379D01*
X96715448Y-99060379D02*
X96015000Y-99060379D01*
X96015000Y-97620379D02*
X96015000Y-97500379D01*
X95614551Y-99660379D02*
X95775000Y-99660379D01*
X95775000Y-100260379D02*
X95614551Y-100260379D01*
X96255000Y-98460379D02*
X96715447Y-98460379D01*
X96015000Y-99060379D02*
X95614549Y-99060379D01*
X95374549Y-98820379D02*
X95374549Y-98700379D01*
X96015000Y-97500379D02*
X96015000Y-93524640D01*
X96015000Y-108605000D02*
X96015000Y-100500379D01*
X95614549Y-98460379D02*
X96015000Y-98460379D01*
X96015000Y-98460379D02*
X96255000Y-98460379D01*
X96015000Y-66385000D02*
X98203000Y-64197000D01*
X96955448Y-99420379D02*
X96955448Y-99300379D01*
X95800000Y-59194415D02*
X95800000Y-56800000D01*
X96015000Y-93524640D02*
X96015000Y-66385000D01*
X95374551Y-100020379D02*
X95374551Y-99900379D01*
X95775000Y-99660379D02*
X96015000Y-99660379D01*
X96015000Y-99660379D02*
X96715448Y-99660379D01*
X98203000Y-64197000D02*
X98203000Y-61597415D01*
X98203000Y-61597415D02*
X95800000Y-59194415D01*
X96955447Y-98220379D02*
X96955447Y-98100379D01*
X95374549Y-98700379D02*
G75*
G02*
X95614549Y-98460449I239951J-21D01*
G01*
X96255000Y-97860379D02*
G75*
G02*
X96015021Y-97620379I0J239979D01*
G01*
X96955448Y-99300379D02*
G75*
G03*
X96715448Y-99060352I-240048J-21D01*
G01*
X96015000Y-100500379D02*
G75*
G03*
X95775000Y-100260400I-240000J-21D01*
G01*
X96715447Y-98460379D02*
G75*
G03*
X96955379Y-98220379I-47J239979D01*
G01*
X95614551Y-100260379D02*
G75*
G02*
X95374521Y-100020379I-51J239979D01*
G01*
X96955447Y-98100379D02*
G75*
G03*
X96715447Y-97860353I-240047J-21D01*
G01*
X96715448Y-99660379D02*
G75*
G03*
X96955379Y-99420379I-48J239979D01*
G01*
X95614549Y-99060379D02*
G75*
G02*
X95374521Y-98820379I-49J239979D01*
G01*
X95374551Y-99900379D02*
G75*
G02*
X95614551Y-99660451I239949J-21D01*
G01*
%TO.N,/agp_connectors/INTB#*%
X90045000Y-89355000D02*
X91100000Y-88300000D01*
X90725448Y-98831668D02*
X90725448Y-98711668D01*
X89800000Y-67200000D02*
X89800000Y-56800000D01*
X89064551Y-99431668D02*
X89064551Y-99311668D01*
X90045000Y-97511668D02*
X90045000Y-92742876D01*
X90045000Y-99671668D02*
X89304551Y-99671668D01*
X89673898Y-100700566D02*
X89673898Y-100457219D01*
X90045000Y-92742876D02*
X90045000Y-89355000D01*
X90045000Y-108605000D02*
X90045000Y-101071668D01*
X89805000Y-98471668D02*
X89304551Y-98471668D01*
X89859449Y-100271668D02*
X90045000Y-100271668D01*
X90485448Y-99671668D02*
X90045000Y-99671668D01*
X91100000Y-68500000D02*
X89800000Y-67200000D01*
X89064551Y-98231668D02*
X89064551Y-98111668D01*
X90045000Y-97631668D02*
X90045000Y-97511668D01*
X90045000Y-100271668D02*
X90485448Y-100271668D01*
X90485448Y-98471668D02*
X90045000Y-98471668D01*
X90045000Y-99071668D02*
X90485448Y-99071668D01*
X90045000Y-98471668D02*
X89805000Y-98471668D01*
X90725448Y-100031668D02*
X90725448Y-99911668D01*
X91100000Y-88300000D02*
X91100000Y-68500000D01*
X89304551Y-97871668D02*
X89805000Y-97871668D01*
X89304551Y-99071668D02*
X90045000Y-99071668D01*
X89805000Y-97871668D02*
G75*
G03*
X90044968Y-97631668I0J239968D01*
G01*
X90485448Y-100271668D02*
G75*
G03*
X90725368Y-100031668I-48J239968D01*
G01*
X89064551Y-98111668D02*
G75*
G02*
X89304551Y-97871751I239949J-32D01*
G01*
X89304551Y-99671668D02*
G75*
G02*
X89064532Y-99431668I-51J239968D01*
G01*
X90485448Y-99071668D02*
G75*
G03*
X90725368Y-98831668I-48J239968D01*
G01*
X89064551Y-99311668D02*
G75*
G02*
X89304551Y-99071751I239949J-32D01*
G01*
X89304551Y-98471668D02*
G75*
G02*
X89064532Y-98231668I-51J239968D01*
G01*
X89673898Y-100457219D02*
G75*
G02*
X89859449Y-100271598I185602J19D01*
G01*
X90045000Y-101071668D02*
G75*
G03*
X89859449Y-100886100I-185600J-32D01*
G01*
X89859449Y-100886117D02*
G75*
G02*
X89673983Y-100700566I51J185517D01*
G01*
X90725448Y-99911668D02*
G75*
G03*
X90485448Y-99671652I-240048J-32D01*
G01*
X90725448Y-98711668D02*
G75*
G03*
X90485448Y-98471652I-240048J-32D01*
G01*
%TO.N,/agp_connectors/ST0*%
X94025000Y-91179348D02*
X94025000Y-61525000D01*
X94670312Y-98098751D02*
X94670312Y-97978751D01*
X94430312Y-98938751D02*
X94265000Y-98938751D01*
X93079664Y-96298751D02*
X93079664Y-96178751D01*
X94025000Y-96538751D02*
X93785000Y-96538751D01*
X93329686Y-98698751D02*
X93329686Y-98578751D01*
X93329686Y-97498751D02*
X93329686Y-97378751D01*
X94265000Y-98938751D02*
X94025000Y-98938751D01*
X94025000Y-95698751D02*
X94025000Y-95578751D01*
X94265000Y-99538751D02*
X94430312Y-99538751D01*
X94025000Y-97738751D02*
X93569686Y-97738751D01*
X93800000Y-61300000D02*
X93800000Y-56800000D01*
X93319664Y-95938751D02*
X93785000Y-95938751D01*
X94430312Y-97738751D02*
X94025000Y-97738751D01*
X94025000Y-108605000D02*
X94025000Y-99778751D01*
X94025000Y-95578751D02*
X94025000Y-91179348D01*
X93569686Y-97138751D02*
X94025000Y-97138751D01*
X93785000Y-96538751D02*
X93319664Y-96538751D01*
X93569686Y-98338751D02*
X94025000Y-98338751D01*
X94025000Y-97138751D02*
X94430327Y-97138751D01*
X94430327Y-96538751D02*
X94025000Y-96538751D01*
X94025000Y-98938751D02*
X93569686Y-98938751D01*
X94025000Y-61525000D02*
X93800000Y-61300000D01*
X94670327Y-96898751D02*
X94670327Y-96778751D01*
X94025000Y-98338751D02*
X94430312Y-98338751D01*
X94670312Y-99298751D02*
X94670312Y-99178751D01*
X94670327Y-96778751D02*
G75*
G03*
X94430327Y-96538673I-240027J51D01*
G01*
X93079664Y-96178751D02*
G75*
G02*
X93319664Y-95938664I240036J51D01*
G01*
X93329686Y-97378751D02*
G75*
G02*
X93569686Y-97138686I240014J51D01*
G01*
X93569686Y-97738751D02*
G75*
G02*
X93329749Y-97498751I14J239951D01*
G01*
X94430327Y-97138751D02*
G75*
G03*
X94670251Y-96898751I-27J239951D01*
G01*
X94025000Y-99778751D02*
G75*
G02*
X94265000Y-99538700I240000J51D01*
G01*
X93329686Y-98578751D02*
G75*
G02*
X93569686Y-98338686I240014J51D01*
G01*
X94430312Y-98338751D02*
G75*
G03*
X94670251Y-98098751I-12J239951D01*
G01*
X93569686Y-98938751D02*
G75*
G02*
X93329749Y-98698751I14J239951D01*
G01*
X94670312Y-97978751D02*
G75*
G03*
X94430312Y-97738688I-240012J51D01*
G01*
X94670312Y-99178751D02*
G75*
G03*
X94430312Y-98938688I-240012J51D01*
G01*
X94430312Y-99538751D02*
G75*
G03*
X94670251Y-99298751I-12J239951D01*
G01*
X93785000Y-95938751D02*
G75*
G03*
X94024951Y-95698751I0J239951D01*
G01*
X93319664Y-96538751D02*
G75*
G02*
X93079749Y-96298751I36J239951D01*
G01*
%TO.N,/agp_connectors/REQ#*%
X92275000Y-97830312D02*
X92718412Y-97830312D01*
X92035000Y-108605000D02*
X92035000Y-100470312D01*
X92958412Y-97590312D02*
X92958412Y-97470312D01*
X92035000Y-96990312D02*
X92035000Y-96870312D01*
X92035000Y-98430312D02*
X91651570Y-98430312D01*
X91411570Y-99390312D02*
X91411570Y-99270312D01*
X92275000Y-99630312D02*
X92035000Y-99630312D01*
X91800000Y-64700000D02*
X91800000Y-56800000D01*
X92468427Y-99630312D02*
X92275000Y-99630312D01*
X92708427Y-99990312D02*
X92708427Y-99870312D01*
X92035000Y-97830312D02*
X92275000Y-97830312D01*
X92275000Y-100230312D02*
X92468427Y-100230312D01*
X91651570Y-97830312D02*
X92035000Y-97830312D01*
X92035000Y-99030312D02*
X92718437Y-99030312D01*
X92035000Y-96870312D02*
X92035000Y-91600298D01*
X92958437Y-98790312D02*
X92958437Y-98670312D01*
X92035000Y-99630312D02*
X91651570Y-99630312D01*
X93000000Y-89400000D02*
X93000000Y-65900000D01*
X92035000Y-91600298D02*
X92035000Y-90365000D01*
X91411570Y-98190312D02*
X91411570Y-98070312D01*
X92035000Y-90365000D02*
X93000000Y-89400000D01*
X91651570Y-99030312D02*
X92035000Y-99030312D01*
X92718412Y-97230312D02*
X92275000Y-97230312D01*
X93000000Y-65900000D02*
X91800000Y-64700000D01*
X92718437Y-98430312D02*
X92035000Y-98430312D01*
X92718412Y-97830312D02*
G75*
G03*
X92958412Y-97590312I-12J240012D01*
G01*
X92958437Y-98670312D02*
G75*
G03*
X92718437Y-98430263I-240037J12D01*
G01*
X92718437Y-99030312D02*
G75*
G03*
X92958412Y-98790312I-37J240012D01*
G01*
X91411570Y-98070312D02*
G75*
G02*
X91651570Y-97830270I240030J12D01*
G01*
X92958412Y-97470312D02*
G75*
G03*
X92718412Y-97230288I-240012J12D01*
G01*
X92275000Y-97230312D02*
G75*
G02*
X92034988Y-96990312I0J240012D01*
G01*
X92468427Y-100230312D02*
G75*
G03*
X92708412Y-99990312I-27J240012D01*
G01*
X91651570Y-99630312D02*
G75*
G02*
X91411588Y-99390312I30J240012D01*
G01*
X92708427Y-99870312D02*
G75*
G03*
X92468427Y-99630273I-240027J12D01*
G01*
X91411570Y-99270312D02*
G75*
G02*
X91651570Y-99030270I240030J12D01*
G01*
X92035000Y-100470312D02*
G75*
G02*
X92275000Y-100230300I240000J12D01*
G01*
X91651570Y-98430312D02*
G75*
G02*
X91411588Y-98190312I30J240012D01*
G01*
%TO.N,/agp_connectors/AD21*%
X120600000Y-92060000D02*
X121306996Y-92060000D01*
X119893004Y-90860000D02*
X120600000Y-90860000D01*
X119653004Y-91220000D02*
X119653004Y-91100000D01*
X120600000Y-90260000D02*
X120360000Y-90260000D01*
X119893004Y-89660000D02*
X120360000Y-89660000D01*
X121546996Y-91820000D02*
X121546996Y-91700000D01*
X120600000Y-90860000D02*
X121306996Y-90860000D01*
X120600000Y-87662752D02*
X120600000Y-69000000D01*
X119653004Y-92420000D02*
X119653004Y-92300000D01*
X120360000Y-90260000D02*
X119893004Y-90260000D01*
X120840000Y-92660000D02*
X120600000Y-92660000D01*
X120600000Y-92660000D02*
X119893004Y-92660000D01*
X120600000Y-89300000D02*
X120600000Y-87662752D01*
X121600000Y-94500000D02*
X120600000Y-93500000D01*
X120600000Y-89420000D02*
X120600000Y-89300000D01*
X121306996Y-92660000D02*
X120840000Y-92660000D01*
X118900000Y-99900000D02*
X121600000Y-97200000D01*
X118800000Y-67200000D02*
X118800000Y-58800000D01*
X120600000Y-91460000D02*
X119893004Y-91460000D01*
X120600000Y-69000000D02*
X118800000Y-67200000D01*
X121306996Y-91460000D02*
X120600000Y-91460000D01*
X120840000Y-93260000D02*
X121306996Y-93260000D01*
X121546996Y-93020000D02*
X121546996Y-92900000D01*
X119893004Y-92060000D02*
X120600000Y-92060000D01*
X121306996Y-90260000D02*
X120600000Y-90260000D01*
X119653004Y-90020000D02*
X119653004Y-89900000D01*
X121600000Y-97200000D02*
X121600000Y-94500000D01*
X121546996Y-90620000D02*
X121546996Y-90500000D01*
X118900000Y-105600000D02*
X118900000Y-99900000D01*
X119653004Y-89900000D02*
G75*
G02*
X119893004Y-89660004I239996J0D01*
G01*
X120600000Y-93500000D02*
G75*
G02*
X120840000Y-93260000I240000J0D01*
G01*
X121306996Y-90860000D02*
G75*
G03*
X121547000Y-90620000I4J240000D01*
G01*
X119653004Y-91100000D02*
G75*
G02*
X119893004Y-90860004I239996J0D01*
G01*
X121546996Y-91700000D02*
G75*
G03*
X121306996Y-91460004I-239996J0D01*
G01*
X119893004Y-91460000D02*
G75*
G02*
X119653000Y-91220000I-4J240000D01*
G01*
X120360000Y-89660000D02*
G75*
G03*
X120600000Y-89420000I0J240000D01*
G01*
X119893004Y-92660000D02*
G75*
G02*
X119653000Y-92420000I-4J240000D01*
G01*
X119893004Y-90260000D02*
G75*
G02*
X119653000Y-90020000I-4J240000D01*
G01*
X119653004Y-92300000D02*
G75*
G02*
X119893004Y-92060004I239996J0D01*
G01*
X121546996Y-90500000D02*
G75*
G03*
X121306996Y-90260004I-239996J0D01*
G01*
X121546996Y-92900000D02*
G75*
G03*
X121306996Y-92660004I-239996J0D01*
G01*
X121306996Y-93260000D02*
G75*
G03*
X121547000Y-93020000I4J240000D01*
G01*
X121306996Y-92060000D02*
G75*
G03*
X121547000Y-91820000I4J240000D01*
G01*
%TO.N,/agp_connectors/SBA2*%
X101400000Y-90715489D02*
X100668737Y-90715489D01*
X100428737Y-90475489D02*
X100428737Y-90355489D01*
X101160000Y-94315489D02*
X100918737Y-94315489D01*
X101400000Y-87355489D02*
X101400000Y-84271085D01*
X101663402Y-89983788D02*
X101663402Y-89647190D01*
X101160000Y-88315489D02*
X100668737Y-88315489D01*
X101400000Y-93115489D02*
X100668737Y-93115489D01*
X101160000Y-93715489D02*
X101400000Y-93715489D01*
X101663402Y-88783788D02*
X101663402Y-88447190D01*
X101663402Y-91183788D02*
X101663402Y-90847190D01*
X101400000Y-90115489D02*
X101531701Y-90115489D01*
X101400000Y-87475489D02*
X101400000Y-87355489D01*
X100428737Y-91675489D02*
X100428737Y-91555489D01*
X101531701Y-90715489D02*
X101400000Y-90715489D01*
X100678737Y-94075489D02*
X100678737Y-93955489D01*
X101663402Y-93583788D02*
X101663402Y-93247190D01*
X101531701Y-89515489D02*
X101400000Y-89515489D01*
X101531701Y-91915489D02*
X101400000Y-91915489D01*
X101400000Y-92515489D02*
X101531701Y-92515489D01*
X100990000Y-105600000D02*
X100990000Y-100910000D01*
X101400000Y-91915489D02*
X100668737Y-91915489D01*
X101400000Y-66100000D02*
X100800000Y-65500000D01*
X100990000Y-100910000D02*
X101400000Y-100500000D01*
X101400000Y-91315489D02*
X101531701Y-91315489D01*
X101531701Y-93115489D02*
X101400000Y-93115489D01*
X101400000Y-89515489D02*
X100668737Y-89515489D01*
X100428737Y-88075489D02*
X100428737Y-87955489D01*
X101400000Y-88915489D02*
X101531701Y-88915489D01*
X101400000Y-88315489D02*
X101160000Y-88315489D01*
X101400000Y-100500000D02*
X101400000Y-94555489D01*
X100428737Y-92875489D02*
X100428737Y-92755489D01*
X100918737Y-93715489D02*
X101160000Y-93715489D01*
X101400000Y-93715489D02*
X101531701Y-93715489D01*
X100668737Y-92515489D02*
X101400000Y-92515489D01*
X100668737Y-88915489D02*
X101400000Y-88915489D01*
X101531701Y-88315489D02*
X101400000Y-88315489D01*
X101400000Y-84271085D02*
X101400000Y-66100000D01*
X100800000Y-65500000D02*
X100800000Y-58800000D01*
X101663402Y-92383788D02*
X101663402Y-92047190D01*
X100668737Y-90115489D02*
X101400000Y-90115489D01*
X100668737Y-91315489D02*
X101400000Y-91315489D01*
X100668737Y-87715489D02*
X101160000Y-87715489D01*
X100428737Y-89275489D02*
X100428737Y-89155489D01*
X101531701Y-90115489D02*
G75*
G03*
X101663389Y-89983788I-1J131689D01*
G01*
X101663402Y-93247190D02*
G75*
G03*
X101531701Y-93115498I-131702J-10D01*
G01*
X101400000Y-94555489D02*
G75*
G03*
X101160000Y-94315500I-240000J-11D01*
G01*
X101663402Y-89647190D02*
G75*
G03*
X101531701Y-89515498I-131702J-10D01*
G01*
X100428737Y-89155489D02*
G75*
G02*
X100668737Y-88915537I239963J-11D01*
G01*
X100668737Y-88315489D02*
G75*
G02*
X100428711Y-88075489I-37J239989D01*
G01*
X101663402Y-88447190D02*
G75*
G03*
X101531701Y-88315498I-131702J-10D01*
G01*
X100428737Y-87955489D02*
G75*
G02*
X100668737Y-87715537I239963J-11D01*
G01*
X100668737Y-90715489D02*
G75*
G02*
X100428711Y-90475489I-37J239989D01*
G01*
X101663402Y-92047190D02*
G75*
G03*
X101531701Y-91915498I-131702J-10D01*
G01*
X101663402Y-90847190D02*
G75*
G03*
X101531701Y-90715498I-131702J-10D01*
G01*
X100668737Y-89515489D02*
G75*
G02*
X100428711Y-89275489I-37J239989D01*
G01*
X100668737Y-93115489D02*
G75*
G02*
X100428711Y-92875489I-37J239989D01*
G01*
X101531701Y-91315489D02*
G75*
G03*
X101663389Y-91183788I-1J131689D01*
G01*
X100428737Y-90355489D02*
G75*
G02*
X100668737Y-90115537I239963J-11D01*
G01*
X101531701Y-92515489D02*
G75*
G03*
X101663389Y-92383788I-1J131689D01*
G01*
X100428737Y-92755489D02*
G75*
G02*
X100668737Y-92515537I239963J-11D01*
G01*
X100918737Y-94315489D02*
G75*
G02*
X100678711Y-94075489I-37J239989D01*
G01*
X100428737Y-91555489D02*
G75*
G02*
X100668737Y-91315537I239963J-11D01*
G01*
X101531701Y-88915489D02*
G75*
G03*
X101663389Y-88783788I-1J131689D01*
G01*
X100668737Y-91915489D02*
G75*
G02*
X100428711Y-91675489I-37J239989D01*
G01*
X100678737Y-93955489D02*
G75*
G02*
X100918737Y-93715537I239963J-11D01*
G01*
X101531701Y-93715489D02*
G75*
G03*
X101663389Y-93583788I-1J131689D01*
G01*
X101160000Y-87715489D02*
G75*
G03*
X101399989Y-87475489I0J239989D01*
G01*
%TO.N,/agp_connectors/SBA0*%
X98400000Y-87259185D02*
X98400000Y-87139185D01*
X99138368Y-91099185D02*
X98640000Y-91099185D01*
X99128380Y-93859185D02*
X99128380Y-93739185D01*
X99378368Y-89059185D02*
X99378368Y-88939185D01*
X98640000Y-88099185D02*
X99138368Y-88099185D01*
X98640000Y-89299185D02*
X99138368Y-89299185D01*
X98640000Y-91699185D02*
X99138368Y-91699185D01*
X99000000Y-105600000D02*
X99000000Y-100300000D01*
X99800000Y-59800000D02*
X98800000Y-58800000D01*
X98640000Y-92899185D02*
X99138368Y-92899185D01*
X98400000Y-84053269D02*
X98400000Y-82900000D01*
X99138368Y-92299185D02*
X98640000Y-92299185D01*
X99378368Y-91459185D02*
X99378368Y-91339185D01*
X98640000Y-94099185D02*
X98888380Y-94099185D01*
X98640000Y-86899185D02*
X99138368Y-86899185D01*
X98400000Y-93259185D02*
X98400000Y-93139185D01*
X98888380Y-93499185D02*
X98640000Y-93499185D01*
X99378368Y-92659185D02*
X99378368Y-92539185D01*
X99138368Y-89899185D02*
X98640000Y-89899185D01*
X98928380Y-95059185D02*
X98928380Y-94939185D01*
X98400000Y-86059185D02*
X98400000Y-85939185D01*
X98400000Y-85939185D02*
X98400000Y-84053269D01*
X99378368Y-90259185D02*
X99378368Y-90139185D01*
X98400000Y-82900000D02*
X99800000Y-81500000D01*
X98688380Y-94699185D02*
X98640000Y-94699185D01*
X99800000Y-81500000D02*
X99800000Y-59800000D01*
X99378368Y-86659185D02*
X99378368Y-86539185D01*
X99138368Y-88699185D02*
X98640000Y-88699185D01*
X98400000Y-92059185D02*
X98400000Y-91939185D01*
X98400000Y-88459185D02*
X98400000Y-88339185D01*
X99378368Y-87859185D02*
X99378368Y-87739185D01*
X98640000Y-90499185D02*
X99138368Y-90499185D01*
X98400000Y-90859185D02*
X98400000Y-90739185D01*
X98400000Y-94459185D02*
X98400000Y-94339185D01*
X98400000Y-89659185D02*
X98400000Y-89539185D01*
X99138368Y-86299185D02*
X98640000Y-86299185D01*
X98640000Y-95299185D02*
X98688380Y-95299185D01*
X99138368Y-87499185D02*
X98640000Y-87499185D01*
X99000000Y-100300000D02*
X98400000Y-99700000D01*
X98400000Y-99700000D02*
X98400000Y-95539185D01*
X98688380Y-95299185D02*
G75*
G03*
X98928385Y-95059185I20J239985D01*
G01*
X98928380Y-94939185D02*
G75*
G03*
X98688380Y-94699220I-239980J-15D01*
G01*
X99138368Y-92899185D02*
G75*
G03*
X99378385Y-92659185I32J239985D01*
G01*
X98400000Y-91939185D02*
G75*
G02*
X98640000Y-91699200I240000J-15D01*
G01*
X99128380Y-93739185D02*
G75*
G03*
X98888380Y-93499220I-239980J-15D01*
G01*
X98640000Y-93499185D02*
G75*
G02*
X98400015Y-93259185I0J239985D01*
G01*
X98888380Y-94099185D02*
G75*
G03*
X99128385Y-93859185I20J239985D01*
G01*
X98400000Y-94339185D02*
G75*
G02*
X98640000Y-94099200I240000J-15D01*
G01*
X98400000Y-88339185D02*
G75*
G02*
X98640000Y-88099200I240000J-15D01*
G01*
X98400000Y-89539185D02*
G75*
G02*
X98640000Y-89299200I240000J-15D01*
G01*
X99378368Y-88939185D02*
G75*
G03*
X99138368Y-88699232I-239968J-15D01*
G01*
X98640000Y-89899185D02*
G75*
G02*
X98400015Y-89659185I0J239985D01*
G01*
X98400000Y-90739185D02*
G75*
G02*
X98640000Y-90499200I240000J-15D01*
G01*
X99378368Y-90139185D02*
G75*
G03*
X99138368Y-89899232I-239968J-15D01*
G01*
X99378368Y-86539185D02*
G75*
G03*
X99138368Y-86299232I-239968J-15D01*
G01*
X99138368Y-86899185D02*
G75*
G03*
X99378385Y-86659185I32J239985D01*
G01*
X98640000Y-87499185D02*
G75*
G02*
X98400015Y-87259185I0J239985D01*
G01*
X98400000Y-93139185D02*
G75*
G02*
X98640000Y-92899200I240000J-15D01*
G01*
X99138368Y-88099185D02*
G75*
G03*
X99378385Y-87859185I32J239985D01*
G01*
X98640000Y-94699185D02*
G75*
G02*
X98400015Y-94459185I0J239985D01*
G01*
X99138368Y-90499185D02*
G75*
G03*
X99378385Y-90259185I32J239985D01*
G01*
X98640000Y-86299185D02*
G75*
G02*
X98400015Y-86059185I0J239985D01*
G01*
X98400000Y-95539185D02*
G75*
G02*
X98640000Y-95299200I240000J-15D01*
G01*
X99378368Y-91339185D02*
G75*
G03*
X99138368Y-91099232I-239968J-15D01*
G01*
X99378368Y-92539185D02*
G75*
G03*
X99138368Y-92299232I-239968J-15D01*
G01*
X98400000Y-87139185D02*
G75*
G02*
X98640000Y-86899200I240000J-15D01*
G01*
X99138368Y-89299185D02*
G75*
G03*
X99378385Y-89059185I32J239985D01*
G01*
X99138368Y-91699185D02*
G75*
G03*
X99378385Y-91459185I32J239985D01*
G01*
X98640000Y-88699185D02*
G75*
G02*
X98400015Y-88459185I0J239985D01*
G01*
X98640000Y-92299185D02*
G75*
G02*
X98400015Y-92059185I0J239985D01*
G01*
X99378368Y-87739185D02*
G75*
G03*
X99138368Y-87499232I-239968J-15D01*
G01*
X98640000Y-91099185D02*
G75*
G02*
X98400015Y-90859185I0J239985D01*
G01*
%TO.N,/agp_connectors/SB_STB*%
X102225000Y-100466937D02*
X102267997Y-100466937D01*
X102000000Y-61500000D02*
X101800000Y-61300000D01*
X101985000Y-96866937D02*
X102225000Y-96866937D01*
X102957997Y-96626937D02*
X102957997Y-96506937D01*
X102957997Y-97826937D02*
X102957997Y-97706937D01*
X101985000Y-96026937D02*
X101985000Y-95906937D01*
X101719400Y-98534137D02*
X101719400Y-98199737D01*
X102225000Y-99866937D02*
X101985000Y-99866937D01*
X101852200Y-98066937D02*
X101985000Y-98066937D01*
X102225000Y-96866937D02*
X102717997Y-96866937D01*
X101985000Y-89469179D02*
X101985000Y-61515000D01*
X101985000Y-61515000D02*
X102000000Y-61500000D01*
X102717997Y-96266937D02*
X102225000Y-96266937D01*
X102717997Y-97466937D02*
X101985000Y-97466937D01*
X101852200Y-96866937D02*
X101985000Y-96866937D01*
X102507997Y-100226937D02*
X102507997Y-100106937D01*
X102717997Y-98666937D02*
X101985000Y-98666937D01*
X102957997Y-99026937D02*
X102957997Y-98906937D01*
X101852200Y-99266937D02*
X101985000Y-99266937D01*
X101985000Y-99866937D02*
X101852200Y-99866937D01*
X101985000Y-99266937D02*
X102717997Y-99266937D01*
X101719400Y-99734137D02*
X101719400Y-99399737D01*
X101985000Y-95906937D02*
X101985000Y-89469179D01*
X101985000Y-108605000D02*
X101985000Y-100706937D01*
X101800000Y-61300000D02*
X101800000Y-56800000D01*
X101985000Y-98666937D02*
X101852200Y-98666937D01*
X101719400Y-97334137D02*
X101719400Y-96999737D01*
X101985000Y-97466937D02*
X101852200Y-97466937D01*
X101985000Y-98066937D02*
X102717997Y-98066937D01*
X102267997Y-99866937D02*
X102225000Y-99866937D01*
X101719400Y-98199737D02*
G75*
G02*
X101852200Y-98066900I132800J37D01*
G01*
X101852200Y-97466937D02*
G75*
G02*
X101719363Y-97334137I0J132837D01*
G01*
X102267997Y-100466937D02*
G75*
G03*
X102508037Y-100226937I3J240037D01*
G01*
X102507997Y-100106937D02*
G75*
G03*
X102267997Y-99866903I-239997J37D01*
G01*
X101985000Y-100706937D02*
G75*
G02*
X102225000Y-100466900I240000J37D01*
G01*
X102225000Y-96266937D02*
G75*
G02*
X101984963Y-96026937I0J240037D01*
G01*
X102957997Y-97706937D02*
G75*
G03*
X102717997Y-97466903I-239997J37D01*
G01*
X102717997Y-99266937D02*
G75*
G03*
X102958037Y-99026937I3J240037D01*
G01*
X102957997Y-98906937D02*
G75*
G03*
X102717997Y-98666903I-239997J37D01*
G01*
X101852200Y-99866937D02*
G75*
G02*
X101719363Y-99734137I0J132837D01*
G01*
X102717997Y-98066937D02*
G75*
G03*
X102958037Y-97826937I3J240037D01*
G01*
X101852200Y-98666937D02*
G75*
G02*
X101719363Y-98534137I0J132837D01*
G01*
X102957997Y-96506937D02*
G75*
G03*
X102717997Y-96266903I-239997J37D01*
G01*
X101719400Y-96999737D02*
G75*
G02*
X101852200Y-96866900I132800J37D01*
G01*
X102717997Y-96866937D02*
G75*
G03*
X102958037Y-96626937I3J240037D01*
G01*
X101719400Y-99399737D02*
G75*
G02*
X101852200Y-99266900I132800J37D01*
G01*
%TO.N,/agp_connectors/CLK*%
X91303000Y-61697000D02*
X91303000Y-59303000D01*
X90629700Y-92364749D02*
X91040000Y-92364749D01*
X91040000Y-91404749D02*
X91040000Y-90460000D01*
X91450316Y-94164749D02*
X91040000Y-94164749D01*
X91450316Y-92964749D02*
X91040000Y-92964749D01*
X91450316Y-95364749D02*
X91040000Y-95364749D01*
X91690316Y-96924749D02*
X91690316Y-96804749D01*
X91499619Y-90000380D02*
X91920991Y-89579009D01*
X91040000Y-95364749D02*
X90629684Y-95364749D01*
X90629684Y-95964749D02*
X91040000Y-95964749D01*
X90629684Y-97164749D02*
X90800000Y-97164749D01*
X90800000Y-62200000D02*
X91303000Y-61697000D01*
X90389684Y-97524749D02*
X90389684Y-97404749D01*
X92200000Y-66000000D02*
X90800000Y-64600000D01*
X91040000Y-105600000D02*
X91040000Y-98004749D01*
X90629684Y-93564749D02*
X91040000Y-93564749D01*
X92200000Y-89300000D02*
X92200000Y-66000000D01*
X91303000Y-59303000D02*
X90800000Y-58800000D01*
X90389700Y-92724749D02*
X90389700Y-92604749D01*
X91450316Y-96564749D02*
X91040000Y-96564749D01*
X90800000Y-97764749D02*
X90629684Y-97764749D01*
X91040000Y-90460000D02*
X91499619Y-90000380D01*
X91450300Y-91764749D02*
X91280000Y-91764749D01*
X90629684Y-94764749D02*
X91040000Y-94764749D01*
X91040000Y-94764749D02*
X91450316Y-94764749D01*
X91040000Y-93564749D02*
X91450316Y-93564749D01*
X90389684Y-96324749D02*
X90389684Y-96204749D01*
X91690316Y-95724749D02*
X91690316Y-95604749D01*
X90389684Y-95124749D02*
X90389684Y-95004749D01*
X91040000Y-97164749D02*
X91450316Y-97164749D01*
X90389684Y-93924749D02*
X90389684Y-93804749D01*
X91040000Y-91524749D02*
X91040000Y-91404749D01*
X91690300Y-92124749D02*
X91690300Y-92004749D01*
X91690316Y-93324749D02*
X91690316Y-93204749D01*
X91280000Y-92364749D02*
X91450300Y-92364749D01*
X91040000Y-96564749D02*
X90629684Y-96564749D01*
X91040000Y-92964749D02*
X90629700Y-92964749D01*
X90800000Y-64600000D02*
X90800000Y-62200000D01*
X91040000Y-92364749D02*
X91280000Y-92364749D01*
X91040000Y-94164749D02*
X90629684Y-94164749D01*
X91920991Y-89579009D02*
X92200000Y-89300000D01*
X91040000Y-95964749D02*
X91450316Y-95964749D01*
X90800000Y-97164749D02*
X91040000Y-97164749D01*
X91690316Y-94524749D02*
X91690316Y-94404749D01*
X91690316Y-94404749D02*
G75*
G03*
X91450316Y-94164684I-240016J49D01*
G01*
X90629684Y-96564749D02*
G75*
G02*
X90389751Y-96324749I16J239949D01*
G01*
X91690316Y-95604749D02*
G75*
G03*
X91450316Y-95364684I-240016J49D01*
G01*
X91690300Y-92004749D02*
G75*
G03*
X91450300Y-91764700I-240000J49D01*
G01*
X90389684Y-97404749D02*
G75*
G02*
X90629684Y-97164684I240016J49D01*
G01*
X90389684Y-93804749D02*
G75*
G02*
X90629684Y-93564684I240016J49D01*
G01*
X91690316Y-96804749D02*
G75*
G03*
X91450316Y-96564684I-240016J49D01*
G01*
X90389700Y-92604749D02*
G75*
G02*
X90629700Y-92364700I240000J49D01*
G01*
X90629684Y-95364749D02*
G75*
G02*
X90389751Y-95124749I16J239949D01*
G01*
X90629700Y-92964749D02*
G75*
G02*
X90389751Y-92724749I0J239949D01*
G01*
X91690316Y-93204749D02*
G75*
G03*
X91450316Y-92964684I-240016J49D01*
G01*
X91280000Y-91764749D02*
G75*
G02*
X91040051Y-91524749I0J239949D01*
G01*
X91450316Y-97164749D02*
G75*
G03*
X91690249Y-96924749I-16J239949D01*
G01*
X91450316Y-95964749D02*
G75*
G03*
X91690249Y-95724749I-16J239949D01*
G01*
X91450316Y-94764749D02*
G75*
G03*
X91690249Y-94524749I-16J239949D01*
G01*
X91450300Y-92364749D02*
G75*
G03*
X91690249Y-92124749I0J239949D01*
G01*
X91450316Y-93564749D02*
G75*
G03*
X91690249Y-93324749I-16J239949D01*
G01*
X91040000Y-98004749D02*
G75*
G03*
X90800000Y-97764700I-240000J49D01*
G01*
X90389684Y-96204749D02*
G75*
G02*
X90629684Y-95964684I240016J49D01*
G01*
X90389684Y-95004749D02*
G75*
G02*
X90629684Y-94764684I240016J49D01*
G01*
X90629684Y-97764749D02*
G75*
G02*
X90389751Y-97524749I16J239949D01*
G01*
X90629684Y-94164749D02*
G75*
G02*
X90389751Y-93924749I16J239949D01*
G01*
%TO.N,/agp_connectors/DEVSEL#*%
X129800000Y-108560000D02*
X129800000Y-100391051D01*
X129800000Y-96791051D02*
X129800000Y-91172162D01*
X128956935Y-99911051D02*
X128956935Y-99791051D01*
X129800000Y-98951051D02*
X129196935Y-98951051D01*
X129196935Y-99551051D02*
X129560000Y-99551051D01*
X129800000Y-97751051D02*
X129560000Y-97751051D01*
X130643065Y-99311051D02*
X130643065Y-99191051D01*
X128956911Y-97511051D02*
X128956911Y-97391051D01*
X129196935Y-98351051D02*
X129800000Y-98351051D01*
X129800000Y-91172162D02*
X129800000Y-56800000D01*
X130403065Y-98951051D02*
X129800000Y-98951051D01*
X130403065Y-97751051D02*
X129800000Y-97751051D01*
X128956935Y-98711051D02*
X128956935Y-98591051D01*
X129560000Y-97751051D02*
X129196911Y-97751051D01*
X130643065Y-98111051D02*
X130643065Y-97991051D01*
X129845000Y-108605000D02*
X129800000Y-108560000D01*
X129560000Y-100151051D02*
X129196935Y-100151051D01*
X129560000Y-99551051D02*
X129800000Y-99551051D01*
X129196911Y-97151051D02*
X129560000Y-97151051D01*
X129800000Y-98351051D02*
X130403065Y-98351051D01*
X129800000Y-96911051D02*
X129800000Y-96791051D01*
X129800000Y-99551051D02*
X130403065Y-99551051D01*
X130643065Y-97991051D02*
G75*
G03*
X130403065Y-97751035I-239965J51D01*
G01*
X129196935Y-98951051D02*
G75*
G02*
X128956949Y-98711051I-35J239951D01*
G01*
X130403065Y-98351051D02*
G75*
G03*
X130643051Y-98111051I35J239951D01*
G01*
X128956935Y-99791051D02*
G75*
G02*
X129196935Y-99551035I239965J51D01*
G01*
X128956935Y-98591051D02*
G75*
G02*
X129196935Y-98351035I239965J51D01*
G01*
X129560000Y-97151051D02*
G75*
G03*
X129799951Y-96911051I0J239951D01*
G01*
X129800000Y-100391051D02*
G75*
G03*
X129560000Y-100151000I-240000J51D01*
G01*
X130643065Y-99191051D02*
G75*
G03*
X130403065Y-98951035I-239965J51D01*
G01*
X128956911Y-97391051D02*
G75*
G02*
X129196911Y-97151011I239989J51D01*
G01*
X129196911Y-97751051D02*
G75*
G02*
X128956949Y-97511051I-11J239951D01*
G01*
X130403065Y-99551051D02*
G75*
G03*
X130643051Y-99311051I35J239951D01*
G01*
X129196935Y-100151051D02*
G75*
G02*
X128956949Y-99911051I-35J239951D01*
G01*
D56*
%TO.N,VBUS_OUT_VDDQ*%
X117800000Y-49200000D02*
X117900000Y-49100000D01*
D51*
X154325000Y-95725000D02*
X154325000Y-96925000D01*
D56*
X130825000Y-58825000D02*
X130800000Y-58800000D01*
X117800000Y-52800000D02*
X117800000Y-49200000D01*
D52*
X117700000Y-80300000D02*
X118300000Y-80900000D01*
D50*
X117700000Y-78487500D02*
X117700000Y-76200000D01*
D51*
X154325000Y-96925000D02*
X154400000Y-97000000D01*
D56*
X130825000Y-62600000D02*
X130825000Y-58825000D01*
D52*
X117700000Y-78487500D02*
X117700000Y-80300000D01*
D56*
%TO.N,VBUS_OUT_3.3V*%
X92800000Y-58800000D02*
X92800000Y-62550000D01*
X92800000Y-62550000D02*
X92750000Y-62600000D01*
X99800000Y-52800000D02*
X99800000Y-49125000D01*
D50*
X110700000Y-76300000D02*
X110600000Y-76200000D01*
D56*
X99800000Y-49125000D02*
X99925000Y-49000000D01*
D52*
X110700000Y-80300000D02*
X111300000Y-80900000D01*
D51*
X161125000Y-96925000D02*
X161200000Y-97000000D01*
X161125000Y-95725000D02*
X161125000Y-96925000D01*
D52*
X110700000Y-78487500D02*
X110700000Y-80300000D01*
D50*
X110700000Y-78487500D02*
X110700000Y-76300000D01*
D52*
%TO.N,VBUS_OUT_5V*%
X88300000Y-78587500D02*
X88300000Y-80600000D01*
D57*
X85800000Y-57800000D02*
X86800000Y-58800000D01*
D52*
X88300000Y-80600000D02*
X88600000Y-80900000D01*
D51*
X157725000Y-95725000D02*
X157725000Y-96925000D01*
D57*
X85800000Y-56800000D02*
X85800000Y-57800000D01*
D52*
X88600000Y-80900000D02*
X88800000Y-81100000D01*
D57*
X86800000Y-58800000D02*
X86800000Y-61325000D01*
X88175000Y-62700000D02*
X88175000Y-64525000D01*
X86800000Y-61325000D02*
X88175000Y-62700000D01*
X88175000Y-64525000D02*
X88100000Y-64600000D01*
D51*
X157725000Y-96925000D02*
X157800000Y-97000000D01*
D50*
X88300000Y-78587500D02*
X88300000Y-76300000D01*
D57*
%TO.N,VBUS_OUT_12V*%
X80325000Y-59875000D02*
X84800000Y-55400000D01*
D52*
X78115152Y-81122000D02*
X81178000Y-81122000D01*
X103300000Y-44300000D02*
X79800000Y-44300000D01*
X78000000Y-81006848D02*
X78115152Y-81122000D01*
X78000000Y-46100000D02*
X78000000Y-81006848D01*
X105362500Y-43562500D02*
X104037500Y-43562500D01*
D50*
X81300000Y-78587500D02*
X81300000Y-76300000D01*
D52*
X104037500Y-43562500D02*
X103300000Y-44300000D01*
D57*
X80325000Y-64625000D02*
X80400000Y-64700000D01*
X84800000Y-55400000D02*
X84800000Y-54800000D01*
X80325000Y-62700000D02*
X80325000Y-64625000D01*
D52*
X79800000Y-44300000D02*
X78000000Y-46100000D01*
X81178000Y-81122000D02*
X81300000Y-81000000D01*
D57*
X80325000Y-62700000D02*
X80325000Y-59875000D01*
D52*
X81300000Y-81000000D02*
X81300000Y-78587500D01*
D53*
%TO.N,EXT_IN_5V*%
X157750000Y-74775000D02*
X157750000Y-73750000D01*
X157750000Y-73750000D02*
X157800000Y-73700000D01*
%TO.N,EXT_OUT_5V*%
X159350000Y-74775000D02*
X159350000Y-73750000D01*
X159350000Y-73750000D02*
X159300000Y-73700000D01*
%TO.N,EXT_OUT_12V*%
X156100000Y-74775000D02*
X156100000Y-73700000D01*
%TO.N,EXT_IN_12V*%
X154500000Y-74775000D02*
X154500000Y-73700000D01*
%TO.N,EXT_OUT_12V_PCIE*%
X162600000Y-74775000D02*
X162600000Y-73800000D01*
%TO.N,EXT_IN_12V_PCIE*%
X161000000Y-74775000D02*
X161000000Y-73800000D01*
D55*
%TO.N,+3.3V*%
X171125000Y-56800000D02*
X171125000Y-56750000D01*
D51*
X160600000Y-86900000D02*
X162025000Y-86900000D01*
D54*
X186100000Y-69700000D02*
X175100000Y-69700000D01*
X158625000Y-63100000D02*
X158600000Y-63075000D01*
X169000000Y-65700000D02*
X168500000Y-65200000D01*
X174480000Y-69080000D02*
X174480000Y-67900000D01*
X169700000Y-65700000D02*
X169700000Y-64300000D01*
D51*
X113200000Y-43000000D02*
X113200000Y-43825000D01*
D54*
X169007282Y-55125000D02*
X169500000Y-55125000D01*
D51*
X161137500Y-87787500D02*
X162100000Y-86825000D01*
D54*
X183400000Y-62500000D02*
X186300000Y-62500000D01*
X169700000Y-65700000D02*
X169000000Y-65700000D01*
D51*
X162025000Y-86900000D02*
X162100000Y-86825000D01*
D55*
X159750000Y-62050000D02*
X160637500Y-62050000D01*
X170750000Y-58050000D02*
X171125000Y-57675000D01*
X167550000Y-64250000D02*
X168500000Y-65200000D01*
D54*
X186480000Y-69320000D02*
X186100000Y-69700000D01*
X183200000Y-63150000D02*
X183200000Y-62700000D01*
X174480000Y-65980000D02*
X174200000Y-65700000D01*
X167500000Y-56800000D02*
X167500000Y-56632282D01*
X186300000Y-62500000D02*
X186525000Y-62725000D01*
D51*
X114175000Y-42975000D02*
X114100000Y-42900000D01*
X159500000Y-90625000D02*
X160225000Y-90625000D01*
D54*
X186525000Y-67855000D02*
X186480000Y-67900000D01*
D53*
X156475000Y-84275000D02*
X156500000Y-84300000D01*
D51*
X114175000Y-44800000D02*
X114175000Y-42975000D01*
D54*
X169700000Y-64300000D02*
X169200000Y-63800000D01*
X174200000Y-65700000D02*
X169700000Y-65700000D01*
X167500000Y-56632282D02*
X169007282Y-55125000D01*
X186525000Y-62725000D02*
X186525000Y-63500000D01*
X183200000Y-62700000D02*
X183400000Y-62500000D01*
D55*
X162050000Y-54025000D02*
X161225000Y-53200000D01*
D54*
X186480000Y-67900000D02*
X186480000Y-69320000D01*
X160200000Y-55200000D02*
X160200000Y-54225000D01*
D53*
X156662500Y-83250000D02*
X156025000Y-83250000D01*
D54*
X153775000Y-84275000D02*
X153700000Y-84200000D01*
D53*
X156912500Y-80412500D02*
X156800000Y-80300000D01*
D55*
X171125000Y-57675000D02*
X171125000Y-56800000D01*
D53*
X157550000Y-80412500D02*
X156912500Y-80412500D01*
D54*
X155000000Y-84275000D02*
X153775000Y-84275000D01*
D53*
X156025000Y-83250000D02*
X155000000Y-84275000D01*
D51*
X110362500Y-42112500D02*
X110362500Y-42862500D01*
D54*
X186525000Y-63500000D02*
X186525000Y-65100000D01*
D53*
X155000000Y-84275000D02*
X156475000Y-84275000D01*
D55*
X158725000Y-63075000D02*
X159750000Y-62050000D01*
X158600000Y-63075000D02*
X158725000Y-63075000D01*
X162050000Y-55137500D02*
X162050000Y-54025000D01*
D51*
X160225000Y-90625000D02*
X160300000Y-90700000D01*
D54*
X174480000Y-67900000D02*
X174480000Y-65980000D01*
X186525000Y-65100000D02*
X186525000Y-67855000D01*
D55*
X168962500Y-58050000D02*
X170750000Y-58050000D01*
D54*
X160200000Y-54225000D02*
X161225000Y-53200000D01*
X160200000Y-63100000D02*
X158625000Y-63100000D01*
D55*
X167550000Y-63462500D02*
X167550000Y-64250000D01*
D54*
X163225000Y-86825000D02*
X163300000Y-86900000D01*
D51*
X113200000Y-43825000D02*
X114175000Y-44800000D01*
D55*
X171125000Y-56750000D02*
X169500000Y-55125000D01*
D54*
X162100000Y-86825000D02*
X163225000Y-86825000D01*
D51*
X160387500Y-87787500D02*
X161137500Y-87787500D01*
X110362500Y-42862500D02*
X110400000Y-42900000D01*
D54*
X175100000Y-69700000D02*
X174480000Y-69080000D01*
D51*
%TO.N,Net-(U402-IN+1)*%
X155925000Y-90475000D02*
X155925000Y-92500000D01*
X155925000Y-94075000D02*
X155925000Y-92500000D01*
X156662500Y-89737500D02*
X155925000Y-90475000D01*
%TO.N,Net-(U402-IN-1)*%
X154375000Y-90862501D02*
X154375000Y-92500000D01*
X154325000Y-92550000D02*
X154375000Y-92500000D01*
X156150001Y-89087500D02*
X154375000Y-90862501D01*
X154325000Y-94075000D02*
X154325000Y-92550000D01*
X156662500Y-89087500D02*
X156150001Y-89087500D01*
%TO.N,Net-(U402-IN+2)*%
X158850000Y-90625000D02*
X158850000Y-92025000D01*
X159325000Y-94075000D02*
X159325000Y-92500000D01*
X158850000Y-92025000D02*
X159325000Y-92500000D01*
D55*
%TO.N,SCL*%
X120676638Y-41140500D02*
X121172000Y-41635862D01*
X121172000Y-46072000D02*
X121728000Y-46628000D01*
X151528000Y-50428000D02*
X155300000Y-54200000D01*
X121728000Y-46628000D02*
X124364138Y-46628000D01*
X121172000Y-41635862D02*
X121172000Y-46072000D01*
X114778000Y-41462500D02*
X115100000Y-41140500D01*
X158850000Y-85750000D02*
X158200000Y-85100000D01*
X158200000Y-85100000D02*
X157600000Y-85100000D01*
D53*
X183200000Y-67160000D02*
X183940000Y-67900000D01*
D55*
X157000000Y-85700000D02*
X156900000Y-85700000D01*
X115100000Y-41140500D02*
X120676638Y-41140500D01*
X164550000Y-63462500D02*
X164550000Y-64350000D01*
X157600000Y-85100000D02*
X157200000Y-85500000D01*
D53*
X183200000Y-65050000D02*
X183200000Y-67160000D01*
D55*
X155300000Y-68900000D02*
X155800000Y-69400000D01*
X124772000Y-47035862D02*
X124772000Y-49735862D01*
X158850000Y-86900000D02*
X158850000Y-85750000D01*
X155800000Y-69400000D02*
X159400000Y-69400000D01*
X151528000Y-50428000D02*
X125464138Y-50428000D01*
X163900000Y-65000000D02*
X163300000Y-65000000D01*
X158200000Y-85100000D02*
X158200000Y-84137500D01*
X114087500Y-41462500D02*
X114778000Y-41462500D01*
D53*
X183200000Y-65050000D02*
X184825000Y-65050000D01*
D55*
X125464138Y-50428000D02*
X124772000Y-49735862D01*
X163000000Y-65300000D02*
X163000000Y-65800000D01*
X114087500Y-42112500D02*
X114087500Y-41462500D01*
X124364138Y-46628000D02*
X124772000Y-47035862D01*
X163300000Y-65000000D02*
X163000000Y-65300000D01*
D53*
X184825000Y-65050000D02*
X184875000Y-65100000D01*
D55*
X156900000Y-85700000D02*
X156500000Y-85700000D01*
X164550000Y-64350000D02*
X163900000Y-65000000D01*
X155300000Y-54200000D02*
X155300000Y-68900000D01*
X157200000Y-85500000D02*
X157000000Y-85700000D01*
%TO.N,SDA*%
X165050000Y-63462500D02*
X165050000Y-64386138D01*
X125100000Y-49600000D02*
X125100000Y-46900000D01*
D53*
X181200000Y-65050000D02*
X181200000Y-67700000D01*
X184200000Y-64200000D02*
X182050000Y-64200000D01*
D55*
X158200000Y-86000000D02*
X157900000Y-85700000D01*
X121900000Y-46300000D02*
X121500000Y-45900000D01*
X125600000Y-50100000D02*
X125100000Y-49600000D01*
X159500000Y-85400000D02*
X159500000Y-86900000D01*
X158200000Y-86900000D02*
X158200000Y-86000000D01*
X124500000Y-46300000D02*
X121900000Y-46300000D01*
X158850000Y-84137500D02*
X158850000Y-84750000D01*
X120812500Y-40812500D02*
X114087500Y-40812500D01*
X158850000Y-84750000D02*
X159500000Y-85400000D01*
D53*
X184875000Y-63525000D02*
X184200000Y-64200000D01*
D55*
X155935862Y-69072000D02*
X155628000Y-68764138D01*
D53*
X181200000Y-67700000D02*
X181400000Y-67900000D01*
D55*
X159500000Y-85400000D02*
X160300000Y-85400000D01*
X121500000Y-41500000D02*
X120812500Y-40812500D01*
X159400000Y-68400000D02*
X158728000Y-69072000D01*
X155628000Y-54064138D02*
X154700000Y-53136138D01*
X154700000Y-53136138D02*
X154700000Y-53100000D01*
X158728000Y-69072000D02*
X155935862Y-69072000D01*
X155628000Y-68764138D02*
X155628000Y-54064138D01*
X151700000Y-50100000D02*
X125600000Y-50100000D01*
X125100000Y-46900000D02*
X124500000Y-46300000D01*
X121500000Y-45900000D02*
X121500000Y-41500000D01*
D53*
X184875000Y-63500000D02*
X184875000Y-63525000D01*
D55*
X165050000Y-64386138D02*
X164200000Y-65236138D01*
X164200000Y-65236138D02*
X164200000Y-65800000D01*
D53*
X182050000Y-64200000D02*
X181200000Y-65050000D01*
D55*
X154700000Y-53100000D02*
X151700000Y-50100000D01*
D51*
%TO.N,Net-(U402-IN-3)*%
X161125000Y-94075000D02*
X161125000Y-92500000D01*
X160387500Y-89737500D02*
X161125000Y-90475000D01*
X161125000Y-90475000D02*
X161125000Y-92500000D01*
%TO.N,Net-(U402-IN+3)*%
X162725000Y-94075000D02*
X162725000Y-92550000D01*
X160387500Y-89087500D02*
X160899999Y-89087500D01*
X162675000Y-90862501D02*
X162675000Y-92500000D01*
X162725000Y-92550000D02*
X162675000Y-92500000D01*
X160899999Y-89087500D02*
X162675000Y-90862501D01*
%TO.N,Net-(U402-IN-2)*%
X158200000Y-90625000D02*
X158200000Y-92075000D01*
X158200000Y-92075000D02*
X157775000Y-92500000D01*
X157725000Y-92550000D02*
X157775000Y-92500000D01*
X157725000Y-94075000D02*
X157725000Y-92550000D01*
D53*
%TO.N,Net-(U403-IN+1)*%
X160387500Y-81300000D02*
X161050000Y-80637500D01*
D51*
X160762500Y-78287500D02*
X161050000Y-78000000D01*
X161050000Y-78000000D02*
X161050000Y-76475000D01*
X161000000Y-77950000D02*
X161050000Y-78000000D01*
X161050000Y-76475000D02*
X161000000Y-76425000D01*
D53*
X161050000Y-80637500D02*
X161050000Y-78000000D01*
%TO.N,Net-(U403-IN-3)*%
X156075000Y-80712500D02*
X156075000Y-78000000D01*
D51*
X156075000Y-78000000D02*
X156075000Y-76450000D01*
X156100000Y-77975000D02*
X156075000Y-78000000D01*
D53*
X156662500Y-81300000D02*
X156075000Y-80712500D01*
D51*
X156075000Y-76450000D02*
X156100000Y-76425000D01*
X156237500Y-78162500D02*
X156075000Y-78000000D01*
%TO.N,Net-(U403-IN+3)*%
X154500000Y-77975000D02*
X154525000Y-78000000D01*
D53*
X154500000Y-81300000D02*
X154525000Y-81275000D01*
X156662500Y-81950000D02*
X155150000Y-81950000D01*
D51*
X154525000Y-78000000D02*
X154525000Y-76450000D01*
X154525000Y-76450000D02*
X154500000Y-76425000D01*
D53*
X154525000Y-81275000D02*
X154525000Y-78000000D01*
X155150000Y-81950000D02*
X154500000Y-81300000D01*
%TO.N,Net-(U403-IN+2)*%
X157750000Y-78000000D02*
X157750000Y-76425000D01*
X158200000Y-78450000D02*
X157750000Y-78000000D01*
X158200000Y-80412500D02*
X158200000Y-78450000D01*
%TO.N,Net-(U403-IN-1)*%
X160387500Y-81950000D02*
X162050000Y-81950000D01*
X162600000Y-81400000D02*
X162600000Y-78000000D01*
X162050000Y-81950000D02*
X162600000Y-81400000D01*
X162600000Y-78000000D02*
X162600000Y-76425000D01*
%TO.N,Net-(U403-IN-2)*%
X159300000Y-78000000D02*
X159300000Y-76475000D01*
X159300000Y-76475000D02*
X159350000Y-76425000D01*
X158850000Y-80412500D02*
X158850000Y-78450000D01*
X158850000Y-78450000D02*
X159300000Y-78000000D01*
D52*
%TO.N,ALT_OUT_A*%
X86100000Y-42400000D02*
X86000000Y-42500000D01*
X86337500Y-36962500D02*
X86100000Y-37200000D01*
X86100000Y-37200000D02*
X86100000Y-42400000D01*
X105362500Y-36962500D02*
X86337500Y-36962500D01*
%TO.N,ALT_IN_A*%
X86378000Y-37322000D02*
X86378000Y-42000000D01*
X86459500Y-37240500D02*
X86378000Y-37322000D01*
X86378000Y-42000000D02*
X86600000Y-42222000D01*
X86600000Y-42222000D02*
X86600000Y-42700000D01*
X85600000Y-43100000D02*
X85000000Y-42500000D01*
X105362500Y-38562500D02*
X104040500Y-37240500D01*
X104040500Y-37240500D02*
X86459500Y-37240500D01*
X86600000Y-42700000D02*
X86200000Y-43100000D01*
X86200000Y-43100000D02*
X85600000Y-43100000D01*
%TO.N,ALT_OUT_B*%
X105362500Y-40237500D02*
X101962500Y-40237500D01*
X101962500Y-40237500D02*
X99700000Y-42500000D01*
X99700000Y-42500000D02*
X97600000Y-42500000D01*
%TO.N,ALT_IN_B*%
X97080000Y-42980000D02*
X96600000Y-42500000D01*
X98198000Y-42980000D02*
X97080000Y-42980000D01*
X99815151Y-42778000D02*
X98400000Y-42778000D01*
X104040500Y-40515500D02*
X102077652Y-40515500D01*
X105362500Y-41837500D02*
X104040500Y-40515500D01*
X98400000Y-42778000D02*
X98198000Y-42980000D01*
X102077652Y-40515500D02*
X99815151Y-42778000D01*
D51*
%TO.N,Net-(U401-IN+1)*%
X110537500Y-38562500D02*
X111250000Y-39275000D01*
X108487500Y-38562500D02*
X107012500Y-38562500D01*
X108487500Y-38562500D02*
X110537500Y-38562500D01*
%TO.N,Net-(U401-IN-1)*%
X107012500Y-36962500D02*
X108437500Y-36962500D01*
X110149999Y-37012500D02*
X111900000Y-38762501D01*
X111900000Y-38762501D02*
X111900000Y-39275000D01*
X108437500Y-36962500D02*
X108487500Y-37012500D01*
X108487500Y-37012500D02*
X110149999Y-37012500D01*
%TO.N,Net-(U401-IN+2)*%
X108837500Y-41462500D02*
X108487500Y-41812500D01*
X108462500Y-41837500D02*
X108487500Y-41812500D01*
X107012500Y-41837500D02*
X108462500Y-41837500D01*
X110362500Y-41462500D02*
X108837500Y-41462500D01*
%TO.N,Net-(U401-IN-2)*%
X108462500Y-40237500D02*
X108487500Y-40262500D01*
X107012500Y-40237500D02*
X108462500Y-40237500D01*
X109037500Y-40812500D02*
X108487500Y-40262500D01*
X110362500Y-40812500D02*
X109037500Y-40812500D01*
%TO.N,Net-(U401-IN+3)*%
X108437500Y-45162500D02*
X108487500Y-45112500D01*
X110299999Y-45112500D02*
X111900000Y-43512499D01*
X108487500Y-45112500D02*
X110299999Y-45112500D01*
X107012500Y-45162500D02*
X108437500Y-45162500D01*
X111900000Y-43512499D02*
X111900000Y-43000000D01*
%TO.N,Net-(U401-IN-3)*%
X107012500Y-43562500D02*
X108487500Y-43562500D01*
X111250000Y-43000000D02*
X110687500Y-43562500D01*
X110687500Y-43562500D02*
X108487500Y-43562500D01*
D55*
%TO.N,Net-(U501-VI)*%
X135200000Y-44800000D02*
X135100000Y-44700000D01*
X135200000Y-45675000D02*
X135200000Y-44800000D01*
D53*
%TO.N,Net-(D501-VCC)*%
X129700000Y-46700000D02*
X129300000Y-47100000D01*
X129300000Y-47100000D02*
X128600000Y-47100000D01*
X129700000Y-43925000D02*
X129700000Y-46700000D01*
D55*
%TO.N,Net-(D501-I{slash}O1)*%
X130500000Y-47200000D02*
X129500000Y-48200000D01*
X127100000Y-49000000D02*
X127900000Y-48200000D01*
X129500000Y-48200000D02*
X128000000Y-48200000D01*
X131375000Y-47200000D02*
X131375000Y-47375000D01*
X128925000Y-43925000D02*
X128925000Y-45800000D01*
X128925000Y-45800000D02*
X128000000Y-46725000D01*
X126625000Y-49000000D02*
X127100000Y-49000000D01*
X128000000Y-46725000D02*
X128000000Y-48200000D01*
X127900000Y-48200000D02*
X128000000Y-48200000D01*
X131475000Y-47200000D02*
X130500000Y-47200000D01*
%TO.N,Net-(D501-I{slash}O2)*%
X126000000Y-48200000D02*
X125800000Y-48400000D01*
X128125000Y-43925000D02*
X128125000Y-46136138D01*
X125800000Y-48400000D02*
X125800000Y-49300000D01*
X127800000Y-49000000D02*
X128625000Y-49000000D01*
X128125000Y-46136138D02*
X127600000Y-46661138D01*
X127200000Y-49600000D02*
X127800000Y-49000000D01*
X128625000Y-49000000D02*
X131275000Y-49000000D01*
X125800000Y-49300000D02*
X126100000Y-49600000D01*
X127600000Y-46661138D02*
X127600000Y-47800000D01*
X127600000Y-47800000D02*
X127200000Y-48200000D01*
X127200000Y-48200000D02*
X126000000Y-48200000D01*
X131275000Y-49000000D02*
X131475000Y-48800000D01*
X126100000Y-49600000D02*
X127200000Y-49600000D01*
%TO.N,Net-(U502-PA12)*%
X135875000Y-47325000D02*
X136500000Y-46700000D01*
X160637500Y-60550000D02*
X159850000Y-60550000D01*
X158968069Y-59668069D02*
X158968069Y-59031931D01*
X158968069Y-59031931D02*
X158168069Y-59031931D01*
X154672000Y-42435862D02*
X154436138Y-42200000D01*
X157772000Y-53735862D02*
X154672000Y-50635862D01*
X154672000Y-50635862D02*
X154672000Y-42435862D01*
X136500000Y-42500000D02*
X136500000Y-46700000D01*
X136800000Y-42200000D02*
X136500000Y-42500000D01*
X154436138Y-42200000D02*
X136800000Y-42200000D01*
X133125000Y-48800000D02*
X133725000Y-48800000D01*
X157772000Y-58635862D02*
X157772000Y-53735862D01*
X135200000Y-47325000D02*
X135875000Y-47325000D01*
X158168069Y-59031931D02*
X157772000Y-58635862D01*
X133725000Y-48800000D02*
X135200000Y-47325000D01*
X159850000Y-60550000D02*
X158968069Y-59668069D01*
%TO.N,Net-(U502-PA11)*%
X134400000Y-46500000D02*
X136000000Y-46500000D01*
X158100000Y-53600000D02*
X158100000Y-58500000D01*
X155000000Y-50500000D02*
X158100000Y-53600000D01*
X159100000Y-58700000D02*
X159300000Y-58900000D01*
X158100000Y-58500000D02*
X158300000Y-58700000D01*
X136172000Y-42364138D02*
X136664138Y-41872000D01*
X159300000Y-58900000D02*
X159300000Y-59449999D01*
X159300000Y-59449999D02*
X159900001Y-60050000D01*
X154572000Y-41872000D02*
X155000000Y-42300000D01*
X133125000Y-47200000D02*
X133700000Y-47200000D01*
X155000000Y-42300000D02*
X155000000Y-50500000D01*
X136000000Y-46500000D02*
X136172000Y-46328000D01*
X133700000Y-47200000D02*
X134400000Y-46500000D01*
X136172000Y-46328000D02*
X136172000Y-42364138D01*
X136664138Y-41872000D02*
X154572000Y-41872000D01*
X159900001Y-60050000D02*
X160637500Y-60050000D01*
X158300000Y-58700000D02*
X159100000Y-58700000D01*
%TO.N,Net-(U502-PD1)*%
X176400000Y-57800000D02*
X176400000Y-56950000D01*
X168962500Y-59550000D02*
X174650000Y-59550000D01*
X174650000Y-59550000D02*
X176400000Y-57800000D01*
%TO.N,Net-(U502-PD0)*%
X168962500Y-60050000D02*
X174620000Y-60050000D01*
X174620000Y-60050000D02*
X176400000Y-61830000D01*
%TO.N,Net-(U502-PC14)*%
X171100000Y-61600000D02*
X171100000Y-64400000D01*
X170550000Y-61050000D02*
X171100000Y-61600000D01*
X168962500Y-61050000D02*
X170550000Y-61050000D01*
%TO.N,Net-(U502-PC15)*%
X168962500Y-60550000D02*
X171850000Y-60550000D01*
X171850000Y-60550000D02*
X172600000Y-61300000D01*
X172600000Y-61300000D02*
X172600000Y-64400000D01*
%TO.N,Net-(U502-NRST)*%
X171025000Y-53825000D02*
X170675000Y-53475000D01*
X171025000Y-55100000D02*
X171025000Y-53825000D01*
X170675000Y-53475000D02*
X169500000Y-53475000D01*
X168962500Y-59050000D02*
X170850000Y-59050000D01*
X171000000Y-55125000D02*
X171025000Y-55100000D01*
X171900000Y-58000000D02*
X171900000Y-55975000D01*
X170850000Y-59050000D02*
X171900000Y-58000000D01*
X171900000Y-55975000D02*
X171025000Y-55100000D01*
%TO.N,Net-(U502-BOOT0)*%
X165550000Y-64350000D02*
X165172000Y-64728000D01*
X164900000Y-67000000D02*
X163675000Y-67000000D01*
X165550000Y-63462500D02*
X165550000Y-64350000D01*
X165172000Y-66728000D02*
X164900000Y-67000000D01*
X165172000Y-64728000D02*
X165172000Y-66728000D01*
%TO.N,/usb_interface/SWDIO*%
X161650000Y-61050000D02*
X160637500Y-61050000D01*
X162200000Y-70000000D02*
X161600000Y-69400000D01*
X161600000Y-64500000D02*
X161472000Y-64372000D01*
X161900000Y-61300000D02*
X161650000Y-61050000D01*
X171940000Y-67900000D02*
X171940000Y-69660000D01*
X171600000Y-70000000D02*
X162200000Y-70000000D01*
X161900000Y-62200000D02*
X161900000Y-61300000D01*
X161472000Y-64372000D02*
X161472000Y-62628000D01*
X161600000Y-69400000D02*
X161600000Y-64500000D01*
X171940000Y-69660000D02*
X171600000Y-70000000D01*
X161472000Y-62628000D02*
X161900000Y-62200000D01*
%TO.N,/usb_interface/SWDCLK*%
X169400000Y-67900000D02*
X169400000Y-69300000D01*
X162050000Y-69350000D02*
X162300000Y-69600000D01*
X162300000Y-69600000D02*
X169100000Y-69600000D01*
X169400000Y-69300000D02*
X169100000Y-69600000D01*
X162050000Y-63462500D02*
X162050000Y-69350000D01*
%TO.N,Net-(U502-PA4)*%
X167050000Y-55137500D02*
X167050000Y-54400001D01*
X167953295Y-54100000D02*
X168300000Y-54446705D01*
X167350001Y-54100000D02*
X167953295Y-54100000D01*
X168300000Y-54446705D02*
X168300000Y-54800000D01*
X167050000Y-54400001D02*
X167350001Y-54100000D01*
%TO.N,Net-(U502-PA5)*%
X166550000Y-55137500D02*
X166550000Y-53950000D01*
X166800000Y-53700000D02*
X168300000Y-53700000D01*
X166550000Y-53950000D02*
X166800000Y-53700000D01*
%TD*%
%TA.AperFunction,Conductor*%
%TO.N,VBUS_OUT_VDDQ*%
G36*
X119878326Y-73921674D02*
G01*
X119900000Y-73974000D01*
X119900000Y-76626000D01*
X119878326Y-76678326D01*
X119826000Y-76700000D01*
X115574000Y-76700000D01*
X115521674Y-76678326D01*
X115500000Y-76626000D01*
X115500000Y-73974000D01*
X115521674Y-73921674D01*
X115574000Y-73900000D01*
X119826000Y-73900000D01*
X119878326Y-73921674D01*
G37*
%TD.AperFunction*%
%TD*%
%TA.AperFunction,Conductor*%
%TO.N,VBUS_OUT_12V*%
G36*
X83478326Y-74021674D02*
G01*
X83500000Y-74074000D01*
X83500000Y-76726000D01*
X83478326Y-76778326D01*
X83426000Y-76800000D01*
X79174000Y-76800000D01*
X79121674Y-76778326D01*
X79100000Y-76726000D01*
X79100000Y-74074000D01*
X79121674Y-74021674D01*
X79174000Y-74000000D01*
X83426000Y-74000000D01*
X83478326Y-74021674D01*
G37*
%TD.AperFunction*%
%TD*%
%TA.AperFunction,Conductor*%
%TO.N,VBUS_IN_3.3V*%
G36*
X112878326Y-85321674D02*
G01*
X112900000Y-85374000D01*
X112900000Y-88026000D01*
X112878326Y-88078326D01*
X112826000Y-88100000D01*
X108574000Y-88100000D01*
X108521674Y-88078326D01*
X108500000Y-88026000D01*
X108500000Y-85374000D01*
X108521674Y-85321674D01*
X108574000Y-85300000D01*
X112826000Y-85300000D01*
X112878326Y-85321674D01*
G37*
%TD.AperFunction*%
%TD*%
%TA.AperFunction,Conductor*%
%TO.N,VBUS_IN_5V*%
G36*
X90478326Y-85421674D02*
G01*
X90500000Y-85474000D01*
X90500000Y-88126000D01*
X90478326Y-88178326D01*
X90426000Y-88200000D01*
X86174000Y-88200000D01*
X86121674Y-88178326D01*
X86100000Y-88126000D01*
X86100000Y-85474000D01*
X86121674Y-85421674D01*
X86174000Y-85400000D01*
X90426000Y-85400000D01*
X90478326Y-85421674D01*
G37*
%TD.AperFunction*%
%TD*%
%TA.AperFunction,Conductor*%
%TO.N,VBUS_OUT_3.3V*%
G36*
X112778326Y-73921674D02*
G01*
X112800000Y-73974000D01*
X112800000Y-76626000D01*
X112778326Y-76678326D01*
X112726000Y-76700000D01*
X108474000Y-76700000D01*
X108421674Y-76678326D01*
X108400000Y-76626000D01*
X108400000Y-73974000D01*
X108421674Y-73921674D01*
X108474000Y-73900000D01*
X112726000Y-73900000D01*
X112778326Y-73921674D01*
G37*
%TD.AperFunction*%
%TD*%
%TA.AperFunction,Conductor*%
%TO.N,VBUS_IN_VDDQ*%
G36*
X119878326Y-85321674D02*
G01*
X119900000Y-85374000D01*
X119900000Y-88026000D01*
X119878326Y-88078326D01*
X119826000Y-88100000D01*
X115574000Y-88100000D01*
X115521674Y-88078326D01*
X115500000Y-88026000D01*
X115500000Y-85374000D01*
X115521674Y-85321674D01*
X115574000Y-85300000D01*
X119826000Y-85300000D01*
X119878326Y-85321674D01*
G37*
%TD.AperFunction*%
%TD*%
%TA.AperFunction,Conductor*%
%TO.N,VBUS_OUT_5V*%
G36*
X90478326Y-74021674D02*
G01*
X90500000Y-74074000D01*
X90500000Y-76726000D01*
X90478326Y-76778326D01*
X90426000Y-76800000D01*
X86174000Y-76800000D01*
X86121674Y-76778326D01*
X86100000Y-76726000D01*
X86100000Y-74074000D01*
X86121674Y-74021674D01*
X86174000Y-74000000D01*
X90426000Y-74000000D01*
X90478326Y-74021674D01*
G37*
%TD.AperFunction*%
%TD*%
%TA.AperFunction,Conductor*%
%TO.N,VBUS_IN_12V*%
G36*
X83478326Y-85421674D02*
G01*
X83500000Y-85474000D01*
X83500000Y-88126000D01*
X83478326Y-88178326D01*
X83426000Y-88200000D01*
X79174000Y-88200000D01*
X79121674Y-88178326D01*
X79100000Y-88126000D01*
X79100000Y-85474000D01*
X79121674Y-85421674D01*
X79174000Y-85400000D01*
X83426000Y-85400000D01*
X83478326Y-85421674D01*
G37*
%TD.AperFunction*%
%TD*%
M02*
